M48
INCH
T1C0.0157
T2C0.0197
T3C0.0197
T4C0.0394
%
G90
G05
T1
X0.9252Y1.7441
X0.9252Y1.7205
X0.9252Y1.6969
X0.9252Y1.6732
X0.9252Y1.6496
X0.9252Y1.626
X0.9252Y1.6024
X0.9252Y1.5787
X0.9252Y1.5551
X0.9252Y1.5315
X0.9252Y1.5079
X0.9252Y1.4843
X0.9252Y1.4606
X0.9252Y1.437
X0.9252Y1.4134
X0.9252Y1.3898
X0.9252Y1.3661
X0.9717Y1.1752
X0.9862Y1.505
X1.0039Y1.4301
X1.0335Y1.7224
X1.0436Y1.2872
X1.0602Y1.3869
X1.0679Y1.3483
X1.1129Y1.2982
X1.1181Y1.4134
X1.1437Y1.1981
X1.1575Y1.4213
X1.205Y1.6872
X1.2106Y1.1024
X1.214Y1.3736
X1.374Y1.6063
X1.4213Y1.6024
X1.5354Y1.6024
X1.5709Y1.1532
X1.5945Y1.0433
X1.6163Y1.1885
X1.6171Y1.2297
X1.622Y1.6004
X1.6472Y1.341
X1.6794Y1.4747
X1.7087Y1.6004
X1.7244Y1.4764
X1.7559Y1.6043
X1.7713Y1.5368
X1.7717Y1.2717
X1.7756Y1.3465
X1.8496Y1.3295
X1.9094Y1.248
X1.9528Y1.6161
X2.0063Y1.3504
X2.0354Y1.4055
X2.0599Y1.3181
X2.117Y1.2161
X2.1693Y1.0118
X2.2061Y1.4218
X2.2065Y1.5263
X2.2067Y1.4843
X2.207Y1.3742
X2.2097Y1.0758
X2.378Y1.2008
X2.4055Y1.0315
X2.4094Y1.6575
T2
X0.5906Y1.6929
X0.5906Y1.5354
X0.5906Y1.2205
X0.5906Y1.063
X0.9685Y1.0354
X1.0182Y1.215
X1.0276Y1.0879
X1.0374Y1.5453
X1.0637Y1.2001
X1.1811Y1.4823
X1.2087Y1.6417
X1.2126Y1.0492
X1.311Y1.5354
X1.5329Y1.2481
X1.6654Y1.5827
X1.8937Y1.6909
X1.9104Y1.408
X1.9547Y1.6949
X2.1101Y1.6683
X2.2274Y1.1614
X2.315Y1.6693
T4
X1.378Y2.6181
X1.378Y0.1378
X1.4173Y1.2205
X1.7323Y1.2205
T3
G00X2.1681Y1.6189
M15
G01X2.1996Y1.6189
M16
G05
G00X2.1681Y1.2787
M15
G01X2.1996Y1.2787
M16
G05
G00X2.339Y1.6189
M15
G01X2.3587Y1.6189
M16
G05
G00X2.339Y1.2787
M15
G01X2.3587Y1.2787
M16
G05
M30
