%TF.GenerationSoftware,KiCad,Pcbnew,8.0.5*%
%TF.CreationDate,2024-12-20T09:27:37+00:00*%
%TF.ProjectId,Recorder,5265636f-7264-4657-922e-6b696361645f,1*%
%TF.SameCoordinates,Original*%
%TF.FileFunction,Profile,NP*%
%FSLAX46Y46*%
G04 Gerber Fmt 4.6, Leading zero omitted, Abs format (unit mm)*
G04 Created by KiCad (PCBNEW 8.0.5) date 2024-12-20 09:27:37*
%MOMM*%
%LPD*%
G01*
G04 APERTURE LIST*
%TA.AperFunction,Profile*%
%ADD10C,0.050000*%
%TD*%
%TA.AperFunction,Profile*%
%ADD11C,0.120000*%
%TD*%
G04 APERTURE END LIST*
D10*
X30500000Y45000000D02*
G75*
G02*
X30000000Y45500000I0J500000D01*
G01*
X60000000Y23000000D02*
X63000000Y23000000D01*
X64000000Y40000000D02*
X67500000Y40000000D01*
X30000000Y45500000D02*
X30000000Y48000000D01*
X64000000Y30000000D02*
X67500000Y30000000D01*
X60000000Y47000000D02*
X63000000Y47000000D01*
X25000000Y25000000D02*
G75*
G02*
X23500000Y26500000I0J1500000D01*
G01*
X31000000Y43500000D02*
X31000000Y44500000D01*
X17500000Y30500000D02*
X17500000Y26851638D01*
X55500000Y25000000D02*
X55500000Y24000000D01*
X63000000Y47000000D02*
G75*
G02*
X64000000Y46000000I0J-1000000D01*
G01*
X16000000Y32000000D02*
G75*
G02*
X17500000Y30500000I0J-1500000D01*
G01*
X23500000Y32000000D02*
X23500000Y26500000D01*
X47500000Y48500000D02*
G75*
G02*
X48000000Y48000000I0J-500000D01*
G01*
X18000000Y23000000D02*
G75*
G02*
X18000000Y47000000I0J12000000D01*
G01*
X56500000Y23000000D02*
G75*
G02*
X55500000Y24000000I0J1000000D01*
G01*
X60000000Y45000000D02*
G75*
G02*
X62000000Y43000000I0J-2000000D01*
G01*
X47000000Y43500000D02*
G75*
G02*
X46500000Y43000000I-500000J0D01*
G01*
X17500000Y38000000D02*
G75*
G02*
X23500000Y32000000I0J-6000000D01*
G01*
X64000000Y24000000D02*
G75*
G02*
X63000000Y23000000I-1000000J0D01*
G01*
X30500000Y45000000D02*
G75*
G02*
X31000000Y44500000I0J-500000D01*
G01*
X25000000Y25000000D02*
G75*
G02*
X25000000Y23000000I0J-1000000D01*
G01*
X60000000Y45000000D02*
G75*
G02*
X60000000Y47000000I0J1000000D01*
G01*
X68000000Y39500000D02*
X68000000Y30500000D01*
X30000000Y48000000D02*
G75*
G02*
X30500000Y48500000I500000J0D01*
G01*
X47000000Y44500000D02*
G75*
G02*
X47500000Y45000000I500000J0D01*
G01*
X60000000Y23000000D02*
X56500000Y23000000D01*
X62000000Y27000000D02*
G75*
G02*
X60000000Y25000000I-2000000J0D01*
G01*
X67500000Y40000000D02*
G75*
G02*
X68000000Y39500000I0J-500000D01*
G01*
X31500000Y43000000D02*
G75*
G02*
X31000000Y43500000I0J500000D01*
G01*
X62000000Y43000000D02*
X62000000Y27000000D01*
X16000000Y32000000D02*
G75*
G02*
X16000000Y38000000I0J3000000D01*
G01*
X64000000Y24000000D02*
X64000000Y30000000D01*
X48000000Y45500000D02*
X48000000Y48000000D01*
X64000000Y40000000D02*
X64000000Y46000000D01*
X31500000Y43000000D02*
X46500000Y43000000D01*
X48000000Y45500000D02*
G75*
G02*
X47500000Y45000000I-500000J0D01*
G01*
X47000000Y43500000D02*
X47000000Y44500000D01*
X30500000Y48500000D02*
X47500000Y48500000D01*
X15434233Y25334761D02*
G75*
G02*
X18000000Y45000000I2565767J9665239D01*
G01*
X18000000Y47000000D02*
G75*
G02*
X18000000Y45000000I0J-1000000D01*
G01*
X16000000Y38000000D02*
X17500000Y38000000D01*
X25000000Y23000000D02*
X18000000Y23000000D01*
X55500000Y25000000D02*
X60000000Y25000000D01*
X68000000Y30500000D02*
G75*
G02*
X67500000Y30000000I-500000J0D01*
G01*
X17500000Y26851638D02*
G75*
G02*
X15435627Y25340010I-1585600J-38D01*
G01*
D11*
%TO.C,PCB1*%
X0Y70000000D02*
X70000000Y70000000D01*
X0Y0D02*
X0Y70000000D01*
X70000000Y70000000D02*
X70000000Y0D01*
X70000000Y0D02*
X0Y0D01*
%TD*%
M02*
