%TF.GenerationSoftware,KiCad,Pcbnew,8.0.5*%
%TF.CreationDate,2024-12-20T09:27:37+00:00*%
%TF.ProjectId,Recorder,5265636f-7264-4657-922e-6b696361645f,1*%
%TF.SameCoordinates,Original*%
%TF.FileFunction,Copper,L1,Top*%
%TF.FilePolarity,Positive*%
%FSLAX46Y46*%
G04 Gerber Fmt 4.6, Leading zero omitted, Abs format (unit mm)*
G04 Created by KiCad (PCBNEW 8.0.5) date 2024-12-20 09:27:37*
%MOMM*%
%LPD*%
G01*
G04 APERTURE LIST*
G04 Aperture macros list*
%AMRoundRect*
0 Rectangle with rounded corners*
0 $1 Rounding radius*
0 $2 $3 $4 $5 $6 $7 $8 $9 X,Y pos of 4 corners*
0 Add a 4 corners polygon primitive as box body*
4,1,4,$2,$3,$4,$5,$6,$7,$8,$9,$2,$3,0*
0 Add four circle primitives for the rounded corners*
1,1,$1+$1,$2,$3*
1,1,$1+$1,$4,$5*
1,1,$1+$1,$6,$7*
1,1,$1+$1,$8,$9*
0 Add four rect primitives between the rounded corners*
20,1,$1+$1,$2,$3,$4,$5,0*
20,1,$1+$1,$4,$5,$6,$7,0*
20,1,$1+$1,$6,$7,$8,$9,0*
20,1,$1+$1,$8,$9,$2,$3,0*%
%AMRotRect*
0 Rectangle, with rotation*
0 The origin of the aperture is its center*
0 $1 length*
0 $2 width*
0 $3 Rotation angle, in degrees counterclockwise*
0 Add horizontal line*
21,1,$1,$2,0,0,$3*%
%AMOutline5P*
0 Free polygon, 5 corners , with rotation*
0 The origin of the aperture is its center*
0 number of corners: always 5*
0 $1 to $10 corner X, Y*
0 $11 Rotation angle, in degrees counterclockwise*
0 create outline with 5 corners*
4,1,5,$1,$2,$3,$4,$5,$6,$7,$8,$9,$10,$1,$2,$11*%
%AMOutline6P*
0 Free polygon, 6 corners , with rotation*
0 The origin of the aperture is its center*
0 number of corners: always 6*
0 $1 to $12 corner X, Y*
0 $13 Rotation angle, in degrees counterclockwise*
0 create outline with 6 corners*
4,1,6,$1,$2,$3,$4,$5,$6,$7,$8,$9,$10,$11,$12,$1,$2,$13*%
%AMOutline7P*
0 Free polygon, 7 corners , with rotation*
0 The origin of the aperture is its center*
0 number of corners: always 7*
0 $1 to $14 corner X, Y*
0 $15 Rotation angle, in degrees counterclockwise*
0 create outline with 7 corners*
4,1,7,$1,$2,$3,$4,$5,$6,$7,$8,$9,$10,$11,$12,$13,$14,$1,$2,$15*%
%AMOutline8P*
0 Free polygon, 8 corners , with rotation*
0 The origin of the aperture is its center*
0 number of corners: always 8*
0 $1 to $16 corner X, Y*
0 $17 Rotation angle, in degrees counterclockwise*
0 create outline with 8 corners*
4,1,8,$1,$2,$3,$4,$5,$6,$7,$8,$9,$10,$11,$12,$13,$14,$15,$16,$1,$2,$17*%
G04 Aperture macros list end*
%TA.AperFunction,SMDPad,CuDef*%
%ADD10RoundRect,0.135000X0.185000X-0.135000X0.185000X0.135000X-0.185000X0.135000X-0.185000X-0.135000X0*%
%TD*%
%TA.AperFunction,SMDPad,CuDef*%
%ADD11Outline5P,-0.225000X0.198000X-0.198000X0.225000X0.225000X0.225000X0.225000X-0.225000X-0.225000X-0.225000X45.000000*%
%TD*%
%TA.AperFunction,SMDPad,CuDef*%
%ADD12RotRect,0.480000X0.480000X45.000000*%
%TD*%
%TA.AperFunction,SMDPad,CuDef*%
%ADD13Outline5P,-0.225000X0.198000X-0.198000X0.225000X0.225000X0.225000X0.225000X-0.225000X-0.225000X-0.225000X225.000000*%
%TD*%
%TA.AperFunction,SMDPad,CuDef*%
%ADD14RoundRect,0.150000X-0.512500X-0.150000X0.512500X-0.150000X0.512500X0.150000X-0.512500X0.150000X0*%
%TD*%
%TA.AperFunction,SMDPad,CuDef*%
%ADD15Outline5P,-0.225000X0.198000X-0.198000X0.225000X0.225000X0.225000X0.225000X-0.225000X-0.225000X-0.225000X90.000000*%
%TD*%
%TA.AperFunction,SMDPad,CuDef*%
%ADD16R,0.480000X0.480000*%
%TD*%
%TA.AperFunction,SMDPad,CuDef*%
%ADD17Outline5P,-0.225000X0.198000X-0.198000X0.225000X0.225000X0.225000X0.225000X-0.225000X-0.225000X-0.225000X270.000000*%
%TD*%
%TA.AperFunction,SMDPad,CuDef*%
%ADD18C,2.000000*%
%TD*%
%TA.AperFunction,SMDPad,CuDef*%
%ADD19RoundRect,0.175000X-0.175000X0.175000X-0.175000X-0.175000X0.175000X-0.175000X0.175000X0.175000X0*%
%TD*%
%TA.AperFunction,SMDPad,CuDef*%
%ADD20RoundRect,0.135000X0.135000X0.185000X-0.135000X0.185000X-0.135000X-0.185000X0.135000X-0.185000X0*%
%TD*%
%TA.AperFunction,SMDPad,CuDef*%
%ADD21RoundRect,0.250000X-0.925000X0.412500X-0.925000X-0.412500X0.925000X-0.412500X0.925000X0.412500X0*%
%TD*%
%TA.AperFunction,SMDPad,CuDef*%
%ADD22RoundRect,0.151200X-0.168800X0.118800X-0.168800X-0.118800X0.168800X-0.118800X0.168800X0.118800X0*%
%TD*%
%TA.AperFunction,SMDPad,CuDef*%
%ADD23RoundRect,0.150000X0.512500X0.150000X-0.512500X0.150000X-0.512500X-0.150000X0.512500X-0.150000X0*%
%TD*%
%TA.AperFunction,SMDPad,CuDef*%
%ADD24Outline5P,-0.225000X0.198000X-0.198000X0.225000X0.225000X0.225000X0.225000X-0.225000X-0.225000X-0.225000X0.000000*%
%TD*%
%TA.AperFunction,SMDPad,CuDef*%
%ADD25Outline5P,-0.225000X0.198000X-0.198000X0.225000X0.225000X0.225000X0.225000X-0.225000X-0.225000X-0.225000X180.000000*%
%TD*%
%TA.AperFunction,SMDPad,CuDef*%
%ADD26R,1.140000X0.600000*%
%TD*%
%TA.AperFunction,SMDPad,CuDef*%
%ADD27RoundRect,0.075000X0.495000X-0.075000X0.495000X0.075000X-0.495000X0.075000X-0.495000X-0.075000X0*%
%TD*%
%TA.AperFunction,ComponentPad*%
%ADD28O,1.600000X0.800000*%
%TD*%
%TA.AperFunction,ComponentPad*%
%ADD29O,1.300000X0.800000*%
%TD*%
%TA.AperFunction,SMDPad,CuDef*%
%ADD30R,4.800000X7.500000*%
%TD*%
%TA.AperFunction,SMDPad,CuDef*%
%ADD31RoundRect,0.225000X-0.225000X-0.375000X0.225000X-0.375000X0.225000X0.375000X-0.225000X0.375000X0*%
%TD*%
%TA.AperFunction,SMDPad,CuDef*%
%ADD32RoundRect,0.137500X-0.137500X-0.187500X0.137500X-0.187500X0.137500X0.187500X-0.137500X0.187500X0*%
%TD*%
%TA.AperFunction,FiducialPad,Local*%
%ADD33C,1.000000*%
%TD*%
%TA.AperFunction,SMDPad,CuDef*%
%ADD34C,1.000000*%
%TD*%
%TA.AperFunction,ComponentPad*%
%ADD35C,2.000000*%
%TD*%
%TA.AperFunction,SMDPad,CuDef*%
%ADD36RoundRect,0.135000X-0.135000X-0.185000X0.135000X-0.185000X0.135000X0.185000X-0.135000X0.185000X0*%
%TD*%
%TA.AperFunction,SMDPad,CuDef*%
%ADD37RoundRect,0.200000X0.200000X0.275000X-0.200000X0.275000X-0.200000X-0.275000X0.200000X-0.275000X0*%
%TD*%
%TA.AperFunction,SMDPad,CuDef*%
%ADD38RoundRect,0.151200X-0.118800X-0.168800X0.118800X-0.168800X0.118800X0.168800X-0.118800X0.168800X0*%
%TD*%
%TA.AperFunction,SMDPad,CuDef*%
%ADD39RoundRect,0.151200X0.118800X0.168800X-0.118800X0.168800X-0.118800X-0.168800X0.118800X-0.168800X0*%
%TD*%
%TA.AperFunction,SMDPad,CuDef*%
%ADD40R,2.100000X2.900000*%
%TD*%
%TA.AperFunction,SMDPad,CuDef*%
%ADD41R,0.500000X1.600000*%
%TD*%
%TA.AperFunction,SMDPad,CuDef*%
%ADD42RoundRect,0.150000X0.587500X0.150000X-0.587500X0.150000X-0.587500X-0.150000X0.587500X-0.150000X0*%
%TD*%
%TA.AperFunction,SMDPad,CuDef*%
%ADD43RoundRect,0.250000X0.475000X-0.250000X0.475000X0.250000X-0.475000X0.250000X-0.475000X-0.250000X0*%
%TD*%
%TA.AperFunction,SMDPad,CuDef*%
%ADD44RoundRect,0.135000X-0.185000X0.135000X-0.185000X-0.135000X0.185000X-0.135000X0.185000X0.135000X0*%
%TD*%
%TA.AperFunction,SMDPad,CuDef*%
%ADD45R,0.800000X0.400000*%
%TD*%
%TA.AperFunction,SMDPad,CuDef*%
%ADD46R,0.400000X0.800000*%
%TD*%
%TA.AperFunction,SMDPad,CuDef*%
%ADD47Outline5P,-0.600000X0.000000X0.000000X0.600000X0.600000X0.600000X0.600000X-0.600000X-0.600000X-0.600000X0.000000*%
%TD*%
%TA.AperFunction,SMDPad,CuDef*%
%ADD48R,1.200000X1.200000*%
%TD*%
%TA.AperFunction,SMDPad,CuDef*%
%ADD49R,0.800000X0.800000*%
%TD*%
%TA.AperFunction,SMDPad,CuDef*%
%ADD50RoundRect,0.151200X0.168800X-0.118800X0.168800X0.118800X-0.168800X0.118800X-0.168800X-0.118800X0*%
%TD*%
%TA.AperFunction,ComponentPad*%
%ADD51C,1.200000*%
%TD*%
%TA.AperFunction,ViaPad*%
%ADD52C,0.800000*%
%TD*%
%TA.AperFunction,ViaPad*%
%ADD53C,1.000000*%
%TD*%
%TA.AperFunction,Conductor*%
%ADD54C,0.500000*%
%TD*%
%TA.AperFunction,Conductor*%
%ADD55C,0.250000*%
%TD*%
%TA.AperFunction,Conductor*%
%ADD56C,1.000000*%
%TD*%
%TA.AperFunction,Conductor*%
%ADD57C,0.800000*%
%TD*%
%TA.AperFunction,Conductor*%
%ADD58C,0.200000*%
%TD*%
%TA.AperFunction,Conductor*%
%ADD59C,0.400000*%
%TD*%
G04 APERTURE END LIST*
D10*
%TO.P,R10,1*%
%TO.N,+3V3*%
X36450000Y25700000D03*
%TO.P,R10,2*%
%TO.N,SDDAT0*%
X36450000Y26700000D03*
%TD*%
D11*
%TO.P,D6,1,O*%
%TO.N,unconnected-(D6-O-Pad1)*%
X59498959Y43200000D03*
D12*
%TO.P,D6,2,+*%
%TO.N,+3V3*%
X60100000Y43801041D03*
%TO.P,D6,3,-*%
%TO.N,GND*%
X60100000Y42598959D03*
D13*
%TO.P,D6,4,I*%
%TO.N,Net-(D1-O)*%
X60701041Y43200000D03*
%TD*%
D10*
%TO.P,R11,1*%
%TO.N,+3V3*%
X35600000Y25700000D03*
%TO.P,R11,2*%
%TO.N,SDCLK*%
X35600000Y26700000D03*
%TD*%
D14*
%TO.P,U3,1,STAT*%
%TO.N,CHARGING*%
X50062500Y39750000D03*
%TO.P,U3,2,VSS*%
%TO.N,GND*%
X50062500Y38800000D03*
%TO.P,U3,3,VBAT*%
%TO.N,VBAT*%
X50062500Y37850000D03*
%TO.P,U3,4,VDD*%
%TO.N,VBUS*%
X52337500Y37850000D03*
%TO.P,U3,5,PROG*%
%TO.N,Net-(U3-PROG)*%
X52337500Y39750000D03*
%TD*%
D10*
%TO.P,R12,1*%
%TO.N,+3V3*%
X34750000Y25700000D03*
%TO.P,R12,2*%
%TO.N,SDCMD*%
X34750000Y26700000D03*
%TD*%
%TO.P,R13,1*%
%TO.N,+3V3*%
X33900000Y25700000D03*
%TO.P,R13,2*%
%TO.N,SDDAT3*%
X33900000Y26700000D03*
%TD*%
D15*
%TO.P,D5,1,O*%
%TO.N,Net-(D4-I)*%
X29875000Y30575000D03*
D16*
%TO.P,D5,2,+*%
%TO.N,+3V3*%
X29875000Y31425000D03*
%TO.P,D5,3,-*%
%TO.N,GND*%
X30725000Y30575000D03*
D17*
%TO.P,D5,4,I*%
%TO.N,LEDMIC*%
X30725000Y31425000D03*
%TD*%
D18*
%TO.P,J2,1,Pin_1*%
%TO.N,GND*%
X21810000Y41000000D03*
%TO.P,J2,2,Pin_2*%
%TO.N,Net-(J2-Pin_2)*%
X25190000Y41000000D03*
%TD*%
D10*
%TO.P,R3,1*%
%TO.N,+3V3*%
X38150000Y25700000D03*
%TO.P,R3,2*%
%TO.N,SDCD*%
X38150000Y26700000D03*
%TD*%
D19*
%TO.P,SW1,1,1*%
%TO.N,GND*%
X29000000Y38650000D03*
%TO.P,SW1,2,2*%
%TO.N,BUTTON*%
X29000000Y31350000D03*
%TD*%
D20*
%TO.P,R2,1*%
%TO.N,+3V3*%
X48236837Y40630000D03*
%TO.P,R2,2*%
%TO.N,Net-(U6-EN)*%
X47236837Y40630000D03*
%TD*%
D21*
%TO.P,C1,1*%
%TO.N,+3V3*%
X50400000Y33037500D03*
%TO.P,C1,2*%
%TO.N,GND*%
X50400000Y29962500D03*
%TD*%
D22*
%TO.P,C11,1*%
%TO.N,VBUS*%
X53200000Y34000000D03*
%TO.P,C11,2*%
%TO.N,GND*%
X53200000Y33000000D03*
%TD*%
D23*
%TO.P,U4,1,IN*%
%TO.N,Net-(D3-K)*%
X51937500Y42250000D03*
%TO.P,U4,2,GND*%
%TO.N,GND*%
X51937500Y43200000D03*
%TO.P,U4,3,EN*%
%TO.N,Net-(D3-K)*%
X51937500Y44150000D03*
%TO.P,U4,4,NC*%
%TO.N,unconnected-(U4-NC-Pad4)*%
X49662500Y44150000D03*
%TO.P,U4,5,OUT*%
%TO.N,+3V3*%
X49662500Y42250000D03*
%TD*%
D24*
%TO.P,D4,1,O*%
%TO.N,unconnected-(D4-O-Pad1)*%
X29875000Y39425000D03*
D16*
%TO.P,D4,2,+*%
%TO.N,+3V3*%
X30725000Y39425000D03*
%TO.P,D4,3,-*%
%TO.N,GND*%
X29875000Y38575000D03*
D25*
%TO.P,D4,4,I*%
%TO.N,Net-(D4-I)*%
X30725000Y38575000D03*
%TD*%
D26*
%TO.P,J5,A1,GND*%
%TO.N,GND*%
X54890000Y33600000D03*
%TO.P,J5,A4,VBUS*%
%TO.N,VBUS*%
X54890000Y34400000D03*
D27*
%TO.P,J5,A5,CC1*%
%TO.N,Net-(J5-CC1)*%
X54890000Y35550000D03*
%TO.P,J5,A6,D+*%
%TO.N,D+*%
X54890000Y36550000D03*
%TO.P,J5,A7,D-*%
%TO.N,D-*%
X54890000Y37050000D03*
%TO.P,J5,A8,SBU1*%
%TO.N,unconnected-(J5-SBU1-PadA8)*%
X54890000Y38050000D03*
D26*
%TO.P,J5,A9,VBUS*%
%TO.N,VBUS*%
X54890000Y39200000D03*
%TO.P,J5,A12,GND*%
%TO.N,GND*%
X54890000Y40000000D03*
%TO.P,J5,B1,GND*%
X54890000Y40000000D03*
%TO.P,J5,B4,VBUS*%
%TO.N,VBUS*%
X54890000Y39200000D03*
D27*
%TO.P,J5,B5,CC2*%
%TO.N,Net-(J5-CC2)*%
X54890000Y38550000D03*
%TO.P,J5,B6,D+*%
%TO.N,D+*%
X54890000Y37550000D03*
%TO.P,J5,B7,D-*%
%TO.N,D-*%
X54890000Y36050000D03*
%TO.P,J5,B8,SBU2*%
%TO.N,unconnected-(J5-SBU2-PadB8)*%
X54890000Y35050000D03*
D26*
%TO.P,J5,B9,VBUS*%
%TO.N,VBUS*%
X54890000Y34400000D03*
%TO.P,J5,B12,GND*%
%TO.N,GND*%
X54890000Y33600000D03*
D28*
%TO.P,J5,S1,SHIELD*%
X55470000Y32480000D03*
D29*
X59660000Y32480000D03*
D30*
X59100000Y36800000D03*
D28*
X55470000Y41120000D03*
D29*
X59660000Y41120000D03*
%TD*%
D10*
%TO.P,R14,1*%
%TO.N,+3V3*%
X33050000Y25700000D03*
%TO.P,R14,2*%
%TO.N,SDDAT2*%
X33050000Y26700000D03*
%TD*%
D20*
%TO.P,R1,1*%
%TO.N,GND*%
X52950000Y40900000D03*
%TO.P,R1,2*%
%TO.N,Net-(U3-PROG)*%
X51950000Y40900000D03*
%TD*%
D25*
%TO.P,D1,1,O*%
%TO.N,Net-(D1-O)*%
X52625000Y27175000D03*
D16*
%TO.P,D1,2,+*%
%TO.N,+3V3*%
X51775000Y27175000D03*
%TO.P,D1,3,-*%
%TO.N,GND*%
X52625000Y28025000D03*
D24*
%TO.P,D1,4,I*%
%TO.N,BLINK*%
X51775000Y28025000D03*
%TD*%
D22*
%TO.P,C9,1*%
%TO.N,Net-(U6-EN)*%
X47625000Y39560000D03*
%TO.P,C9,2*%
%TO.N,GND*%
X47625000Y38560000D03*
%TD*%
D31*
%TO.P,D3,1,K*%
%TO.N,Net-(D3-K)*%
X54550000Y43600000D03*
%TO.P,D3,2,A*%
%TO.N,VBUS*%
X57850000Y43600000D03*
%TD*%
D32*
%TO.P,D2,1*%
%TO.N,GND*%
X49075000Y36700000D03*
%TO.P,D2,2*%
%TO.N,VBAT*%
X49925000Y36700000D03*
%TD*%
D33*
%TO.P,PCB1,*%
%TO.N,*%
X10000000Y66150000D03*
X10000000Y3850000D03*
D34*
X32000000Y66500000D03*
D35*
X35000000Y66500000D03*
X35000000Y3500000D03*
D34*
X38000000Y3500000D03*
D33*
X60000000Y66150000D03*
X60000000Y3850000D03*
%TD*%
D36*
%TO.P,R7,1*%
%TO.N,Net-(U6-GPIO41)*%
X52400000Y35700000D03*
%TO.P,R7,2*%
%TO.N,VBUS*%
X53400000Y35700000D03*
%TD*%
D37*
%TO.P,C3,1*%
%TO.N,+3V3*%
X49675000Y34500000D03*
%TO.P,C3,2*%
%TO.N,GND*%
X48125000Y34500000D03*
%TD*%
D36*
%TO.P,R5,1*%
%TO.N,Net-(J5-CC1)*%
X55000000Y31300000D03*
%TO.P,R5,2*%
%TO.N,GND*%
X56000000Y31300000D03*
%TD*%
D22*
%TO.P,C2,1*%
%TO.N,+3V3*%
X47500000Y36600000D03*
%TO.P,C2,2*%
%TO.N,GND*%
X47500000Y35600000D03*
%TD*%
D38*
%TO.P,C4,1*%
%TO.N,+3V3*%
X51300000Y26200000D03*
%TO.P,C4,2*%
%TO.N,GND*%
X52300000Y26200000D03*
%TD*%
D36*
%TO.P,R6,1*%
%TO.N,GND*%
X59200000Y31300000D03*
%TO.P,R6,2*%
%TO.N,Net-(J5-CC2)*%
X60200000Y31300000D03*
%TD*%
D39*
%TO.P,C10,1*%
%TO.N,+3V3*%
X58000000Y41900000D03*
%TO.P,C10,2*%
%TO.N,GND*%
X57000000Y41900000D03*
%TD*%
D40*
%TO.P,J1,*%
%TO.N,*%
X60666000Y28325000D03*
X54334000Y28325000D03*
D41*
%TO.P,J1,1,Pin_1*%
%TO.N,VBAT*%
X58134000Y31175000D03*
%TO.P,J1,2,Pin_2*%
%TO.N,GND*%
X56884000Y31175000D03*
%TD*%
D42*
%TO.P,Q2,1,G*%
%TO.N,VBUS*%
X52237500Y34750000D03*
%TO.P,Q2,2,S*%
%TO.N,Net-(D3-K)*%
X52237500Y36650000D03*
%TO.P,Q2,3,D*%
%TO.N,VBAT*%
X50362500Y35700000D03*
%TD*%
D43*
%TO.P,C16,1*%
%TO.N,+3V3*%
X48050000Y41750000D03*
%TO.P,C16,2*%
%TO.N,GND*%
X48050000Y43650000D03*
%TD*%
D22*
%TO.P,C6,1*%
%TO.N,+3V3*%
X28000000Y39500000D03*
%TO.P,C6,2*%
%TO.N,GND*%
X28000000Y38500000D03*
%TD*%
D10*
%TO.P,R9,1*%
%TO.N,+3V3*%
X37300000Y25700000D03*
%TO.P,R9,2*%
%TO.N,SDDAT1*%
X37300000Y26700000D03*
%TD*%
D22*
%TO.P,C5,1*%
%TO.N,+3V3*%
X28000000Y31500000D03*
%TO.P,C5,2*%
%TO.N,GND*%
X28000000Y30500000D03*
%TD*%
D44*
%TO.P,R8,1*%
%TO.N,VBUS*%
X52600000Y30700000D03*
%TO.P,R8,2*%
%TO.N,GND*%
X52600000Y29700000D03*
%TD*%
D45*
%TO.P,U6,1,GND*%
%TO.N,GND*%
X32000000Y40950000D03*
%TO.P,U6,2,GND*%
X32000000Y40100000D03*
%TO.P,U6,3,3V3*%
%TO.N,+3V3*%
X32000000Y39250000D03*
%TO.P,U6,4,GPIO0*%
%TO.N,unconnected-(U6-GPIO0-Pad4)*%
X32000000Y38400000D03*
%TO.P,U6,5,GPIO1*%
%TO.N,BUTTON*%
X32000000Y37550000D03*
%TO.P,U6,6,GPIO2*%
%TO.N,unconnected-(U6-GPIO2-Pad6)*%
X32000000Y36700000D03*
%TO.P,U6,7,GPIO3*%
%TO.N,unconnected-(U6-GPIO3-Pad7)*%
X32000000Y35850000D03*
%TO.P,U6,8,GPIO4*%
%TO.N,unconnected-(U6-GPIO4-Pad8)*%
X32000000Y35000000D03*
%TO.P,U6,9,GPIO5*%
%TO.N,SCK*%
X32000000Y34150000D03*
%TO.P,U6,10,GPIO6*%
%TO.N,WS*%
X32000000Y33300000D03*
%TO.P,U6,11,GPIO7*%
%TO.N,SD*%
X32000000Y32450000D03*
%TO.P,U6,12,GPIO8*%
%TO.N,LEDMIC*%
X32000000Y31600000D03*
%TO.P,U6,13,GPIO9*%
%TO.N,unconnected-(U6-GPIO9-Pad13)*%
X32000000Y30750000D03*
%TO.P,U6,14,GPIO10*%
%TO.N,unconnected-(U6-GPIO10-Pad14)*%
X32000000Y29900000D03*
%TO.P,U6,15,GPIO11*%
%TO.N,CHARGING*%
X32000000Y29050000D03*
D46*
%TO.P,U6,16,GPIO12*%
%TO.N,SDDAT2*%
X33050000Y28000000D03*
%TO.P,U6,17,GPIO13*%
%TO.N,SDDAT3*%
X33900000Y28000000D03*
%TO.P,U6,18,GPIO14*%
%TO.N,SDCMD*%
X34750000Y28000000D03*
%TO.P,U6,19,GPIO15*%
%TO.N,SDCLK*%
X35600000Y28000000D03*
%TO.P,U6,20,GPIO16*%
%TO.N,SDDAT0*%
X36450000Y28000000D03*
%TO.P,U6,21,GPIO17*%
%TO.N,SDDAT1*%
X37300000Y28000000D03*
%TO.P,U6,22,GPIO18*%
%TO.N,SDCD*%
X38150000Y28000000D03*
%TO.P,U6,23,GPIO19*%
%TO.N,D-*%
X39000000Y28000000D03*
%TO.P,U6,24,GPIO20*%
%TO.N,D+*%
X39850000Y28000000D03*
%TO.P,U6,25,GPIO21*%
%TO.N,Net-(J2-Pin_2)*%
X40700000Y28000000D03*
%TO.P,U6,26,GPIO26*%
%TO.N,unconnected-(U6-GPIO26-Pad26)*%
X41550000Y28000000D03*
%TO.P,U6,27,GPIO47*%
%TO.N,unconnected-(U6-GPIO47-Pad27)*%
X42400000Y28000000D03*
%TO.P,U6,28,GPIO33*%
%TO.N,unconnected-(U6-GPIO33-Pad28)*%
X43250000Y28000000D03*
%TO.P,U6,29,GPIO34*%
%TO.N,unconnected-(U6-GPIO34-Pad29)*%
X44100000Y28000000D03*
%TO.P,U6,30,GPIO48*%
%TO.N,unconnected-(U6-GPIO48-Pad30)*%
X44950000Y28000000D03*
D45*
%TO.P,U6,31,GPIO35*%
%TO.N,unconnected-(U6-GPIO35-Pad31)*%
X46000000Y29050000D03*
%TO.P,U6,32,GPIO36*%
%TO.N,unconnected-(U6-GPIO36-Pad32)*%
X46000000Y29900000D03*
%TO.P,U6,33,GPIO37*%
%TO.N,unconnected-(U6-GPIO37-Pad33)*%
X46000000Y30750000D03*
%TO.P,U6,34,GPIO38*%
%TO.N,unconnected-(U6-GPIO38-Pad34)*%
X46000000Y31600000D03*
%TO.P,U6,35,GPIO39*%
%TO.N,BLINK*%
X46000000Y32450000D03*
%TO.P,U6,36,GPIO40*%
%TO.N,unconnected-(U6-GPIO40-Pad36)*%
X46000000Y33300000D03*
%TO.P,U6,37,GPIO41*%
%TO.N,Net-(U6-GPIO41)*%
X46000000Y34150000D03*
%TO.P,U6,38,GPIO42*%
%TO.N,unconnected-(U6-GPIO42-Pad38)*%
X46000000Y35000000D03*
%TO.P,U6,39,GPIO43*%
%TO.N,unconnected-(U6-GPIO43-Pad39)*%
X46000000Y35850000D03*
%TO.P,U6,40,GPIO44*%
%TO.N,unconnected-(U6-GPIO44-Pad40)*%
X46000000Y36700000D03*
%TO.P,U6,41,GPIO45*%
%TO.N,unconnected-(U6-GPIO45-Pad41)*%
X46000000Y37550000D03*
%TO.P,U6,42,GND*%
%TO.N,GND*%
X46000000Y38400000D03*
%TO.P,U6,43,GND*%
X46000000Y39250000D03*
%TO.P,U6,44,GPIO46*%
%TO.N,unconnected-(U6-GPIO46-Pad44)*%
X46000000Y40100000D03*
%TO.P,U6,45,EN*%
%TO.N,Net-(U6-EN)*%
X46000000Y40950000D03*
D46*
%TO.P,U6,46,GND*%
%TO.N,GND*%
X44950000Y42000000D03*
%TO.P,U6,47,GND*%
X44100000Y42000000D03*
%TO.P,U6,48,GND*%
X43250000Y42000000D03*
%TO.P,U6,49,GND*%
X42400000Y42000000D03*
%TO.P,U6,50,GND*%
X41550000Y42000000D03*
%TO.P,U6,51,GND*%
X40700000Y42000000D03*
%TO.P,U6,52,GND*%
X39850000Y42000000D03*
%TO.P,U6,53,GND*%
X39000000Y42000000D03*
%TO.P,U6,54,GND*%
X38150000Y42000000D03*
%TO.P,U6,55,GND*%
X37300000Y42000000D03*
%TO.P,U6,56,GND*%
X36450000Y42000000D03*
%TO.P,U6,57,GND*%
X35600000Y42000000D03*
%TO.P,U6,58,GND*%
X34750000Y42000000D03*
%TO.P,U6,59,GND*%
X33900000Y42000000D03*
%TO.P,U6,60,GND*%
X33050000Y42000000D03*
D47*
%TO.P,U6,61,GND*%
X37350000Y36650000D03*
D48*
X37350000Y35000000D03*
X37350000Y33350000D03*
X39000000Y36650000D03*
X39000000Y35000000D03*
X39000000Y33350000D03*
X40650000Y36650000D03*
X40650000Y35000000D03*
X40650000Y33350000D03*
D49*
%TO.P,U6,62,GND*%
X32000000Y42000000D03*
%TO.P,U6,63,GND*%
X32000000Y28000000D03*
%TO.P,U6,64,GND*%
X46000000Y28000000D03*
%TO.P,U6,65,GND*%
X46000000Y42000000D03*
%TD*%
D50*
%TO.P,C7,1*%
%TO.N,VBAT*%
X48700000Y37800000D03*
%TO.P,C7,2*%
%TO.N,GND*%
X48700000Y38800000D03*
%TD*%
D51*
%TO.P,J4,S,SHIELD*%
%TO.N,GND*%
X44000000Y31000000D03*
X36000000Y31000000D03*
%TD*%
D52*
%TO.N,GND*%
X23500000Y44300000D03*
X23500000Y37700000D03*
X23500000Y43700000D03*
X23500000Y40700000D03*
D53*
X24600000Y26300000D03*
X30000092Y37650000D03*
D52*
X23500000Y39500000D03*
X45000000Y32300000D03*
X55100000Y25700000D03*
X46980000Y33770000D03*
X23500000Y43100000D03*
X28400000Y35900000D03*
X23500000Y35900000D03*
X23500000Y38900000D03*
X42657107Y37457107D03*
X23500000Y42500000D03*
D53*
X48100000Y42950000D03*
D52*
X23500000Y35300000D03*
X23500000Y38300000D03*
X23500000Y36500000D03*
X23500000Y41900000D03*
X40500000Y26500000D03*
X23500000Y41300000D03*
D53*
X38934497Y31701601D03*
X15000000Y39000000D03*
X53597671Y42375000D03*
X42300000Y40200000D03*
X15000000Y27000000D03*
D52*
X23500000Y34700000D03*
X53771339Y30889447D03*
D53*
X30799583Y26650000D03*
D52*
X23500000Y40100000D03*
X28267616Y32975000D03*
X23500000Y37100000D03*
D53*
X33300000Y39000000D03*
X15000000Y43000000D03*
D52*
X48500000Y31700000D03*
D53*
X15000000Y31000000D03*
X27016727Y30483273D03*
%TO.N,+3V3*%
X30700000Y41700000D03*
X26099842Y27633114D03*
X58800000Y42400000D03*
X48522894Y35763630D03*
X49650000Y43050000D03*
X26350000Y39250000D03*
X25862804Y30859958D03*
D52*
%TO.N,Net-(J5-CC1)*%
X56056704Y34904804D03*
X56125261Y27325000D03*
%TO.N,D+*%
X41075310Y31234283D03*
X56050000Y37700000D03*
%TO.N,D-*%
X56036003Y36114487D03*
X39900000Y29291833D03*
%TO.N,Net-(J5-CC2)*%
X60400000Y30500000D03*
X56045081Y38767027D03*
D53*
%TO.N,VBAT*%
X56575000Y29500000D03*
D52*
X50959440Y34300000D03*
%TO.N,VBUS*%
X52321174Y33479062D03*
%TO.N,WS*%
X26929281Y35227199D03*
%TO.N,SD*%
X27125296Y34246596D03*
X26507911Y32694171D03*
%TO.N,SCK*%
X26250000Y43750000D03*
X30607719Y42853615D03*
X25500000Y36325000D03*
%TO.N,CHARGING*%
X49600000Y41050000D03*
X41839451Y34062021D03*
X30750000Y28000000D03*
X43800000Y37500000D03*
%TO.N,SDCD*%
X44991382Y39035070D03*
%TO.N,SDDAT0*%
X43400000Y40650000D03*
%TO.N,SDCLK*%
X41200000Y40650000D03*
%TO.N,SDDAT3*%
X36100000Y40700000D03*
%TO.N,Net-(J2-Pin_2)*%
X29400000Y36100000D03*
X41054388Y30188056D03*
%TO.N,BUTTON*%
X29050000Y30431968D03*
X30834606Y34890701D03*
%TO.N,Net-(D4-I)*%
X24680000Y29849220D03*
X25050000Y38225816D03*
%TO.N,SDDAT1*%
X44600000Y40750000D03*
%TO.N,Net-(D1-O)*%
X61100000Y26200000D03*
X61200000Y42100000D03*
%TO.N,Net-(U6-GPIO41)*%
X51700000Y35700000D03*
X45100000Y34200000D03*
%TO.N,SDDAT2*%
X34900000Y40800000D03*
%TO.N,SDCMD*%
X39000000Y40700000D03*
%TD*%
D54*
%TO.N,GND*%
X52300000Y26200000D02*
X52300000Y25600000D01*
X52450000Y25450000D02*
X54850000Y25450000D01*
X52300000Y25600000D02*
X52450000Y25450000D01*
X54850000Y25450000D02*
X55100000Y25700000D01*
D55*
%TO.N,+3V3*%
X51300000Y25500000D02*
X51300000Y26200000D01*
X37575000Y25325000D02*
X50100000Y25325000D01*
X50100000Y25325000D02*
X51125000Y25325000D01*
X51125000Y25325000D02*
X51300000Y25500000D01*
D54*
%TO.N,GND*%
X46578122Y42000000D02*
X47528122Y42950000D01*
X39000000Y33350000D02*
X39000000Y31767104D01*
X48662500Y31700000D02*
X50400000Y29962500D01*
D55*
X47380608Y37630608D02*
X47625000Y37630608D01*
D54*
X39000000Y31767104D02*
X38934497Y31701601D01*
X47625000Y38560000D02*
X46160000Y38560000D01*
X48386524Y36889949D02*
X47645865Y37630608D01*
D55*
X46855000Y36400000D02*
X46855000Y37105000D01*
D54*
X47500000Y35600000D02*
X46855000Y35600000D01*
X46855000Y35600000D02*
X46855000Y36100000D01*
X48050000Y43650000D02*
X46400000Y42000000D01*
X54890000Y40540000D02*
X55470000Y41120000D01*
X53200000Y33000000D02*
X53720000Y32480000D01*
X47528122Y42950000D02*
X48100000Y42950000D01*
X59200000Y32020000D02*
X59660000Y32480000D01*
X46400000Y42000000D02*
X46000000Y42000000D01*
X48125000Y34500000D02*
X47728034Y34500000D01*
X47625000Y38560000D02*
X47625000Y37875000D01*
X53720000Y32480000D02*
X55470000Y32480000D01*
X49075000Y36700000D02*
X48885051Y36889949D01*
X47625000Y37630608D02*
X47625000Y38560000D01*
X54890000Y40000000D02*
X54890000Y40540000D01*
X47625000Y37875000D02*
X46855000Y37105000D01*
X55470000Y32480000D02*
X56000000Y31950000D01*
X59200000Y31300000D02*
X59200000Y32020000D01*
X56000000Y31950000D02*
X56000000Y31300000D01*
X46000000Y42000000D02*
X46578122Y42000000D01*
X48885051Y36889949D02*
X48386524Y36889949D01*
D55*
X52600000Y29700000D02*
X52600000Y28050000D01*
D54*
X47500000Y35125000D02*
X48125000Y34500000D01*
X29000000Y38650000D02*
X30000000Y37650000D01*
D55*
X52600000Y29700000D02*
X53771339Y30871339D01*
D54*
X47728034Y34500000D02*
X47064017Y33835983D01*
X48500000Y31700000D02*
X48662500Y31700000D01*
X47500000Y35600000D02*
X47500000Y35125000D01*
X30000000Y37650000D02*
X30000092Y37650000D01*
X55470000Y33020000D02*
X54890000Y33600000D01*
D55*
X46855000Y37105000D02*
X47380608Y37630608D01*
X46855000Y36100000D02*
X46855000Y36400000D01*
X28000000Y38500000D02*
X28850000Y38500000D01*
D54*
X46160000Y38560000D02*
X46000000Y38400000D01*
X29000000Y38650000D02*
X28150000Y38650000D01*
X47645865Y37630608D02*
X47625000Y37630608D01*
D55*
X53771339Y30871339D02*
X53771339Y30889447D01*
D54*
X55470000Y32480000D02*
X55470000Y33020000D01*
X52950000Y40900000D02*
X52950000Y41550000D01*
X28150000Y38650000D02*
X28000000Y38500000D01*
X29875000Y38575000D02*
X29075000Y38575000D01*
D55*
%TO.N,+3V3*%
X60100000Y43801041D02*
X59930294Y43970747D01*
D54*
X29875000Y31425000D02*
X29875000Y32165000D01*
X27500000Y40100000D02*
X30286396Y40100000D01*
X27500000Y40100000D02*
X27200000Y40100000D01*
X28355001Y32125000D02*
X28000000Y31769999D01*
D55*
X58300000Y41900000D02*
X58800000Y42400000D01*
D54*
X29840000Y32200000D02*
X28694698Y32200000D01*
X28825000Y25700000D02*
X28825000Y26516724D01*
X33400000Y25700000D02*
X28825000Y25700000D01*
X33900000Y25700000D02*
X34250000Y25700000D01*
X48522894Y35742764D02*
X48522894Y35763630D01*
D55*
X58800000Y43500000D02*
X58800000Y42400000D01*
D54*
X47500000Y36600000D02*
X47686524Y36600000D01*
D56*
X30700000Y41700000D02*
X30900000Y41500000D01*
D54*
X37300000Y25700000D02*
X38150000Y25700000D01*
X28000000Y40050000D02*
X28000000Y39500000D01*
X36450000Y25700000D02*
X37300000Y25700000D01*
D55*
X51300000Y26200000D02*
X51300000Y26700000D01*
D54*
X26689950Y31500000D02*
X26289950Y31100000D01*
X34750000Y25700000D02*
X35600000Y25700000D01*
X49675000Y33562500D02*
X49675000Y34500000D01*
D55*
X29421976Y32008730D02*
X29825000Y31605706D01*
D54*
X30286396Y40100000D02*
X30725000Y39661396D01*
X49675000Y34590658D02*
X48522894Y35742764D01*
D55*
X58000000Y41900000D02*
X58300000Y41900000D01*
D54*
X28694698Y32200000D02*
X28619698Y32125000D01*
X35600000Y25700000D02*
X36450000Y25700000D01*
X50200000Y33037500D02*
X49675000Y33562500D01*
X25949908Y30859958D02*
X25862804Y30859958D01*
X28000000Y31769999D02*
X28000000Y31500000D01*
D55*
X38300000Y25550000D02*
X38300000Y25450000D01*
D57*
X31348528Y39250000D02*
X32000000Y39250000D01*
X30798528Y39800000D02*
X31348528Y39250000D01*
D54*
X47686524Y36600000D02*
X48522894Y35763630D01*
D55*
X28525000Y32025000D02*
X29362688Y32025000D01*
D54*
X29875000Y32165000D02*
X29840000Y32200000D01*
X26189950Y31100000D02*
X25949908Y30859958D01*
X49000001Y42250000D02*
X48500001Y41750000D01*
D55*
X29362688Y32025000D02*
X29378958Y32008730D01*
D54*
X28825000Y26516724D02*
X27708610Y27633114D01*
X28619698Y32125000D02*
X28355001Y32125000D01*
X28050000Y40100000D02*
X28000000Y40050000D01*
D55*
X59270747Y43970747D02*
X58800000Y43500000D01*
D54*
X28000000Y31500000D02*
X26689950Y31500000D01*
X27200000Y40100000D02*
X26350000Y39250000D01*
X49662500Y42250000D02*
X49000001Y42250000D01*
D55*
X29378958Y32008730D02*
X29421976Y32008730D01*
X38150000Y25700000D02*
X38300000Y25550000D01*
X29825000Y31605706D02*
X29825000Y31425000D01*
X30725000Y41675000D02*
X30700000Y41700000D01*
D54*
X27708610Y27633114D02*
X26099842Y27633114D01*
D55*
X59930294Y43970747D02*
X59270747Y43970747D01*
D54*
X26289950Y31100000D02*
X26189950Y31100000D01*
D55*
X28000000Y31500000D02*
X28525000Y32025000D01*
D54*
X49662500Y43037500D02*
X49650000Y43050000D01*
D56*
X30900000Y41500000D02*
X30900000Y39698528D01*
D55*
X51300000Y26700000D02*
X51775000Y27175000D01*
D54*
X48236837Y40630000D02*
X48236837Y41563163D01*
X28050000Y40100000D02*
X27500000Y40100000D01*
X30725000Y39661396D02*
X30725000Y39425000D01*
X49662500Y42250000D02*
X49662500Y43037500D01*
X34250000Y25700000D02*
X34750000Y25700000D01*
D55*
%TO.N,Net-(J5-CC1)*%
X56056704Y35021060D02*
X56056704Y34904804D01*
X55750000Y30550000D02*
X55750000Y29158274D01*
X55750000Y29158274D02*
X56125261Y28783013D01*
X55527764Y35550000D02*
X56056704Y35021060D01*
X56125261Y28783013D02*
X56125261Y27325000D01*
X54890000Y35550000D02*
X55527764Y35550000D01*
X55000000Y31300000D02*
X55750000Y30550000D01*
%TO.N,D+*%
X40320514Y30479486D02*
X41075310Y31234283D01*
X53995000Y37292764D02*
X53995000Y36807236D01*
X54890000Y37550000D02*
X55900000Y37550000D01*
X54252236Y37550000D02*
X53995000Y37292764D01*
X40625000Y28991528D02*
X40625000Y29592138D01*
X54890000Y37550000D02*
X54252236Y37550000D01*
X55900000Y37550000D02*
X56050000Y37700000D01*
X39850000Y28216528D02*
X40625000Y28991528D01*
X53995000Y36807236D02*
X54252236Y36550000D01*
X40320514Y29896624D02*
X40320514Y30479486D01*
X40625000Y29592138D02*
X40320514Y29896624D01*
X54252236Y36550000D02*
X54890000Y36550000D01*
%TO.N,D-*%
X55785000Y36792764D02*
X55785000Y36285000D01*
D58*
X39000000Y28000000D02*
X39000000Y28391833D01*
D55*
X55850000Y36050000D02*
X56100000Y36300000D01*
X54890000Y36050000D02*
X55850000Y36050000D01*
X55785000Y36285000D02*
X55550000Y36050000D01*
D58*
X39000000Y28391833D02*
X39900000Y29291833D01*
D55*
X55527764Y37050000D02*
X55785000Y36792764D01*
X54890000Y37050000D02*
X55527764Y37050000D01*
X55550000Y36050000D02*
X54890000Y36050000D01*
%TO.N,Net-(J5-CC2)*%
X60400000Y30500000D02*
X60400000Y31100000D01*
X60400000Y31100000D02*
X60200000Y31300000D01*
X55828054Y38550000D02*
X56045081Y38767027D01*
X54890000Y38550000D02*
X55828054Y38550000D01*
%TO.N,Net-(U6-EN)*%
X47236837Y39948163D02*
X47625000Y39560000D01*
X46916837Y40950000D02*
X47236837Y40630000D01*
X46000000Y40950000D02*
X46916837Y40950000D01*
X47236837Y40630000D02*
X47236837Y39948163D01*
%TO.N,BLINK*%
X51720720Y28184720D02*
X51668000Y28132000D01*
X51900000Y31700000D02*
X51900000Y28150000D01*
X51900000Y28150000D02*
X51775000Y28025000D01*
X51600000Y32000000D02*
X51900000Y31700000D01*
X46000000Y32450000D02*
X46703340Y32450000D01*
X47753340Y33500000D02*
X48600000Y33500000D01*
X46703340Y32450000D02*
X47753340Y33500000D01*
X48900000Y33200000D02*
X48900000Y32379900D01*
X48600000Y33500000D02*
X48900000Y33200000D01*
X49279900Y32000000D02*
X51600000Y32000000D01*
X48900000Y32379900D02*
X49279900Y32000000D01*
D56*
%TO.N,VBAT*%
X58134000Y29975000D02*
X58134000Y31175000D01*
D54*
X48700000Y37800000D02*
X50012500Y37800000D01*
X50362500Y35700000D02*
X50959440Y35103060D01*
D56*
X56575000Y29500000D02*
X57659000Y29500000D01*
D54*
X50959440Y35103060D02*
X50959440Y34300000D01*
X49925000Y36700000D02*
X49925000Y37712500D01*
X49925000Y36700000D02*
X49925000Y36137500D01*
X49925000Y36137500D02*
X50362500Y35700000D01*
X49925000Y37712500D02*
X50062500Y37850000D01*
D56*
X57659000Y29500000D02*
X58134000Y29975000D01*
D54*
%TO.N,Net-(D3-K)*%
X51500001Y36650000D02*
X51200000Y36950001D01*
X51200000Y36950001D02*
X51200000Y40500000D01*
X52237500Y36650000D02*
X51500001Y36650000D01*
X50825000Y42200000D02*
X50825000Y43000000D01*
X51200000Y40500000D02*
X50825000Y40875000D01*
X50825000Y43000000D02*
X50825000Y43602684D01*
X54550000Y43600000D02*
X54000000Y44150000D01*
X50875000Y42250000D02*
X50825000Y42200000D01*
X54000000Y44150000D02*
X51937500Y44150000D01*
X51937500Y42250000D02*
X50875000Y42250000D01*
X50825000Y43602684D02*
X51372316Y44150000D01*
X51372316Y44150000D02*
X51937500Y44150000D01*
X50825000Y40875000D02*
X50825000Y42200000D01*
%TO.N,VBUS*%
X53500000Y35700000D02*
X53500000Y35125458D01*
X53870000Y38670000D02*
X53870000Y39250000D01*
X52337500Y37850000D02*
X52800000Y37850000D01*
X57557986Y43600000D02*
X57850000Y43600000D01*
X52337500Y37850000D02*
X53050000Y37850000D01*
X53500000Y35125458D02*
X53500000Y36489063D01*
X52800000Y37850000D02*
X53420000Y37230000D01*
D59*
X53553769Y36453769D02*
X53420000Y36587538D01*
D55*
X52350000Y33450236D02*
X52350000Y30950000D01*
D59*
X53553769Y36053769D02*
X53553769Y36453769D01*
D54*
X52237500Y34750000D02*
X53124542Y34750000D01*
X54717918Y41970000D02*
X55927986Y41970000D01*
D55*
X52321174Y33479062D02*
X52350000Y33450236D01*
D54*
X53420000Y37230000D02*
X53420000Y37054592D01*
X54890000Y34400000D02*
X54225458Y34400000D01*
X52237500Y34750000D02*
X52237500Y33562736D01*
X53500000Y36489063D02*
X53425000Y36564063D01*
X53870000Y41122082D02*
X54717918Y41970000D01*
X52842112Y34000000D02*
X52321174Y33479062D01*
X53875458Y34750000D02*
X54225458Y34400000D01*
X55927986Y41970000D02*
X57557986Y43600000D01*
X53870000Y39250000D02*
X53920000Y39200000D01*
X54890000Y34400000D02*
X53600000Y34400000D01*
X53870000Y39250000D02*
X53870000Y41122082D01*
X53500000Y35125458D02*
X53875458Y34750000D01*
X53650000Y38450000D02*
X53870000Y38670000D01*
D59*
X53420000Y36587538D02*
X53420000Y37054592D01*
D54*
X53920000Y39200000D02*
X54890000Y39200000D01*
X53050000Y37850000D02*
X53650000Y38450000D01*
D55*
X52350000Y30950000D02*
X52600000Y30700000D01*
D54*
X53124542Y34750000D02*
X53500000Y35125458D01*
X53600000Y34400000D02*
X53200000Y34000000D01*
X53200000Y34000000D02*
X52842112Y34000000D01*
X52237500Y33562736D02*
X52321174Y33479062D01*
X52237500Y34750000D02*
X53875458Y34750000D01*
D55*
%TO.N,WS*%
X28313604Y34150000D02*
X27236405Y35227199D01*
X29688299Y34150000D02*
X28313604Y34150000D01*
X30538299Y33300000D02*
X29688299Y34150000D01*
X27236405Y35227199D02*
X26929281Y35227199D01*
X32000000Y33300000D02*
X30538299Y33300000D01*
%TO.N,SD*%
X30750000Y32450000D02*
X32000000Y32450000D01*
X27125296Y34246596D02*
X27125296Y33311556D01*
X27125296Y33311556D02*
X26507911Y32694171D01*
X27125296Y34246596D02*
X27671892Y33700000D01*
X27671892Y33700000D02*
X29500000Y33700000D01*
X29500000Y33700000D02*
X30750000Y32450000D01*
%TO.N,SCK*%
X26875000Y36325000D02*
X28600000Y34600000D01*
X28600000Y34600000D02*
X29874695Y34600000D01*
X30461334Y43000000D02*
X30607719Y42853615D01*
X27000000Y43000000D02*
X28000000Y43000000D01*
X25500000Y36325000D02*
X26875000Y36325000D01*
X30324695Y34150000D02*
X32000000Y34150000D01*
X29874695Y34600000D02*
X30324695Y34150000D01*
X28000000Y43000000D02*
X30461334Y43000000D01*
X26250000Y43750000D02*
X27000000Y43000000D01*
D54*
%TO.N,Net-(U3-PROG)*%
X51950000Y40237500D02*
X51950000Y40900000D01*
X52437500Y39750000D02*
X51950000Y40237500D01*
D55*
%TO.N,CHARGING*%
X43800000Y36022570D02*
X43800000Y37500000D01*
X31350000Y29050000D02*
X32000000Y29050000D01*
X50062500Y39750000D02*
X50062500Y40587500D01*
X50062500Y40587500D02*
X49600000Y41050000D01*
X41839451Y34062021D02*
X43800000Y36022570D01*
X30750000Y28450000D02*
X31350000Y29050000D01*
X30750000Y28000000D02*
X30750000Y28450000D01*
%TO.N,SDCD*%
X38150000Y28000000D02*
X38150000Y26700000D01*
X35550000Y35909620D02*
X38090380Y38450000D01*
X36400000Y31925000D02*
X36125000Y31925000D01*
X38090380Y38450000D02*
X44406312Y38450000D01*
X36925000Y31400000D02*
X36400000Y31925000D01*
X44406312Y38450000D02*
X44991382Y39035070D01*
X36125000Y31925000D02*
X35550000Y32500000D01*
X36925000Y29575000D02*
X36925000Y31400000D01*
X35550000Y32500000D02*
X35550000Y35909620D01*
X38150000Y28000000D02*
X38150000Y28350000D01*
X38150000Y28350000D02*
X36925000Y29575000D01*
%TO.N,SDDAT0*%
X37717588Y39350000D02*
X42950000Y39350000D01*
X36450000Y28000000D02*
X36450000Y28605456D01*
X42950000Y39350000D02*
X43400000Y39800000D01*
X36450000Y28605456D02*
X34625000Y30430456D01*
X34625000Y36257412D02*
X37717588Y39350000D01*
X36450000Y28000000D02*
X36450000Y26700000D01*
X34625000Y30430456D02*
X34625000Y36257412D01*
X43400000Y39800000D02*
X43400000Y40650000D01*
%TO.N,SDCLK*%
X35600000Y28819060D02*
X34175000Y30244060D01*
X34175000Y36443808D02*
X37531192Y39800000D01*
X41200000Y40650000D02*
X40350000Y39800000D01*
X35600000Y28000000D02*
X35600000Y28819060D01*
X34175000Y30244060D02*
X34175000Y36443808D01*
X40350000Y39800000D02*
X37531192Y39800000D01*
X35600000Y26700000D02*
X35600000Y28000000D01*
%TO.N,SDDAT3*%
X33275000Y36816600D02*
X36100000Y39641600D01*
X36100000Y39641600D02*
X36100000Y40700000D01*
X33900000Y29246268D02*
X33275000Y29871268D01*
X33900000Y28000000D02*
X33900000Y29246268D01*
X33900000Y28000000D02*
X33900000Y26700000D01*
X33275000Y29871268D02*
X33275000Y36816600D01*
%TO.N,Net-(J2-Pin_2)*%
X28450000Y37050000D02*
X27500000Y37050000D01*
X25190000Y41000000D02*
X25190000Y39690000D01*
X24250000Y38750000D02*
X24250000Y38000816D01*
X24250000Y38000816D02*
X24750000Y37500816D01*
X25190000Y39690000D02*
X24250000Y38750000D01*
X40700000Y28430132D02*
X41075000Y28805132D01*
X41075000Y28805132D02*
X41075000Y30167444D01*
X29400000Y36100000D02*
X28450000Y37050000D01*
X24750000Y37500816D02*
X25184773Y37500816D01*
X25184773Y37500816D02*
X25635589Y37050000D01*
X40700000Y28000000D02*
X40700000Y28430132D01*
X25635589Y37050000D02*
X27500000Y37050000D01*
X41075000Y30167444D02*
X41054388Y30188056D01*
%TO.N,BUTTON*%
X31350000Y37550000D02*
X31275000Y37475000D01*
X31275000Y35331095D02*
X30834606Y34890701D01*
X29050000Y30431968D02*
X29050000Y31300000D01*
X31275000Y37475000D02*
X31275000Y35331095D01*
X32000000Y37550000D02*
X31350000Y37550000D01*
%TO.N,Net-(D4-I)*%
X30825000Y38475000D02*
X30825000Y36958273D01*
X29875000Y30231663D02*
X28993337Y29350000D01*
X29875000Y30575000D02*
X29875000Y30231663D01*
X25096169Y38225816D02*
X25050000Y38225816D01*
X30691727Y36825000D02*
X30825000Y36958273D01*
X29408273Y36825000D02*
X28708273Y37525000D01*
X28708273Y37525000D02*
X25796985Y37525000D01*
X29408273Y36825000D02*
X30691727Y36825000D01*
X28993337Y29350000D02*
X25179220Y29350000D01*
X25179220Y29350000D02*
X24680000Y29849220D01*
X25796985Y37525000D02*
X25096169Y38225816D01*
%TO.N,LEDMIC*%
X30850000Y31600000D02*
X30782000Y31532000D01*
X32000000Y31600000D02*
X30850000Y31600000D01*
%TO.N,SDDAT1*%
X35075000Y30616852D02*
X35075000Y36071016D01*
X37300000Y28000000D02*
X37300000Y28391852D01*
X44600000Y40301651D02*
X44600000Y40750000D01*
X37903984Y38900000D02*
X43198349Y38900000D01*
X37300000Y28000000D02*
X37300000Y26700000D01*
X35075000Y36071016D02*
X37903984Y38900000D01*
X37300000Y28391852D02*
X35075000Y30616852D01*
X43198349Y38900000D02*
X44600000Y40301651D01*
%TO.N,Net-(D1-O)*%
X52959000Y26550000D02*
X52625000Y26884000D01*
X60852362Y43200000D02*
X60852362Y42447638D01*
X60852362Y42447638D02*
X61200000Y42100000D01*
X52625000Y26884000D02*
X52625000Y27175000D01*
X61100000Y26200000D02*
X60750000Y26550000D01*
X60750000Y26550000D02*
X52959000Y26550000D01*
%TO.N,Net-(U6-GPIO41)*%
X52400000Y35700000D02*
X51700000Y35700000D01*
X46000000Y34150000D02*
X45150000Y34150000D01*
X45150000Y34150000D02*
X45100000Y34200000D01*
%TO.N,SDDAT2*%
X32825000Y29650000D02*
X32825000Y37225000D01*
X35650000Y40050000D02*
X34900000Y40800000D01*
X33050000Y28000000D02*
X33050000Y29425000D01*
X33050000Y28000000D02*
X33050000Y26700000D01*
X33050000Y29425000D02*
X32825000Y29650000D01*
X32825000Y37225000D02*
X35650000Y40050000D01*
%TO.N,SDCMD*%
X33725000Y30057664D02*
X33725000Y36630204D01*
X34750000Y28000000D02*
X34750000Y26700000D01*
X34750000Y28000000D02*
X34750000Y29032664D01*
X33725000Y36630204D02*
X37794796Y40700000D01*
X37794796Y40700000D02*
X39000000Y40700000D01*
X34750000Y29032664D02*
X33725000Y30057664D01*
%TD*%
%TA.AperFunction,Conductor*%
%TO.N,VBUS*%
G36*
X52430539Y34980315D02*
G01*
X52476294Y34927511D01*
X52487500Y34876000D01*
X52487500Y34031000D01*
X52467815Y33963961D01*
X52415011Y33918206D01*
X52384587Y33911588D01*
X52380000Y33907000D01*
X52380000Y33815425D01*
X52382904Y33778522D01*
X52382905Y33778516D01*
X52417746Y33658595D01*
X52417547Y33588726D01*
X52379605Y33530056D01*
X52315966Y33501212D01*
X52298670Y33500000D01*
X52232930Y33500000D01*
X52171409Y33516338D01*
X51817909Y33718338D01*
X51769468Y33768690D01*
X51755940Y33837237D01*
X51781619Y33902217D01*
X51838352Y33942998D01*
X51879430Y33950000D01*
X51987500Y33950000D01*
X51987500Y34876000D01*
X52007185Y34943039D01*
X52059989Y34988794D01*
X52111500Y35000000D01*
X52363500Y35000000D01*
X52430539Y34980315D01*
G37*
%TD.AperFunction*%
%TA.AperFunction,Conductor*%
G36*
X54058273Y35019155D02*
G01*
X54108527Y34970613D01*
X54122359Y34933499D01*
X54135485Y34867505D01*
X54196376Y34776375D01*
X54261564Y34732818D01*
X54306370Y34679206D01*
X54316674Y34630026D01*
X54317741Y34203501D01*
X54298224Y34136413D01*
X54251736Y34095929D01*
X54251922Y34095651D01*
X54249760Y34094207D01*
X54245534Y34090526D01*
X54241827Y34088906D01*
X54212890Y34069571D01*
X54146213Y34048694D01*
X54078832Y34067179D01*
X54032143Y34119158D01*
X54020000Y34172674D01*
X54020000Y34184561D01*
X54019999Y34184576D01*
X54017095Y34221479D01*
X54017094Y34221485D01*
X53971193Y34379474D01*
X53971192Y34379477D01*
X53887440Y34521095D01*
X53887434Y34521103D01*
X53771102Y34637435D01*
X53771093Y34637442D01*
X53694699Y34682621D01*
X53647015Y34733690D01*
X53634512Y34802432D01*
X53661158Y34867021D01*
X53718493Y34906951D01*
X53723227Y34908430D01*
X53789191Y34927594D01*
X53934004Y35013235D01*
X53935115Y35011357D01*
X53989753Y35032821D01*
X54058273Y35019155D01*
G37*
%TD.AperFunction*%
%TA.AperFunction,Conductor*%
G36*
X54243348Y41280315D02*
G01*
X54289103Y41227511D01*
X54300309Y41176310D01*
X54301761Y40595543D01*
X54282244Y40528455D01*
X54246653Y40492132D01*
X54175448Y40444554D01*
X54131132Y40378231D01*
X54131131Y40378230D01*
X54119500Y40319753D01*
X54119500Y39680248D01*
X54131131Y39621771D01*
X54131132Y39621770D01*
X54175447Y39555448D01*
X54249632Y39505879D01*
X54294437Y39452267D01*
X54304741Y39403087D01*
X54305841Y38963357D01*
X54286324Y38896269D01*
X54250733Y38859946D01*
X54196376Y38823626D01*
X54135485Y38732495D01*
X54135483Y38732491D01*
X54119500Y38652137D01*
X54119500Y38447871D01*
X54135486Y38367502D01*
X54140159Y38356220D01*
X54138714Y38355622D01*
X54155436Y38302212D01*
X54139482Y38244062D01*
X54140159Y38243781D01*
X54137926Y38238391D01*
X54136950Y38234832D01*
X54135550Y38232655D01*
X54135484Y38232495D01*
X54119500Y38152137D01*
X54119500Y37947869D01*
X54119501Y37947865D01*
X54119767Y37946529D01*
X54119703Y37945816D01*
X54120098Y37941807D01*
X54119337Y37941733D01*
X54113537Y37876938D01*
X54070672Y37821762D01*
X54060153Y37814957D01*
X54052377Y37810468D01*
X53998840Y37756931D01*
X53998839Y37756932D01*
X53998837Y37756929D01*
X53734537Y37492629D01*
X53734532Y37492623D01*
X53707602Y37445979D01*
X53662068Y37402565D01*
X53665093Y37398222D01*
X53670434Y37342707D01*
X53669500Y37335614D01*
X53669500Y36764384D01*
X53691683Y36681594D01*
X53692093Y36680884D01*
X53692256Y36680210D01*
X53694794Y36674083D01*
X53693838Y36673688D01*
X53708566Y36612983D01*
X53685713Y36546957D01*
X53659159Y36519724D01*
X53650000Y36512848D01*
X53650000Y35574000D01*
X53630315Y35506961D01*
X53577511Y35461206D01*
X53526000Y35450000D01*
X53274000Y35450000D01*
X53206961Y35469685D01*
X53161206Y35522489D01*
X53150000Y35574000D01*
X53150000Y36338065D01*
X53162601Y36392528D01*
X53165573Y36398608D01*
X53175500Y36466740D01*
X53175500Y36833261D01*
X53165573Y36901392D01*
X53128623Y36976976D01*
X53116865Y37045849D01*
X53144208Y37110146D01*
X53176904Y37138169D01*
X53251555Y37182317D01*
X53251561Y37182322D01*
X53367678Y37298439D01*
X53367684Y37298447D01*
X53440763Y37422016D01*
X53485576Y37463859D01*
X53483035Y37467427D01*
X53479712Y37537218D01*
X53481140Y37542577D01*
X53497099Y37597509D01*
X53497100Y37597512D01*
X53497295Y37599999D01*
X53497295Y37600000D01*
X52211500Y37600000D01*
X52144461Y37619685D01*
X52098706Y37672489D01*
X52087500Y37724000D01*
X52087500Y37976000D01*
X52107185Y38043039D01*
X52159989Y38088794D01*
X52211500Y38100000D01*
X53497295Y38100000D01*
X53497295Y38100002D01*
X53497100Y38102487D01*
X53451281Y38260199D01*
X53367685Y38401553D01*
X53367678Y38401562D01*
X53251561Y38517679D01*
X53251552Y38517686D01*
X53110196Y38601283D01*
X53110193Y38601285D01*
X52994905Y38634779D01*
X52936019Y38672385D01*
X52906813Y38735858D01*
X52905500Y38753855D01*
X52905500Y39125492D01*
X52905500Y39125500D01*
X52903407Y39144961D01*
X52915810Y39213717D01*
X52963419Y39264855D01*
X52972225Y39269612D01*
X53056483Y39310802D01*
X53139198Y39393517D01*
X53190573Y39498607D01*
X53200500Y39566740D01*
X53200500Y39933260D01*
X53190573Y40001393D01*
X53139198Y40106483D01*
X53139196Y40106485D01*
X53139196Y40106486D01*
X53074012Y40171670D01*
X53040527Y40232993D01*
X53045511Y40302685D01*
X53087383Y40358618D01*
X53145509Y40382290D01*
X53149775Y40382852D01*
X53173173Y40385932D01*
X53280404Y40435935D01*
X53364065Y40519596D01*
X53414068Y40626827D01*
X53420500Y40675684D01*
X53420500Y41124316D01*
X53420500Y41124319D01*
X53415827Y41159816D01*
X53426593Y41228851D01*
X53472974Y41281107D01*
X53538766Y41300000D01*
X54176309Y41300000D01*
X54243348Y41280315D01*
G37*
%TD.AperFunction*%
%TD*%
%TA.AperFunction,Conductor*%
%TO.N,Net-(D3-K)*%
G36*
X50785611Y44730315D02*
G01*
X50831366Y44677511D01*
X50841310Y44608353D01*
X50825303Y44562877D01*
X50823718Y44560198D01*
X50777899Y44402487D01*
X50777704Y44400002D01*
X50777705Y44400000D01*
X52063500Y44400000D01*
X52130539Y44380315D01*
X52176294Y44327511D01*
X52187500Y44276000D01*
X52187500Y44024000D01*
X52167815Y43956961D01*
X52115011Y43911206D01*
X52063500Y43900000D01*
X50777705Y43900000D01*
X50777704Y43899999D01*
X50777899Y43897514D01*
X50823718Y43739802D01*
X50907314Y43598448D01*
X50907321Y43598439D01*
X51023439Y43482321D01*
X51026497Y43479949D01*
X51028280Y43477480D01*
X51028960Y43476800D01*
X51028850Y43476691D01*
X51067406Y43423308D01*
X51074500Y43381967D01*
X51074500Y43018033D01*
X51054815Y42950994D01*
X51026504Y42920056D01*
X51023445Y42917684D01*
X50907318Y42801558D01*
X50907314Y42801553D01*
X50823718Y42660199D01*
X50777899Y42502487D01*
X50777704Y42500002D01*
X50777705Y42500000D01*
X52063500Y42500000D01*
X52130539Y42480315D01*
X52176294Y42427511D01*
X52187500Y42376000D01*
X52187500Y42124000D01*
X52167815Y42056961D01*
X52115011Y42011206D01*
X52063500Y42000000D01*
X50777705Y42000000D01*
X50777704Y41999999D01*
X50777899Y41997514D01*
X50823718Y41839802D01*
X50907314Y41698448D01*
X50907321Y41698439D01*
X51023438Y41582322D01*
X51023447Y41582315D01*
X51164803Y41498718D01*
X51164806Y41498717D01*
X51322504Y41452901D01*
X51322510Y41452900D01*
X51359350Y41450001D01*
X51359366Y41450000D01*
X51420378Y41450000D01*
X51487417Y41430315D01*
X51533172Y41377511D01*
X51543116Y41308353D01*
X51532760Y41273595D01*
X51485931Y41173172D01*
X51479500Y41124317D01*
X51479500Y40675684D01*
X51485931Y40626829D01*
X51487882Y40622646D01*
X51499500Y40570241D01*
X51499500Y40178191D01*
X51508270Y40145461D01*
X51512748Y40128747D01*
X51511083Y40058897D01*
X51504374Y40042199D01*
X51484428Y40001397D01*
X51484425Y40001389D01*
X51474500Y39933261D01*
X51474500Y39566740D01*
X51484426Y39498609D01*
X51535803Y39393515D01*
X51618514Y39310804D01*
X51618515Y39310804D01*
X51618517Y39310802D01*
X51723607Y39259427D01*
X51757673Y39254464D01*
X51791739Y39249500D01*
X52576000Y39249500D01*
X52643039Y39229815D01*
X52688794Y39177011D01*
X52700000Y39125500D01*
X52700000Y38474500D01*
X52680315Y38407461D01*
X52627511Y38361706D01*
X52576000Y38350500D01*
X51791739Y38350500D01*
X51723608Y38340574D01*
X51618514Y38289197D01*
X51535803Y38206486D01*
X51484426Y38101392D01*
X51474500Y38033261D01*
X51474500Y37666740D01*
X51484426Y37598608D01*
X51492393Y37582312D01*
X51504153Y37513439D01*
X51476810Y37449142D01*
X51419046Y37409834D01*
X51415591Y37408775D01*
X51389802Y37401283D01*
X51248447Y37317686D01*
X51248438Y37317679D01*
X51132321Y37201562D01*
X51132314Y37201553D01*
X51048718Y37060199D01*
X51002899Y36902487D01*
X51002704Y36900002D01*
X51002705Y36900000D01*
X52363500Y36900000D01*
X52430539Y36880315D01*
X52476294Y36827511D01*
X52487500Y36776000D01*
X52487500Y36524000D01*
X52467815Y36456961D01*
X52415011Y36411206D01*
X52363500Y36400000D01*
X51002705Y36400000D01*
X51002704Y36399999D01*
X51002899Y36397514D01*
X51014061Y36359095D01*
X51013861Y36289225D01*
X50975918Y36230555D01*
X50912280Y36201712D01*
X50894984Y36200500D01*
X50550465Y36200500D01*
X50483426Y36220185D01*
X50462784Y36236819D01*
X50417861Y36281742D01*
X50384376Y36343065D01*
X50389360Y36412757D01*
X50393161Y36421830D01*
X50393188Y36421889D01*
X50394019Y36423670D01*
X50400500Y36472897D01*
X50400499Y36927102D01*
X50394019Y36976330D01*
X50394016Y36976337D01*
X50387118Y36991131D01*
X50375500Y37043535D01*
X50375500Y37225500D01*
X50395185Y37292539D01*
X50447989Y37338294D01*
X50499500Y37349500D01*
X50608261Y37349500D01*
X50630971Y37352809D01*
X50676393Y37359427D01*
X50781483Y37410802D01*
X50864198Y37493517D01*
X50915573Y37598607D01*
X50925500Y37666740D01*
X50925500Y38033260D01*
X50915573Y38101393D01*
X50864198Y38206483D01*
X50864196Y38206485D01*
X50864196Y38206486D01*
X50833363Y38237319D01*
X50799878Y38298642D01*
X50804862Y38368334D01*
X50833363Y38412681D01*
X50864196Y38443515D01*
X50864198Y38443517D01*
X50915573Y38548607D01*
X50925500Y38616740D01*
X50925500Y38983260D01*
X50915573Y39051393D01*
X50864198Y39156483D01*
X50864196Y39156485D01*
X50864196Y39156486D01*
X50833363Y39187319D01*
X50799878Y39248642D01*
X50804862Y39318334D01*
X50833363Y39362681D01*
X50864196Y39393515D01*
X50864198Y39393517D01*
X50915573Y39498607D01*
X50925500Y39566740D01*
X50925500Y39933260D01*
X50915573Y40001393D01*
X50864198Y40106483D01*
X50864196Y40106485D01*
X50864196Y40106486D01*
X50781485Y40189197D01*
X50676391Y40240574D01*
X50608261Y40250500D01*
X50608260Y40250500D01*
X50512000Y40250500D01*
X50444961Y40270185D01*
X50399206Y40322989D01*
X50388000Y40374500D01*
X50388000Y40534645D01*
X50388001Y40534658D01*
X50388001Y40630352D01*
X50375854Y40675684D01*
X50365818Y40713139D01*
X50365814Y40713146D01*
X50362709Y40720643D01*
X50364079Y40721211D01*
X50350000Y40773762D01*
X50350000Y41727957D01*
X50369685Y41794996D01*
X50386314Y41815634D01*
X50464198Y41893517D01*
X50515573Y41998607D01*
X50525500Y42066740D01*
X50525500Y42433260D01*
X50515573Y42501393D01*
X50464198Y42606483D01*
X50464196Y42606485D01*
X50464196Y42606486D01*
X50386319Y42684363D01*
X50352834Y42745686D01*
X50350000Y42772044D01*
X50350000Y42996009D01*
X50350904Y43010956D01*
X50351763Y43018033D01*
X50355645Y43050000D01*
X50350904Y43089046D01*
X50350000Y43103992D01*
X50350000Y43627957D01*
X50369685Y43694996D01*
X50386314Y43715634D01*
X50464198Y43793517D01*
X50515573Y43898607D01*
X50525500Y43966740D01*
X50525500Y44333260D01*
X50515573Y44401393D01*
X50464198Y44506483D01*
X50464196Y44506485D01*
X50464196Y44506486D01*
X50432363Y44538319D01*
X50398878Y44599642D01*
X50403862Y44669334D01*
X50445734Y44725267D01*
X50511198Y44749684D01*
X50520044Y44750000D01*
X50718572Y44750000D01*
X50785611Y44730315D01*
G37*
%TD.AperFunction*%
%TD*%
%TA.AperFunction,Conductor*%
%TO.N,GND*%
G36*
X27442539Y44780315D02*
G01*
X27488294Y44727511D01*
X27499500Y44676000D01*
X27499500Y43759108D01*
X27513445Y43707065D01*
X27533608Y43631813D01*
X27555879Y43593240D01*
X27599500Y43517686D01*
X27599502Y43517684D01*
X27603072Y43511501D01*
X27619545Y43443601D01*
X27596693Y43377574D01*
X27541772Y43334383D01*
X27495685Y43325500D01*
X27186189Y43325500D01*
X27119150Y43345185D01*
X27098508Y43361819D01*
X26882011Y43578316D01*
X26848526Y43639639D01*
X26846753Y43682184D01*
X26848201Y43693177D01*
X26855682Y43750000D01*
X26848022Y43808180D01*
X26835044Y43906761D01*
X26835044Y43906762D01*
X26774536Y44052841D01*
X26678282Y44178282D01*
X26552841Y44274536D01*
X26500561Y44296191D01*
X26406762Y44335044D01*
X26406760Y44335045D01*
X26250001Y44355682D01*
X26249999Y44355682D01*
X26093239Y44335045D01*
X26093237Y44335044D01*
X25947160Y44274537D01*
X25821718Y44178282D01*
X25725463Y44052840D01*
X25664956Y43906763D01*
X25664955Y43906761D01*
X25644318Y43750002D01*
X25644318Y43749999D01*
X25664955Y43593240D01*
X25664956Y43593238D01*
X25723249Y43452505D01*
X25725464Y43447159D01*
X25821718Y43321718D01*
X25947159Y43225464D01*
X26093238Y43164956D01*
X26122125Y43161153D01*
X26249999Y43144318D01*
X26249999Y43144319D01*
X26250000Y43144318D01*
X26317817Y43153247D01*
X26386852Y43142482D01*
X26421684Y43117989D01*
X26800138Y42739535D01*
X26874361Y42696682D01*
X26957147Y42674500D01*
X27042853Y42674500D01*
X27957147Y42674500D01*
X29949080Y42674500D01*
X30016119Y42654815D01*
X30061874Y42602011D01*
X30063637Y42597962D01*
X30070535Y42581310D01*
X30081176Y42555618D01*
X30083183Y42550774D01*
X30179437Y42425333D01*
X30185736Y42420500D01*
X30211681Y42400591D01*
X30252883Y42344163D01*
X30257038Y42274417D01*
X30223875Y42214535D01*
X30222282Y42212942D01*
X30216830Y42207810D01*
X30171820Y42167933D01*
X30171815Y42167928D01*
X30166054Y42159582D01*
X30159386Y42151548D01*
X30159748Y42151251D01*
X30155890Y42146550D01*
X30120982Y42094308D01*
X30119931Y42092761D01*
X30075183Y42027932D01*
X30075181Y42027929D01*
X30049436Y41960047D01*
X30048058Y41956572D01*
X30026419Y41904327D01*
X30026418Y41904322D01*
X30026353Y41903994D01*
X30020680Y41884219D01*
X30014859Y41868871D01*
X30008361Y41815357D01*
X30006883Y41806118D01*
X29999500Y41768996D01*
X29999500Y41749875D01*
X29998596Y41734929D01*
X29994355Y41700001D01*
X29994355Y41700000D01*
X29997705Y41672407D01*
X29998596Y41665074D01*
X29999500Y41650127D01*
X29999500Y41631002D01*
X30006883Y41593880D01*
X30008361Y41584642D01*
X30014859Y41531130D01*
X30014860Y41531129D01*
X30020678Y41515788D01*
X30026354Y41496005D01*
X30026420Y41495673D01*
X30026420Y41495671D01*
X30048046Y41443462D01*
X30049424Y41439988D01*
X30075182Y41372070D01*
X30086494Y41355682D01*
X30119972Y41307180D01*
X30121024Y41305631D01*
X30155885Y41253458D01*
X30159751Y41248747D01*
X30159371Y41248436D01*
X30166061Y41240409D01*
X30176077Y41225899D01*
X30173807Y41224333D01*
X30198034Y41172806D01*
X30199500Y41153797D01*
X30199500Y40674500D01*
X30179815Y40607461D01*
X30127011Y40561706D01*
X30075500Y40550500D01*
X28109309Y40550500D01*
X27559309Y40550500D01*
X27140691Y40550500D01*
X27071944Y40532080D01*
X27026112Y40519799D01*
X27026107Y40519796D01*
X26923393Y40460495D01*
X26923385Y40460489D01*
X26449716Y39986819D01*
X26388393Y39953334D01*
X26362035Y39950500D01*
X26264942Y39950500D01*
X26130045Y39917252D01*
X26060243Y39920322D01*
X26003181Y39960642D01*
X25976976Y40025411D01*
X25989949Y40094066D01*
X26016831Y40129285D01*
X26080981Y40187764D01*
X26215058Y40365311D01*
X26314229Y40564472D01*
X26375115Y40778464D01*
X26395643Y41000000D01*
X26395642Y41000006D01*
X26375115Y41221536D01*
X26375114Y41221538D01*
X26373873Y41225899D01*
X26314229Y41435528D01*
X26312012Y41439981D01*
X26215061Y41634684D01*
X26215056Y41634692D01*
X26080979Y41812239D01*
X25916562Y41962124D01*
X25916560Y41962126D01*
X25727404Y42079246D01*
X25727398Y42079248D01*
X25519940Y42159618D01*
X25301243Y42200500D01*
X25078757Y42200500D01*
X24860060Y42159618D01*
X24773282Y42126000D01*
X24652601Y42079248D01*
X24652595Y42079246D01*
X24463439Y41962126D01*
X24463437Y41962124D01*
X24299020Y41812239D01*
X24164943Y41634692D01*
X24164938Y41634684D01*
X24065775Y41435539D01*
X24065769Y41435524D01*
X24004885Y41221538D01*
X24004884Y41221536D01*
X23984357Y41000001D01*
X23984357Y41000000D01*
X24004884Y40778465D01*
X24004885Y40778463D01*
X24065769Y40564477D01*
X24065775Y40564462D01*
X24164938Y40365317D01*
X24164943Y40365309D01*
X24299020Y40187762D01*
X24433733Y40064956D01*
X24456371Y40044318D01*
X24463437Y40037877D01*
X24463439Y40037875D01*
X24652595Y39920755D01*
X24652596Y39920755D01*
X24652599Y39920753D01*
X24697021Y39903544D01*
X24752422Y39860971D01*
X24776013Y39795204D01*
X24760302Y39727124D01*
X24739908Y39700236D01*
X23989537Y38949865D01*
X23989535Y38949862D01*
X23948179Y38878231D01*
X23946682Y38875639D01*
X23929219Y38810465D01*
X23929219Y38810464D01*
X23929218Y38810465D01*
X23924500Y38792858D01*
X23924500Y37957964D01*
X23946682Y37875176D01*
X23965369Y37842810D01*
X23989535Y37800954D01*
X23989536Y37800953D01*
X23989537Y37800952D01*
X24485194Y37305296D01*
X24485204Y37305285D01*
X24489534Y37300955D01*
X24489535Y37300954D01*
X24550138Y37240351D01*
X24573927Y37226617D01*
X24573929Y37226615D01*
X24573930Y37226615D01*
X24610591Y37205448D01*
X24624361Y37197498D01*
X24707147Y37175316D01*
X24998584Y37175316D01*
X25065623Y37155631D01*
X25086265Y37138997D01*
X25198215Y37027047D01*
X25231700Y36965724D01*
X25226716Y36896032D01*
X25186021Y36840991D01*
X25071720Y36753284D01*
X25071719Y36753283D01*
X25071718Y36753282D01*
X25021764Y36688181D01*
X24975463Y36627840D01*
X24914956Y36481763D01*
X24914955Y36481761D01*
X24894318Y36325002D01*
X24894318Y36324999D01*
X24914955Y36168240D01*
X24914956Y36168238D01*
X24965031Y36047345D01*
X24975464Y36022159D01*
X25071718Y35896718D01*
X25197159Y35800464D01*
X25343238Y35739956D01*
X25399910Y35732495D01*
X25499999Y35719318D01*
X25500000Y35719318D01*
X25500001Y35719318D01*
X25552254Y35726198D01*
X25656762Y35739956D01*
X25802841Y35800464D01*
X25928282Y35896718D01*
X25969923Y35950987D01*
X26026351Y35992189D01*
X26068299Y35999500D01*
X26601208Y35999500D01*
X26668247Y35979815D01*
X26714002Y35927011D01*
X26723946Y35857853D01*
X26694921Y35794297D01*
X26648660Y35760939D01*
X26626442Y35751737D01*
X26500999Y35655481D01*
X26404744Y35530039D01*
X26344237Y35383962D01*
X26344236Y35383960D01*
X26323599Y35227201D01*
X26323599Y35227198D01*
X26344236Y35070439D01*
X26344237Y35070437D01*
X26367886Y35013342D01*
X26404745Y34924358D01*
X26471605Y34837224D01*
X26501000Y34798916D01*
X26585902Y34733769D01*
X26627105Y34677341D01*
X26631260Y34607595D01*
X26608796Y34559913D01*
X26600763Y34549443D01*
X26600761Y34549440D01*
X26540252Y34403359D01*
X26540251Y34403357D01*
X26519614Y34246598D01*
X26519614Y34246595D01*
X26540251Y34089836D01*
X26540252Y34089834D01*
X26600760Y33943755D01*
X26697014Y33818314D01*
X26751283Y33776672D01*
X26792485Y33720247D01*
X26799796Y33678298D01*
X26799796Y33497747D01*
X26780111Y33430708D01*
X26763477Y33410066D01*
X26679594Y33326183D01*
X26618271Y33292698D01*
X26575728Y33290925D01*
X26507912Y33299853D01*
X26507910Y33299853D01*
X26351150Y33279216D01*
X26351148Y33279215D01*
X26205071Y33218708D01*
X26079629Y33122453D01*
X25983374Y32997011D01*
X25922867Y32850934D01*
X25922866Y32850932D01*
X25902229Y32694173D01*
X25902229Y32694170D01*
X25922866Y32537411D01*
X25922867Y32537409D01*
X25972182Y32418351D01*
X25983375Y32391330D01*
X26079629Y32265889D01*
X26205070Y32169635D01*
X26351149Y32109127D01*
X26390309Y32103972D01*
X26454204Y32075706D01*
X26492676Y32017382D01*
X26493508Y31947517D01*
X26456436Y31888293D01*
X26436124Y31873647D01*
X26413342Y31860494D01*
X26413338Y31860491D01*
X26130042Y31577196D01*
X26068719Y31543712D01*
X26012688Y31544481D01*
X25947863Y31560458D01*
X25947860Y31560458D01*
X25777748Y31560458D01*
X25612577Y31519748D01*
X25461954Y31440695D01*
X25334620Y31327886D01*
X25237986Y31187890D01*
X25177664Y31028833D01*
X25177663Y31028828D01*
X25157159Y30859958D01*
X25177663Y30691089D01*
X25177664Y30691084D01*
X25237986Y30532027D01*
X25282581Y30467421D01*
X25334621Y30392029D01*
X25409153Y30326000D01*
X25461954Y30279222D01*
X25602519Y30205448D01*
X25612579Y30200168D01*
X25777748Y30159458D01*
X25947860Y30159458D01*
X26113029Y30200168D01*
X26207975Y30250000D01*
X26263653Y30279222D01*
X26263654Y30279224D01*
X26263656Y30279224D01*
X26390987Y30392029D01*
X26487622Y30532028D01*
X26547944Y30691086D01*
X26547945Y30691099D01*
X26549419Y30697073D01*
X26582136Y30755083D01*
X26840234Y31013181D01*
X26901557Y31046666D01*
X26927915Y31049500D01*
X27113611Y31049500D01*
X27180650Y31029815D01*
X27226405Y30977011D01*
X27236349Y30907853D01*
X27230484Y30887116D01*
X27230984Y30886970D01*
X27191190Y30750002D01*
X27191192Y30750000D01*
X28126000Y30750000D01*
X28193039Y30730315D01*
X28238794Y30677511D01*
X28250000Y30626000D01*
X28250000Y30374000D01*
X28230315Y30306961D01*
X28177511Y30261206D01*
X28126000Y30250000D01*
X27191192Y30250000D01*
X27191190Y30249999D01*
X27228806Y30120527D01*
X27228807Y30120524D01*
X27312559Y29978906D01*
X27312565Y29978898D01*
X27404282Y29887181D01*
X27437767Y29825858D01*
X27432783Y29756166D01*
X27390911Y29700233D01*
X27325447Y29675816D01*
X27316601Y29675500D01*
X25404206Y29675500D01*
X25337167Y29695185D01*
X25291412Y29747989D01*
X25281267Y29815686D01*
X25285682Y29849220D01*
X25285682Y29849222D01*
X25271052Y29960347D01*
X25265044Y30005982D01*
X25204536Y30152061D01*
X25108282Y30277502D01*
X24982841Y30373756D01*
X24938721Y30392031D01*
X24836762Y30434264D01*
X24836760Y30434265D01*
X24680001Y30454902D01*
X24679999Y30454902D01*
X24523239Y30434265D01*
X24523237Y30434264D01*
X24377160Y30373757D01*
X24251718Y30277502D01*
X24155463Y30152060D01*
X24094956Y30005983D01*
X24094955Y30005981D01*
X24074318Y29849222D01*
X24074318Y29849219D01*
X24094955Y29692460D01*
X24094956Y29692458D01*
X24135459Y29594674D01*
X24155464Y29546379D01*
X24251718Y29420938D01*
X24377159Y29324684D01*
X24523238Y29264176D01*
X24551548Y29260449D01*
X24679999Y29243538D01*
X24680000Y29243538D01*
X24680001Y29243538D01*
X24715708Y29248240D01*
X24747818Y29252467D01*
X24816853Y29241702D01*
X24851685Y29217209D01*
X24914414Y29154480D01*
X24914424Y29154469D01*
X24918754Y29150139D01*
X24918755Y29150138D01*
X24979358Y29089535D01*
X24996693Y29079527D01*
X24996695Y29079525D01*
X24996696Y29079525D01*
X25053581Y29046682D01*
X25136367Y29024499D01*
X25136369Y29024499D01*
X25229669Y29024499D01*
X25229685Y29024500D01*
X29036188Y29024500D01*
X29036190Y29024500D01*
X29118976Y29046682D01*
X29193199Y29089535D01*
X30025336Y29921675D01*
X30086657Y29955158D01*
X30156348Y29950174D01*
X30187327Y29933258D01*
X30242910Y29891648D01*
X30242913Y29891646D01*
X30377620Y29841404D01*
X30377627Y29841402D01*
X30437155Y29835001D01*
X30437172Y29835000D01*
X30485000Y29835000D01*
X30485000Y30691000D01*
X30504685Y30758039D01*
X30557489Y30803794D01*
X30609000Y30815000D01*
X30841000Y30815000D01*
X30908039Y30795315D01*
X30953794Y30742511D01*
X30965000Y30691000D01*
X30965000Y29835000D01*
X31012828Y29835000D01*
X31012844Y29835001D01*
X31072372Y29841402D01*
X31072379Y29841404D01*
X31207086Y29891646D01*
X31214872Y29895897D01*
X31216491Y29892932D01*
X31266608Y29911645D01*
X31334887Y29896818D01*
X31384310Y29847431D01*
X31399500Y29787964D01*
X31399500Y29680248D01*
X31411131Y29621771D01*
X31411132Y29621770D01*
X31446799Y29568391D01*
X31467677Y29501714D01*
X31449193Y29434333D01*
X31397214Y29387643D01*
X31343697Y29375500D01*
X31307147Y29375500D01*
X31224359Y29353318D01*
X31150138Y29310465D01*
X31150135Y29310463D01*
X30489537Y28649865D01*
X30489535Y28649862D01*
X30446682Y28575640D01*
X30440215Y28551506D01*
X30403848Y28491847D01*
X30395929Y28485228D01*
X30321720Y28428285D01*
X30225463Y28302840D01*
X30164956Y28156763D01*
X30164955Y28156761D01*
X30144318Y28000002D01*
X30144318Y27999999D01*
X30164955Y27843240D01*
X30164956Y27843238D01*
X30207564Y27740372D01*
X30225464Y27697159D01*
X30321718Y27571718D01*
X30447159Y27475464D01*
X30593238Y27414956D01*
X30625285Y27410737D01*
X30749999Y27394318D01*
X30750000Y27394318D01*
X30750001Y27394318D01*
X30802254Y27401198D01*
X30906762Y27414956D01*
X31027970Y27465163D01*
X31097436Y27472631D01*
X31101781Y27471767D01*
X31115277Y27468831D01*
X31912319Y28265872D01*
X31973642Y28299357D01*
X32043334Y28294373D01*
X32087681Y28265872D01*
X32265871Y28087682D01*
X32299356Y28026359D01*
X32294372Y27956667D01*
X32265871Y27912320D01*
X31468829Y27115278D01*
X31492623Y27106403D01*
X31492627Y27106402D01*
X31552155Y27100001D01*
X31552172Y27100000D01*
X32423747Y27100000D01*
X32490786Y27080315D01*
X32536541Y27027511D01*
X32546485Y26958353D01*
X32536131Y26923601D01*
X32535932Y26923173D01*
X32535931Y26923170D01*
X32529500Y26874317D01*
X32529500Y26525684D01*
X32535931Y26476829D01*
X32585935Y26369596D01*
X32593350Y26362181D01*
X32626835Y26300858D01*
X32621851Y26231166D01*
X32579979Y26175233D01*
X32514515Y26150816D01*
X32505669Y26150500D01*
X29399500Y26150500D01*
X29332461Y26170185D01*
X29286706Y26222989D01*
X29275500Y26274500D01*
X29275500Y26576031D01*
X29275500Y26576033D01*
X29253208Y26659228D01*
X29248811Y26675639D01*
X29248811Y26675640D01*
X29244799Y26690611D01*
X29229891Y26716432D01*
X29185489Y26793338D01*
X27985224Y27993603D01*
X27931950Y28024361D01*
X27882498Y28052913D01*
X27870390Y28056157D01*
X27858283Y28059401D01*
X27858280Y28059402D01*
X27785922Y28078790D01*
X27767919Y28083614D01*
X27767918Y28083614D01*
X26694725Y28083614D01*
X26627686Y28103299D01*
X26612498Y28114799D01*
X26500694Y28213848D01*
X26500692Y28213850D01*
X26350068Y28292904D01*
X26184898Y28333614D01*
X26014786Y28333614D01*
X25849615Y28292904D01*
X25698992Y28213851D01*
X25571658Y28101042D01*
X25475024Y27961046D01*
X25414702Y27801989D01*
X25414701Y27801984D01*
X25394197Y27633114D01*
X25414701Y27464245D01*
X25414702Y27464240D01*
X25475024Y27305183D01*
X25535852Y27217060D01*
X25571659Y27165185D01*
X25638012Y27106402D01*
X25698992Y27052378D01*
X25799743Y26999500D01*
X25849617Y26973324D01*
X26014786Y26932614D01*
X26184898Y26932614D01*
X26350067Y26973324D01*
X26500694Y27052380D01*
X26612498Y27151429D01*
X26675731Y27181151D01*
X26694725Y27182614D01*
X27470645Y27182614D01*
X27537684Y27162929D01*
X27558326Y27146295D01*
X27857174Y26847447D01*
X27890659Y26786124D01*
X27885675Y26716432D01*
X27843803Y26660499D01*
X27813740Y26645895D01*
X27814318Y26644500D01*
X27806814Y26641393D01*
X27692686Y26575500D01*
X27692683Y26575498D01*
X27599502Y26482317D01*
X27599500Y26482314D01*
X27533608Y26368188D01*
X27499500Y26240892D01*
X27499500Y25324000D01*
X27479815Y25256961D01*
X27427011Y25211206D01*
X27375500Y25200000D01*
X25116162Y25200000D01*
X25105362Y25200471D01*
X25105030Y25200500D01*
X25004875Y25200500D01*
X24995146Y25200882D01*
X24806440Y25215734D01*
X24787222Y25218778D01*
X24607921Y25261824D01*
X24589415Y25267837D01*
X24419053Y25338404D01*
X24401716Y25347238D01*
X24244495Y25443583D01*
X24228753Y25455020D01*
X24088535Y25574778D01*
X24074777Y25588536D01*
X23955019Y25728754D01*
X23943582Y25744496D01*
X23847237Y25901717D01*
X23838403Y25919054D01*
X23805776Y25997822D01*
X23767833Y26089423D01*
X23761825Y26107915D01*
X23718776Y26287228D01*
X23715733Y26306441D01*
X23712765Y26344148D01*
X23700882Y26495147D01*
X23700500Y26504876D01*
X23700500Y32232005D01*
X23700499Y32232026D01*
X23665824Y32694724D01*
X23649827Y32800858D01*
X23596667Y33153552D01*
X23493414Y33605931D01*
X23356644Y34049328D01*
X23356641Y34049334D01*
X23356638Y34049346D01*
X23187131Y34481241D01*
X23187129Y34481245D01*
X23187121Y34481266D01*
X23065522Y34733769D01*
X22985794Y34899328D01*
X22985792Y34899331D01*
X22831882Y35165909D01*
X22753787Y35301173D01*
X22492400Y35684559D01*
X22203093Y36047338D01*
X22195976Y36055008D01*
X21887489Y36387479D01*
X21887478Y36387490D01*
X21547344Y36703088D01*
X21545178Y36704815D01*
X21184559Y36992400D01*
X20801173Y37253787D01*
X20770114Y37271719D01*
X20399330Y37485793D01*
X20399327Y37485795D01*
X19981283Y37687113D01*
X19981278Y37687116D01*
X19981266Y37687121D01*
X19981256Y37687125D01*
X19981240Y37687132D01*
X19549345Y37856639D01*
X19105943Y37993411D01*
X19105928Y37993415D01*
X18689899Y38088371D01*
X18653552Y38096667D01*
X18495297Y38120520D01*
X18194723Y38165825D01*
X17732025Y38200500D01*
X17732006Y38200500D01*
X17539882Y38200500D01*
X16039882Y38200500D01*
X16000000Y38200500D01*
X15826474Y38200500D01*
X15826472Y38200500D01*
X15481457Y38162978D01*
X15142518Y38088372D01*
X14941202Y38020540D01*
X14813633Y37977557D01*
X14813630Y37977556D01*
X14813622Y37977553D01*
X14498665Y37831839D01*
X14498652Y37831832D01*
X14201303Y37652924D01*
X14201287Y37652913D01*
X13925006Y37442891D01*
X13924997Y37442883D01*
X13673038Y37204215D01*
X13448368Y36939714D01*
X13448361Y36939704D01*
X13253602Y36652456D01*
X13253596Y36652447D01*
X13091042Y36345838D01*
X13091033Y36345820D01*
X12962579Y36023423D01*
X12962577Y36023416D01*
X12869738Y35689037D01*
X12869733Y35689013D01*
X12813589Y35346558D01*
X12813588Y35346545D01*
X12813588Y35346543D01*
X12807520Y35234627D01*
X12799098Y35079282D01*
X12794799Y35000000D01*
X12808314Y34750722D01*
X12813588Y34653460D01*
X12813589Y34653443D01*
X12869732Y34310990D01*
X12869738Y34310964D01*
X12962577Y33976585D01*
X12962579Y33976578D01*
X13091033Y33654181D01*
X13091042Y33654163D01*
X13253596Y33347554D01*
X13253599Y33347549D01*
X13253601Y33347546D01*
X13422795Y33098003D01*
X13448361Y33060297D01*
X13448368Y33060287D01*
X13668730Y32800858D01*
X13673039Y32795785D01*
X13924997Y32557117D01*
X14201283Y32347090D01*
X14201291Y32347085D01*
X14201303Y32347077D01*
X14496716Y32169334D01*
X14498657Y32168166D01*
X14498661Y32168165D01*
X14498665Y32168162D01*
X14779981Y32038012D01*
X14813633Y32022443D01*
X15142518Y31911629D01*
X15481456Y31837023D01*
X15826474Y31799500D01*
X15960118Y31799500D01*
X15995125Y31799500D01*
X16004853Y31799119D01*
X16193563Y31784267D01*
X16212772Y31781224D01*
X16392085Y31738175D01*
X16410577Y31732167D01*
X16496244Y31696682D01*
X16580946Y31661597D01*
X16598283Y31652763D01*
X16755504Y31556418D01*
X16771246Y31544981D01*
X16911464Y31425223D01*
X16925222Y31411465D01*
X17044980Y31271247D01*
X17056417Y31255505D01*
X17152762Y31098284D01*
X17161596Y31080947D01*
X17232163Y30910585D01*
X17238176Y30892079D01*
X17281222Y30712778D01*
X17284266Y30693560D01*
X17299118Y30504854D01*
X17299500Y30495125D01*
X17299500Y26901516D01*
X17299499Y26901502D01*
X17299499Y26856484D01*
X17299120Y26846797D01*
X17283345Y26645490D01*
X17280325Y26626344D01*
X17234505Y26434691D01*
X17228539Y26416250D01*
X17153416Y26234082D01*
X17144650Y26216797D01*
X17042050Y26048546D01*
X17030696Y26032838D01*
X16903145Y25882646D01*
X16889483Y25868898D01*
X16740073Y25740405D01*
X16724436Y25728955D01*
X16556841Y25625321D01*
X16539610Y25616447D01*
X16357907Y25540192D01*
X16339504Y25534111D01*
X16148132Y25487099D01*
X16129005Y25483961D01*
X15932656Y25467347D01*
X15913276Y25467227D01*
X15716737Y25481410D01*
X15697573Y25484311D01*
X15500758Y25530084D01*
X15491404Y25532649D01*
X15486788Y25534111D01*
X15458145Y25543184D01*
X15446004Y25544530D01*
X15446137Y25545733D01*
X15418909Y25548533D01*
X14901278Y25703455D01*
X14893910Y25705915D01*
X14375570Y25897159D01*
X14325287Y25915712D01*
X14318090Y25918625D01*
X14317119Y25919054D01*
X13931616Y26089416D01*
X13763686Y26163628D01*
X13756683Y26166989D01*
X13218720Y26446218D01*
X13211941Y26450011D01*
X12692525Y26762371D01*
X12685996Y26766581D01*
X12187144Y27110860D01*
X12180893Y27115470D01*
X11704583Y27490303D01*
X11698632Y27495296D01*
X11634998Y27552173D01*
X11246728Y27899214D01*
X11241108Y27904564D01*
X10815366Y28336004D01*
X10810086Y28341701D01*
X10412216Y28798923D01*
X10407303Y28804939D01*
X10362506Y28863447D01*
X10038823Y29286200D01*
X10034301Y29292507D01*
X9970493Y29387643D01*
X9696687Y29795883D01*
X9692565Y29802466D01*
X9628868Y29911645D01*
X9387127Y30326001D01*
X9383433Y30332815D01*
X9111369Y30874462D01*
X9108113Y30881484D01*
X9096876Y30907853D01*
X9011794Y31107516D01*
X8870498Y31439097D01*
X8867678Y31446335D01*
X8851148Y31493039D01*
X8665446Y32017725D01*
X8663090Y32025112D01*
X8660038Y32035827D01*
X8497028Y32608058D01*
X8495146Y32615549D01*
X8365907Y33207766D01*
X8364493Y33215389D01*
X8363984Y33218708D01*
X8272592Y33814510D01*
X8271662Y33822165D01*
X8217452Y34425893D01*
X8217001Y34433636D01*
X8216645Y34446883D01*
X8200700Y35039543D01*
X8200733Y35047268D01*
X8222403Y35653034D01*
X8222924Y35660775D01*
X8224005Y35671718D01*
X8282476Y36263957D01*
X8283481Y36271653D01*
X8283864Y36274010D01*
X8380688Y36869943D01*
X8382162Y36877510D01*
X8516646Y37468573D01*
X8518598Y37476058D01*
X8689824Y38057531D01*
X8692230Y38064845D01*
X8899529Y38634455D01*
X8902395Y38641625D01*
X9144952Y39197139D01*
X9148277Y39204145D01*
X9152983Y39213310D01*
X9425127Y39743353D01*
X9428873Y39750119D01*
X9444514Y39776391D01*
X20939942Y39776391D01*
X20986768Y39739945D01*
X20986770Y39739944D01*
X21205385Y39621636D01*
X21205396Y39621631D01*
X21440506Y39540917D01*
X21685707Y39500000D01*
X21934293Y39500000D01*
X22179493Y39540917D01*
X22414603Y39621631D01*
X22414614Y39621636D01*
X22633228Y39739943D01*
X22633231Y39739945D01*
X22680056Y39776391D01*
X21810000Y40646447D01*
X20939942Y39776391D01*
X9444514Y39776391D01*
X9738951Y40270951D01*
X9743111Y40277465D01*
X10085193Y40777863D01*
X10089747Y40784096D01*
X10258114Y41000006D01*
X20304859Y41000006D01*
X20304859Y40999995D01*
X20325385Y40752271D01*
X20325387Y40752262D01*
X20386412Y40511283D01*
X20486266Y40283636D01*
X20586564Y40130118D01*
X21456447Y41000000D01*
X21456447Y41000001D01*
X22163553Y41000001D01*
X22163553Y40999999D01*
X23033434Y40130118D01*
X23133731Y40283631D01*
X23233587Y40511283D01*
X23294612Y40752262D01*
X23294614Y40752271D01*
X23315141Y40999995D01*
X23315141Y41000006D01*
X23294614Y41247730D01*
X23294612Y41247739D01*
X23233587Y41488718D01*
X23133731Y41716370D01*
X23033434Y41869884D01*
X22163553Y41000001D01*
X21456447Y41000001D01*
X20586564Y41869884D01*
X20486267Y41716368D01*
X20386412Y41488718D01*
X20325387Y41247739D01*
X20325385Y41247730D01*
X20304859Y41000006D01*
X10258114Y41000006D01*
X10462508Y41262115D01*
X10467438Y41268043D01*
X10869382Y41721766D01*
X10874677Y41727378D01*
X11304241Y42155044D01*
X11309889Y42160325D01*
X11381969Y42223612D01*
X20939942Y42223612D01*
X20939942Y42223610D01*
X21810000Y41353553D01*
X21810001Y41353553D01*
X22680057Y42223610D01*
X22680056Y42223611D01*
X22633229Y42260057D01*
X22414614Y42378365D01*
X22414603Y42378370D01*
X22179493Y42459084D01*
X21934293Y42500000D01*
X21685707Y42500000D01*
X21440506Y42459084D01*
X21205396Y42378370D01*
X21205390Y42378368D01*
X20986761Y42260051D01*
X20939942Y42223612D01*
X11381969Y42223612D01*
X11765380Y42560250D01*
X11771366Y42565180D01*
X12250985Y42935783D01*
X12257257Y42940324D01*
X12759166Y43280188D01*
X12765702Y43284321D01*
X13287899Y43592087D01*
X13294667Y43595796D01*
X13835127Y43870269D01*
X13842157Y43873565D01*
X14398704Y44113645D01*
X14405882Y44116478D01*
X14976396Y44321248D01*
X14983770Y44323637D01*
X15565981Y44492282D01*
X15573474Y44494199D01*
X16165077Y44626053D01*
X16172700Y44627504D01*
X16771421Y44722060D01*
X16779090Y44723026D01*
X17382557Y44779909D01*
X17390303Y44780394D01*
X17998053Y44799440D01*
X18001937Y44799500D01*
X18105030Y44799500D01*
X18105362Y44799529D01*
X18116162Y44800000D01*
X27375500Y44800000D01*
X27442539Y44780315D01*
G37*
%TD.AperFunction*%
%TA.AperFunction,Conductor*%
G36*
X55934566Y26204815D02*
G01*
X55980321Y26152011D01*
X55990265Y26082853D01*
X55961240Y26019297D01*
X55923824Y25990017D01*
X55919114Y25987618D01*
X55830413Y25923172D01*
X55775786Y25883483D01*
X55775784Y25883481D01*
X55775783Y25883481D01*
X55650519Y25758217D01*
X55650519Y25758216D01*
X55650517Y25758214D01*
X55632975Y25734069D01*
X55546386Y25614891D01*
X55465957Y25457043D01*
X55465956Y25457040D01*
X55410280Y25285682D01*
X55370843Y25228007D01*
X55306484Y25200808D01*
X55292349Y25200000D01*
X52745852Y25200000D01*
X52678813Y25219685D01*
X52633058Y25272489D01*
X52623114Y25341647D01*
X52652139Y25405203D01*
X52682731Y25430732D01*
X52821094Y25512560D01*
X52821102Y25512566D01*
X52937434Y25628898D01*
X52937440Y25628906D01*
X53021192Y25770524D01*
X53021193Y25770527D01*
X53067094Y25928516D01*
X53067095Y25928522D01*
X53069999Y25965425D01*
X53070000Y25965440D01*
X53070000Y26100500D01*
X53089685Y26167539D01*
X53142489Y26213294D01*
X53194000Y26224500D01*
X55867527Y26224500D01*
X55934566Y26204815D01*
G37*
%TD.AperFunction*%
%TA.AperFunction,Conductor*%
G36*
X48930608Y41149352D02*
G01*
X48979676Y41099612D01*
X48993381Y41057113D01*
X49010853Y40924399D01*
X49013648Y40903170D01*
X49014956Y40893239D01*
X49014956Y40893238D01*
X49073346Y40752271D01*
X49075464Y40747159D01*
X49171718Y40621718D01*
X49297159Y40525464D01*
X49440604Y40466047D01*
X49495006Y40422207D01*
X49517071Y40355913D01*
X49499792Y40288214D01*
X49448655Y40240603D01*
X49447611Y40240087D01*
X49343515Y40189198D01*
X49260803Y40106486D01*
X49209426Y40001392D01*
X49199500Y39933261D01*
X49199500Y39666002D01*
X49179815Y39598963D01*
X49127011Y39553208D01*
X49057853Y39543264D01*
X49040905Y39546926D01*
X48971487Y39567094D01*
X48950000Y39568786D01*
X48950000Y39050000D01*
X50188500Y39050000D01*
X50255539Y39030315D01*
X50301294Y38977511D01*
X50312500Y38926000D01*
X50312500Y38674000D01*
X50292815Y38606961D01*
X50240011Y38561206D01*
X50188500Y38550000D01*
X48488000Y38550000D01*
X48488000Y38434000D01*
X48468315Y38366961D01*
X48415511Y38321206D01*
X48364000Y38310000D01*
X47875000Y38310000D01*
X47875000Y37791216D01*
X47896480Y37792906D01*
X48020905Y37829054D01*
X48090774Y37828855D01*
X48149444Y37790913D01*
X48178288Y37727275D01*
X48179500Y37709978D01*
X48179500Y37647822D01*
X48185420Y37607191D01*
X48189460Y37579458D01*
X48241011Y37474010D01*
X48324008Y37391013D01*
X48335755Y37385270D01*
X48387338Y37338142D01*
X48405252Y37270608D01*
X48388028Y37210749D01*
X48347779Y37142691D01*
X48347779Y37142690D01*
X48302844Y36988025D01*
X48302843Y36988019D01*
X48300000Y36951891D01*
X48300000Y36922990D01*
X48280315Y36855951D01*
X48227511Y36810196D01*
X48158353Y36800252D01*
X48094797Y36829277D01*
X48088319Y36835308D01*
X47963137Y36960490D01*
X47860410Y37019800D01*
X47857531Y37020571D01*
X47835173Y37028943D01*
X47770541Y37060540D01*
X47760774Y37061963D01*
X47702178Y37070500D01*
X47297822Y37070500D01*
X47252247Y37063860D01*
X47229457Y37060540D01*
X47124009Y37008989D01*
X47041011Y36925991D01*
X46989460Y36820543D01*
X46987953Y36810196D01*
X46979500Y36752178D01*
X46979500Y36447822D01*
X46989460Y36379460D01*
X46989460Y36379459D01*
X46990849Y36369930D01*
X46988502Y36369589D01*
X46989294Y36313310D01*
X46952350Y36254007D01*
X46932962Y36239840D01*
X46928903Y36237440D01*
X46928900Y36237437D01*
X46812565Y36121103D01*
X46812558Y36121094D01*
X46809069Y36115193D01*
X46757999Y36067510D01*
X46689257Y36055008D01*
X46624668Y36081655D01*
X46596791Y36118839D01*
X46595652Y36118077D01*
X46537767Y36204707D01*
X46541081Y36206922D01*
X46518301Y36248642D01*
X46523285Y36318334D01*
X46539756Y36343964D01*
X46537767Y36345293D01*
X46574321Y36400000D01*
X46588867Y36421769D01*
X46588867Y36421771D01*
X46588868Y36421771D01*
X46599037Y36472898D01*
X46600500Y36480252D01*
X46600500Y36919748D01*
X46600500Y36919751D01*
X46600499Y36919753D01*
X46588868Y36978230D01*
X46588867Y36978231D01*
X46537767Y37054707D01*
X46541081Y37056922D01*
X46518301Y37098642D01*
X46523285Y37168334D01*
X46539756Y37193964D01*
X46537767Y37195293D01*
X46576849Y37253783D01*
X46588867Y37271769D01*
X46588867Y37271771D01*
X46588868Y37271771D01*
X46600499Y37330248D01*
X46600500Y37330250D01*
X46600500Y37663444D01*
X46620185Y37730483D01*
X46650189Y37762710D01*
X46757187Y37842810D01*
X46757190Y37842813D01*
X46832600Y37943546D01*
X46888533Y37985417D01*
X46958225Y37990401D01*
X47019547Y37956916D01*
X47053897Y37922566D01*
X47053905Y37922560D01*
X47195523Y37838808D01*
X47195526Y37838807D01*
X47353519Y37792906D01*
X47375000Y37791216D01*
X47375000Y38310000D01*
X46943000Y38310000D01*
X46937180Y38304181D01*
X46923315Y38256961D01*
X46870511Y38211206D01*
X46819000Y38200000D01*
X45140880Y38200000D01*
X45109278Y38209280D01*
X45100000Y38200001D01*
X45100000Y38152156D01*
X45106401Y38092628D01*
X45106403Y38092621D01*
X45156645Y37957914D01*
X45156649Y37957907D01*
X45242809Y37842813D01*
X45242812Y37842810D01*
X45349811Y37762710D01*
X45391682Y37706777D01*
X45399500Y37663444D01*
X45399500Y37330248D01*
X45411131Y37271771D01*
X45411132Y37271770D01*
X45462233Y37195293D01*
X45458918Y37193079D01*
X45481699Y37151358D01*
X45476715Y37081666D01*
X45460243Y37056037D01*
X45462233Y37054707D01*
X45411132Y36978231D01*
X45411131Y36978230D01*
X45399500Y36919753D01*
X45399500Y36480248D01*
X45411131Y36421771D01*
X45411132Y36421770D01*
X45462233Y36345293D01*
X45458918Y36343079D01*
X45481699Y36301358D01*
X45476715Y36231666D01*
X45460243Y36206037D01*
X45462233Y36204707D01*
X45411132Y36128231D01*
X45411131Y36128230D01*
X45399500Y36069753D01*
X45399500Y35630248D01*
X45411131Y35571771D01*
X45411132Y35571770D01*
X45462233Y35495293D01*
X45458918Y35493079D01*
X45481699Y35451358D01*
X45476715Y35381666D01*
X45460243Y35356037D01*
X45462233Y35354707D01*
X45411132Y35278231D01*
X45411131Y35278230D01*
X45399500Y35219753D01*
X45399500Y34907647D01*
X45379815Y34840608D01*
X45327011Y34794853D01*
X45259315Y34784708D01*
X45100001Y34805682D01*
X45099999Y34805682D01*
X44943239Y34785045D01*
X44943237Y34785044D01*
X44797160Y34724537D01*
X44671718Y34628282D01*
X44575463Y34502840D01*
X44514956Y34356763D01*
X44514955Y34356761D01*
X44494318Y34200002D01*
X44494318Y34199999D01*
X44514955Y34043240D01*
X44514956Y34043238D01*
X44570514Y33909108D01*
X44575464Y33897159D01*
X44671718Y33771718D01*
X44797159Y33675464D01*
X44943238Y33614956D01*
X45011691Y33605944D01*
X45099999Y33594318D01*
X45100000Y33594318D01*
X45256762Y33614956D01*
X45256765Y33614958D01*
X45259314Y33615293D01*
X45328349Y33604528D01*
X45380605Y33558148D01*
X45399500Y33492354D01*
X45399500Y33080248D01*
X45411131Y33021771D01*
X45411132Y33021770D01*
X45462233Y32945293D01*
X45458918Y32943079D01*
X45481699Y32901358D01*
X45476715Y32831666D01*
X45460243Y32806037D01*
X45462233Y32804707D01*
X45411132Y32728231D01*
X45411131Y32728230D01*
X45399500Y32669753D01*
X45399500Y32230248D01*
X45411131Y32171771D01*
X45411132Y32171770D01*
X45462233Y32095293D01*
X45458918Y32093079D01*
X45481699Y32051358D01*
X45476715Y31981666D01*
X45460243Y31956037D01*
X45462233Y31954707D01*
X45411132Y31878231D01*
X45411131Y31878230D01*
X45399500Y31819753D01*
X45399500Y31380248D01*
X45411131Y31321771D01*
X45411132Y31321770D01*
X45462233Y31245293D01*
X45458918Y31243079D01*
X45481699Y31201358D01*
X45476715Y31131666D01*
X45460243Y31106037D01*
X45462233Y31104707D01*
X45411132Y31028231D01*
X45411131Y31028230D01*
X45399500Y30969753D01*
X45399500Y30530248D01*
X45411131Y30471771D01*
X45411132Y30471770D01*
X45462233Y30395293D01*
X45458918Y30393079D01*
X45481699Y30351358D01*
X45476715Y30281666D01*
X45460243Y30256037D01*
X45462233Y30254707D01*
X45411132Y30178231D01*
X45411131Y30178230D01*
X45399500Y30119753D01*
X45399500Y29680248D01*
X45411131Y29621771D01*
X45411132Y29621770D01*
X45462233Y29545293D01*
X45458918Y29543079D01*
X45481699Y29501358D01*
X45476715Y29431666D01*
X45460243Y29406037D01*
X45462233Y29404707D01*
X45411132Y29328231D01*
X45411131Y29328230D01*
X45399500Y29269753D01*
X45399500Y28830248D01*
X45411131Y28771771D01*
X45411132Y28771770D01*
X45433100Y28738893D01*
X45445502Y28699284D01*
X45488890Y28683102D01*
X45521769Y28661133D01*
X45521771Y28661133D01*
X45521772Y28661132D01*
X45521770Y28661132D01*
X45580247Y28649501D01*
X45580250Y28649500D01*
X45652691Y28649500D01*
X45719730Y28629815D01*
X45740372Y28613181D01*
X46000000Y28353553D01*
X46259628Y28613181D01*
X46320951Y28646666D01*
X46347309Y28649500D01*
X46419750Y28649500D01*
X46419751Y28649501D01*
X46434568Y28652448D01*
X46478229Y28661132D01*
X46478229Y28661133D01*
X46478231Y28661133D01*
X46544552Y28705448D01*
X46588867Y28771769D01*
X46588867Y28771771D01*
X46588868Y28771771D01*
X46597552Y28815432D01*
X46600500Y28830252D01*
X46600500Y29269748D01*
X46600500Y29269751D01*
X46600499Y29269753D01*
X46588868Y29328230D01*
X46588867Y29328231D01*
X46537767Y29404707D01*
X46541081Y29406922D01*
X46518301Y29448642D01*
X46521975Y29500014D01*
X48725001Y29500014D01*
X48735494Y29397303D01*
X48790641Y29230881D01*
X48790643Y29230876D01*
X48882684Y29081655D01*
X49006654Y28957685D01*
X49155875Y28865644D01*
X49155880Y28865642D01*
X49322302Y28810495D01*
X49322309Y28810494D01*
X49425019Y28800001D01*
X50149999Y28800001D01*
X50150000Y28800002D01*
X50150000Y29712500D01*
X48725001Y29712500D01*
X48725001Y29500014D01*
X46521975Y29500014D01*
X46523285Y29518334D01*
X46539756Y29543964D01*
X46537767Y29545293D01*
X46558735Y29576676D01*
X46588867Y29621769D01*
X46588867Y29621771D01*
X46588868Y29621771D01*
X46597552Y29665432D01*
X46600500Y29680252D01*
X46600500Y30119748D01*
X46600500Y30119751D01*
X46600499Y30119753D01*
X46588868Y30178230D01*
X46588867Y30178231D01*
X46537767Y30254707D01*
X46541081Y30256922D01*
X46518301Y30298642D01*
X46523285Y30368334D01*
X46539756Y30393964D01*
X46537767Y30395293D01*
X46563776Y30434218D01*
X46588867Y30471769D01*
X46588867Y30471771D01*
X46588868Y30471771D01*
X46600499Y30530248D01*
X46600500Y30530250D01*
X46600500Y30756475D01*
X47479500Y30756475D01*
X47479500Y30611525D01*
X47516948Y30471770D01*
X47517017Y30471512D01*
X47589488Y30345989D01*
X47589490Y30345987D01*
X47589491Y30345985D01*
X47691985Y30243491D01*
X47691986Y30243490D01*
X47691988Y30243489D01*
X47817511Y30171018D01*
X47817512Y30171018D01*
X47817515Y30171016D01*
X47957525Y30133500D01*
X47957528Y30133500D01*
X48102472Y30133500D01*
X48102475Y30133500D01*
X48242485Y30171016D01*
X48368015Y30243491D01*
X48470509Y30345985D01*
X48493613Y30386002D01*
X48544180Y30434218D01*
X48612787Y30447440D01*
X48677652Y30421472D01*
X48718180Y30364558D01*
X48725000Y30324002D01*
X48725000Y30212500D01*
X50150000Y30212500D01*
X50150000Y31125000D01*
X49425028Y31125000D01*
X49425012Y31124999D01*
X49322302Y31114506D01*
X49155880Y31059359D01*
X49155875Y31059357D01*
X49006654Y30967316D01*
X48882683Y30843345D01*
X48882680Y30843341D01*
X48806700Y30720158D01*
X48754752Y30673433D01*
X48685790Y30662212D01*
X48621708Y30690055D01*
X48582852Y30748124D01*
X48581387Y30753161D01*
X48580500Y30756473D01*
X48580500Y30756475D01*
X48542984Y30896485D01*
X48540049Y30901568D01*
X48470511Y31022012D01*
X48470506Y31022018D01*
X48368017Y31124507D01*
X48368011Y31124512D01*
X48242488Y31196983D01*
X48242489Y31196983D01*
X48226161Y31201358D01*
X48102475Y31234500D01*
X47957525Y31234500D01*
X47833839Y31201358D01*
X47817511Y31196983D01*
X47691988Y31124512D01*
X47691982Y31124507D01*
X47589493Y31022018D01*
X47589488Y31022012D01*
X47517017Y30896489D01*
X47517016Y30896485D01*
X47479500Y30756475D01*
X46600500Y30756475D01*
X46600500Y30969751D01*
X46600499Y30969753D01*
X46588868Y31028230D01*
X46588867Y31028231D01*
X46537767Y31104707D01*
X46541081Y31106922D01*
X46518301Y31148642D01*
X46523285Y31218334D01*
X46539756Y31243964D01*
X46537767Y31245293D01*
X46562615Y31282481D01*
X46588867Y31321769D01*
X46588867Y31321771D01*
X46588868Y31321771D01*
X46600499Y31380248D01*
X46600500Y31380250D01*
X46600500Y31819751D01*
X46600499Y31819753D01*
X46588868Y31878230D01*
X46588867Y31878231D01*
X46553201Y31931609D01*
X46532323Y31998286D01*
X46550807Y32065667D01*
X46602786Y32112357D01*
X46656303Y32124500D01*
X46746191Y32124500D01*
X46746193Y32124500D01*
X46828979Y32146682D01*
X46903202Y32189535D01*
X47301787Y32588121D01*
X47363108Y32621604D01*
X47432799Y32616620D01*
X47488733Y32574749D01*
X47509240Y32532533D01*
X47517015Y32503517D01*
X47517017Y32503512D01*
X47589488Y32377989D01*
X47589490Y32377987D01*
X47589491Y32377985D01*
X47691985Y32275491D01*
X47691986Y32275490D01*
X47691988Y32275489D01*
X47817511Y32203018D01*
X47817512Y32203018D01*
X47817515Y32203016D01*
X47957525Y32165500D01*
X47957528Y32165500D01*
X48102472Y32165500D01*
X48102475Y32165500D01*
X48242485Y32203016D01*
X48368015Y32275491D01*
X48392266Y32299743D01*
X48453585Y32333226D01*
X48523277Y32328242D01*
X48579211Y32286372D01*
X48594505Y32259514D01*
X48596678Y32254268D01*
X48596681Y32254262D01*
X48596682Y32254261D01*
X48639535Y32180038D01*
X48639536Y32180037D01*
X48639537Y32180036D01*
X49015094Y31804480D01*
X49015104Y31804469D01*
X49019434Y31800139D01*
X49019435Y31800138D01*
X49080038Y31739535D01*
X49115408Y31719114D01*
X49115409Y31719113D01*
X49154255Y31696685D01*
X49154258Y31696683D01*
X49154260Y31696683D01*
X49154261Y31696682D01*
X49237047Y31674499D01*
X49237049Y31674499D01*
X49330349Y31674499D01*
X49330365Y31674500D01*
X51413811Y31674500D01*
X51480850Y31654815D01*
X51501492Y31638181D01*
X51538181Y31601492D01*
X51571666Y31540169D01*
X51574500Y31513811D01*
X51574500Y31241931D01*
X51554815Y31174892D01*
X51502011Y31129137D01*
X51437899Y31118573D01*
X51374991Y31125000D01*
X50650000Y31125000D01*
X50650000Y28800001D01*
X51374972Y28800001D01*
X51374984Y28800002D01*
X51437897Y28806429D01*
X51506590Y28793660D01*
X51557475Y28745779D01*
X51574500Y28683071D01*
X51574500Y28553091D01*
X51554815Y28486052D01*
X51508653Y28446053D01*
X51508921Y28445652D01*
X51505731Y28443521D01*
X51502011Y28440297D01*
X51498842Y28438918D01*
X51449192Y28405743D01*
X51394256Y28350806D01*
X51361132Y28301230D01*
X51359768Y28294373D01*
X51352858Y28259628D01*
X51349500Y28242747D01*
X51349500Y28217303D01*
X51345276Y28185213D01*
X51342500Y28174853D01*
X51342500Y28089146D01*
X51345275Y28078790D01*
X51349500Y28046698D01*
X51349500Y27780248D01*
X51361131Y27721771D01*
X51361132Y27721770D01*
X51383953Y27687616D01*
X51404831Y27620938D01*
X51386346Y27553558D01*
X51383954Y27549835D01*
X51346132Y27493230D01*
X51346131Y27493230D01*
X51334500Y27434753D01*
X51334500Y27246189D01*
X51314815Y27179150D01*
X51298181Y27158508D01*
X51039537Y26899865D01*
X51039535Y26899862D01*
X50996680Y26825637D01*
X50980466Y26765120D01*
X50974500Y26742856D01*
X50974500Y26710841D01*
X50954815Y26643802D01*
X50938181Y26623160D01*
X50891011Y26575991D01*
X50839460Y26470543D01*
X50839460Y26470540D01*
X50829500Y26402178D01*
X50829500Y25997822D01*
X50834218Y25965440D01*
X50839460Y25929458D01*
X50888591Y25828961D01*
X50900351Y25760088D01*
X50873008Y25695790D01*
X50815243Y25656483D01*
X50777191Y25650500D01*
X38794500Y25650500D01*
X38727461Y25670185D01*
X38681706Y25722989D01*
X38670500Y25774500D01*
X38670500Y25874317D01*
X38665797Y25910039D01*
X38664068Y25923173D01*
X38614065Y26030404D01*
X38532150Y26112319D01*
X38498665Y26173642D01*
X38503649Y26243334D01*
X38532150Y26287681D01*
X38551292Y26306823D01*
X38614065Y26369596D01*
X38664068Y26476827D01*
X38670500Y26525684D01*
X38670500Y26874316D01*
X38664068Y26923173D01*
X38614065Y27030404D01*
X38530404Y27114065D01*
X38530402Y27114067D01*
X38528672Y27115278D01*
X45468829Y27115278D01*
X45492623Y27106403D01*
X45492627Y27106402D01*
X45552155Y27100001D01*
X45552172Y27100000D01*
X46447828Y27100000D01*
X46447844Y27100001D01*
X46507375Y27106402D01*
X46531170Y27115277D01*
X46531170Y27115278D01*
X46000001Y27646447D01*
X46000000Y27646447D01*
X45468829Y27115278D01*
X38528672Y27115278D01*
X38528371Y27115489D01*
X38525946Y27118523D01*
X38522733Y27121736D01*
X38523091Y27122095D01*
X38484749Y27170069D01*
X38475500Y27217060D01*
X38475500Y27343698D01*
X38495185Y27410737D01*
X38547989Y27456492D01*
X38617147Y27466436D01*
X38668392Y27446799D01*
X38721768Y27411133D01*
X38721770Y27411132D01*
X38780247Y27399501D01*
X38780250Y27399500D01*
X38780252Y27399500D01*
X39219750Y27399500D01*
X39219751Y27399501D01*
X39234568Y27402448D01*
X39278229Y27411132D01*
X39278229Y27411133D01*
X39278231Y27411133D01*
X39344552Y27455448D01*
X39344551Y27455448D01*
X39354707Y27462233D01*
X39356921Y27458919D01*
X39398642Y27481699D01*
X39468334Y27476715D01*
X39493963Y27460244D01*
X39495293Y27462233D01*
X39571769Y27411133D01*
X39571770Y27411132D01*
X39630247Y27399501D01*
X39630250Y27399500D01*
X39630252Y27399500D01*
X40069750Y27399500D01*
X40069751Y27399501D01*
X40084568Y27402448D01*
X40128229Y27411132D01*
X40128229Y27411133D01*
X40128231Y27411133D01*
X40194552Y27455448D01*
X40194551Y27455448D01*
X40204707Y27462233D01*
X40206921Y27458919D01*
X40248642Y27481699D01*
X40318334Y27476715D01*
X40343963Y27460244D01*
X40345293Y27462233D01*
X40421769Y27411133D01*
X40421770Y27411132D01*
X40480247Y27399501D01*
X40480250Y27399500D01*
X40480252Y27399500D01*
X40919750Y27399500D01*
X40919751Y27399501D01*
X40934568Y27402448D01*
X40978229Y27411132D01*
X40978229Y27411133D01*
X40978231Y27411133D01*
X41044552Y27455448D01*
X41044551Y27455448D01*
X41054707Y27462233D01*
X41056921Y27458919D01*
X41098642Y27481699D01*
X41168334Y27476715D01*
X41193963Y27460244D01*
X41195293Y27462233D01*
X41271769Y27411133D01*
X41271770Y27411132D01*
X41330247Y27399501D01*
X41330250Y27399500D01*
X41330252Y27399500D01*
X41769750Y27399500D01*
X41769751Y27399501D01*
X41784568Y27402448D01*
X41828229Y27411132D01*
X41828229Y27411133D01*
X41828231Y27411133D01*
X41894552Y27455448D01*
X41894551Y27455448D01*
X41904707Y27462233D01*
X41906921Y27458919D01*
X41948642Y27481699D01*
X42018334Y27476715D01*
X42043963Y27460244D01*
X42045293Y27462233D01*
X42121769Y27411133D01*
X42121770Y27411132D01*
X42180247Y27399501D01*
X42180250Y27399500D01*
X42180252Y27399500D01*
X42619750Y27399500D01*
X42619751Y27399501D01*
X42634568Y27402448D01*
X42678229Y27411132D01*
X42678229Y27411133D01*
X42678231Y27411133D01*
X42744552Y27455448D01*
X42744551Y27455448D01*
X42754707Y27462233D01*
X42756921Y27458919D01*
X42798642Y27481699D01*
X42868334Y27476715D01*
X42893963Y27460244D01*
X42895293Y27462233D01*
X42971769Y27411133D01*
X42971770Y27411132D01*
X43030247Y27399501D01*
X43030250Y27399500D01*
X43030252Y27399500D01*
X43469750Y27399500D01*
X43469751Y27399501D01*
X43484568Y27402448D01*
X43528229Y27411132D01*
X43528229Y27411133D01*
X43528231Y27411133D01*
X43594552Y27455448D01*
X43594551Y27455448D01*
X43604707Y27462233D01*
X43606921Y27458919D01*
X43648642Y27481699D01*
X43718334Y27476715D01*
X43743963Y27460244D01*
X43745293Y27462233D01*
X43821769Y27411133D01*
X43821770Y27411132D01*
X43880247Y27399501D01*
X43880250Y27399500D01*
X43880252Y27399500D01*
X44319750Y27399500D01*
X44319751Y27399501D01*
X44334568Y27402448D01*
X44378229Y27411132D01*
X44378229Y27411133D01*
X44378231Y27411133D01*
X44444552Y27455448D01*
X44444551Y27455448D01*
X44454707Y27462233D01*
X44456921Y27458919D01*
X44498642Y27481699D01*
X44568334Y27476715D01*
X44593963Y27460244D01*
X44595293Y27462233D01*
X44671769Y27411133D01*
X44671770Y27411132D01*
X44730247Y27399501D01*
X44730250Y27399500D01*
X44730252Y27399500D01*
X45169750Y27399500D01*
X45169751Y27399501D01*
X45184568Y27402448D01*
X45228229Y27411132D01*
X45228229Y27411133D01*
X45228231Y27411133D01*
X45294552Y27455448D01*
X45338867Y27521769D01*
X45338867Y27521771D01*
X45338868Y27521771D01*
X45350499Y27580248D01*
X45350500Y27580250D01*
X45350500Y27652691D01*
X45370185Y27719730D01*
X45386819Y27740372D01*
X45646447Y28000000D01*
X45646446Y28000001D01*
X46353553Y28000001D01*
X46353553Y28000000D01*
X46884722Y27468830D01*
X46884723Y27468830D01*
X46893598Y27492625D01*
X46899999Y27552156D01*
X46900000Y27552173D01*
X46900000Y28447828D01*
X46899999Y28447845D01*
X46893598Y28507373D01*
X46893597Y28507377D01*
X46884722Y28531171D01*
X46353553Y28000001D01*
X45646446Y28000001D01*
X45386819Y28259628D01*
X45353334Y28320951D01*
X45350500Y28347309D01*
X45350500Y28419751D01*
X45350499Y28419753D01*
X45338868Y28478229D01*
X45338867Y28478231D01*
X45316898Y28511109D01*
X45304496Y28550717D01*
X45261107Y28566900D01*
X45228230Y28588868D01*
X45228229Y28588869D01*
X45169752Y28600500D01*
X45169748Y28600500D01*
X44730252Y28600500D01*
X44730247Y28600500D01*
X44671770Y28588869D01*
X44671769Y28588868D01*
X44595293Y28537767D01*
X44593078Y28541082D01*
X44551358Y28518301D01*
X44481666Y28523285D01*
X44456036Y28539757D01*
X44454707Y28537767D01*
X44378230Y28588868D01*
X44378229Y28588869D01*
X44319752Y28600500D01*
X44319748Y28600500D01*
X43880252Y28600500D01*
X43880247Y28600500D01*
X43821770Y28588869D01*
X43821769Y28588868D01*
X43745293Y28537767D01*
X43743078Y28541082D01*
X43701358Y28518301D01*
X43631666Y28523285D01*
X43606036Y28539757D01*
X43604707Y28537767D01*
X43528230Y28588868D01*
X43528229Y28588869D01*
X43469752Y28600500D01*
X43469748Y28600500D01*
X43030252Y28600500D01*
X43030247Y28600500D01*
X42971770Y28588869D01*
X42971769Y28588868D01*
X42895293Y28537767D01*
X42893078Y28541082D01*
X42851358Y28518301D01*
X42781666Y28523285D01*
X42756036Y28539757D01*
X42754707Y28537767D01*
X42678230Y28588868D01*
X42678229Y28588869D01*
X42619752Y28600500D01*
X42619748Y28600500D01*
X42180252Y28600500D01*
X42180247Y28600500D01*
X42121770Y28588869D01*
X42121769Y28588868D01*
X42045293Y28537767D01*
X42043078Y28541082D01*
X42001358Y28518301D01*
X41931666Y28523285D01*
X41906036Y28539757D01*
X41904707Y28537767D01*
X41828230Y28588868D01*
X41828229Y28588869D01*
X41769752Y28600500D01*
X41769748Y28600500D01*
X41518751Y28600500D01*
X41451712Y28620185D01*
X41405957Y28672989D01*
X41396013Y28742147D01*
X41398973Y28756583D01*
X41400500Y28762279D01*
X41400500Y28847985D01*
X41400500Y29635574D01*
X41420185Y29702613D01*
X41449010Y29733947D01*
X41482670Y29759774D01*
X41578924Y29885215D01*
X41639432Y30031294D01*
X41658164Y30173580D01*
X41660070Y30188055D01*
X41660070Y30188058D01*
X41641350Y30330252D01*
X41639432Y30344818D01*
X41578924Y30490897D01*
X41482670Y30616338D01*
X41482667Y30616340D01*
X41477722Y30622785D01*
X41479287Y30623987D01*
X41450933Y30675913D01*
X41455917Y30745605D01*
X41496615Y30800648D01*
X41503592Y30806001D01*
X41599846Y30931442D01*
X41628244Y31000001D01*
X42895287Y31000001D01*
X42895287Y31000000D01*
X42914096Y30797011D01*
X42914097Y30797008D01*
X42969883Y30600937D01*
X42969886Y30600931D01*
X43060751Y30418449D01*
X43062533Y30416089D01*
X43517037Y30870592D01*
X43534075Y30807007D01*
X43599901Y30692993D01*
X43692993Y30599901D01*
X43807007Y30534075D01*
X43870590Y30517038D01*
X43419311Y30065760D01*
X43507585Y30011103D01*
X43697678Y29937461D01*
X43898072Y29900000D01*
X44101928Y29900000D01*
X44302322Y29937461D01*
X44492412Y30011101D01*
X44492416Y30011103D01*
X44580686Y30065759D01*
X44580686Y30065760D01*
X44129409Y30517038D01*
X44192993Y30534075D01*
X44307007Y30599901D01*
X44400099Y30692993D01*
X44465925Y30807007D01*
X44482962Y30870591D01*
X44937465Y30416088D01*
X44939247Y30418447D01*
X44939248Y30418449D01*
X45030113Y30600931D01*
X45030116Y30600937D01*
X45085902Y30797008D01*
X45085903Y30797011D01*
X45104713Y31000000D01*
X45104713Y31000001D01*
X45085903Y31202990D01*
X45085902Y31202993D01*
X45030116Y31399064D01*
X45030113Y31399070D01*
X44939249Y31581551D01*
X44939247Y31581553D01*
X44937465Y31583913D01*
X44482962Y31129410D01*
X44465925Y31192993D01*
X44400099Y31307007D01*
X44307007Y31400099D01*
X44192993Y31465925D01*
X44129409Y31482963D01*
X44580687Y31934242D01*
X44492413Y31988899D01*
X44492411Y31988900D01*
X44302321Y32062540D01*
X44101928Y32100000D01*
X43898072Y32100000D01*
X43697678Y32062540D01*
X43507588Y31988900D01*
X43507581Y31988896D01*
X43419312Y31934243D01*
X43419311Y31934242D01*
X43870591Y31482963D01*
X43807007Y31465925D01*
X43692993Y31400099D01*
X43599901Y31307007D01*
X43534075Y31192993D01*
X43517037Y31129409D01*
X43062533Y31583913D01*
X43060755Y31581558D01*
X43060754Y31581557D01*
X42969886Y31399070D01*
X42969883Y31399064D01*
X42914097Y31202993D01*
X42914096Y31202990D01*
X42895287Y31000001D01*
X41628244Y31000001D01*
X41660354Y31077521D01*
X41679854Y31225639D01*
X41680992Y31234282D01*
X41680992Y31234285D01*
X41664179Y31361989D01*
X41660354Y31391045D01*
X41599846Y31537124D01*
X41503592Y31662565D01*
X41378151Y31758819D01*
X41345187Y31772473D01*
X41232072Y31819327D01*
X41232070Y31819328D01*
X41075311Y31839965D01*
X41075309Y31839965D01*
X40918549Y31819328D01*
X40918547Y31819327D01*
X40772470Y31758820D01*
X40647028Y31662565D01*
X40550773Y31537123D01*
X40490266Y31391046D01*
X40490265Y31391044D01*
X40469628Y31234285D01*
X40469628Y31234282D01*
X40478556Y31166464D01*
X40467790Y31097428D01*
X40443298Y31062598D01*
X40120654Y30739953D01*
X40060050Y30679350D01*
X40060046Y30679345D01*
X40047009Y30656763D01*
X40017195Y30605124D01*
X40017194Y30605124D01*
X40007667Y30569562D01*
X40007667Y30569561D01*
X39995014Y30522339D01*
X39995014Y30018769D01*
X39975329Y29951730D01*
X39922525Y29905975D01*
X39887200Y29895830D01*
X39743238Y29876877D01*
X39743237Y29876877D01*
X39597160Y29816370D01*
X39471718Y29720115D01*
X39375463Y29594673D01*
X39314956Y29448596D01*
X39314955Y29448594D01*
X39294318Y29291835D01*
X39294318Y29291832D01*
X39307359Y29192773D01*
X39296593Y29123738D01*
X39272101Y29088907D01*
X38815489Y28632293D01*
X38815479Y28632283D01*
X38811139Y28627944D01*
X38749812Y28594466D01*
X38747660Y28594018D01*
X38721770Y28588868D01*
X38721769Y28588868D01*
X38645293Y28537767D01*
X38643078Y28541082D01*
X38601358Y28518301D01*
X38531666Y28523285D01*
X38506036Y28539757D01*
X38504707Y28537767D01*
X38428230Y28588868D01*
X38394251Y28595627D01*
X38332341Y28628013D01*
X38330763Y28629563D01*
X37286819Y29673508D01*
X37253334Y29734831D01*
X37250500Y29761189D01*
X37250500Y31442851D01*
X37250499Y31442858D01*
X37246670Y31457148D01*
X37246670Y31457147D01*
X37228318Y31525639D01*
X37185465Y31599862D01*
X36747008Y32038319D01*
X36713523Y32099642D01*
X36718507Y32169334D01*
X36760379Y32225267D01*
X36825843Y32249684D01*
X36834689Y32250000D01*
X37100000Y32250000D01*
X37600000Y32250000D01*
X37997828Y32250000D01*
X37997844Y32250001D01*
X38057371Y32256402D01*
X38131666Y32284112D01*
X38201358Y32289096D01*
X38218334Y32284112D01*
X38292628Y32256402D01*
X38292627Y32256402D01*
X38352155Y32250001D01*
X38352172Y32250000D01*
X38750000Y32250000D01*
X39250000Y32250000D01*
X39647828Y32250000D01*
X39647844Y32250001D01*
X39707371Y32256402D01*
X39781666Y32284112D01*
X39851358Y32289096D01*
X39868334Y32284112D01*
X39942628Y32256402D01*
X39942627Y32256402D01*
X40002155Y32250001D01*
X40002172Y32250000D01*
X40400000Y32250000D01*
X40900000Y32250000D01*
X41297828Y32250000D01*
X41297844Y32250001D01*
X41357372Y32256402D01*
X41357379Y32256404D01*
X41492086Y32306646D01*
X41492093Y32306650D01*
X41607187Y32392810D01*
X41607190Y32392813D01*
X41693350Y32507907D01*
X41693354Y32507914D01*
X41743596Y32642621D01*
X41743598Y32642628D01*
X41749999Y32702156D01*
X41750000Y32702173D01*
X41750000Y33100000D01*
X40900000Y33100000D01*
X40900000Y32250000D01*
X40400000Y32250000D01*
X40400000Y33100000D01*
X39250000Y33100000D01*
X39250000Y32250000D01*
X38750000Y32250000D01*
X38750000Y33100000D01*
X37600000Y33100000D01*
X37600000Y32250000D01*
X37100000Y32250000D01*
X37100000Y33100000D01*
X36250000Y33100000D01*
X36250000Y32702156D01*
X36256401Y32642628D01*
X36256403Y32642621D01*
X36288417Y32556787D01*
X36293401Y32487095D01*
X36259916Y32425772D01*
X36198593Y32392288D01*
X36128901Y32397272D01*
X36084554Y32425773D01*
X35911819Y32598508D01*
X35878334Y32659831D01*
X35875500Y32686189D01*
X35875500Y34352156D01*
X36250000Y34352156D01*
X36256401Y34292628D01*
X36256403Y34292618D01*
X36284110Y34218332D01*
X36289094Y34148641D01*
X36284110Y34131668D01*
X36256403Y34057383D01*
X36256401Y34057373D01*
X36250000Y33997845D01*
X36250000Y33600000D01*
X37100000Y33600000D01*
X37600000Y33600000D01*
X38750000Y33600000D01*
X39250000Y33600000D01*
X40400000Y33600000D01*
X40400000Y34750000D01*
X39250000Y34750000D01*
X39250000Y33600000D01*
X38750000Y33600000D01*
X38750000Y34750000D01*
X37600000Y34750000D01*
X37600000Y33600000D01*
X37100000Y33600000D01*
X37100000Y34750000D01*
X36250000Y34750000D01*
X36250000Y34352156D01*
X35875500Y34352156D01*
X35875500Y35723431D01*
X35895185Y35790470D01*
X35911813Y35811107D01*
X36062087Y35961381D01*
X36123407Y35994863D01*
X36193098Y35989879D01*
X36249032Y35948008D01*
X36265947Y35917030D01*
X36284110Y35868333D01*
X36289094Y35798642D01*
X36284110Y35781668D01*
X36256403Y35707383D01*
X36256401Y35707373D01*
X36250000Y35647845D01*
X36250000Y35250000D01*
X37100000Y35250000D01*
X37600000Y35250000D01*
X38750000Y35250000D01*
X39250000Y35250000D01*
X40400000Y35250000D01*
X40900000Y35250000D01*
X41750000Y35250000D01*
X41750000Y35647828D01*
X41749999Y35647845D01*
X41743598Y35707372D01*
X41715888Y35781666D01*
X41710904Y35851358D01*
X41715888Y35868334D01*
X41743598Y35942629D01*
X41749999Y36002156D01*
X41750000Y36002173D01*
X41750000Y36400000D01*
X40900000Y36400000D01*
X40900000Y35250000D01*
X40400000Y35250000D01*
X40400000Y36400000D01*
X39250000Y36400000D01*
X39250000Y35250000D01*
X38750000Y35250000D01*
X38750000Y36400000D01*
X37600000Y36400000D01*
X37600000Y35250000D01*
X37100000Y35250000D01*
X37100000Y36776000D01*
X37119685Y36843039D01*
X37172489Y36888794D01*
X37224000Y36900000D01*
X38750000Y36900000D01*
X39250000Y36900000D01*
X40400000Y36900000D01*
X40900000Y36900000D01*
X41750000Y36900000D01*
X41750000Y37297828D01*
X41749999Y37297845D01*
X41743598Y37357373D01*
X41743596Y37357380D01*
X41693354Y37492087D01*
X41693350Y37492094D01*
X41607190Y37607188D01*
X41607187Y37607191D01*
X41492093Y37693351D01*
X41492086Y37693355D01*
X41357379Y37743597D01*
X41357372Y37743599D01*
X41297844Y37750000D01*
X40900000Y37750000D01*
X40900000Y36900000D01*
X40400000Y36900000D01*
X40400000Y37750000D01*
X40002155Y37750000D01*
X39942627Y37743599D01*
X39942617Y37743597D01*
X39868332Y37715890D01*
X39798641Y37710906D01*
X39781668Y37715890D01*
X39707382Y37743597D01*
X39707372Y37743599D01*
X39647844Y37750000D01*
X39250000Y37750000D01*
X39250000Y36900000D01*
X38750000Y36900000D01*
X38750000Y37750000D01*
X38352155Y37750000D01*
X38292627Y37743599D01*
X38292617Y37743597D01*
X38218332Y37715890D01*
X38148641Y37710906D01*
X38131667Y37715890D01*
X38082970Y37734053D01*
X38027036Y37775924D01*
X38002619Y37841389D01*
X38017471Y37909662D01*
X38038616Y37937910D01*
X38188890Y38088184D01*
X38250211Y38121666D01*
X38276569Y38124500D01*
X43270835Y38124500D01*
X43337874Y38104815D01*
X43383629Y38052011D01*
X43393573Y37982853D01*
X43369212Y37925018D01*
X43297715Y37831839D01*
X43275463Y37802840D01*
X43214956Y37656763D01*
X43214955Y37656761D01*
X43194318Y37500002D01*
X43194318Y37499999D01*
X43214955Y37343240D01*
X43214956Y37343238D01*
X43275323Y37197498D01*
X43275464Y37197159D01*
X43371718Y37071718D01*
X43425987Y37030076D01*
X43467189Y36973651D01*
X43474500Y36931702D01*
X43474500Y36208760D01*
X43454815Y36141721D01*
X43438181Y36121079D01*
X42011134Y34694033D01*
X41949811Y34660548D01*
X41907267Y34658775D01*
X41857814Y34665286D01*
X41793917Y34693553D01*
X41769639Y34730361D01*
X41750000Y34750000D01*
X40900000Y34750000D01*
X40900000Y33600000D01*
X41413047Y33600000D01*
X41480086Y33580315D01*
X41488517Y33574388D01*
X41536610Y33537485D01*
X41536613Y33537484D01*
X41536614Y33537483D01*
X41594522Y33513497D01*
X41682689Y33476977D01*
X41705302Y33474000D01*
X41839450Y33456339D01*
X41839451Y33456339D01*
X41839452Y33456339D01*
X41891705Y33463219D01*
X41996213Y33476977D01*
X42142292Y33537485D01*
X42267733Y33633739D01*
X42363987Y33759180D01*
X42424495Y33905259D01*
X42442660Y34043238D01*
X42445133Y34062020D01*
X42445133Y34062022D01*
X42436204Y34129840D01*
X42446969Y34198875D01*
X42471459Y34233704D01*
X44060465Y35822708D01*
X44103318Y35896931D01*
X44125500Y35979717D01*
X44125500Y36065423D01*
X44125500Y36931702D01*
X44145185Y36998741D01*
X44174010Y37030075D01*
X44228282Y37071718D01*
X44324536Y37197159D01*
X44385044Y37343238D01*
X44405682Y37500000D01*
X44403621Y37515652D01*
X44391923Y37604508D01*
X44385044Y37656762D01*
X44324536Y37802841D01*
X44230787Y37925017D01*
X44205595Y37990182D01*
X44219633Y38058627D01*
X44268447Y38108617D01*
X44329165Y38124500D01*
X44449163Y38124500D01*
X44449165Y38124500D01*
X44531951Y38146682D01*
X44606174Y38189535D01*
X44819698Y38403061D01*
X44881019Y38436544D01*
X44923563Y38438317D01*
X44937030Y38436544D01*
X44991381Y38429388D01*
X44991382Y38429388D01*
X45018467Y38432954D01*
X45076312Y38423934D01*
X45105945Y38442977D01*
X45124693Y38446939D01*
X45148144Y38450026D01*
X45294223Y38510534D01*
X45377424Y38574376D01*
X45442593Y38599570D01*
X45452910Y38600000D01*
X45800000Y38600000D01*
X45800000Y39326000D01*
X45819685Y39393039D01*
X45872489Y39438794D01*
X45924000Y39450000D01*
X46076000Y39450000D01*
X46143039Y39430315D01*
X46188794Y39377511D01*
X46200000Y39326000D01*
X46200000Y38600000D01*
X46762000Y38600000D01*
X46762000Y38686000D01*
X46781685Y38753039D01*
X46834489Y38798794D01*
X46886000Y38810000D01*
X47837000Y38810000D01*
X47837000Y38926000D01*
X47856685Y38993039D01*
X47909489Y39038794D01*
X47961000Y39050000D01*
X48450000Y39050000D01*
X48450000Y39568786D01*
X48428512Y39567094D01*
X48304095Y39530947D01*
X48234225Y39531146D01*
X48175555Y39569088D01*
X48146712Y39632727D01*
X48145500Y39650023D01*
X48145500Y39712173D01*
X48145500Y39712178D01*
X48135540Y39780540D01*
X48135539Y39780543D01*
X48083988Y39885991D01*
X48072160Y39897819D01*
X48038675Y39959142D01*
X48043659Y40028834D01*
X48085531Y40084767D01*
X48150995Y40109184D01*
X48159841Y40109500D01*
X48411154Y40109500D01*
X48427438Y40111644D01*
X48460010Y40115932D01*
X48567241Y40165935D01*
X48650902Y40249596D01*
X48700905Y40356827D01*
X48707337Y40405684D01*
X48707337Y40854316D01*
X48706920Y40857480D01*
X48702213Y40893239D01*
X48700905Y40903173D01*
X48698954Y40907356D01*
X48687337Y40959760D01*
X48687337Y40997306D01*
X48707022Y41064345D01*
X48737704Y41097077D01*
X48737878Y41097206D01*
X48737882Y41097207D01*
X48796812Y41140700D01*
X48862438Y41164668D01*
X48930608Y41149352D01*
G37*
%TD.AperFunction*%
%TA.AperFunction,Conductor*%
G36*
X59393039Y31530315D02*
G01*
X59438794Y31477511D01*
X59450000Y31426000D01*
X59450000Y30487157D01*
X59589192Y30527595D01*
X59614565Y30542601D01*
X59682289Y30559786D01*
X59748552Y30537628D01*
X59792317Y30483164D01*
X59800629Y30452057D01*
X59808777Y30390169D01*
X59814594Y30345985D01*
X59814956Y30343240D01*
X59814956Y30343238D01*
X59875464Y30197158D01*
X59892477Y30174987D01*
X59917672Y30109818D01*
X59903634Y30041373D01*
X59854821Y29991383D01*
X59794102Y29975500D01*
X59596247Y29975500D01*
X59537770Y29963869D01*
X59537769Y29963868D01*
X59471447Y29919553D01*
X59427132Y29853231D01*
X59427131Y29853230D01*
X59415500Y29794753D01*
X59415500Y26999500D01*
X59395815Y26932461D01*
X59343011Y26886706D01*
X59291500Y26875500D01*
X56774628Y26875500D01*
X56707589Y26895185D01*
X56661834Y26947989D01*
X56651890Y27017147D01*
X56660067Y27046953D01*
X56662314Y27052378D01*
X56710305Y27168238D01*
X56730943Y27325000D01*
X56728481Y27343698D01*
X56712612Y27464240D01*
X56710305Y27481762D01*
X56649797Y27627841D01*
X56553543Y27753282D01*
X56553541Y27753284D01*
X56553540Y27753285D01*
X56499273Y27794926D01*
X56458071Y27851354D01*
X56450761Y27893301D01*
X56450761Y28675500D01*
X56470446Y28742539D01*
X56523250Y28788294D01*
X56574761Y28799500D01*
X57727996Y28799500D01*
X57819040Y28817611D01*
X57863328Y28826420D01*
X57927069Y28852823D01*
X57990807Y28879223D01*
X57990808Y28879224D01*
X57990811Y28879225D01*
X58105543Y28955886D01*
X58678113Y29528457D01*
X58690090Y29546381D01*
X58692418Y29549864D01*
X58737846Y29617853D01*
X58754775Y29643189D01*
X58788213Y29723916D01*
X58807580Y29770671D01*
X58820468Y29835465D01*
X58830755Y29887181D01*
X58834500Y29906005D01*
X58834500Y30355558D01*
X58854185Y30422597D01*
X58906989Y30468352D01*
X58929211Y30471548D01*
X58950000Y30487156D01*
X58950000Y31426000D01*
X58969685Y31493039D01*
X59022489Y31538794D01*
X59074000Y31550000D01*
X59326000Y31550000D01*
X59393039Y31530315D01*
G37*
%TD.AperFunction*%
%TA.AperFunction,Conductor*%
G36*
X54159667Y32761552D02*
G01*
X54200781Y32730000D01*
X55020272Y32730000D01*
X54928386Y32691940D01*
X54858060Y32621614D01*
X54820000Y32529728D01*
X54820000Y32430272D01*
X54858060Y32338386D01*
X54928386Y32268060D01*
X55020272Y32230000D01*
X54202096Y32230000D01*
X54204584Y32217484D01*
X54204587Y32217477D01*
X54272428Y32053694D01*
X54272433Y32053684D01*
X54370923Y31906284D01*
X54370926Y31906280D01*
X54496279Y31780927D01*
X54496283Y31780924D01*
X54511928Y31770470D01*
X54556733Y31716858D01*
X54565440Y31647533D01*
X54555419Y31614964D01*
X54535932Y31573174D01*
X54535931Y31573173D01*
X54529500Y31524317D01*
X54529500Y31075684D01*
X54535931Y31026829D01*
X54559162Y30977011D01*
X54585935Y30919596D01*
X54669596Y30835935D01*
X54776827Y30785932D01*
X54825683Y30779500D01*
X54825684Y30779500D01*
X55008811Y30779500D01*
X55075850Y30759815D01*
X55096492Y30743181D01*
X55388181Y30451492D01*
X55421666Y30390169D01*
X55424500Y30363811D01*
X55424500Y30099500D01*
X55404815Y30032461D01*
X55352011Y29986706D01*
X55300500Y29975500D01*
X53498539Y29975500D01*
X53431500Y29995185D01*
X53385745Y30047989D01*
X53379463Y30064905D01*
X53372407Y30089189D01*
X53372406Y30089192D01*
X53290738Y30227286D01*
X53290731Y30227295D01*
X53177294Y30340732D01*
X53177286Y30340738D01*
X53172391Y30343633D01*
X53124708Y30394703D01*
X53112206Y30463445D01*
X53112987Y30467401D01*
X53112830Y30467421D01*
X53120500Y30525684D01*
X53120500Y30874317D01*
X53114068Y30923172D01*
X53111685Y30928282D01*
X53090060Y30974657D01*
X53079569Y31043732D01*
X53108089Y31107516D01*
X53166565Y31145756D01*
X53176422Y31147879D01*
X53182472Y31149500D01*
X53182475Y31149500D01*
X53322485Y31187016D01*
X53448015Y31259491D01*
X53550509Y31361985D01*
X53622984Y31487515D01*
X53660500Y31627525D01*
X53660500Y31772475D01*
X53622984Y31912485D01*
X53618761Y31919799D01*
X53550511Y32038012D01*
X53550506Y32038018D01*
X53529962Y32058562D01*
X53496477Y32119885D01*
X53501461Y32189577D01*
X53543333Y32245510D01*
X53583050Y32265320D01*
X53629476Y32278808D01*
X53771094Y32362560D01*
X53771102Y32362566D01*
X53887434Y32478898D01*
X53887440Y32478906D01*
X53971191Y32620523D01*
X53989402Y32683204D01*
X54027008Y32742090D01*
X54090480Y32771297D01*
X54159667Y32761552D01*
G37*
%TD.AperFunction*%
%TA.AperFunction,Conductor*%
G36*
X57193039Y42130315D02*
G01*
X57238794Y42077511D01*
X57250000Y42026000D01*
X57250000Y41091192D01*
X57250001Y41091191D01*
X57379473Y41128807D01*
X57379476Y41128808D01*
X57521094Y41212560D01*
X57521102Y41212566D01*
X57637434Y41328898D01*
X57637434Y41328899D01*
X57639830Y41332949D01*
X57690894Y41380638D01*
X57759635Y41393149D01*
X57773010Y41390401D01*
X57779456Y41389462D01*
X57779460Y41389460D01*
X57847822Y41379500D01*
X57847828Y41379500D01*
X58152172Y41379500D01*
X58152178Y41379500D01*
X58220540Y41389460D01*
X58325990Y41441012D01*
X58334351Y41446981D01*
X58335457Y41445432D01*
X58385655Y41472848D01*
X58455347Y41467870D01*
X58511285Y41426003D01*
X58523912Y41392156D01*
X58542095Y41370000D01*
X59360272Y41370000D01*
X59268386Y41331940D01*
X59198060Y41261614D01*
X59160000Y41169728D01*
X59160000Y41070272D01*
X59198060Y40978386D01*
X59268386Y40908060D01*
X59360272Y40870000D01*
X58542096Y40870000D01*
X58544584Y40857484D01*
X58544587Y40857477D01*
X58612428Y40693694D01*
X58612433Y40693684D01*
X58710923Y40546284D01*
X58710926Y40546280D01*
X58836279Y40420927D01*
X58836283Y40420924D01*
X58983683Y40322434D01*
X58983692Y40322429D01*
X59147479Y40254587D01*
X59147487Y40254585D01*
X59321353Y40220001D01*
X59321357Y40220000D01*
X59410000Y40220000D01*
X59410000Y40870000D01*
X59910000Y40870000D01*
X59910000Y40220000D01*
X59998643Y40220000D01*
X59998646Y40220001D01*
X60172512Y40254585D01*
X60172520Y40254587D01*
X60336307Y40322429D01*
X60336316Y40322434D01*
X60483716Y40420924D01*
X60483720Y40420927D01*
X60609073Y40546280D01*
X60609076Y40546284D01*
X60707566Y40693684D01*
X60707571Y40693694D01*
X60775412Y40857477D01*
X60775415Y40857484D01*
X60777904Y40870000D01*
X59959728Y40870000D01*
X60051614Y40908060D01*
X60121940Y40978386D01*
X60160000Y41070272D01*
X60160000Y41169728D01*
X60121940Y41261614D01*
X60051614Y41331940D01*
X59959728Y41370000D01*
X60777904Y41370000D01*
X60775415Y41382517D01*
X60775412Y41382524D01*
X60768289Y41399722D01*
X60760820Y41469191D01*
X60792095Y41531671D01*
X60852184Y41567323D01*
X60922009Y41564830D01*
X60930285Y41561743D01*
X61043238Y41514956D01*
X61065023Y41512088D01*
X61199999Y41494318D01*
X61200000Y41494318D01*
X61200001Y41494318D01*
X61284936Y41505500D01*
X61356762Y41514956D01*
X61502841Y41575464D01*
X61600014Y41650028D01*
X61665182Y41675222D01*
X61733627Y41661184D01*
X61783617Y41612370D01*
X61799500Y41551652D01*
X61799500Y30099500D01*
X61779815Y30032461D01*
X61727011Y29986706D01*
X61675500Y29975500D01*
X61005898Y29975500D01*
X60938859Y29995185D01*
X60893104Y30047989D01*
X60883160Y30117147D01*
X60907523Y30174987D01*
X60917551Y30188056D01*
X60924536Y30197159D01*
X60985044Y30343238D01*
X60999745Y30454902D01*
X61005682Y30499999D01*
X61005682Y30500002D01*
X60985044Y30656761D01*
X60985044Y30656762D01*
X60924536Y30802841D01*
X60828282Y30928282D01*
X60824164Y30931442D01*
X60774014Y30969925D01*
X60732811Y31026353D01*
X60725501Y31068300D01*
X60725501Y31142852D01*
X60719694Y31164522D01*
X60703318Y31225639D01*
X60703317Y31225640D01*
X60703317Y31225642D01*
X60703315Y31225645D01*
X60687114Y31253706D01*
X60670500Y31315707D01*
X60670500Y31524317D01*
X60664068Y31573172D01*
X60664068Y31573173D01*
X60614065Y31680404D01*
X60586312Y31708157D01*
X60552827Y31769480D01*
X60557811Y31839172D01*
X60586313Y31883521D01*
X60609077Y31906285D01*
X60707566Y32053684D01*
X60707571Y32053694D01*
X60775412Y32217477D01*
X60775415Y32217484D01*
X60777904Y32230000D01*
X59959728Y32230000D01*
X60051614Y32268060D01*
X60121940Y32338386D01*
X60160000Y32430272D01*
X60160000Y32529728D01*
X60121940Y32621614D01*
X60051614Y32691940D01*
X59959728Y32730000D01*
X60777904Y32730000D01*
X60775415Y32742517D01*
X60775412Y32742524D01*
X60707571Y32906307D01*
X60707566Y32906317D01*
X60609076Y33053717D01*
X60609073Y33053721D01*
X60483720Y33179074D01*
X60483716Y33179077D01*
X60336316Y33277567D01*
X60336307Y33277572D01*
X60172520Y33345414D01*
X60172512Y33345416D01*
X59998646Y33380000D01*
X59910000Y33380000D01*
X59910000Y32730000D01*
X59410000Y32730000D01*
X59410000Y33380000D01*
X59321353Y33380000D01*
X59147487Y33345416D01*
X59147479Y33345414D01*
X58983692Y33277572D01*
X58983683Y33277567D01*
X58836283Y33179077D01*
X58836279Y33179074D01*
X58710926Y33053721D01*
X58710923Y33053717D01*
X58612433Y32906317D01*
X58612428Y32906307D01*
X58544587Y32742524D01*
X58544584Y32742517D01*
X58542096Y32730000D01*
X59360272Y32730000D01*
X59268386Y32691940D01*
X59198060Y32621614D01*
X59160000Y32529728D01*
X59160000Y32430272D01*
X59198060Y32338386D01*
X59268386Y32268060D01*
X59360272Y32230000D01*
X58542095Y32230000D01*
X58531379Y32216943D01*
X58473632Y32177609D01*
X58411341Y32173991D01*
X58403755Y32175500D01*
X58403748Y32175500D01*
X57864252Y32175500D01*
X57864247Y32175500D01*
X57805770Y32163869D01*
X57805769Y32163868D01*
X57769118Y32139378D01*
X57702440Y32118500D01*
X57635060Y32136985D01*
X57588370Y32188964D01*
X57584045Y32199148D01*
X57577355Y32217085D01*
X57577350Y32217094D01*
X57491190Y32332188D01*
X57491187Y32332191D01*
X57376093Y32418351D01*
X57376086Y32418355D01*
X57241379Y32468597D01*
X57241372Y32468599D01*
X57181844Y32475000D01*
X57134000Y32475000D01*
X57134000Y31049000D01*
X57114315Y30981961D01*
X57061511Y30936206D01*
X57010000Y30925000D01*
X56215000Y30925000D01*
X56147961Y30944685D01*
X56102206Y30997489D01*
X56091000Y31049000D01*
X56091000Y31050000D01*
X55874000Y31050000D01*
X55806961Y31069685D01*
X55761206Y31122489D01*
X55750000Y31174000D01*
X55750000Y31426000D01*
X55769685Y31493039D01*
X55822489Y31538794D01*
X55874000Y31550000D01*
X56634000Y31550000D01*
X56634000Y32394000D01*
X56653685Y32461039D01*
X56706489Y32506794D01*
X56758000Y32518000D01*
X56770000Y32518000D01*
X56770000Y32568643D01*
X56769999Y32568647D01*
X56735415Y32742513D01*
X56735413Y32742521D01*
X56667571Y32906308D01*
X56667566Y32906317D01*
X56569076Y33053717D01*
X56569073Y33053721D01*
X56443720Y33179074D01*
X56443716Y33179077D01*
X56296316Y33277567D01*
X56296307Y33277572D01*
X56190490Y33321402D01*
X56136087Y33365243D01*
X56114022Y33431537D01*
X56131301Y33499236D01*
X56175941Y33543349D01*
X56221263Y33569515D01*
X56300485Y33648737D01*
X56356503Y33745763D01*
X56385500Y33853982D01*
X56385500Y33966018D01*
X56356503Y34074237D01*
X56300485Y34171263D01*
X56300479Y34171269D01*
X56295538Y34177709D01*
X56296778Y34178661D01*
X56267733Y34231853D01*
X56272717Y34301545D01*
X56314589Y34357478D01*
X56341445Y34372771D01*
X56359545Y34380268D01*
X56484986Y34476522D01*
X56581240Y34601963D01*
X56641748Y34748042D01*
X56661665Y34899328D01*
X56662386Y34904803D01*
X56662386Y34904806D01*
X56644138Y35043412D01*
X56641748Y35061566D01*
X56581240Y35207645D01*
X56484986Y35333086D01*
X56484984Y35333087D01*
X56484984Y35333088D01*
X56372744Y35419212D01*
X56331541Y35475640D01*
X56327386Y35545386D01*
X56361598Y35606306D01*
X56372737Y35615959D01*
X56464285Y35686205D01*
X56560539Y35811646D01*
X56621047Y35957725D01*
X56641685Y36114487D01*
X56641212Y36118077D01*
X56621047Y36271248D01*
X56621047Y36271249D01*
X56560539Y36417328D01*
X56464285Y36542769D01*
X56338844Y36639023D01*
X56327229Y36643834D01*
X56187048Y36701899D01*
X56132645Y36745740D01*
X56110580Y36812034D01*
X56110501Y36816460D01*
X56110501Y36835616D01*
X56105052Y36855951D01*
X56088318Y36918402D01*
X56084011Y36925862D01*
X56067537Y36993761D01*
X56090388Y37059789D01*
X56145308Y37102981D01*
X56175209Y37110803D01*
X56206762Y37114956D01*
X56352841Y37175464D01*
X56478282Y37271718D01*
X56574536Y37397159D01*
X56635044Y37543238D01*
X56653823Y37685879D01*
X56655682Y37699999D01*
X56655682Y37700002D01*
X56636402Y37846449D01*
X56635044Y37856762D01*
X56574536Y38002841D01*
X56478282Y38128282D01*
X56466886Y38137027D01*
X56425684Y38193451D01*
X56421529Y38263197D01*
X56455740Y38324118D01*
X56466879Y38333771D01*
X56473363Y38338745D01*
X56569617Y38464186D01*
X56630125Y38610265D01*
X56648568Y38750353D01*
X56650763Y38767026D01*
X56650763Y38767029D01*
X56635959Y38879477D01*
X56630125Y38923789D01*
X56569617Y39069868D01*
X56473363Y39195309D01*
X56473361Y39195310D01*
X56473361Y39195311D01*
X56422927Y39234010D01*
X56347922Y39291563D01*
X56347920Y39291564D01*
X56346438Y39292701D01*
X56305235Y39349129D01*
X56301080Y39418875D01*
X56314534Y39453072D01*
X56356503Y39525763D01*
X56385500Y39633982D01*
X56385500Y39746018D01*
X56356503Y39854237D01*
X56300485Y39951263D01*
X56221263Y40030485D01*
X56175941Y40056652D01*
X56127727Y40107219D01*
X56114505Y40175826D01*
X56140473Y40240690D01*
X56190491Y40278600D01*
X56296312Y40322432D01*
X56296316Y40322434D01*
X56443716Y40420924D01*
X56443720Y40420927D01*
X56569073Y40546280D01*
X56569076Y40546284D01*
X56667566Y40693684D01*
X56667571Y40693693D01*
X56735413Y40857480D01*
X56735415Y40857488D01*
X56769999Y41031354D01*
X56770000Y41031357D01*
X56770000Y41050567D01*
X56752834Y41082004D01*
X56750000Y41108362D01*
X56750000Y42026000D01*
X56769685Y42093039D01*
X56822489Y42138794D01*
X56874000Y42150000D01*
X57126000Y42150000D01*
X57193039Y42130315D01*
G37*
%TD.AperFunction*%
%TA.AperFunction,Conductor*%
G36*
X27606879Y33380438D02*
G01*
X27629039Y33374500D01*
X29313811Y33374500D01*
X29380850Y33354815D01*
X29401492Y33338181D01*
X29877492Y32862181D01*
X29910977Y32800858D01*
X29905993Y32731166D01*
X29864121Y32675233D01*
X29798657Y32650816D01*
X29789811Y32650500D01*
X28635389Y32650500D01*
X28545023Y32626287D01*
X28545022Y32626288D01*
X28520814Y32619801D01*
X28520811Y32619800D01*
X28472858Y32592113D01*
X28410857Y32575500D01*
X28295692Y32575500D01*
X28205326Y32551287D01*
X28205325Y32551288D01*
X28181117Y32544801D01*
X28181114Y32544800D01*
X28078387Y32485489D01*
X28078384Y32485487D01*
X27639513Y32046616D01*
X27639511Y32046613D01*
X27622635Y32017382D01*
X27619816Y32012500D01*
X27569249Y31964285D01*
X27512429Y31950500D01*
X26890462Y31950500D01*
X26823423Y31970185D01*
X26777668Y32022989D01*
X26767724Y32092147D01*
X26796749Y32155703D01*
X26814971Y32172873D01*
X26936193Y32265889D01*
X27032447Y32391330D01*
X27092955Y32537409D01*
X27113593Y32694171D01*
X27113520Y32694722D01*
X27104664Y32761989D01*
X27115429Y32831024D01*
X27139919Y32865854D01*
X27385761Y33111694D01*
X27428614Y33185917D01*
X27450796Y33268703D01*
X27450796Y33268712D01*
X27451857Y33276763D01*
X27455387Y33276299D01*
X27470481Y33327700D01*
X27523285Y33373455D01*
X27592443Y33383399D01*
X27606879Y33380438D01*
G37*
%TD.AperFunction*%
%TA.AperFunction,Conductor*%
G36*
X46805703Y35085314D02*
G01*
X46812181Y35079282D01*
X46928897Y34962566D01*
X46928905Y34962560D01*
X47070521Y34878809D01*
X47135594Y34859904D01*
X47194480Y34822298D01*
X47223687Y34758826D01*
X47224278Y34750722D01*
X47225000Y34750000D01*
X48251000Y34750000D01*
X48318039Y34730315D01*
X48363794Y34677511D01*
X48375000Y34626000D01*
X48375000Y34374000D01*
X48355315Y34306961D01*
X48302511Y34261206D01*
X48251000Y34250000D01*
X47225001Y34250000D01*
X47225001Y34168418D01*
X47231408Y34097898D01*
X47231409Y34097893D01*
X47281981Y33935604D01*
X47369927Y33790123D01*
X47388850Y33771200D01*
X47422335Y33709877D01*
X47417351Y33640185D01*
X47388850Y33595838D01*
X46812181Y33019168D01*
X46750858Y32985683D01*
X46681167Y32990667D01*
X46625233Y33032538D01*
X46600816Y33098003D01*
X46600500Y33106849D01*
X46600500Y33519751D01*
X46600499Y33519753D01*
X46588868Y33578230D01*
X46588867Y33578231D01*
X46537767Y33654707D01*
X46541081Y33656922D01*
X46518301Y33698642D01*
X46523285Y33768334D01*
X46539756Y33793964D01*
X46537767Y33795293D01*
X46572866Y33847822D01*
X46588867Y33871769D01*
X46588867Y33871771D01*
X46588868Y33871771D01*
X46600499Y33930248D01*
X46600500Y33930250D01*
X46600500Y34369751D01*
X46600499Y34369753D01*
X46588868Y34428230D01*
X46588867Y34428231D01*
X46537767Y34504707D01*
X46541081Y34506922D01*
X46518301Y34548642D01*
X46523285Y34618334D01*
X46539756Y34643964D01*
X46537767Y34645293D01*
X46573871Y34699327D01*
X46588867Y34721769D01*
X46588867Y34721771D01*
X46588868Y34721771D01*
X46600499Y34780248D01*
X46600500Y34780250D01*
X46600500Y34991601D01*
X46620185Y35058640D01*
X46672989Y35104395D01*
X46742147Y35114339D01*
X46805703Y35085314D01*
G37*
%TD.AperFunction*%
%TA.AperFunction,Conductor*%
G36*
X55083039Y33879815D02*
G01*
X55128794Y33827011D01*
X55140000Y33775500D01*
X55140000Y33474000D01*
X55120315Y33406961D01*
X55067511Y33361206D01*
X55016000Y33350000D01*
X53901000Y33350000D01*
X53833961Y33369685D01*
X53788206Y33422489D01*
X53777000Y33474000D01*
X53777000Y33631536D01*
X53776999Y33631538D01*
X53770216Y33638321D01*
X53736732Y33699644D01*
X53741718Y33769336D01*
X53783591Y33825269D01*
X53849055Y33849684D01*
X53857899Y33850000D01*
X54081455Y33850000D01*
X54106887Y33847364D01*
X54108106Y33847109D01*
X54116446Y33845361D01*
X54166322Y33849312D01*
X54170132Y33849613D01*
X54179922Y33850000D01*
X54640000Y33850000D01*
X54653181Y33863181D01*
X54714504Y33896666D01*
X54740862Y33899500D01*
X55016000Y33899500D01*
X55083039Y33879815D01*
G37*
%TD.AperFunction*%
%TA.AperFunction,Conductor*%
G36*
X28330850Y36704815D02*
G01*
X28351492Y36688181D01*
X28767988Y36271685D01*
X28801473Y36210362D01*
X28803246Y36167819D01*
X28794318Y36100002D01*
X28794318Y36099999D01*
X28814955Y35943240D01*
X28814956Y35943238D01*
X28873083Y35802906D01*
X28875464Y35797159D01*
X28971718Y35671718D01*
X29097159Y35575464D01*
X29243238Y35514956D01*
X29302903Y35507101D01*
X29399999Y35494318D01*
X29400000Y35494318D01*
X29400001Y35494318D01*
X29484541Y35505448D01*
X29556762Y35514956D01*
X29702841Y35575464D01*
X29828282Y35671718D01*
X29924536Y35797159D01*
X29985044Y35943238D01*
X30001405Y36067510D01*
X30005682Y36099999D01*
X30005682Y36100002D01*
X29987272Y36239840D01*
X29985044Y36256762D01*
X29971469Y36289535D01*
X29955517Y36328048D01*
X29948048Y36397517D01*
X29979324Y36459996D01*
X30039413Y36495648D01*
X30070078Y36499500D01*
X30734578Y36499500D01*
X30734580Y36499500D01*
X30793409Y36515263D01*
X30863256Y36513600D01*
X30921119Y36474438D01*
X30948623Y36410209D01*
X30949500Y36395488D01*
X30949500Y35620255D01*
X30929815Y35553216D01*
X30877011Y35507461D01*
X30841686Y35497316D01*
X30698647Y35478484D01*
X30677844Y35475745D01*
X30677843Y35475745D01*
X30531766Y35415238D01*
X30406324Y35318983D01*
X30310069Y35193541D01*
X30249562Y35047464D01*
X30249562Y35047463D01*
X30238542Y34963763D01*
X30210275Y34899867D01*
X30151950Y34861397D01*
X30082085Y34860566D01*
X30053604Y34872562D01*
X30007247Y34899327D01*
X30000335Y34903318D01*
X29958941Y34914409D01*
X29917548Y34925500D01*
X29917547Y34925500D01*
X28786189Y34925500D01*
X28719150Y34945185D01*
X28698508Y34961819D01*
X27147508Y36512819D01*
X27114023Y36574142D01*
X27119007Y36643834D01*
X27160879Y36699767D01*
X27226343Y36724184D01*
X27235189Y36724500D01*
X27457147Y36724500D01*
X28263811Y36724500D01*
X28330850Y36704815D01*
G37*
%TD.AperFunction*%
%TA.AperFunction,Conductor*%
G36*
X30058039Y38795315D02*
G01*
X30103794Y38742511D01*
X30115000Y38691000D01*
X30115000Y37835000D01*
X30162828Y37835000D01*
X30162844Y37835001D01*
X30222372Y37841402D01*
X30222376Y37841403D01*
X30332166Y37882352D01*
X30401858Y37887336D01*
X30463181Y37853851D01*
X30496666Y37792528D01*
X30499500Y37766170D01*
X30499500Y37274500D01*
X30479815Y37207461D01*
X30427011Y37161706D01*
X30375500Y37150500D01*
X29594462Y37150500D01*
X29527423Y37170185D01*
X29506781Y37186819D01*
X29105281Y37588320D01*
X29071796Y37649643D01*
X29076780Y37719335D01*
X29118652Y37775268D01*
X29184116Y37799685D01*
X29192962Y37800001D01*
X29229565Y37800001D01*
X29297561Y37806179D01*
X29297569Y37806181D01*
X29433866Y37848653D01*
X29503726Y37849805D01*
X29514094Y37846449D01*
X29527625Y37841402D01*
X29587155Y37835001D01*
X29587172Y37835000D01*
X29635000Y37835000D01*
X29635000Y38691000D01*
X29654685Y38758039D01*
X29707489Y38803794D01*
X29759000Y38815000D01*
X29991000Y38815000D01*
X30058039Y38795315D01*
G37*
%TD.AperFunction*%
%TA.AperFunction,Conductor*%
G36*
X32908677Y42230315D02*
G01*
X32929319Y42213681D01*
X32943000Y42200000D01*
X45057000Y42200000D01*
X45070681Y42213681D01*
X45132004Y42247166D01*
X45158362Y42250000D01*
X46126000Y42250000D01*
X46193039Y42230315D01*
X46238794Y42177511D01*
X46250000Y42126000D01*
X46250000Y41874000D01*
X46230315Y41806961D01*
X46177511Y41761206D01*
X46126000Y41750000D01*
X45158362Y41750000D01*
X45091323Y41769685D01*
X45070681Y41786319D01*
X45057000Y41800000D01*
X42600000Y41800000D01*
X42600000Y41100000D01*
X42647828Y41100000D01*
X42647844Y41100001D01*
X42707372Y41106402D01*
X42707376Y41106403D01*
X42714493Y41109057D01*
X42784184Y41114044D01*
X42845508Y41080561D01*
X42878995Y41019239D01*
X42874013Y40949547D01*
X42872391Y40945425D01*
X42814957Y40806766D01*
X42814955Y40806761D01*
X42794318Y40650002D01*
X42794318Y40650000D01*
X42814955Y40493240D01*
X42814956Y40493238D01*
X42871458Y40356829D01*
X42875464Y40347159D01*
X42971718Y40221718D01*
X43025987Y40180076D01*
X43067189Y40123651D01*
X43074500Y40081702D01*
X43074500Y39986189D01*
X43054815Y39919150D01*
X43038181Y39898508D01*
X42851492Y39711819D01*
X42790169Y39678334D01*
X42763811Y39675500D01*
X40985188Y39675500D01*
X40918149Y39695185D01*
X40872394Y39747989D01*
X40862450Y39817147D01*
X40891475Y39880703D01*
X40897493Y39887168D01*
X41028315Y40017991D01*
X41089636Y40051474D01*
X41132181Y40053247D01*
X41199999Y40044318D01*
X41200000Y40044318D01*
X41200001Y40044318D01*
X41252254Y40051198D01*
X41356762Y40064956D01*
X41502841Y40125464D01*
X41628282Y40221718D01*
X41724536Y40347159D01*
X41785044Y40493238D01*
X41805682Y40650000D01*
X41803090Y40669685D01*
X41791923Y40754508D01*
X41785044Y40806762D01*
X41732692Y40933149D01*
X41725224Y41002616D01*
X41756499Y41065096D01*
X41816588Y41100748D01*
X41834001Y41103890D01*
X41857375Y41106403D01*
X41931666Y41134112D01*
X42001358Y41139096D01*
X42018334Y41134112D01*
X42092628Y41106402D01*
X42092627Y41106402D01*
X42152155Y41100001D01*
X42152172Y41100000D01*
X42200000Y41100000D01*
X42200000Y41800000D01*
X40050000Y41800000D01*
X40050000Y41100000D01*
X40097828Y41100000D01*
X40097844Y41100001D01*
X40157371Y41106402D01*
X40231666Y41134112D01*
X40301358Y41139096D01*
X40318334Y41134112D01*
X40392628Y41106402D01*
X40392627Y41106402D01*
X40452155Y41100001D01*
X40452172Y41100000D01*
X40550840Y41100000D01*
X40617879Y41080315D01*
X40663634Y41027511D01*
X40673578Y40958353D01*
X40665401Y40928548D01*
X40614957Y40806766D01*
X40614955Y40806761D01*
X40594318Y40650002D01*
X40594318Y40650000D01*
X40603246Y40582182D01*
X40592480Y40513147D01*
X40567988Y40478316D01*
X40251492Y40161819D01*
X40190169Y40128334D01*
X40163811Y40125500D01*
X39567532Y40125500D01*
X39500493Y40145185D01*
X39454738Y40197989D01*
X39444794Y40267147D01*
X39469156Y40324986D01*
X39500103Y40365317D01*
X39524536Y40397159D01*
X39585044Y40543238D01*
X39604254Y40689154D01*
X39605682Y40699999D01*
X39605682Y40700002D01*
X39585044Y40856761D01*
X39585044Y40856762D01*
X39555308Y40928550D01*
X39547840Y40998016D01*
X39579115Y41060495D01*
X39639204Y41096148D01*
X39647145Y41097146D01*
X39650000Y41100000D01*
X39650000Y41800000D01*
X37500000Y41800000D01*
X37500000Y41100000D01*
X37529553Y41070447D01*
X37563038Y41009124D01*
X37558054Y40939432D01*
X37529553Y40895085D01*
X36637181Y40002712D01*
X36575858Y39969227D01*
X36506167Y39974211D01*
X36450233Y40016083D01*
X36425816Y40081547D01*
X36425500Y40090393D01*
X36425500Y40131702D01*
X36445185Y40198741D01*
X36474010Y40230075D01*
X36528282Y40271718D01*
X36624536Y40397159D01*
X36685044Y40543238D01*
X36704254Y40689154D01*
X36705682Y40699999D01*
X36705682Y40700002D01*
X36685044Y40856761D01*
X36685044Y40856762D01*
X36652520Y40935280D01*
X36645052Y41004749D01*
X36676327Y41067228D01*
X36736416Y41102880D01*
X36753836Y41106022D01*
X36757374Y41106403D01*
X36831666Y41134112D01*
X36901358Y41139096D01*
X36918334Y41134112D01*
X36992628Y41106402D01*
X36992627Y41106402D01*
X37052155Y41100001D01*
X37052172Y41100000D01*
X37100000Y41100000D01*
X37100000Y41800000D01*
X34100000Y41800000D01*
X34100000Y41100000D01*
X34147828Y41100000D01*
X34147841Y41100001D01*
X34179706Y41103427D01*
X34248466Y41091023D01*
X34299604Y41043413D01*
X34316884Y40975714D01*
X34315902Y40963953D01*
X34294318Y40800002D01*
X34294318Y40799999D01*
X34314955Y40643240D01*
X34314956Y40643238D01*
X34369613Y40511283D01*
X34375464Y40497159D01*
X34471718Y40371718D01*
X34597159Y40275464D01*
X34743238Y40214956D01*
X34771548Y40211229D01*
X34899999Y40194318D01*
X34899999Y40194319D01*
X34900000Y40194318D01*
X34967817Y40203247D01*
X35036852Y40192482D01*
X35071684Y40167989D01*
X35101992Y40137681D01*
X35135477Y40076358D01*
X35130493Y40006666D01*
X35101992Y39962319D01*
X32812181Y37672508D01*
X32750858Y37639023D01*
X32681166Y37644007D01*
X32625233Y37685879D01*
X32600816Y37751343D01*
X32600500Y37760189D01*
X32600500Y37769751D01*
X32600499Y37769753D01*
X32588868Y37828230D01*
X32588867Y37828231D01*
X32537767Y37904707D01*
X32541081Y37906922D01*
X32518301Y37948642D01*
X32523285Y38018334D01*
X32539756Y38043964D01*
X32537767Y38045293D01*
X32564328Y38085044D01*
X32588867Y38121769D01*
X32588867Y38121771D01*
X32588868Y38121771D01*
X32597630Y38165825D01*
X32600500Y38180252D01*
X32600500Y38619748D01*
X32600500Y38619751D01*
X32600499Y38619753D01*
X32588868Y38678230D01*
X32588867Y38678231D01*
X32537767Y38754707D01*
X32541081Y38756922D01*
X32518301Y38798642D01*
X32523285Y38868334D01*
X32539756Y38893964D01*
X32537767Y38895293D01*
X32585849Y38967253D01*
X32588867Y38971769D01*
X32588867Y38971771D01*
X32588868Y38971771D01*
X32597552Y39015432D01*
X32600500Y39030252D01*
X32600500Y39363444D01*
X32620185Y39430483D01*
X32650189Y39462710D01*
X32757187Y39542810D01*
X32757190Y39542813D01*
X32843350Y39657907D01*
X32843354Y39657914D01*
X32893596Y39792621D01*
X32893598Y39792628D01*
X32899999Y39852156D01*
X32900000Y39852173D01*
X32900000Y39900000D01*
X31924000Y39900000D01*
X31856961Y39919685D01*
X31811206Y39972489D01*
X31800000Y40024000D01*
X31800000Y40300000D01*
X32200000Y40300000D01*
X32900000Y40300000D01*
X32900000Y40347828D01*
X32899999Y40347845D01*
X32893598Y40407372D01*
X32865888Y40481666D01*
X32860904Y40551358D01*
X32865888Y40568334D01*
X32893598Y40642629D01*
X32899999Y40702156D01*
X32900000Y40702173D01*
X32900000Y40750000D01*
X32200000Y40750000D01*
X32200000Y40300000D01*
X31800000Y40300000D01*
X31800000Y41057000D01*
X31786319Y41070681D01*
X31770310Y41100000D01*
X33250000Y41100000D01*
X33297828Y41100000D01*
X33297844Y41100001D01*
X33357371Y41106402D01*
X33431666Y41134112D01*
X33501358Y41139096D01*
X33518334Y41134112D01*
X33592628Y41106402D01*
X33592627Y41106402D01*
X33652155Y41100001D01*
X33652172Y41100000D01*
X33700000Y41100000D01*
X33700000Y41800000D01*
X33250000Y41800000D01*
X33250000Y41100000D01*
X31770310Y41100000D01*
X31752834Y41132004D01*
X31750899Y41150000D01*
X32250000Y41150000D01*
X32850000Y41150000D01*
X32850000Y41750000D01*
X32250000Y41750000D01*
X32250000Y41150000D01*
X31750899Y41150000D01*
X31750000Y41158362D01*
X31750000Y42126000D01*
X31769685Y42193039D01*
X31822489Y42238794D01*
X31874000Y42250000D01*
X32841638Y42250000D01*
X32908677Y42230315D01*
G37*
%TD.AperFunction*%
%TA.AperFunction,Conductor*%
G36*
X27398834Y39559218D02*
G01*
X27454767Y39517346D01*
X27479184Y39451882D01*
X27479500Y39443036D01*
X27479500Y39347822D01*
X27489460Y39279460D01*
X27489460Y39279459D01*
X27490849Y39269930D01*
X27488502Y39269589D01*
X27489294Y39213310D01*
X27452350Y39154007D01*
X27432962Y39139840D01*
X27428903Y39137440D01*
X27428900Y39137437D01*
X27312565Y39021103D01*
X27312559Y39021095D01*
X27228807Y38879477D01*
X27228806Y38879474D01*
X27191190Y38750002D01*
X27191192Y38750000D01*
X28126000Y38750000D01*
X28193039Y38730315D01*
X28238794Y38677511D01*
X28250000Y38626000D01*
X28250000Y38374000D01*
X28230315Y38306961D01*
X28177511Y38261206D01*
X28126000Y38250000D01*
X27191192Y38250000D01*
X27191190Y38249999D01*
X27228806Y38120527D01*
X27228809Y38120520D01*
X27277835Y38037620D01*
X27295018Y37969896D01*
X27272858Y37903634D01*
X27218391Y37859871D01*
X27171103Y37850500D01*
X25983174Y37850500D01*
X25916135Y37870185D01*
X25895493Y37886819D01*
X25687382Y38094930D01*
X25653897Y38156253D01*
X25652124Y38198793D01*
X25655682Y38225816D01*
X25635044Y38382578D01*
X25574536Y38528657D01*
X25478282Y38654098D01*
X25352841Y38750352D01*
X25206762Y38810860D01*
X25188207Y38813303D01*
X25071153Y38828714D01*
X25007257Y38856981D01*
X24968786Y38915306D01*
X24967955Y38985170D01*
X24999655Y39039331D01*
X25389859Y39429534D01*
X25389862Y39429535D01*
X25450251Y39489925D01*
X25511570Y39523407D01*
X25581262Y39518423D01*
X25637196Y39476552D01*
X25661613Y39411088D01*
X25661025Y39387295D01*
X25644355Y39250001D01*
X25664859Y39081131D01*
X25664860Y39081126D01*
X25725182Y38922069D01*
X25767244Y38861133D01*
X25821817Y38782071D01*
X25880238Y38730315D01*
X25949150Y38669264D01*
X26099773Y38590211D01*
X26099775Y38590210D01*
X26264944Y38549500D01*
X26435056Y38549500D01*
X26600225Y38590210D01*
X26691456Y38638092D01*
X26750849Y38669264D01*
X26750850Y38669266D01*
X26750852Y38669266D01*
X26878183Y38782071D01*
X26974818Y38922070D01*
X27035140Y39081128D01*
X27055645Y39250000D01*
X27055502Y39251176D01*
X27055645Y39252035D01*
X27055645Y39257501D01*
X27056553Y39257501D01*
X27066955Y39320099D01*
X27090912Y39353811D01*
X27267820Y39530718D01*
X27329142Y39564202D01*
X27398834Y39559218D01*
G37*
%TD.AperFunction*%
%TA.AperFunction,Conductor*%
G36*
X55083039Y40823315D02*
G01*
X55128794Y40770511D01*
X55140000Y40719000D01*
X55140000Y39874000D01*
X55120315Y39806961D01*
X55067511Y39761206D01*
X55016000Y39750000D01*
X54449000Y39750000D01*
X54381961Y39769685D01*
X54336206Y39822489D01*
X54325000Y39874000D01*
X54325000Y40126000D01*
X54344685Y40193039D01*
X54397489Y40238794D01*
X54449000Y40250000D01*
X54640000Y40250000D01*
X54640000Y40719000D01*
X54659685Y40786039D01*
X54712489Y40831794D01*
X54764000Y40843000D01*
X55016000Y40843000D01*
X55083039Y40823315D01*
G37*
%TD.AperFunction*%
%TA.AperFunction,Conductor*%
G36*
X59894638Y44799529D02*
G01*
X59894970Y44799500D01*
X59960118Y44799500D01*
X59995933Y44799500D01*
X60004043Y44799235D01*
X60226790Y44784636D01*
X60242848Y44782521D01*
X60400218Y44751218D01*
X60457771Y44739770D01*
X60473438Y44735572D01*
X60607895Y44689930D01*
X60680944Y44665133D01*
X60695921Y44658930D01*
X60830525Y44592551D01*
X60892460Y44562008D01*
X60906508Y44553898D01*
X61088712Y44432152D01*
X61101573Y44422284D01*
X61177518Y44355682D01*
X61266328Y44277798D01*
X61277797Y44266329D01*
X61311212Y44228226D01*
X61388160Y44140483D01*
X61422280Y44101577D01*
X61432154Y44088709D01*
X61553897Y43906508D01*
X61562007Y43892461D01*
X61658926Y43695929D01*
X61665133Y43680943D01*
X61735571Y43473439D01*
X61739769Y43457772D01*
X61782518Y43242860D01*
X61784636Y43226779D01*
X61799235Y43004044D01*
X61799500Y42995934D01*
X61799500Y42648349D01*
X61779815Y42581310D01*
X61727011Y42535555D01*
X61657853Y42525611D01*
X61600014Y42549973D01*
X61502842Y42624536D01*
X61417450Y42659906D01*
X61356762Y42685044D01*
X61339155Y42687362D01*
X61285676Y42694403D01*
X61221779Y42722670D01*
X61183309Y42780995D01*
X61177862Y42817342D01*
X61177862Y43051087D01*
X61187301Y43098540D01*
X61189016Y43102681D01*
X61200646Y43161153D01*
X61200647Y43161156D01*
X61200647Y43238845D01*
X61192424Y43280178D01*
X61189013Y43297325D01*
X61155886Y43346903D01*
X61155884Y43346906D01*
X61137896Y43364893D01*
X61118186Y43390579D01*
X61112827Y43399862D01*
X61052226Y43460463D01*
X61052224Y43460465D01*
X61048440Y43462650D01*
X61042933Y43465830D01*
X61017255Y43485534D01*
X60828857Y43673933D01*
X60828854Y43673936D01*
X60779271Y43707066D01*
X60738985Y43715079D01*
X60677074Y43747464D01*
X60642500Y43808180D01*
X60641559Y43812505D01*
X60628278Y43879273D01*
X60609909Y43906763D01*
X60595150Y43928852D01*
X60595148Y43928854D01*
X60595145Y43928858D01*
X60227816Y44296187D01*
X60227812Y44296190D01*
X60178230Y44329320D01*
X60100002Y44344880D01*
X60099998Y44344880D01*
X60021771Y44329321D01*
X60021770Y44329320D01*
X60021769Y44329319D01*
X60003548Y44317145D01*
X59936873Y44296267D01*
X59934659Y44296247D01*
X59227894Y44296247D01*
X59145108Y44274065D01*
X59145105Y44274064D01*
X59107997Y44252640D01*
X59107997Y44252639D01*
X59070885Y44231212D01*
X59070882Y44231210D01*
X58712181Y43872508D01*
X58650858Y43839023D01*
X58581166Y43844007D01*
X58525233Y43885879D01*
X58500816Y43951343D01*
X58500500Y43960189D01*
X58500500Y44008494D01*
X58484720Y44108122D01*
X58484719Y44108124D01*
X58484719Y44108126D01*
X58423528Y44228220D01*
X58423526Y44228222D01*
X58423523Y44228226D01*
X58328225Y44323524D01*
X58328221Y44323527D01*
X58328220Y44323528D01*
X58208126Y44384719D01*
X58208124Y44384720D01*
X58208121Y44384721D01*
X58108493Y44400500D01*
X58108488Y44400500D01*
X57591512Y44400500D01*
X57591507Y44400500D01*
X57491878Y44384721D01*
X57371778Y44323527D01*
X57371774Y44323524D01*
X57276476Y44228226D01*
X57276473Y44228222D01*
X57276472Y44228220D01*
X57234029Y44144920D01*
X57215279Y44108122D01*
X57199500Y44008494D01*
X57199500Y43929979D01*
X57179815Y43862940D01*
X57163181Y43842298D01*
X55777702Y42456819D01*
X55716379Y42423334D01*
X55690021Y42420500D01*
X54658609Y42420500D01*
X54568243Y42396287D01*
X54568242Y42396288D01*
X54544034Y42389801D01*
X54544031Y42389800D01*
X54441304Y42330489D01*
X54441301Y42330487D01*
X53677101Y41566287D01*
X53615778Y41532802D01*
X53546086Y41537786D01*
X53501739Y41566287D01*
X53477294Y41590732D01*
X53477285Y41590739D01*
X53339191Y41672407D01*
X53339188Y41672409D01*
X53200001Y41712847D01*
X53200000Y41712846D01*
X53200000Y40774000D01*
X53180315Y40706961D01*
X53127511Y40661206D01*
X53076000Y40650000D01*
X52824000Y40650000D01*
X52756961Y40669685D01*
X52711206Y40722489D01*
X52700000Y40774000D01*
X52700000Y41732562D01*
X52691677Y41743713D01*
X52686793Y41813412D01*
X52720239Y41874559D01*
X52739198Y41893517D01*
X52790573Y41998607D01*
X52800500Y42066740D01*
X52800500Y42431968D01*
X52820185Y42499007D01*
X52848510Y42529955D01*
X52851561Y42532322D01*
X52967678Y42648439D01*
X52967685Y42648448D01*
X53051281Y42789802D01*
X53097100Y42947514D01*
X53097295Y42949999D01*
X53097295Y42950000D01*
X51811500Y42950000D01*
X51744461Y42969685D01*
X51698706Y43022489D01*
X51687500Y43074000D01*
X51687500Y43326000D01*
X51707185Y43393039D01*
X51759989Y43438794D01*
X51811500Y43450000D01*
X53097295Y43450000D01*
X53097295Y43450002D01*
X53097100Y43452489D01*
X53071413Y43540906D01*
X53071613Y43610775D01*
X53109556Y43669445D01*
X53173194Y43698288D01*
X53190490Y43699500D01*
X53762035Y43699500D01*
X53829074Y43679815D01*
X53849716Y43663181D01*
X53863181Y43649716D01*
X53896666Y43588393D01*
X53899500Y43562035D01*
X53899500Y43191507D01*
X53915279Y43091879D01*
X53915280Y43091876D01*
X53915281Y43091874D01*
X53976472Y42971780D01*
X53976473Y42971779D01*
X53976476Y42971775D01*
X54071774Y42876477D01*
X54071778Y42876474D01*
X54071780Y42876472D01*
X54191874Y42815281D01*
X54191876Y42815281D01*
X54191878Y42815280D01*
X54291507Y42799500D01*
X54291512Y42799500D01*
X54808493Y42799500D01*
X54908121Y42815280D01*
X54908121Y42815281D01*
X54908126Y42815281D01*
X55028220Y42876472D01*
X55123528Y42971780D01*
X55184719Y43091874D01*
X55186431Y43102681D01*
X55200500Y43191507D01*
X55200500Y44008494D01*
X55184720Y44108122D01*
X55184719Y44108124D01*
X55184719Y44108126D01*
X55123528Y44228220D01*
X55123526Y44228222D01*
X55123523Y44228226D01*
X55028225Y44323524D01*
X55028221Y44323527D01*
X55028220Y44323528D01*
X54908126Y44384719D01*
X54908124Y44384720D01*
X54908121Y44384721D01*
X54808493Y44400500D01*
X54808488Y44400500D01*
X54437965Y44400500D01*
X54370926Y44420185D01*
X54350284Y44436819D01*
X54276616Y44510487D01*
X54276614Y44510489D01*
X54175940Y44568614D01*
X54127726Y44619181D01*
X54114504Y44687788D01*
X54140472Y44752652D01*
X54197386Y44793180D01*
X54237942Y44800000D01*
X59883838Y44800000D01*
X59894638Y44799529D01*
G37*
%TD.AperFunction*%
%TA.AperFunction,Conductor*%
G36*
X60143333Y42879191D02*
G01*
X60187680Y42850690D01*
X60351729Y42686641D01*
X60385214Y42625318D01*
X60380230Y42555626D01*
X60351729Y42511279D01*
X59902198Y42061748D01*
X59910000Y42022527D01*
X59910000Y41370000D01*
X59410000Y41370000D01*
X59410000Y42013275D01*
X59422712Y42064847D01*
X59422158Y42065057D01*
X59423889Y42069624D01*
X59424206Y42070906D01*
X59424811Y42072061D01*
X59424818Y42072070D01*
X59485140Y42231128D01*
X59492750Y42293803D01*
X59520370Y42357978D01*
X59528164Y42366536D01*
X60012318Y42850690D01*
X60073641Y42884175D01*
X60143333Y42879191D01*
G37*
%TD.AperFunction*%
%TA.AperFunction,Conductor*%
G36*
X47003126Y42906514D02*
G01*
X47025640Y42888699D01*
X47106654Y42807685D01*
X47255875Y42715644D01*
X47255882Y42715641D01*
X47424081Y42659906D01*
X47481526Y42620134D01*
X47508350Y42555618D01*
X47496035Y42486842D01*
X47448493Y42435642D01*
X47426035Y42425159D01*
X47384732Y42410706D01*
X47362118Y42402793D01*
X47362117Y42402793D01*
X47362116Y42402792D01*
X47252850Y42322150D01*
X47172207Y42212883D01*
X47172206Y42212881D01*
X47141041Y42123816D01*
X47100319Y42067040D01*
X47035366Y42041293D01*
X46966805Y42054750D01*
X46916402Y42103137D01*
X46900000Y42164771D01*
X46900000Y42447828D01*
X46899999Y42447845D01*
X46893598Y42507373D01*
X46893596Y42507380D01*
X46843354Y42642087D01*
X46843352Y42642090D01*
X46799575Y42700568D01*
X46775157Y42766032D01*
X46790008Y42834305D01*
X46829950Y42877982D01*
X46831809Y42879225D01*
X46831811Y42879225D01*
X46869069Y42904121D01*
X46935745Y42924998D01*
X47003126Y42906514D01*
G37*
%TD.AperFunction*%
%TD*%
M02*
