%TF.GenerationSoftware,KiCad,Pcbnew,8.0.5*%
%TF.CreationDate,2024-12-20T09:27:37+00:00*%
%TF.ProjectId,Recorder,5265636f-7264-4657-922e-6b696361645f,1*%
%TF.SameCoordinates,Original*%
%TF.FileFunction,Legend,Bot*%
%TF.FilePolarity,Positive*%
%FSLAX46Y46*%
G04 Gerber Fmt 4.6, Leading zero omitted, Abs format (unit mm)*
G04 Created by KiCad (PCBNEW 8.0.5) date 2024-12-20 09:27:37*
%MOMM*%
%LPD*%
G01*
G04 APERTURE LIST*
G04 Aperture macros list*
%AMRoundRect*
0 Rectangle with rounded corners*
0 $1 Rounding radius*
0 $2 $3 $4 $5 $6 $7 $8 $9 X,Y pos of 4 corners*
0 Add a 4 corners polygon primitive as box body*
4,1,4,$2,$3,$4,$5,$6,$7,$8,$9,$2,$3,0*
0 Add four circle primitives for the rounded corners*
1,1,$1+$1,$2,$3*
1,1,$1+$1,$4,$5*
1,1,$1+$1,$6,$7*
1,1,$1+$1,$8,$9*
0 Add four rect primitives between the rounded corners*
20,1,$1+$1,$2,$3,$4,$5,0*
20,1,$1+$1,$4,$5,$6,$7,0*
20,1,$1+$1,$6,$7,$8,$9,0*
20,1,$1+$1,$8,$9,$2,$3,0*%
%AMFreePoly0*
4,1,53,0.029264,0.147118,0.029890,0.146858,0.168824,0.132256,0.330270,0.079799,0.477282,-0.005078,0.603434,-0.118666,0.703213,-0.256000,0.772258,-0.411078,0.807552,-0.577123,0.807552,-0.746877,0.772258,-0.912922,0.703213,-1.068000,0.603434,-1.205334,0.477282,-1.318922,0.330270,-1.403799,0.168824,-1.456256,0.029890,-1.470858,0.029264,-1.471118,0.000000,-1.474000,-0.515000,-1.474000,
-0.544264,-1.471118,-0.598336,-1.448720,-0.639720,-1.407336,-0.662118,-1.353264,-0.662118,-1.294736,-0.639720,-1.240664,-0.598336,-1.199280,-0.544264,-1.176882,-0.515000,-1.174000,0.067406,-1.174000,0.197625,-1.139108,0.314375,-1.071702,0.409702,-0.976375,0.477108,-0.859625,0.512000,-0.729406,0.512000,-0.594594,0.477108,-0.464375,0.409702,-0.347625,0.314375,-0.252298,0.197625,-0.184892,
0.067406,-0.150000,-0.515000,-0.150000,-0.544264,-0.147118,-0.598336,-0.124720,-0.639720,-0.083336,-0.662118,-0.029264,-0.662118,0.029264,-0.639720,0.083336,-0.598336,0.124720,-0.544264,0.147118,-0.515000,0.150000,0.000000,0.150000,0.029264,0.147118,0.029264,0.147118,$1*%
G04 Aperture macros list end*
%ADD10C,0.150000*%
%ADD11C,0.120000*%
%ADD12C,0.550000*%
%ADD13C,1.300000*%
%ADD14C,2.200000*%
%ADD15C,2.000000*%
%ADD16C,1.000000*%
%ADD17RoundRect,0.175000X0.175000X0.625000X-0.175000X0.625000X-0.175000X-0.625000X0.175000X-0.625000X0*%
%ADD18RoundRect,0.300000X0.300000X0.800000X-0.300000X0.800000X-0.300000X-0.800000X0.300000X-0.800000X0*%
%ADD19RoundRect,0.300000X0.300000X0.450000X-0.300000X0.450000X-0.300000X-0.450000X0.300000X-0.450000X0*%
%ADD20C,1.200000*%
%ADD21RoundRect,0.375000X0.425000X0.375000X-0.425000X0.375000X-0.425000X-0.375000X0.425000X-0.375000X0*%
%ADD22RoundRect,0.151200X0.118800X0.168800X-0.118800X0.168800X-0.118800X-0.168800X0.118800X-0.168800X0*%
%ADD23O,0.950000X2.700000*%
%ADD24RoundRect,0.130500X0.169500X0.130500X-0.169500X0.130500X-0.169500X-0.130500X0.169500X-0.130500X0*%
%ADD25FreePoly0,90.000000*%
%ADD26C,1.050000*%
%ADD27C,0.787400*%
%ADD28RoundRect,0.130500X-0.169500X-0.130500X0.169500X-0.130500X0.169500X0.130500X-0.169500X0.130500X0*%
%ADD29FreePoly0,270.000000*%
G04 APERTURE END LIST*
D10*
G36*
X54790508Y26206529D02*
G01*
X54770115Y26161952D01*
X54739950Y26153284D01*
X54689814Y26172733D01*
X54651012Y26208442D01*
X54603010Y26238395D01*
X54551882Y26251663D01*
X54511827Y26254156D01*
X54457990Y26247981D01*
X54404256Y26226018D01*
X54362991Y26191124D01*
X54334843Y26146421D01*
X54320459Y26095029D01*
X54318631Y26067799D01*
X54330128Y26011926D01*
X54354771Y25968072D01*
X54389797Y25926840D01*
X54432104Y25888381D01*
X54478589Y25852846D01*
X54526150Y25820385D01*
X54535518Y25814275D01*
X54576564Y25786326D01*
X54615121Y25756009D01*
X54662074Y25711774D01*
X54703199Y25663021D01*
X54737696Y25609570D01*
X54764762Y25551245D01*
X54779703Y25504195D01*
X54789676Y25454229D01*
X54794342Y25401272D01*
X54794660Y25382942D01*
X54784745Y25331004D01*
X54748657Y25296422D01*
X54696973Y25285376D01*
X54682553Y25285000D01*
X54245846Y25285000D01*
X54196601Y25298770D01*
X54175749Y25340932D01*
X54198473Y25384774D01*
X54245846Y25396864D01*
X54681331Y25396864D01*
X54674505Y25454705D01*
X54660884Y25506742D01*
X54641137Y25553467D01*
X54615935Y25595372D01*
X54577782Y25641725D01*
X54533459Y25682277D01*
X54484274Y25717991D01*
X54473969Y25724638D01*
X54428327Y25754109D01*
X54382000Y25786156D01*
X54337076Y25821409D01*
X54295641Y25860498D01*
X54259782Y25904051D01*
X54231585Y25952699D01*
X54213136Y26007072D01*
X54206523Y26067799D01*
X54212349Y26128087D01*
X54229223Y26184154D01*
X54256240Y26234822D01*
X54292497Y26278916D01*
X54337088Y26315259D01*
X54389110Y26342675D01*
X54447658Y26359987D01*
X54511827Y26366019D01*
X54567980Y26360999D01*
X54620286Y26347384D01*
X54667623Y26327341D01*
X54718098Y26296547D01*
X54756865Y26263326D01*
X54787296Y26220796D01*
X54790508Y26206529D01*
G37*
G36*
X53630331Y26361732D02*
G01*
X53678991Y26348670D01*
X53723726Y26326534D01*
X53764198Y26295025D01*
X53800067Y26253843D01*
X53830993Y26202688D01*
X53856638Y26141262D01*
X53870633Y26094457D01*
X53882029Y26042864D01*
X53890726Y25986396D01*
X53896623Y25924963D01*
X53899619Y25858477D01*
X53899999Y25823312D01*
X53898213Y25752731D01*
X53892999Y25687381D01*
X53884565Y25627167D01*
X53873124Y25571997D01*
X53858887Y25521778D01*
X53832750Y25455526D01*
X53801508Y25399886D01*
X53765874Y25354544D01*
X53726560Y25319185D01*
X53684279Y25293493D01*
X53624520Y25273730D01*
X53578086Y25269369D01*
X53514806Y25276472D01*
X53455106Y25298667D01*
X53413582Y25326018D01*
X53375545Y25363169D01*
X53341627Y25410681D01*
X53312460Y25469116D01*
X53288676Y25539035D01*
X53276121Y25592305D01*
X53266427Y25651095D01*
X53259779Y25715571D01*
X53256366Y25785900D01*
X53255930Y25823312D01*
X53368038Y25823312D01*
X53368827Y25769194D01*
X53371203Y25718750D01*
X53377769Y25649915D01*
X53387976Y25589204D01*
X53401866Y25536532D01*
X53426188Y25478660D01*
X53457233Y25434729D01*
X53505645Y25399114D01*
X53564913Y25384576D01*
X53578086Y25384163D01*
X53633926Y25394185D01*
X53682649Y25424769D01*
X53715859Y25464564D01*
X53743408Y25518413D01*
X53760057Y25568263D01*
X53773038Y25626410D01*
X53782142Y25693023D01*
X53785955Y25742217D01*
X53787890Y25795298D01*
X53788135Y25823312D01*
X53787190Y25877980D01*
X53784389Y25928639D01*
X53776815Y25997255D01*
X53765343Y26057225D01*
X53750142Y26108773D01*
X53724363Y26164791D01*
X53692649Y26206769D01*
X53645268Y26240307D01*
X53590014Y26253778D01*
X53578086Y26254156D01*
X53527617Y26247995D01*
X53474668Y26222450D01*
X53440234Y26187143D01*
X53412680Y26138086D01*
X53396438Y26091976D01*
X53383917Y26037650D01*
X53375052Y25974901D01*
X53369781Y25903524D01*
X53368231Y25851044D01*
X53368038Y25823312D01*
X53255930Y25823312D01*
X53257364Y25892800D01*
X53261618Y25957077D01*
X53268623Y26016243D01*
X53278309Y26070398D01*
X53290605Y26119643D01*
X53313790Y26184523D01*
X53342453Y26238921D01*
X53376359Y26283177D01*
X53415270Y26317628D01*
X53458950Y26342616D01*
X53507163Y26358478D01*
X53559670Y26365554D01*
X53578086Y26366019D01*
X53630331Y26361732D01*
G37*
G36*
X52973341Y26206529D02*
G01*
X52952948Y26161952D01*
X52922783Y26153284D01*
X52872647Y26172733D01*
X52833846Y26208442D01*
X52785843Y26238395D01*
X52734715Y26251663D01*
X52694660Y26254156D01*
X52640823Y26247981D01*
X52587089Y26226018D01*
X52545825Y26191124D01*
X52517676Y26146421D01*
X52503292Y26095029D01*
X52501464Y26067799D01*
X52512961Y26011926D01*
X52537604Y25968072D01*
X52572630Y25926840D01*
X52614937Y25888381D01*
X52661423Y25852846D01*
X52708983Y25820385D01*
X52718352Y25814275D01*
X52759398Y25786326D01*
X52797954Y25756009D01*
X52844907Y25711774D01*
X52886032Y25663021D01*
X52920529Y25609570D01*
X52947595Y25551245D01*
X52962536Y25504195D01*
X52972509Y25454229D01*
X52977176Y25401272D01*
X52977493Y25382942D01*
X52967578Y25331004D01*
X52931491Y25296422D01*
X52879807Y25285376D01*
X52865386Y25285000D01*
X52428680Y25285000D01*
X52379434Y25298770D01*
X52358582Y25340932D01*
X52381306Y25384774D01*
X52428680Y25396864D01*
X52864165Y25396864D01*
X52857338Y25454705D01*
X52843717Y25506742D01*
X52823970Y25553467D01*
X52798769Y25595372D01*
X52760615Y25641725D01*
X52716292Y25682277D01*
X52667108Y25717991D01*
X52656802Y25724638D01*
X52611160Y25754109D01*
X52564834Y25786156D01*
X52519910Y25821409D01*
X52478475Y25860498D01*
X52442615Y25904051D01*
X52414418Y25952699D01*
X52395970Y26007072D01*
X52389357Y26067799D01*
X52395182Y26128087D01*
X52412056Y26184154D01*
X52439073Y26234822D01*
X52475330Y26278916D01*
X52519922Y26315259D01*
X52571943Y26342675D01*
X52630491Y26359987D01*
X52694660Y26366019D01*
X52750813Y26360999D01*
X52803119Y26347384D01*
X52850456Y26327341D01*
X52900931Y26296547D01*
X52939698Y26263326D01*
X52970129Y26220796D01*
X52973341Y26206529D01*
G37*
G36*
X52084297Y25613507D02*
G01*
X52065710Y25564665D01*
X52020663Y25540599D01*
X51969213Y25532987D01*
X51947033Y25532419D01*
X51694974Y25532419D01*
X51694974Y25344840D01*
X51681205Y25295595D01*
X51639043Y25274742D01*
X51594038Y25298048D01*
X51583111Y25344840D01*
X51583111Y25532419D01*
X51494939Y25532419D01*
X51445694Y25546188D01*
X51424842Y25588350D01*
X51447565Y25632325D01*
X51494939Y25644526D01*
X51583111Y25644526D01*
X51583111Y25820869D01*
X51595781Y25869993D01*
X51639043Y25890723D01*
X51682884Y25867551D01*
X51694974Y25820869D01*
X51694974Y25644526D01*
X51959733Y25644526D01*
X51678366Y26261728D01*
X51664774Y26310384D01*
X51664200Y26322056D01*
X51694391Y26361467D01*
X51715979Y26366752D01*
X51760700Y26345568D01*
X51772155Y26326208D01*
X52044974Y25728301D01*
X52067358Y25681497D01*
X52082668Y25632673D01*
X52084297Y25613507D01*
G37*
G36*
X51051150Y25724393D02*
G01*
X50659140Y25724393D01*
X50611766Y25737726D01*
X50589398Y25782756D01*
X50589043Y25791560D01*
X50611766Y25835535D01*
X50659140Y25847736D01*
X51051150Y25847736D01*
X51100731Y25834394D01*
X51121003Y25791560D01*
X51105214Y25743346D01*
X51058374Y25724595D01*
X51051150Y25724393D01*
G37*
G36*
X50229273Y26083430D02*
G01*
X50199625Y26042128D01*
X50178959Y26037268D01*
X50132551Y26057373D01*
X50122783Y26065112D01*
X49939601Y26227534D01*
X49939601Y25341421D01*
X49927400Y25294047D01*
X49883425Y25271323D01*
X49839583Y25294628D01*
X49827493Y25341421D01*
X49827493Y26272474D01*
X49837694Y26322874D01*
X49875160Y26357912D01*
X49908582Y26363577D01*
X49957101Y26353724D01*
X49998070Y26326329D01*
X50007989Y26317171D01*
X50191415Y26154749D01*
X50222474Y26116958D01*
X50229273Y26083430D01*
G37*
G36*
X49339008Y26206529D02*
G01*
X49318614Y26161952D01*
X49288449Y26153284D01*
X49238313Y26172733D01*
X49199512Y26208442D01*
X49151509Y26238395D01*
X49100382Y26251663D01*
X49060327Y26254156D01*
X49006490Y26247981D01*
X48952756Y26226018D01*
X48911491Y26191124D01*
X48883343Y26146421D01*
X48868959Y26095029D01*
X48867130Y26067799D01*
X48878627Y26011926D01*
X48903270Y25968072D01*
X48938297Y25926840D01*
X48980604Y25888381D01*
X49027089Y25852846D01*
X49074650Y25820385D01*
X49084018Y25814275D01*
X49125064Y25786326D01*
X49163621Y25756009D01*
X49210574Y25711774D01*
X49251699Y25663021D01*
X49286195Y25609570D01*
X49313261Y25551245D01*
X49328203Y25504195D01*
X49338176Y25454229D01*
X49342842Y25401272D01*
X49343160Y25382942D01*
X49333245Y25331004D01*
X49297157Y25296422D01*
X49245473Y25285376D01*
X49231052Y25285000D01*
X48794346Y25285000D01*
X48745101Y25298770D01*
X48724248Y25340932D01*
X48746972Y25384774D01*
X48794346Y25396864D01*
X49229831Y25396864D01*
X49223005Y25454705D01*
X49209383Y25506742D01*
X49189637Y25553467D01*
X49164435Y25595372D01*
X49126281Y25641725D01*
X49081958Y25682277D01*
X49032774Y25717991D01*
X49022469Y25724638D01*
X48976826Y25754109D01*
X48930500Y25786156D01*
X48885576Y25821409D01*
X48844141Y25860498D01*
X48808282Y25904051D01*
X48780085Y25952699D01*
X48761636Y26007072D01*
X48755023Y26067799D01*
X48760849Y26128087D01*
X48777722Y26184154D01*
X48804740Y26234822D01*
X48840996Y26278916D01*
X48885588Y26315259D01*
X48937610Y26342675D01*
X48996157Y26359987D01*
X49060327Y26366019D01*
X49116479Y26360999D01*
X49168786Y26347384D01*
X49216123Y26327341D01*
X49266598Y26296547D01*
X49305365Y26263326D01*
X49335796Y26220796D01*
X49339008Y26206529D01*
G37*
G36*
X48325400Y25724393D02*
G01*
X47933390Y25724393D01*
X47886016Y25737726D01*
X47863648Y25782756D01*
X47863292Y25791560D01*
X47886016Y25835535D01*
X47933390Y25847736D01*
X48325400Y25847736D01*
X48374981Y25834394D01*
X48395253Y25791560D01*
X48379464Y25743346D01*
X48332624Y25724595D01*
X48325400Y25724393D01*
G37*
G36*
X47521841Y26206529D02*
G01*
X47501448Y26161952D01*
X47471283Y26153284D01*
X47421147Y26172733D01*
X47382345Y26208442D01*
X47334342Y26238395D01*
X47283215Y26251663D01*
X47243160Y26254156D01*
X47189323Y26247981D01*
X47135589Y26226018D01*
X47094324Y26191124D01*
X47066176Y26146421D01*
X47051792Y26095029D01*
X47049964Y26067799D01*
X47061461Y26011926D01*
X47086104Y25968072D01*
X47121130Y25926840D01*
X47163437Y25888381D01*
X47209922Y25852846D01*
X47257483Y25820385D01*
X47266851Y25814275D01*
X47307897Y25786326D01*
X47346454Y25756009D01*
X47393407Y25711774D01*
X47434532Y25663021D01*
X47469029Y25609570D01*
X47496095Y25551245D01*
X47511036Y25504195D01*
X47521009Y25454229D01*
X47525675Y25401272D01*
X47525993Y25382942D01*
X47516078Y25331004D01*
X47479990Y25296422D01*
X47428306Y25285376D01*
X47413885Y25285000D01*
X46977179Y25285000D01*
X46927934Y25298770D01*
X46907082Y25340932D01*
X46929805Y25384774D01*
X46977179Y25396864D01*
X47412664Y25396864D01*
X47405838Y25454705D01*
X47392217Y25506742D01*
X47372470Y25553467D01*
X47347268Y25595372D01*
X47309115Y25641725D01*
X47264792Y25682277D01*
X47215607Y25717991D01*
X47205302Y25724638D01*
X47159660Y25754109D01*
X47113333Y25786156D01*
X47068409Y25821409D01*
X47026974Y25860498D01*
X46991115Y25904051D01*
X46962918Y25952699D01*
X46944469Y26007072D01*
X46937856Y26067799D01*
X46943682Y26128087D01*
X46960556Y26184154D01*
X46987573Y26234822D01*
X47023830Y26278916D01*
X47068421Y26315259D01*
X47120443Y26342675D01*
X47178991Y26359987D01*
X47243160Y26366019D01*
X47299313Y26360999D01*
X47351619Y26347384D01*
X47398956Y26327341D01*
X47449431Y26296547D01*
X47488198Y26263326D01*
X47518629Y26220796D01*
X47521841Y26206529D01*
G37*
G36*
X46361664Y26361732D02*
G01*
X46410324Y26348670D01*
X46455059Y26326534D01*
X46495531Y26295025D01*
X46531400Y26253843D01*
X46562326Y26202688D01*
X46587971Y26141262D01*
X46601966Y26094457D01*
X46613362Y26042864D01*
X46622058Y25986396D01*
X46627955Y25924963D01*
X46630952Y25858477D01*
X46631331Y25823312D01*
X46629546Y25752731D01*
X46624331Y25687381D01*
X46615898Y25627167D01*
X46604457Y25571997D01*
X46590220Y25521778D01*
X46564082Y25455526D01*
X46532840Y25399886D01*
X46497207Y25354544D01*
X46457893Y25319185D01*
X46415612Y25293493D01*
X46355853Y25273730D01*
X46309419Y25269369D01*
X46246139Y25276472D01*
X46186439Y25298667D01*
X46144915Y25326018D01*
X46106878Y25363169D01*
X46072960Y25410681D01*
X46043793Y25469116D01*
X46020009Y25539035D01*
X46007454Y25592305D01*
X45997760Y25651095D01*
X45991112Y25715571D01*
X45987698Y25785900D01*
X45987263Y25823312D01*
X46099370Y25823312D01*
X46100160Y25769194D01*
X46102536Y25718750D01*
X46109102Y25649915D01*
X46119309Y25589204D01*
X46133199Y25536532D01*
X46157521Y25478660D01*
X46188565Y25434729D01*
X46236977Y25399114D01*
X46296246Y25384576D01*
X46309419Y25384163D01*
X46365258Y25394185D01*
X46413982Y25424769D01*
X46447192Y25464564D01*
X46474740Y25518413D01*
X46491390Y25568263D01*
X46504371Y25626410D01*
X46513475Y25693023D01*
X46517287Y25742217D01*
X46519223Y25795298D01*
X46519468Y25823312D01*
X46518523Y25877980D01*
X46515722Y25928639D01*
X46508148Y25997255D01*
X46496676Y26057225D01*
X46481475Y26108773D01*
X46455695Y26164791D01*
X46423982Y26206769D01*
X46376601Y26240307D01*
X46321347Y26253778D01*
X46309419Y26254156D01*
X46258950Y26247995D01*
X46206001Y26222450D01*
X46171567Y26187143D01*
X46144013Y26138086D01*
X46127771Y26091976D01*
X46115250Y26037650D01*
X46106385Y25974901D01*
X46101114Y25903524D01*
X46099563Y25851044D01*
X46099370Y25823312D01*
X45987263Y25823312D01*
X45988697Y25892800D01*
X45992951Y25957077D01*
X45999956Y26016243D01*
X46009642Y26070398D01*
X46021938Y26119643D01*
X46045122Y26184523D01*
X46073786Y26238921D01*
X46107692Y26283177D01*
X46146603Y26317628D01*
X46190283Y26342616D01*
X46238495Y26358478D01*
X46291003Y26365554D01*
X46309419Y26366019D01*
X46361664Y26361732D01*
G37*
G36*
X61062162Y27510933D02*
G01*
X61082972Y27505071D01*
X61101730Y27499209D01*
X61149211Y27491296D01*
X61202050Y27464258D01*
X61248276Y27426816D01*
X61286084Y27384610D01*
X61309825Y27352370D01*
X61321548Y27332733D01*
X61335215Y27310840D01*
X61361453Y27254180D01*
X61381046Y27197618D01*
X61393124Y27156597D01*
X61408010Y27097381D01*
X61411527Y27058839D01*
X61412700Y26997730D01*
X61411587Y26938887D01*
X61404786Y26880200D01*
X61390042Y26835873D01*
X61362736Y26781405D01*
X61320669Y26738930D01*
X61313928Y26734241D01*
X61305135Y26728379D01*
X61297222Y26723396D01*
X61275302Y26710148D01*
X61216915Y26694087D01*
X61178460Y26690378D01*
X61119315Y26694087D01*
X61107539Y26696143D01*
X61049815Y26713685D01*
X60997682Y26740982D01*
X60976287Y26752705D01*
X60939943Y26775273D01*
X60894221Y26813375D01*
X60865378Y26844855D01*
X60829448Y26891924D01*
X60808052Y26922112D01*
X60786363Y26954645D01*
X60776691Y26972231D01*
X60768926Y26989365D01*
X60751192Y27046676D01*
X60750345Y27050239D01*
X60740444Y27109819D01*
X60739454Y27129520D01*
X60882228Y27129520D01*
X60891708Y27070153D01*
X60916496Y27013557D01*
X60919586Y27007955D01*
X60953887Y26956378D01*
X60994370Y26912872D01*
X61046042Y26874338D01*
X61099735Y26847771D01*
X61159762Y26833305D01*
X61165297Y26833351D01*
X61222777Y26845029D01*
X61253844Y26893975D01*
X61260904Y26914005D01*
X61271002Y26974657D01*
X61267620Y27037004D01*
X61257556Y27092968D01*
X61241399Y27154324D01*
X61216924Y27217911D01*
X61186390Y27272887D01*
X61149797Y27319251D01*
X61108764Y27342698D01*
X61091179Y27338595D01*
X61075352Y27342405D01*
X61067438Y27340647D01*
X61052784Y27328044D01*
X61036077Y27313389D01*
X61028164Y27305476D01*
X61010578Y27290528D01*
X60990941Y27275873D01*
X60961632Y27289649D01*
X60934082Y27305476D01*
X60922389Y27292685D01*
X60898617Y27238651D01*
X60886894Y27185894D01*
X60882228Y27129520D01*
X60739454Y27129520D01*
X60737417Y27170067D01*
X60739981Y27220255D01*
X60752951Y27279684D01*
X60761158Y27301372D01*
X60769071Y27318958D01*
X60776985Y27338595D01*
X60790760Y27364094D01*
X60804535Y27389593D01*
X60832379Y27421833D01*
X60869894Y27456125D01*
X60872440Y27458110D01*
X60923530Y27489537D01*
X60942062Y27499333D01*
X61000117Y27514047D01*
X61062162Y27510933D01*
G37*
G36*
X60257627Y27559000D02*
G01*
X60313607Y27556069D01*
X60353761Y27547276D01*
X60371346Y27539363D01*
X60393914Y27531449D01*
X60416482Y27521777D01*
X60463670Y27498037D01*
X60496789Y27474589D01*
X60502651Y27467848D01*
X60512909Y27454073D01*
X60526684Y27435608D01*
X60533756Y27426755D01*
X60566252Y27374645D01*
X60575631Y27347388D01*
X60579734Y27334712D01*
X60585010Y27274701D01*
X60585006Y27271570D01*
X60581199Y27212273D01*
X60573728Y27184712D01*
X60575338Y27125811D01*
X60577295Y27107240D01*
X60581199Y27047555D01*
X60582312Y27002410D01*
X60585288Y26943503D01*
X60589113Y26882838D01*
X60590355Y26848228D01*
X60592224Y26789317D01*
X60594095Y26725741D01*
X60594465Y26711842D01*
X60596214Y26651677D01*
X60598321Y26589395D01*
X60600837Y26526439D01*
X60603981Y26464136D01*
X60608750Y26405099D01*
X60611670Y26359595D01*
X60587061Y26302810D01*
X60567717Y26295190D01*
X60546322Y26289328D01*
X60515547Y26285518D01*
X60500013Y26289328D01*
X60475980Y26313068D01*
X60463084Y26358204D01*
X60462855Y26377792D01*
X60453705Y26438804D01*
X60453705Y26478020D01*
X60453705Y26539798D01*
X60453705Y26600005D01*
X60453705Y26627417D01*
X60453705Y26693702D01*
X60453705Y26755343D01*
X60453705Y26796669D01*
X60453705Y26833892D01*
X60424396Y26820409D01*
X60406140Y26812002D01*
X60349848Y26791581D01*
X60290746Y26776739D01*
X60262218Y26770800D01*
X60199410Y26767251D01*
X60136323Y26773551D01*
X60075031Y26786704D01*
X60071578Y26787968D01*
X60018171Y26814255D01*
X60003039Y26822845D01*
X59957208Y26861442D01*
X59935519Y26883717D01*
X59927899Y26894562D01*
X59922037Y26906285D01*
X59910020Y26926215D01*
X59894486Y26959335D01*
X59886573Y26992747D01*
X59878659Y27027918D01*
X59876406Y27048421D01*
X59875261Y27073018D01*
X60015831Y27073018D01*
X60026670Y27011798D01*
X60038067Y26986804D01*
X60081488Y26942670D01*
X60137459Y26920647D01*
X60153776Y26917730D01*
X60212833Y26914660D01*
X60274919Y26922698D01*
X60326551Y26936742D01*
X60381018Y26964024D01*
X60428206Y26983368D01*
X60439929Y26983368D01*
X60439929Y27130500D01*
X60439929Y27144781D01*
X60439929Y27204945D01*
X60439929Y27212859D01*
X60439929Y27272356D01*
X60439929Y27302838D01*
X60445791Y27328337D01*
X60435826Y27345922D01*
X60389128Y27382883D01*
X60333830Y27404834D01*
X60274682Y27416322D01*
X60214249Y27414506D01*
X60156862Y27396697D01*
X60108150Y27361749D01*
X60092585Y27344851D01*
X60060962Y27293166D01*
X60048907Y27266410D01*
X60031653Y27208756D01*
X60029856Y27200968D01*
X60018447Y27135620D01*
X60015831Y27073018D01*
X59875261Y27073018D01*
X59873603Y27108660D01*
X59877450Y27173364D01*
X59888624Y27235720D01*
X59896538Y27257116D01*
X59904158Y27276753D01*
X59913970Y27308441D01*
X59938665Y27366695D01*
X59968931Y27419781D01*
X60006447Y27465797D01*
X60039567Y27496278D01*
X60063307Y27510054D01*
X60072512Y27516364D01*
X60127833Y27540324D01*
X60188750Y27556948D01*
X60232128Y27561051D01*
X60257627Y27559000D01*
G37*
G36*
X59340543Y27566034D02*
G01*
X59341701Y27565747D01*
X59399455Y27554017D01*
X59420264Y27548229D01*
X59475659Y27522656D01*
X59514493Y27498696D01*
X59560655Y27461987D01*
X59577866Y27446726D01*
X59618394Y27401317D01*
X59638031Y27375818D01*
X59659738Y27349696D01*
X59691340Y27295840D01*
X59714528Y27239237D01*
X59721562Y27218597D01*
X59738708Y27159589D01*
X59751210Y27096269D01*
X59755607Y27031185D01*
X59747941Y26967248D01*
X59740027Y26928267D01*
X59728663Y26894650D01*
X59696943Y26845029D01*
X59665991Y26809337D01*
X59615322Y26771419D01*
X59561828Y26743913D01*
X59522890Y26731702D01*
X59460901Y26723020D01*
X59396524Y26720758D01*
X59343383Y26722480D01*
X59280543Y26730471D01*
X59221548Y26748309D01*
X59203670Y26756222D01*
X59188136Y26765015D01*
X59174361Y26781721D01*
X59166447Y26793445D01*
X59166447Y26840340D01*
X59203670Y26875511D01*
X59222519Y26876811D01*
X59281925Y26871700D01*
X59333352Y26864154D01*
X59395352Y26862028D01*
X59429130Y26862285D01*
X59489141Y26866132D01*
X59519806Y26875996D01*
X59569448Y26911854D01*
X59575992Y26918655D01*
X59606670Y26969593D01*
X59618394Y27007695D01*
X59617881Y27051732D01*
X59608722Y27111156D01*
X59577068Y27086536D01*
X59559483Y27082726D01*
X59522331Y27071953D01*
X59462954Y27069207D01*
X59399782Y27071623D01*
X59333802Y27076864D01*
X59268278Y27083111D01*
X59203632Y27092001D01*
X59145345Y27106467D01*
X59121897Y27114380D01*
X59093467Y27142224D01*
X59057124Y27187946D01*
X59034614Y27237418D01*
X59025763Y27295511D01*
X59025369Y27303424D01*
X59174947Y27303424D01*
X59192532Y27260340D01*
X59215980Y27243633D01*
X59221829Y27242493D01*
X59280753Y27236599D01*
X59314165Y27234255D01*
X59375128Y27227220D01*
X59388968Y27225544D01*
X59450421Y27219902D01*
X59510537Y27217841D01*
X59514273Y27217841D01*
X59575310Y27217841D01*
X59559483Y27247737D01*
X59556167Y27253356D01*
X59522260Y27303424D01*
X59498392Y27331648D01*
X59454407Y27371744D01*
X59402386Y27403368D01*
X59369574Y27417722D01*
X59310196Y27431653D01*
X59251444Y27423005D01*
X59212169Y27398093D01*
X59182567Y27369956D01*
X59179290Y27363154D01*
X59174947Y27303424D01*
X59025369Y27303424D01*
X59025088Y27309068D01*
X59031121Y27372530D01*
X59052840Y27428778D01*
X59090243Y27477813D01*
X59101344Y27487925D01*
X59150034Y27521777D01*
X59157398Y27526229D01*
X59211583Y27552259D01*
X59216926Y27553816D01*
X59278678Y27567446D01*
X59340543Y27566034D01*
G37*
G36*
X58601367Y27546397D02*
G01*
X58552714Y27547276D01*
X58506112Y27534673D01*
X58477975Y27522950D01*
X58455994Y27501261D01*
X58417306Y27453267D01*
X58390086Y27399356D01*
X58388583Y27395455D01*
X58378617Y27377869D01*
X58357808Y27322182D01*
X58341224Y27265938D01*
X58340809Y27262391D01*
X58328286Y27203286D01*
X58320292Y27172119D01*
X58307257Y27111842D01*
X58303602Y27049780D01*
X58303586Y27044917D01*
X58298897Y26997730D01*
X58293023Y26938339D01*
X58291862Y26880200D01*
X58292984Y26819300D01*
X58297724Y26768532D01*
X58311010Y26710599D01*
X58324982Y26684415D01*
X58332895Y26668588D01*
X58370118Y26660968D01*
X58400599Y26673571D01*
X58427271Y26690277D01*
X58452916Y26744229D01*
X58450718Y26756809D01*
X58443565Y26816396D01*
X58440996Y26878254D01*
X58440753Y26907751D01*
X58441965Y26971346D01*
X58446052Y27032270D01*
X58451011Y27072175D01*
X58463401Y27134550D01*
X58477060Y27192361D01*
X58490871Y27246564D01*
X58508823Y27303855D01*
X58524870Y27341526D01*
X58553886Y27393733D01*
X58560627Y27399558D01*
X58594333Y27389593D01*
X58643041Y27354459D01*
X58659692Y27338595D01*
X58698906Y27294308D01*
X58729845Y27244520D01*
X58732672Y27238358D01*
X58752199Y27182731D01*
X58754654Y27170361D01*
X58758163Y27108519D01*
X58758464Y27071296D01*
X58758125Y27011881D01*
X58756412Y26975162D01*
X58745811Y26916131D01*
X58740878Y26862028D01*
X58738186Y26803356D01*
X58742637Y26765015D01*
X58746740Y26752998D01*
X58754361Y26733361D01*
X58779567Y26707862D01*
X58833202Y26702000D01*
X58880747Y26737385D01*
X58884786Y26745085D01*
X58899020Y26803996D01*
X58903837Y26835357D01*
X58906928Y26896838D01*
X58908234Y26964610D01*
X58909006Y27038782D01*
X58909419Y27109701D01*
X58909608Y27169646D01*
X58909693Y27235382D01*
X58909699Y27258581D01*
X58909095Y27322658D01*
X58906289Y27383606D01*
X58900027Y27415092D01*
X58867787Y27426816D01*
X58828220Y27426816D01*
X58816203Y27415092D01*
X58784256Y27425057D01*
X58738149Y27468073D01*
X58690522Y27504013D01*
X58681088Y27509174D01*
X58629211Y27536725D01*
X58601367Y27546397D01*
G37*
G36*
X57911723Y27590654D02*
G01*
X57858966Y27586843D01*
X57811486Y27563396D01*
X57769867Y27529984D01*
X57736429Y27480181D01*
X57732644Y27471365D01*
X57709493Y27415597D01*
X57697201Y27355989D01*
X57696887Y27345922D01*
X57685456Y27355594D01*
X57679594Y27365559D01*
X57638784Y27420655D01*
X57595706Y27467239D01*
X57550362Y27505313D01*
X57494595Y27538974D01*
X57435742Y27561051D01*
X57382986Y27564862D01*
X57330229Y27561051D01*
X57276597Y27532010D01*
X57265749Y27521777D01*
X57231458Y27471365D01*
X57210648Y27425643D01*
X57210648Y27421540D01*
X57206838Y27415385D01*
X57204786Y27409523D01*
X57193063Y27371128D01*
X57186506Y27310793D01*
X57186322Y27308407D01*
X57181339Y27260340D01*
X57177536Y27200091D01*
X57178598Y27136783D01*
X57182172Y27067925D01*
X57187201Y26998902D01*
X57192879Y26939917D01*
X57197166Y26904527D01*
X57203890Y26843885D01*
X57209702Y26783335D01*
X57210648Y26772929D01*
X57226843Y26715570D01*
X57228527Y26713724D01*
X57279525Y26702000D01*
X57318799Y26702000D01*
X57329350Y26717534D01*
X57346936Y26750067D01*
X57349280Y26794324D01*
X57345803Y26856105D01*
X57341104Y26921602D01*
X57336282Y26985583D01*
X57333453Y27022349D01*
X57328750Y27082538D01*
X57324661Y27134310D01*
X57326712Y27193222D01*
X57330489Y27252097D01*
X57330523Y27257995D01*
X57336828Y27320059D01*
X57348767Y27378382D01*
X57380641Y27422419D01*
X57438949Y27406809D01*
X57452449Y27398972D01*
X57498418Y27358708D01*
X57507550Y27349146D01*
X57547037Y27304564D01*
X57568220Y27277632D01*
X57602923Y27221194D01*
X57628718Y27167483D01*
X57650864Y27108846D01*
X57669363Y27045284D01*
X57684215Y26976797D01*
X57686336Y26964904D01*
X57711248Y26916250D01*
X57747885Y26908337D01*
X57806016Y26921396D01*
X57815882Y26929733D01*
X57831523Y26991134D01*
X57834924Y27057223D01*
X57835226Y27090054D01*
X57835648Y27156971D01*
X57837209Y27224441D01*
X57840401Y27287570D01*
X57847243Y27350026D01*
X57864971Y27406246D01*
X57887103Y27432091D01*
X57901172Y27443815D01*
X57918464Y27424178D01*
X57952064Y27374684D01*
X57964772Y27347974D01*
X57984927Y27292255D01*
X57989392Y27277632D01*
X58003697Y27220119D01*
X58003754Y27218721D01*
X58011374Y27175929D01*
X58017236Y27117311D01*
X58017236Y27056847D01*
X58017236Y26996873D01*
X58017236Y26938525D01*
X58017138Y26871763D01*
X58016723Y26809419D01*
X58015184Y26763843D01*
X58018994Y26731896D01*
X58035700Y26705811D01*
X58077906Y26702000D01*
X58128024Y26705811D01*
X58155868Y26748016D01*
X58160557Y26775566D01*
X58173907Y26836061D01*
X58182150Y26895261D01*
X58184005Y26935008D01*
X58183556Y26997401D01*
X58181660Y27061257D01*
X58176302Y27120996D01*
X58174626Y27129328D01*
X58160557Y27187360D01*
X58150006Y27228393D01*
X58146544Y27289269D01*
X58146489Y27302545D01*
X58146489Y27389007D01*
X58136817Y27406592D01*
X58106922Y27424178D01*
X58089336Y27426229D01*
X58071751Y27459349D01*
X58036580Y27509541D01*
X57993159Y27552168D01*
X57940128Y27582348D01*
X57911723Y27590654D01*
G37*
G36*
X56908178Y27658065D02*
G01*
X56849353Y27661087D01*
X56825819Y27656306D01*
X56771988Y27630181D01*
X56755184Y27619084D01*
X56737306Y27603257D01*
X56741409Y27566034D01*
X56748443Y27543466D01*
X56763098Y27517088D01*
X56769839Y27508295D01*
X56775700Y27501261D01*
X56784493Y27497451D01*
X56837543Y27503312D01*
X56896654Y27508228D01*
X56898506Y27507416D01*
X56919901Y27502433D01*
X56941590Y27497451D01*
X56947452Y27495399D01*
X56954193Y27492468D01*
X56959176Y27491589D01*
X56987606Y27484555D01*
X57020139Y27479865D01*
X57049448Y27509174D01*
X57061823Y27568319D01*
X57039776Y27595343D01*
X57023949Y27605308D01*
X57014277Y27613222D01*
X56964158Y27638428D01*
X56908178Y27658065D01*
G37*
G36*
X56973537Y27317786D02*
G01*
X56964451Y27331561D01*
X56925763Y27331561D01*
X56874765Y27323647D01*
X56862749Y27308114D01*
X56858059Y27294338D01*
X56848472Y27235081D01*
X56848387Y27225462D01*
X56850219Y27166386D01*
X56853077Y27137534D01*
X56856046Y27078431D01*
X56856301Y27066020D01*
X56853653Y27005892D01*
X56853077Y26996264D01*
X56850007Y26936551D01*
X56849853Y26927974D01*
X56838332Y26869384D01*
X56833440Y26859391D01*
X56823181Y26837702D01*
X56844870Y26804582D01*
X56867145Y26788756D01*
X56907005Y26777032D01*
X56955952Y26788756D01*
X56982916Y26835943D01*
X56996221Y26895507D01*
X56999036Y26922112D01*
X56999622Y26977800D01*
X56999915Y27024987D01*
X56999915Y27084677D01*
X56999915Y27096502D01*
X56998988Y27159201D01*
X56995562Y27219979D01*
X56987448Y27278545D01*
X56973537Y27317786D01*
G37*
G36*
X56261618Y27622894D02*
G01*
X56201398Y27630799D01*
X56198603Y27630807D01*
X56143795Y27621135D01*
X56132072Y27615273D01*
X56090746Y27587723D01*
X56068178Y27557534D01*
X56051472Y27530863D01*
X56017211Y27481604D01*
X56010439Y27460521D01*
X56004284Y27442936D01*
X56006336Y27391938D01*
X56031834Y27362629D01*
X56042679Y27358525D01*
X56050592Y27355594D01*
X56056454Y27354715D01*
X56061437Y27356474D01*
X56063195Y27360577D01*
X56098659Y27380214D01*
X56132072Y27419195D01*
X56169029Y27467229D01*
X56173105Y27472245D01*
X56202707Y27489830D01*
X56255354Y27461935D01*
X56292100Y27425057D01*
X56329371Y27379307D01*
X56364501Y27326159D01*
X56387061Y27284080D01*
X56402009Y27250668D01*
X56414612Y27221358D01*
X56426336Y27192049D01*
X56443485Y27135026D01*
X56447145Y27100019D01*
X56448772Y27040423D01*
X56443921Y26984248D01*
X56421888Y26925440D01*
X56369681Y26890159D01*
X56304703Y26890165D01*
X56241206Y26902764D01*
X56183339Y26914414D01*
X56125939Y26926394D01*
X56112435Y26929439D01*
X56053949Y26942656D01*
X56004284Y26945266D01*
X55977026Y26909802D01*
X55964291Y26852316D01*
X55988750Y26825685D01*
X56002525Y26813961D01*
X56014249Y26809858D01*
X56037696Y26802238D01*
X56049420Y26798134D01*
X56107996Y26778604D01*
X56119469Y26775566D01*
X56178049Y26762341D01*
X56198603Y26760912D01*
X56216482Y26758860D01*
X56276341Y26745973D01*
X56340988Y26744733D01*
X56400837Y26751240D01*
X56445973Y26763843D01*
X56469420Y26778497D01*
X56475575Y26780549D01*
X56512797Y26808979D01*
X56551430Y26853885D01*
X56552072Y26854994D01*
X56579842Y26910095D01*
X56596622Y26969593D01*
X56602410Y27033487D01*
X56598459Y27093000D01*
X56597208Y27101777D01*
X56585958Y27165165D01*
X56573066Y27223244D01*
X56565847Y27240996D01*
X56550020Y27275287D01*
X56534193Y27309579D01*
X56530383Y27317492D01*
X56522763Y27330095D01*
X56516608Y27344750D01*
X56489609Y27400621D01*
X56454773Y27455796D01*
X56417230Y27504257D01*
X56385010Y27540242D01*
X56339268Y27579562D01*
X56327271Y27588309D01*
X56279204Y27617325D01*
X56261618Y27622894D01*
G37*
G36*
X55795017Y26893389D02*
G01*
X55749001Y26925629D01*
X55702693Y26905113D01*
X55675435Y26889579D01*
X55657850Y26879614D01*
X55647885Y26864080D01*
X55637920Y26840633D01*
X55625658Y26782275D01*
X55636161Y26752412D01*
X55666094Y26701995D01*
X55696831Y26675915D01*
X55716468Y26664192D01*
X55775683Y26659817D01*
X55783293Y26662140D01*
X55824619Y26682950D01*
X55846015Y26728965D01*
X55851876Y26767946D01*
X55850997Y26773808D01*
X55849239Y26780842D01*
X55847187Y26786704D01*
X55846015Y26791393D01*
X55838394Y26832719D01*
X55826377Y26862028D01*
X55795017Y26893389D01*
G37*
G36*
X55219678Y27519726D02*
G01*
X55159635Y27525351D01*
X55156077Y27525587D01*
X55097244Y27529494D01*
X55092183Y27529691D01*
X55031513Y27517967D01*
X54972699Y27502411D01*
X54952672Y27496278D01*
X54930397Y27487485D01*
X54906657Y27478693D01*
X54887019Y27470779D01*
X54865624Y27461107D01*
X54845987Y27450263D01*
X54825177Y27437660D01*
X54807592Y27422712D01*
X54790006Y27404248D01*
X54766559Y27370835D01*
X54768317Y27335664D01*
X54803781Y27300493D01*
X54825177Y27292580D01*
X54884034Y27297416D01*
X54907536Y27314268D01*
X54958808Y27346790D01*
X54964689Y27349439D01*
X55022621Y27367243D01*
X55082503Y27377309D01*
X55087201Y27377869D01*
X55146803Y27381973D01*
X55204144Y27376697D01*
X55260974Y27357104D01*
X55311526Y27321358D01*
X55333691Y27292580D01*
X55339846Y27265029D01*
X55333691Y27239530D01*
X55333691Y27176246D01*
X55333691Y27117578D01*
X55333691Y27057287D01*
X55333691Y27029970D01*
X55333691Y26967757D01*
X55333691Y26905707D01*
X55333691Y26875218D01*
X55333155Y26813627D01*
X55329881Y26763550D01*
X55337501Y26704638D01*
X55392634Y26684266D01*
X55416343Y26683243D01*
X55455910Y26694966D01*
X55475487Y26751913D01*
X55476426Y26757688D01*
X55486098Y26816306D01*
X55495400Y26876420D01*
X55497236Y26892803D01*
X55505586Y26953147D01*
X55506615Y26960214D01*
X55512096Y27019776D01*
X55512183Y27027039D01*
X55512183Y27086078D01*
X55512183Y27126104D01*
X55511534Y27185398D01*
X55508305Y27246979D01*
X55503977Y27274994D01*
X55483740Y27331240D01*
X55453459Y27382305D01*
X55442135Y27394576D01*
X55426015Y27418023D01*
X55419860Y27431798D01*
X55394947Y27447332D01*
X55343509Y27478670D01*
X55287547Y27500944D01*
X55227001Y27518004D01*
X55219678Y27519726D01*
G37*
G36*
X54238408Y27566034D02*
G01*
X54239566Y27565747D01*
X54297319Y27554017D01*
X54318129Y27548229D01*
X54373523Y27522656D01*
X54412358Y27498696D01*
X54458520Y27461987D01*
X54475731Y27446726D01*
X54516259Y27401317D01*
X54535896Y27375818D01*
X54557603Y27349696D01*
X54589204Y27295840D01*
X54612393Y27239237D01*
X54619427Y27218597D01*
X54636573Y27159589D01*
X54649075Y27096269D01*
X54653471Y27031185D01*
X54645805Y26967248D01*
X54637892Y26928267D01*
X54626527Y26894650D01*
X54594807Y26845029D01*
X54563855Y26809337D01*
X54513187Y26771419D01*
X54459692Y26743913D01*
X54420754Y26731702D01*
X54358766Y26723020D01*
X54294389Y26720758D01*
X54241247Y26722480D01*
X54178408Y26730471D01*
X54119413Y26748309D01*
X54101534Y26756222D01*
X54086001Y26765015D01*
X54072225Y26781721D01*
X54064312Y26793445D01*
X54064312Y26840340D01*
X54101534Y26875511D01*
X54120384Y26876811D01*
X54179790Y26871700D01*
X54231216Y26864154D01*
X54293216Y26862028D01*
X54326995Y26862285D01*
X54387005Y26866132D01*
X54417670Y26875996D01*
X54467312Y26911854D01*
X54473857Y26918655D01*
X54504535Y26969593D01*
X54516259Y27007695D01*
X54515746Y27051732D01*
X54506587Y27111156D01*
X54474933Y27086536D01*
X54457347Y27082726D01*
X54420196Y27071953D01*
X54360819Y27069207D01*
X54297647Y27071623D01*
X54231667Y27076864D01*
X54166143Y27083111D01*
X54101497Y27092001D01*
X54043209Y27106467D01*
X54019762Y27114380D01*
X53991332Y27142224D01*
X53954989Y27187946D01*
X53932479Y27237418D01*
X53923628Y27295511D01*
X53923233Y27303424D01*
X54072811Y27303424D01*
X54090397Y27260340D01*
X54113844Y27243633D01*
X54119693Y27242493D01*
X54178617Y27236599D01*
X54212030Y27234255D01*
X54272993Y27227220D01*
X54286833Y27225544D01*
X54348286Y27219902D01*
X54408401Y27217841D01*
X54412138Y27217841D01*
X54473174Y27217841D01*
X54457347Y27247737D01*
X54454032Y27253356D01*
X54420125Y27303424D01*
X54396256Y27331648D01*
X54352272Y27371744D01*
X54300250Y27403368D01*
X54267439Y27417722D01*
X54208061Y27431653D01*
X54149308Y27423005D01*
X54110034Y27398093D01*
X54080432Y27369956D01*
X54077155Y27363154D01*
X54072811Y27303424D01*
X53923233Y27303424D01*
X53922952Y27309068D01*
X53928986Y27372530D01*
X53950705Y27428778D01*
X53988108Y27477813D01*
X53999209Y27487925D01*
X54047899Y27521777D01*
X54055263Y27526229D01*
X54109448Y27552259D01*
X54114791Y27553816D01*
X54176543Y27567446D01*
X54238408Y27566034D01*
G37*
G36*
X53675379Y27427695D02*
G01*
X53666587Y27406885D01*
X53657501Y27384610D01*
X53647536Y27347681D01*
X53626668Y27287838D01*
X53608899Y27227846D01*
X53593886Y27169302D01*
X53590676Y27155706D01*
X53574391Y27093003D01*
X53556897Y27030043D01*
X53538194Y26966827D01*
X53518282Y26903354D01*
X53508317Y26869942D01*
X53471095Y26940577D01*
X53453509Y26979558D01*
X53434751Y27021763D01*
X53423907Y27046383D01*
X53406322Y27085657D01*
X53384114Y27140058D01*
X53362306Y27203182D01*
X53341599Y27265817D01*
X53325721Y27314855D01*
X53307313Y27372490D01*
X53303446Y27383438D01*
X53282873Y27439852D01*
X53281758Y27442936D01*
X53272672Y27469607D01*
X53247173Y27506830D01*
X53227536Y27524415D01*
X53204088Y27524415D01*
X53163056Y27501847D01*
X53129643Y27479279D01*
X53131402Y27428574D01*
X53153570Y27370073D01*
X53174683Y27308628D01*
X53192365Y27255943D01*
X53213232Y27191719D01*
X53233542Y27130926D01*
X53253624Y27073842D01*
X53264172Y27046383D01*
X53288436Y26991403D01*
X53314132Y26937472D01*
X53343084Y26878634D01*
X53351220Y26862322D01*
X53379196Y26806279D01*
X53404218Y26753061D01*
X53404270Y26752705D01*
X53426838Y26715483D01*
X53455268Y26678260D01*
X53502456Y26664485D01*
X53554333Y26664485D01*
X53591262Y26694087D01*
X53614123Y26727206D01*
X53632295Y26778790D01*
X53650174Y26825099D01*
X53668731Y26883922D01*
X53687278Y26943685D01*
X53705692Y27005001D01*
X53720222Y27059865D01*
X53731067Y27108811D01*
X53743084Y27159516D01*
X53755687Y27208169D01*
X53771720Y27264770D01*
X53772393Y27267081D01*
X53787980Y27325721D01*
X53790271Y27335664D01*
X53800082Y27395635D01*
X53800823Y27402196D01*
X53797012Y27457004D01*
X53743963Y27480451D01*
X53695017Y27468728D01*
X53692672Y27459056D01*
X53688569Y27450849D01*
X53682121Y27438246D01*
X53675379Y27427695D01*
G37*
G36*
X52846810Y27058400D02*
G01*
X52850034Y27024987D01*
X52855965Y26964560D01*
X52856775Y26954938D01*
X52859999Y26900130D01*
X52860494Y26837995D01*
X52862789Y26778880D01*
X52867913Y26748309D01*
X52889601Y26724569D01*
X52934737Y26720758D01*
X52994363Y26729221D01*
X53005373Y26738344D01*
X53015488Y26798124D01*
X53015045Y26804289D01*
X53015045Y26844443D01*
X53015045Y26881666D01*
X53010355Y26921819D01*
X53003013Y26981172D01*
X53001571Y27041443D01*
X53001562Y27047262D01*
X53001562Y27108657D01*
X53001562Y27143396D01*
X52996033Y27207414D01*
X52991361Y27273616D01*
X52987137Y27337404D01*
X52983977Y27386662D01*
X52979741Y27448831D01*
X52974355Y27516123D01*
X52968640Y27575440D01*
X52961555Y27634562D01*
X52952909Y27688839D01*
X52948513Y27722252D01*
X52915100Y27769146D01*
X52877585Y27761819D01*
X52836845Y27744234D01*
X52818087Y27726648D01*
X52818087Y27666853D01*
X52818087Y27607067D01*
X52818767Y27544827D01*
X52820807Y27484504D01*
X52824907Y27416550D01*
X52830857Y27351204D01*
X52837431Y27297269D01*
X52840069Y27279684D01*
X52812811Y27303131D01*
X52767298Y27340265D01*
X52753607Y27350319D01*
X52706204Y27385078D01*
X52676231Y27406006D01*
X52627090Y27438800D01*
X52619957Y27442349D01*
X52567044Y27476569D01*
X52546391Y27490416D01*
X52495453Y27524733D01*
X52464912Y27546104D01*
X52447326Y27557827D01*
X52388415Y27557827D01*
X52354906Y27507456D01*
X52345038Y27489244D01*
X52350899Y27444401D01*
X52401967Y27408874D01*
X52437361Y27385490D01*
X52489637Y27351940D01*
X52540976Y27320497D01*
X52547271Y27316906D01*
X52595741Y27282349D01*
X52609992Y27271770D01*
X52657553Y27237368D01*
X52705638Y27199797D01*
X52719901Y27185894D01*
X52718143Y27172998D01*
X52702316Y27162447D01*
X52694403Y27158637D01*
X52667145Y27140172D01*
X52635491Y27115846D01*
X52614095Y27097967D01*
X52569561Y27056013D01*
X52528311Y27009820D01*
X52488695Y26962993D01*
X52482497Y26955525D01*
X52442311Y26910187D01*
X52429448Y26896906D01*
X52386520Y26853498D01*
X52344755Y26810853D01*
X52302045Y26766206D01*
X52282316Y26742740D01*
X52274403Y26728965D01*
X52264731Y26697897D01*
X52260627Y26676208D01*
X52266782Y26659209D01*
X52278799Y26646020D01*
X52288471Y26639279D01*
X52315435Y26626383D01*
X52344158Y26617590D01*
X52364088Y26617590D01*
X52379915Y26621693D01*
X52385777Y26625504D01*
X52397794Y26637227D01*
X52435603Y26680605D01*
X52479449Y26725090D01*
X52524304Y26772632D01*
X52570170Y26823232D01*
X52610286Y26869037D01*
X52644284Y26908923D01*
X52685931Y26953518D01*
X52710816Y26976627D01*
X52756611Y27015004D01*
X52777054Y27028797D01*
X52830553Y27055509D01*
X52846810Y27058400D01*
G37*
G36*
X52085652Y26893389D02*
G01*
X52039636Y26925629D01*
X51993328Y26905113D01*
X51966070Y26889579D01*
X51948485Y26879614D01*
X51938520Y26864080D01*
X51928555Y26840633D01*
X51916293Y26782275D01*
X51926796Y26752412D01*
X51956729Y26701995D01*
X51987466Y26675915D01*
X52007103Y26664192D01*
X52066318Y26659817D01*
X52073928Y26662140D01*
X52115254Y26682950D01*
X52136650Y26728965D01*
X52142511Y26767946D01*
X52141632Y26773808D01*
X52139874Y26780842D01*
X52137822Y26786704D01*
X52136650Y26791393D01*
X52129029Y26832719D01*
X52117012Y26862028D01*
X52085652Y26893389D01*
G37*
G36*
X51247996Y27518846D02*
G01*
X51213705Y27536725D01*
X51175310Y27536725D01*
X51138680Y27489379D01*
X51133984Y27479865D01*
X51112826Y27420800D01*
X51100645Y27361062D01*
X51098813Y27343871D01*
X51095735Y27282761D01*
X51094774Y27224042D01*
X51094710Y27202014D01*
X51095048Y27141442D01*
X51096761Y27099726D01*
X51106726Y27044917D01*
X51119125Y26982515D01*
X51138980Y26925443D01*
X51165345Y26880493D01*
X51203714Y26835898D01*
X51228359Y26815720D01*
X51240083Y26809858D01*
X51292247Y26781014D01*
X51315700Y26771463D01*
X51372780Y26751826D01*
X51428541Y26737465D01*
X51490584Y26726858D01*
X51552550Y26724903D01*
X51575673Y26727499D01*
X51637362Y26743999D01*
X51695019Y26775941D01*
X51738973Y26821842D01*
X51769226Y26881701D01*
X51772044Y26890165D01*
X51787709Y26948348D01*
X51799188Y27014666D01*
X51803345Y27079301D01*
X51800181Y27142252D01*
X51793440Y27186188D01*
X51788750Y27232496D01*
X51782009Y27289649D01*
X51769992Y27323940D01*
X51760320Y27355594D01*
X51752407Y27386955D01*
X51746545Y27412747D01*
X51730718Y27459935D01*
X51709029Y27505071D01*
X51693495Y27521191D01*
X51687634Y27525001D01*
X51681772Y27527053D01*
X51634584Y27515329D01*
X51590620Y27491296D01*
X51589448Y27458176D01*
X51593258Y27430333D01*
X51601465Y27394869D01*
X51619366Y27336081D01*
X51632592Y27276547D01*
X51633998Y27265029D01*
X51640773Y27205923D01*
X51652169Y27148672D01*
X51652169Y27086883D01*
X51652169Y27074227D01*
X51651144Y27014363D01*
X51648066Y26976041D01*
X51630898Y26919005D01*
X51612602Y26890458D01*
X51587689Y26873752D01*
X51527312Y26870821D01*
X51464515Y26874485D01*
X51404827Y26886978D01*
X51354975Y26908337D01*
X51304671Y26942152D01*
X51282874Y26966955D01*
X51260218Y27024471D01*
X51253858Y27059865D01*
X51243893Y27114966D01*
X51240176Y27177354D01*
X51240083Y27199670D01*
X51241255Y27258728D01*
X51244772Y27282322D01*
X51251807Y27335664D01*
X51259582Y27393864D01*
X51279357Y27450849D01*
X51283167Y27486899D01*
X51247996Y27518846D01*
G37*
G36*
X50812756Y27058400D02*
G01*
X50815980Y27024987D01*
X50821910Y26964560D01*
X50822721Y26954938D01*
X50825945Y26900130D01*
X50826439Y26837995D01*
X50828735Y26778880D01*
X50833858Y26748309D01*
X50855547Y26724569D01*
X50900683Y26720758D01*
X50960309Y26729221D01*
X50971318Y26738344D01*
X50981433Y26798124D01*
X50980990Y26804289D01*
X50980990Y26844443D01*
X50980990Y26881666D01*
X50976301Y26921819D01*
X50968959Y26981172D01*
X50967516Y27041443D01*
X50967508Y27047262D01*
X50967508Y27108657D01*
X50967508Y27143396D01*
X50961978Y27207414D01*
X50957307Y27273616D01*
X50953082Y27337404D01*
X50949922Y27386662D01*
X50945686Y27448831D01*
X50940301Y27516123D01*
X50934585Y27575440D01*
X50927501Y27634562D01*
X50918855Y27688839D01*
X50914458Y27722252D01*
X50881046Y27769146D01*
X50843530Y27761819D01*
X50802791Y27744234D01*
X50784033Y27726648D01*
X50784033Y27666853D01*
X50784033Y27607067D01*
X50784713Y27544827D01*
X50786753Y27484504D01*
X50790852Y27416550D01*
X50796803Y27351204D01*
X50803377Y27297269D01*
X50806015Y27279684D01*
X50778757Y27303131D01*
X50733243Y27340265D01*
X50719553Y27350319D01*
X50672150Y27385078D01*
X50642176Y27406006D01*
X50593036Y27438800D01*
X50585903Y27442349D01*
X50532989Y27476569D01*
X50512337Y27490416D01*
X50461399Y27524733D01*
X50430858Y27546104D01*
X50413272Y27557827D01*
X50354361Y27557827D01*
X50320852Y27507456D01*
X50310983Y27489244D01*
X50316845Y27444401D01*
X50367913Y27408874D01*
X50403307Y27385490D01*
X50455583Y27351940D01*
X50506921Y27320497D01*
X50513216Y27316906D01*
X50561686Y27282349D01*
X50575938Y27271770D01*
X50623498Y27237368D01*
X50671584Y27199797D01*
X50685847Y27185894D01*
X50684088Y27172998D01*
X50668262Y27162447D01*
X50660348Y27158637D01*
X50633091Y27140172D01*
X50601437Y27115846D01*
X50580041Y27097967D01*
X50535506Y27056013D01*
X50494257Y27009820D01*
X50454641Y26962993D01*
X50448443Y26955525D01*
X50408256Y26910187D01*
X50395393Y26896906D01*
X50352466Y26853498D01*
X50310700Y26810853D01*
X50267990Y26766206D01*
X50248262Y26742740D01*
X50240348Y26728965D01*
X50230676Y26697897D01*
X50226573Y26676208D01*
X50232728Y26659209D01*
X50244744Y26646020D01*
X50254416Y26639279D01*
X50281381Y26626383D01*
X50310104Y26617590D01*
X50330034Y26617590D01*
X50345861Y26621693D01*
X50351723Y26625504D01*
X50363740Y26637227D01*
X50401548Y26680605D01*
X50445394Y26725090D01*
X50490250Y26772632D01*
X50536115Y26823232D01*
X50576232Y26869037D01*
X50610229Y26908923D01*
X50651877Y26953518D01*
X50676761Y26976627D01*
X50722557Y27015004D01*
X50743000Y27028797D01*
X50796498Y27055509D01*
X50812756Y27058400D01*
G37*
G36*
X23796807Y44005269D02*
G01*
X23793632Y43988905D01*
X23790212Y43953978D01*
X23795097Y43913922D01*
X23824406Y43877286D01*
X23855425Y43851885D01*
X23903804Y43835616D01*
X23917219Y43830636D01*
X23967383Y43821344D01*
X24019480Y43818500D01*
X24071407Y43817703D01*
X24079640Y43817691D01*
X24131783Y43818333D01*
X24185842Y43820262D01*
X24241818Y43823476D01*
X24291323Y43827254D01*
X24333653Y43831124D01*
X24382791Y43833872D01*
X24405704Y43834055D01*
X24455018Y43835832D01*
X24485572Y43839673D01*
X24535814Y43846017D01*
X24585566Y43848727D01*
X24605495Y43848954D01*
X24656070Y43847129D01*
X24689515Y43840649D01*
X24715648Y43840649D01*
X24728838Y43848954D01*
X24748377Y43870203D01*
X24756681Y43889742D01*
X24758147Y43915876D01*
X24740317Y43943720D01*
X24697819Y43968144D01*
X24646279Y43974095D01*
X24609647Y43974739D01*
X24560353Y43974084D01*
X24507554Y43971319D01*
X24455667Y43964267D01*
X24443073Y43961061D01*
X24393824Y43956001D01*
X24344098Y43954345D01*
X24288545Y43953520D01*
X24233134Y43953253D01*
X24221057Y43953245D01*
X24188328Y43943476D01*
X24136453Y43943476D01*
X24093073Y43943476D01*
X24042861Y43944120D01*
X23993131Y43946882D01*
X23968998Y43950070D01*
X23920753Y43962893D01*
X23914288Y43969610D01*
X23950191Y44007143D01*
X23961182Y44016260D01*
X24000174Y44047013D01*
X24041343Y44076960D01*
X24061078Y44090510D01*
X24101851Y44120170D01*
X24140970Y44152334D01*
X24176051Y44186575D01*
X24190282Y44203106D01*
X24205669Y44235590D01*
X24214462Y44269784D01*
X24210646Y44318595D01*
X24204692Y44333776D01*
X24189305Y44353315D01*
X24170498Y44376030D01*
X24155600Y44392394D01*
X24124581Y44421703D01*
X24105041Y44438067D01*
X24204692Y44436358D01*
X24314113Y44433427D01*
X24363985Y44429443D01*
X24398377Y44427321D01*
X24450119Y44424316D01*
X24485572Y44422680D01*
X24509263Y44421215D01*
X24553227Y44419017D01*
X24578628Y44418040D01*
X24621127Y44415109D01*
X24671858Y44412244D01*
X24700261Y44411934D01*
X24750605Y44414358D01*
X24763032Y44417063D01*
X24766451Y44418772D01*
X24780861Y44425367D01*
X24795760Y44437091D01*
X24800645Y44472261D01*
X24797470Y44510852D01*
X24785990Y44519400D01*
X24780861Y44521110D01*
X24771336Y44524529D01*
X24759856Y44527705D01*
X24711447Y44537403D01*
X24696109Y44539428D01*
X24647177Y44543596D01*
X24596513Y44546027D01*
X24576919Y44546267D01*
X24525370Y44546649D01*
X24474842Y44548847D01*
X24466032Y44550175D01*
X24415732Y44554533D01*
X24408879Y44554571D01*
X24357802Y44559433D01*
X24346842Y44560922D01*
X24296309Y44560922D01*
X24242469Y44560922D01*
X24187961Y44560922D01*
X24150715Y44560922D01*
X24100792Y44560758D01*
X24051795Y44560156D01*
X23999073Y44558524D01*
X23968998Y44556281D01*
X23921600Y44542176D01*
X23910624Y44534299D01*
X23891776Y44488217D01*
X23891329Y44483985D01*
X23896214Y44462736D01*
X23905739Y44447837D01*
X23907449Y44443197D01*
X23932362Y44414620D01*
X23961915Y44387509D01*
X23987561Y44369191D01*
X24026806Y44339317D01*
X24037386Y44331578D01*
X24074755Y44299276D01*
X24087212Y44277600D01*
X24054483Y44242673D01*
X24016539Y44211761D01*
X23985851Y44189428D01*
X23945530Y44160558D01*
X23938712Y44155479D01*
X23898888Y44126753D01*
X23897679Y44125925D01*
X23859476Y44093083D01*
X23854448Y44088312D01*
X23827093Y44059003D01*
X23814392Y44038730D01*
X23798028Y44018214D01*
X23796807Y44005269D01*
G37*
G36*
X24611357Y43712422D02*
G01*
X24627965Y43705583D01*
X24659473Y43692394D01*
X24693487Y43673858D01*
X24729570Y43637928D01*
X24748863Y43596976D01*
X24759368Y43548291D01*
X24759093Y43538826D01*
X24752499Y43489978D01*
X24741782Y43441801D01*
X24731922Y43420388D01*
X24704658Y43377565D01*
X24693773Y43363719D01*
X24662404Y43324809D01*
X24649703Y43310154D01*
X24672418Y43298675D01*
X24698551Y43287195D01*
X24718091Y43272541D01*
X24727024Y43264400D01*
X24758391Y43225158D01*
X24770359Y43184125D01*
X24766420Y43173607D01*
X24726395Y43143336D01*
X24688049Y43131124D01*
X24669242Y43144802D01*
X24652975Y43165758D01*
X24610136Y43193894D01*
X24598682Y43197425D01*
X24549808Y43208549D01*
X24533642Y43210640D01*
X24484687Y43211744D01*
X24435013Y43202199D01*
X24399390Y43191967D01*
X24350017Y43182659D01*
X24347184Y43182260D01*
X24295795Y43182415D01*
X24279431Y43187300D01*
X24251587Y43198047D01*
X24241817Y43234927D01*
X24243527Y43270831D01*
X24251587Y43280601D01*
X24254762Y43284020D01*
X24228628Y43292080D01*
X24194923Y43306735D01*
X24169766Y43321633D01*
X24162438Y43327495D01*
X24153401Y43333113D01*
X24131908Y43356316D01*
X24120673Y43380496D01*
X24110659Y43415667D01*
X24110939Y43420552D01*
X24223011Y43420552D01*
X24241817Y43402478D01*
X24262334Y43390998D01*
X24280163Y43379275D01*
X24309717Y43357781D01*
X24324371Y43323099D01*
X24332431Y43319924D01*
X24358565Y43324809D01*
X24378452Y43327548D01*
X24428907Y43332869D01*
X24431279Y43332903D01*
X24480978Y43345182D01*
X24525139Y43367795D01*
X24551606Y43387610D01*
X24587421Y43424215D01*
X24613957Y43461746D01*
X24634560Y43509212D01*
X24633970Y43549594D01*
X24598656Y43586148D01*
X24553465Y43598588D01*
X24503890Y43601047D01*
X24498336Y43600957D01*
X24449717Y43593706D01*
X24401064Y43577844D01*
X24396692Y43575956D01*
X24349830Y43551787D01*
X24309182Y43524405D01*
X24270394Y43491871D01*
X24243527Y43454502D01*
X24223011Y43420552D01*
X24110939Y43420552D01*
X24112369Y43445465D01*
X24119696Y43468423D01*
X24127023Y43491382D01*
X24138503Y43512876D01*
X24150226Y43529240D01*
X24154781Y43535935D01*
X24187840Y43573204D01*
X24196689Y43582209D01*
X24233757Y43614969D01*
X24278480Y43645829D01*
X24321055Y43670630D01*
X24369312Y43692394D01*
X24402076Y43704060D01*
X24453445Y43718491D01*
X24505355Y43723657D01*
X24539794Y43723657D01*
X24564190Y43725594D01*
X24611357Y43712422D01*
G37*
G36*
X24573743Y43022436D02*
G01*
X24579911Y43021062D01*
X24626500Y43002897D01*
X24664602Y42976763D01*
X24689346Y42943954D01*
X24712229Y42895796D01*
X24724136Y42847344D01*
X24728105Y42793580D01*
X24727528Y42773478D01*
X24723220Y42723238D01*
X24714916Y42674146D01*
X24713450Y42667551D01*
X24713450Y42657781D01*
X24709383Y42628630D01*
X24692201Y42580845D01*
X24690491Y42558130D01*
X24693667Y42521738D01*
X24690491Y42482171D01*
X24657844Y42463613D01*
X24608914Y42459945D01*
X24591024Y42459945D01*
X24540614Y42459945D01*
X24489724Y42459945D01*
X24484086Y42459946D01*
X24431552Y42460185D01*
X24380547Y42461654D01*
X24358134Y42462281D01*
X24308228Y42459094D01*
X24255739Y42453350D01*
X24244306Y42451960D01*
X24191790Y42445918D01*
X24142411Y42441871D01*
X24097185Y42441871D01*
X24045446Y42441871D01*
X24041249Y42441871D01*
X23992325Y42441871D01*
X23941887Y42441871D01*
X23897496Y42439917D01*
X23846388Y42434055D01*
X23827340Y42431399D01*
X23778733Y42426239D01*
X23744539Y42426239D01*
X23723290Y42463853D01*
X23721580Y42475088D01*
X23719870Y42485346D01*
X23719870Y42492917D01*
X23721580Y42500733D01*
X23728175Y42506595D01*
X23733792Y42511724D01*
X23737212Y42516853D01*
X23740387Y42519296D01*
X23747714Y42520273D01*
X23759438Y42523692D01*
X23773553Y42529631D01*
X23821785Y42539135D01*
X23874965Y42546895D01*
X23929278Y42553200D01*
X23983286Y42557703D01*
X24036989Y42560405D01*
X24090387Y42561305D01*
X24095940Y42561305D01*
X24146074Y42561305D01*
X24129954Y42603804D01*
X24126047Y42617222D01*
X24125371Y42666395D01*
X24126003Y42670491D01*
X24239259Y42670491D01*
X24242062Y42620168D01*
X24273162Y42596246D01*
X24320219Y42582555D01*
X24325647Y42582555D01*
X24375485Y42582555D01*
X24424771Y42582555D01*
X24478733Y42582555D01*
X24507028Y42582555D01*
X24557135Y42582555D01*
X24570080Y42582555D01*
X24579361Y42602094D01*
X24582555Y42610620D01*
X24595714Y42658919D01*
X24605983Y42710049D01*
X24611044Y42746511D01*
X24613799Y42796756D01*
X24612416Y42829266D01*
X24599633Y42877111D01*
X24587693Y42889734D01*
X24540771Y42906421D01*
X24532303Y42907444D01*
X24482083Y42906014D01*
X24431069Y42894346D01*
X24380792Y42875402D01*
X24368297Y42869514D01*
X24322784Y42843406D01*
X24286025Y42809945D01*
X24282431Y42805153D01*
X24258694Y42760365D01*
X24245237Y42711759D01*
X24239259Y42670491D01*
X24126003Y42670491D01*
X24133129Y42716644D01*
X24138337Y42743201D01*
X24149494Y42791871D01*
X24157554Y42814830D01*
X24165389Y42833005D01*
X24193213Y42875402D01*
X24227499Y42912053D01*
X24266852Y42943607D01*
X24311274Y42970061D01*
X24360764Y42991417D01*
X24402506Y43005053D01*
X24451622Y43017551D01*
X24472764Y43020513D01*
X24522247Y43025193D01*
X24573743Y43022436D01*
G37*
G36*
X24553960Y42328542D02*
G01*
X24586444Y42321947D01*
X24614458Y42312477D01*
X24655809Y42286044D01*
X24685552Y42260250D01*
X24717151Y42218027D01*
X24740073Y42173448D01*
X24750248Y42141000D01*
X24757484Y42089342D01*
X24759368Y42035695D01*
X24757933Y41991411D01*
X24751274Y41939044D01*
X24736409Y41889882D01*
X24729815Y41874983D01*
X24722487Y41862038D01*
X24708565Y41850559D01*
X24698796Y41843964D01*
X24659717Y41843964D01*
X24630408Y41874983D01*
X24629324Y41890691D01*
X24633583Y41940196D01*
X24639872Y41983051D01*
X24641643Y42034718D01*
X24641429Y42062867D01*
X24638224Y42112876D01*
X24630003Y42138429D01*
X24600122Y42179798D01*
X24594454Y42185252D01*
X24552006Y42210817D01*
X24520254Y42220587D01*
X24483557Y42220159D01*
X24434036Y42212527D01*
X24454553Y42186148D01*
X24457728Y42171494D01*
X24466706Y42140534D01*
X24468994Y42091054D01*
X24466981Y42038410D01*
X24462613Y41983427D01*
X24457407Y41928823D01*
X24449999Y41874952D01*
X24437944Y41826379D01*
X24431350Y41806839D01*
X24408147Y41783148D01*
X24370045Y41752862D01*
X24328818Y41734103D01*
X24280408Y41726728D01*
X24269110Y41726165D01*
X24216225Y41731193D01*
X24169352Y41749291D01*
X24128489Y41780461D01*
X24120062Y41789712D01*
X24091852Y41830287D01*
X24088143Y41836423D01*
X24066451Y41881578D01*
X24065153Y41886030D01*
X24053795Y41937490D01*
X24054395Y41963755D01*
X24166956Y41963755D01*
X24174162Y41914795D01*
X24194923Y41882066D01*
X24218370Y41857398D01*
X24224038Y41854667D01*
X24273813Y41851047D01*
X24309717Y41865702D01*
X24323639Y41885241D01*
X24324589Y41890116D01*
X24329501Y41939219D01*
X24331454Y41967063D01*
X24337316Y42017865D01*
X24338713Y42029398D01*
X24343415Y42080609D01*
X24345132Y42130705D01*
X24345132Y42133819D01*
X24345132Y42184683D01*
X24320219Y42171494D01*
X24315537Y42168731D01*
X24273813Y42140475D01*
X24250293Y42120585D01*
X24216880Y42083931D01*
X24190526Y42040580D01*
X24178565Y42013237D01*
X24166956Y41963755D01*
X24054395Y41963755D01*
X24054972Y41989044D01*
X24055211Y41990009D01*
X24064986Y42038137D01*
X24069809Y42055479D01*
X24091120Y42101640D01*
X24111086Y42134003D01*
X24141678Y42172471D01*
X24154395Y42186813D01*
X24192236Y42220587D01*
X24213485Y42236951D01*
X24235253Y42255040D01*
X24280133Y42281375D01*
X24327302Y42300698D01*
X24344502Y42306560D01*
X24393675Y42320848D01*
X24446442Y42331267D01*
X24500679Y42334930D01*
X24553960Y42328542D01*
G37*
G36*
X23978279Y41088521D02*
G01*
X23975761Y41039501D01*
X23979745Y41019889D01*
X24001516Y40975029D01*
X24010764Y40961026D01*
X24023953Y40946128D01*
X24054972Y40949547D01*
X24073778Y40955409D01*
X24095760Y40967621D01*
X24103087Y40973238D01*
X24108949Y40978123D01*
X24112124Y40985451D01*
X24107240Y41029659D01*
X24103143Y41078918D01*
X24103820Y41080461D01*
X24107972Y41098291D01*
X24112124Y41116365D01*
X24113834Y41121250D01*
X24116277Y41126867D01*
X24117009Y41131019D01*
X24122871Y41154711D01*
X24126779Y41181822D01*
X24102355Y41206246D01*
X24053067Y41216559D01*
X24030547Y41198186D01*
X24022243Y41184997D01*
X24015648Y41176937D01*
X23994644Y41135171D01*
X23978279Y41088521D01*
G37*
G36*
X24261845Y41142987D02*
G01*
X24250366Y41135416D01*
X24250366Y41103176D01*
X24256960Y41060677D01*
X24269905Y41050663D01*
X24281385Y41046756D01*
X24330765Y41038766D01*
X24338782Y41038696D01*
X24388012Y41040222D01*
X24412055Y41042603D01*
X24461307Y41045078D01*
X24471650Y41045290D01*
X24521757Y41043084D01*
X24529780Y41042603D01*
X24579541Y41040045D01*
X24586688Y41039917D01*
X24635513Y41030316D01*
X24643841Y41026239D01*
X24661915Y41017691D01*
X24689515Y41035765D01*
X24702704Y41054327D01*
X24712473Y41087544D01*
X24702704Y41128333D01*
X24663381Y41150803D01*
X24613744Y41161890D01*
X24591573Y41164236D01*
X24545167Y41164725D01*
X24505844Y41164969D01*
X24456102Y41164969D01*
X24446249Y41164969D01*
X24393999Y41164196D01*
X24343351Y41161341D01*
X24294546Y41154579D01*
X24261845Y41142987D01*
G37*
G36*
X24071336Y40583671D02*
G01*
X24070603Y40543127D01*
X24081106Y40504292D01*
X24090875Y40480845D01*
X24108949Y40462527D01*
X24148944Y40430287D01*
X24193870Y40407604D01*
X24197121Y40406351D01*
X24211775Y40398047D01*
X24258182Y40380705D01*
X24305052Y40366885D01*
X24308007Y40366539D01*
X24357261Y40356104D01*
X24383234Y40349442D01*
X24433465Y40338579D01*
X24485183Y40335534D01*
X24489235Y40335520D01*
X24528558Y40331613D01*
X24578051Y40326718D01*
X24626500Y40325751D01*
X24677250Y40326686D01*
X24719556Y40330636D01*
X24767834Y40341707D01*
X24789654Y40353350D01*
X24802843Y40359945D01*
X24809193Y40390964D01*
X24798691Y40416365D01*
X24784769Y40438591D01*
X24739809Y40459962D01*
X24729326Y40458130D01*
X24679670Y40452170D01*
X24628122Y40450029D01*
X24603541Y40449826D01*
X24550545Y40450836D01*
X24499775Y40454242D01*
X24466521Y40458375D01*
X24414542Y40468700D01*
X24366366Y40480082D01*
X24321196Y40491592D01*
X24273454Y40506551D01*
X24242062Y40519924D01*
X24198556Y40544104D01*
X24193702Y40549721D01*
X24202006Y40577809D01*
X24231284Y40618399D01*
X24244504Y40632275D01*
X24281410Y40664953D01*
X24322900Y40690736D01*
X24328035Y40693092D01*
X24374391Y40709365D01*
X24384699Y40711410D01*
X24436234Y40714334D01*
X24467254Y40714585D01*
X24516766Y40714303D01*
X24547365Y40712876D01*
X24596557Y40704041D01*
X24641643Y40699931D01*
X24690536Y40697687D01*
X24722487Y40701396D01*
X24732501Y40704816D01*
X24748866Y40711166D01*
X24770115Y40732171D01*
X24775000Y40776867D01*
X24745512Y40816488D01*
X24739096Y40819854D01*
X24690003Y40831715D01*
X24663869Y40835730D01*
X24612635Y40838306D01*
X24556158Y40839393D01*
X24494348Y40840037D01*
X24435249Y40840381D01*
X24385295Y40840538D01*
X24330515Y40840610D01*
X24311182Y40840615D01*
X24257785Y40840111D01*
X24206995Y40837773D01*
X24180757Y40832555D01*
X24170987Y40805688D01*
X24170987Y40772715D01*
X24180757Y40762701D01*
X24172452Y40736079D01*
X24136606Y40697656D01*
X24106656Y40657967D01*
X24102355Y40650105D01*
X24079396Y40606874D01*
X24071336Y40583671D01*
G37*
G36*
X23758461Y39454536D02*
G01*
X23759193Y39404711D01*
X23769696Y39366365D01*
X23776290Y39348291D01*
X23800960Y39302710D01*
X23812194Y39286009D01*
X23846530Y39249404D01*
X23862752Y39238626D01*
X23881803Y39227391D01*
X23911113Y39212492D01*
X23933094Y39209317D01*
X23962404Y39232275D01*
X23977058Y39256700D01*
X23976325Y39270622D01*
X23970708Y39279659D01*
X23967288Y39284543D01*
X23959228Y39297244D01*
X23926488Y39334975D01*
X23898793Y39377644D01*
X23895481Y39383706D01*
X23882124Y39432784D01*
X23890596Y39460398D01*
X23922519Y39498145D01*
X23929919Y39505095D01*
X23968423Y39537973D01*
X23986828Y39551501D01*
X24029428Y39578828D01*
X24076197Y39605278D01*
X24120920Y39626631D01*
X24168789Y39644557D01*
X24194923Y39653594D01*
X24217637Y39660677D01*
X24227407Y39663853D01*
X24274188Y39678732D01*
X24325600Y39686311D01*
X24381227Y39689578D01*
X24412543Y39689987D01*
X24461563Y39688117D01*
X24505355Y39680217D01*
X24550786Y39661354D01*
X24555669Y39658968D01*
X24594626Y39629109D01*
X24620638Y39591801D01*
X24631763Y39544193D01*
X24633583Y39510957D01*
X24629019Y39459864D01*
X24620638Y39429868D01*
X24598457Y39381323D01*
X24574227Y39338729D01*
X24544904Y39298381D01*
X24532466Y39284299D01*
X24501570Y39245497D01*
X24498272Y39238626D01*
X24493387Y39225437D01*
X24503157Y39181473D01*
X24537351Y39151920D01*
X24583705Y39167433D01*
X24587909Y39169994D01*
X24625967Y39204073D01*
X24627721Y39205897D01*
X24655809Y39240335D01*
X24667777Y39264027D01*
X24685851Y39290894D01*
X24709977Y39335813D01*
X24720045Y39358061D01*
X24739102Y39404148D01*
X24744469Y39423518D01*
X24750575Y39449652D01*
X24758329Y39500251D01*
X24759368Y39534648D01*
X24756437Y39583741D01*
X24747644Y39623064D01*
X24723685Y39672715D01*
X24690703Y39715027D01*
X24648699Y39749999D01*
X24605514Y39774133D01*
X24564462Y39790126D01*
X24539794Y39799163D01*
X24505111Y39811375D01*
X24471894Y39817726D01*
X24435258Y39817726D01*
X24393492Y39816016D01*
X24378838Y39816016D01*
X24355879Y39814306D01*
X24305687Y39810643D01*
X24257161Y39801426D01*
X24249877Y39799652D01*
X24200249Y39787530D01*
X24171475Y39778402D01*
X24159996Y39775227D01*
X24131420Y39767167D01*
X24102843Y39753978D01*
X24085013Y39745674D01*
X24037876Y39724881D01*
X23992052Y39699770D01*
X23964113Y39683636D01*
X23922285Y39656940D01*
X23878940Y39625959D01*
X23837812Y39591269D01*
X23803259Y39553542D01*
X23786060Y39526588D01*
X23766120Y39480812D01*
X23758461Y39454536D01*
G37*
G36*
X23809019Y39016121D02*
G01*
X23805844Y38986079D01*
X23815614Y38954327D01*
X23825383Y38943336D01*
X23859577Y38943336D01*
X23913849Y38939844D01*
X23973585Y38936134D01*
X24024316Y38933151D01*
X24073309Y38930532D01*
X24122487Y38928568D01*
X24132397Y38928437D01*
X24209089Y38928437D01*
X24204204Y38922087D01*
X24189549Y38910363D01*
X24170743Y38894488D01*
X24148517Y38872261D01*
X24140457Y38862248D01*
X24132397Y38850524D01*
X24119207Y38822436D01*
X24107728Y38795813D01*
X24104553Y38779938D01*
X24098203Y38752582D01*
X24093073Y38739149D01*
X24098363Y38690022D01*
X24101378Y38676379D01*
X24111880Y38655374D01*
X24122383Y38634613D01*
X24138747Y38616295D01*
X24181289Y38591725D01*
X24189549Y38588207D01*
X24241014Y38574460D01*
X24294564Y38566740D01*
X24343917Y38564939D01*
X24382013Y38566714D01*
X24433421Y38568063D01*
X24468719Y38568179D01*
X24525057Y38568221D01*
X24581202Y38568381D01*
X24630904Y38568720D01*
X24679256Y38569889D01*
X24707100Y38584543D01*
X24720045Y38600908D01*
X24721022Y38613364D01*
X24710275Y38646825D01*
X24693178Y38679554D01*
X24669487Y38684439D01*
X24599145Y38684439D01*
X24550146Y38684439D01*
X24500389Y38684439D01*
X24495586Y38684439D01*
X24443573Y38684439D01*
X24394332Y38684439D01*
X24351971Y38684439D01*
X24302102Y38685527D01*
X24251459Y38689855D01*
X24243283Y38691033D01*
X24209089Y38717656D01*
X24215439Y38744522D01*
X24233799Y38792475D01*
X24262822Y38822192D01*
X24305176Y38846801D01*
X24355026Y38869247D01*
X24405630Y38887382D01*
X24447470Y38899861D01*
X24498747Y38912355D01*
X24547748Y38921239D01*
X24578140Y38923552D01*
X24627977Y38927949D01*
X24666311Y38954816D01*
X24671929Y38967272D01*
X24677547Y38982659D01*
X24661427Y39015388D01*
X24640177Y39037370D01*
X24607449Y39045185D01*
X24557180Y39050088D01*
X24506003Y39052158D01*
X24450645Y39052757D01*
X24400224Y39052757D01*
X24345193Y39052757D01*
X24293259Y39052757D01*
X24237796Y39052757D01*
X24221301Y39052757D01*
X24168102Y39052301D01*
X24114506Y39050376D01*
X24064237Y39044385D01*
X24060345Y39043231D01*
X24044225Y39041522D01*
X23993116Y39041522D01*
X23962404Y39041522D01*
X23907062Y39040306D01*
X23853838Y39035171D01*
X23809019Y39016121D01*
G37*
G36*
X23978279Y38344208D02*
G01*
X23975761Y38295188D01*
X23979745Y38275576D01*
X24001516Y38230717D01*
X24010764Y38216714D01*
X24023953Y38201815D01*
X24054972Y38205234D01*
X24073778Y38211096D01*
X24095760Y38223308D01*
X24103087Y38228926D01*
X24108949Y38233811D01*
X24112124Y38241138D01*
X24107240Y38285346D01*
X24103143Y38334605D01*
X24103820Y38336148D01*
X24107972Y38353978D01*
X24112124Y38372052D01*
X24113834Y38376937D01*
X24116277Y38382555D01*
X24117009Y38386707D01*
X24122871Y38410398D01*
X24126779Y38437509D01*
X24102355Y38461934D01*
X24053067Y38472246D01*
X24030547Y38453873D01*
X24022243Y38440684D01*
X24015648Y38432624D01*
X23994644Y38390859D01*
X23978279Y38344208D01*
G37*
G36*
X24261845Y38398675D02*
G01*
X24250366Y38391103D01*
X24250366Y38358863D01*
X24256960Y38316365D01*
X24269905Y38306351D01*
X24281385Y38302443D01*
X24330765Y38294454D01*
X24338782Y38294383D01*
X24388012Y38295909D01*
X24412055Y38298291D01*
X24461307Y38300765D01*
X24471650Y38300977D01*
X24521757Y38298771D01*
X24529780Y38298291D01*
X24579541Y38295733D01*
X24586688Y38295604D01*
X24635513Y38286004D01*
X24643841Y38281927D01*
X24661915Y38273378D01*
X24689515Y38291452D01*
X24702704Y38310014D01*
X24712473Y38343231D01*
X24702704Y38384020D01*
X24663381Y38406490D01*
X24613744Y38417577D01*
X24591573Y38419924D01*
X24545167Y38420412D01*
X24505844Y38420656D01*
X24456102Y38420656D01*
X24446249Y38420656D01*
X24393999Y38419884D01*
X24343351Y38417029D01*
X24294546Y38410267D01*
X24261845Y38398675D01*
G37*
G36*
X24071336Y37839358D02*
G01*
X24070603Y37798814D01*
X24081106Y37759980D01*
X24090875Y37736532D01*
X24108949Y37718214D01*
X24148944Y37685974D01*
X24193870Y37663291D01*
X24197121Y37662038D01*
X24211775Y37653734D01*
X24258182Y37636393D01*
X24305052Y37622572D01*
X24308007Y37622227D01*
X24357261Y37611791D01*
X24383234Y37605130D01*
X24433465Y37594267D01*
X24485183Y37591221D01*
X24489235Y37591208D01*
X24528558Y37587300D01*
X24578051Y37582405D01*
X24626500Y37581438D01*
X24677250Y37582373D01*
X24719556Y37586323D01*
X24767834Y37597394D01*
X24789654Y37609037D01*
X24802843Y37615632D01*
X24809193Y37646651D01*
X24798691Y37672052D01*
X24784769Y37694278D01*
X24739809Y37715649D01*
X24729326Y37713818D01*
X24679670Y37707857D01*
X24628122Y37705716D01*
X24603541Y37705513D01*
X24550545Y37706524D01*
X24499775Y37709930D01*
X24466521Y37714062D01*
X24414542Y37724387D01*
X24366366Y37735769D01*
X24321196Y37747279D01*
X24273454Y37762239D01*
X24242062Y37775611D01*
X24198556Y37799791D01*
X24193702Y37805409D01*
X24202006Y37833497D01*
X24231284Y37874087D01*
X24244504Y37887963D01*
X24281410Y37920641D01*
X24322900Y37946424D01*
X24328035Y37948779D01*
X24374391Y37965052D01*
X24384699Y37967097D01*
X24436234Y37970021D01*
X24467254Y37970273D01*
X24516766Y37969990D01*
X24547365Y37968563D01*
X24596557Y37959728D01*
X24641643Y37955618D01*
X24690536Y37953374D01*
X24722487Y37957084D01*
X24732501Y37960503D01*
X24748866Y37966853D01*
X24770115Y37987858D01*
X24775000Y38032555D01*
X24745512Y38072175D01*
X24739096Y38075541D01*
X24690003Y38087402D01*
X24663869Y38091417D01*
X24612635Y38093993D01*
X24556158Y38095081D01*
X24494348Y38095725D01*
X24435249Y38096068D01*
X24385295Y38096226D01*
X24330515Y38096297D01*
X24311182Y38096302D01*
X24257785Y38095798D01*
X24206995Y38093460D01*
X24180757Y38088242D01*
X24170987Y38061375D01*
X24170987Y38028402D01*
X24180757Y38018388D01*
X24172452Y37991766D01*
X24136606Y37953344D01*
X24106656Y37913654D01*
X24102355Y37905793D01*
X24079396Y37862562D01*
X24071336Y37839358D01*
G37*
G36*
X24611357Y37480322D02*
G01*
X24627965Y37473483D01*
X24659473Y37460294D01*
X24693487Y37441758D01*
X24729570Y37405827D01*
X24748863Y37364876D01*
X24759368Y37316190D01*
X24759093Y37306726D01*
X24752499Y37257877D01*
X24741782Y37209700D01*
X24731922Y37188287D01*
X24704658Y37145465D01*
X24693773Y37131619D01*
X24662404Y37092708D01*
X24649703Y37078054D01*
X24672418Y37066574D01*
X24698551Y37055095D01*
X24718091Y37040440D01*
X24727024Y37032300D01*
X24758391Y36993057D01*
X24770359Y36952024D01*
X24766420Y36941507D01*
X24726395Y36911236D01*
X24688049Y36899024D01*
X24669242Y36912701D01*
X24652975Y36933657D01*
X24610136Y36961794D01*
X24598682Y36965324D01*
X24549808Y36976449D01*
X24533642Y36978540D01*
X24484687Y36979644D01*
X24435013Y36970098D01*
X24399390Y36959867D01*
X24350017Y36950559D01*
X24347184Y36950159D01*
X24295795Y36950315D01*
X24279431Y36955199D01*
X24251587Y36965946D01*
X24241817Y37002827D01*
X24243527Y37038730D01*
X24251587Y37048500D01*
X24254762Y37051920D01*
X24228628Y37059980D01*
X24194923Y37074634D01*
X24169766Y37089533D01*
X24162438Y37095395D01*
X24153401Y37101012D01*
X24131908Y37124215D01*
X24120673Y37148395D01*
X24110659Y37183566D01*
X24110939Y37188451D01*
X24223011Y37188451D01*
X24241817Y37170377D01*
X24262334Y37158898D01*
X24280163Y37147174D01*
X24309717Y37125681D01*
X24324371Y37090998D01*
X24332431Y37087823D01*
X24358565Y37092708D01*
X24378452Y37095447D01*
X24428907Y37100768D01*
X24431279Y37100802D01*
X24480978Y37113081D01*
X24525139Y37135695D01*
X24551606Y37155510D01*
X24587421Y37192115D01*
X24613957Y37229646D01*
X24634560Y37277111D01*
X24633970Y37317494D01*
X24598656Y37354048D01*
X24553465Y37366488D01*
X24503890Y37368947D01*
X24498336Y37368856D01*
X24449717Y37361605D01*
X24401064Y37345744D01*
X24396692Y37343856D01*
X24349830Y37319686D01*
X24309182Y37292304D01*
X24270394Y37259770D01*
X24243527Y37222401D01*
X24223011Y37188451D01*
X24110939Y37188451D01*
X24112369Y37213364D01*
X24119696Y37236323D01*
X24127023Y37259282D01*
X24138503Y37280775D01*
X24150226Y37297139D01*
X24154781Y37303835D01*
X24187840Y37341103D01*
X24196689Y37350108D01*
X24233757Y37382869D01*
X24278480Y37413728D01*
X24321055Y37438529D01*
X24369312Y37460294D01*
X24402076Y37471960D01*
X24453445Y37486390D01*
X24505355Y37491557D01*
X24539794Y37491557D01*
X24564190Y37493493D01*
X24611357Y37480322D01*
G37*
G36*
X23810729Y36034648D02*
G01*
X23806821Y36024146D01*
X23805844Y35998744D01*
X23805844Y35969191D01*
X23805844Y35943057D01*
X23805844Y35929868D01*
X23818189Y35878507D01*
X23836362Y35828796D01*
X23861989Y35784330D01*
X23889375Y35754990D01*
X23907205Y35741801D01*
X23915509Y35740335D01*
X23947993Y35736916D01*
X23981999Y35773014D01*
X23982431Y35774529D01*
X23988293Y35792603D01*
X23992201Y35815562D01*
X23975837Y35846581D01*
X23949443Y35888068D01*
X23946528Y35895674D01*
X23934627Y35944559D01*
X23933339Y35970901D01*
X23936320Y36020322D01*
X23938224Y36029031D01*
X23964113Y36063957D01*
X24008123Y36085756D01*
X24027372Y36091801D01*
X24076180Y36101723D01*
X24117986Y36106700D01*
X24147295Y36106700D01*
X24147295Y36075681D01*
X24147295Y36023694D01*
X24147295Y35986288D01*
X24153646Y35967481D01*
X24199327Y35948247D01*
X24208845Y35947942D01*
X24237177Y35947942D01*
X24248656Y35960887D01*
X24262578Y35988975D01*
X24267467Y36038963D01*
X24271371Y36087649D01*
X24273080Y36106700D01*
X24287735Y36104990D01*
X24338514Y36100463D01*
X24389916Y36096575D01*
X24418405Y36094488D01*
X24467465Y36090627D01*
X24519277Y36085939D01*
X24568645Y36080169D01*
X24580094Y36078368D01*
X24629955Y36073519D01*
X24663381Y36072994D01*
X24712646Y36074765D01*
X24754727Y36081054D01*
X24762055Y36084229D01*
X24766939Y36088382D01*
X24771092Y36092289D01*
X24773534Y36098640D01*
X24774267Y36105723D01*
X24775976Y36116958D01*
X24777686Y36130391D01*
X24774267Y36175088D01*
X24728319Y36199646D01*
X24678035Y36203664D01*
X24628837Y36205989D01*
X24583269Y36210259D01*
X24533077Y36215021D01*
X24506577Y36216609D01*
X24465055Y36219051D01*
X24418405Y36221494D01*
X24368464Y36224703D01*
X24364672Y36225402D01*
X24317288Y36229310D01*
X24276256Y36232729D01*
X24274790Y36280112D01*
X24271485Y36331783D01*
X24254762Y36378298D01*
X24248412Y36384648D01*
X24226919Y36389533D01*
X24191992Y36386358D01*
X24163126Y36345958D01*
X24162438Y36342150D01*
X24153291Y36294080D01*
X24150715Y36255444D01*
X24150715Y36229310D01*
X24109926Y36229310D01*
X24059719Y36228328D01*
X24015160Y36221005D01*
X24001238Y36216365D01*
X23977547Y36211236D01*
X23966067Y36208061D01*
X23921674Y36186136D01*
X23920150Y36185102D01*
X23878695Y36156304D01*
X23866416Y36145046D01*
X23837779Y36104280D01*
X23833688Y36096686D01*
X23816171Y36050739D01*
X23815858Y36049303D01*
X23810729Y36034648D01*
G37*
G36*
X24577594Y35627545D02*
G01*
X24626500Y35621878D01*
X24663439Y35609591D01*
X24708829Y35586836D01*
X24744225Y35551780D01*
X24748133Y35546162D01*
X24753018Y35538835D01*
X24757170Y35532241D01*
X24768210Y35513974D01*
X24781594Y35465318D01*
X24784685Y35433273D01*
X24781594Y35383985D01*
X24779881Y35374171D01*
X24765262Y35326068D01*
X24742515Y35282624D01*
X24732745Y35264795D01*
X24713939Y35234509D01*
X24682187Y35196407D01*
X24655954Y35172371D01*
X24616730Y35142429D01*
X24591573Y35124599D01*
X24564462Y35106525D01*
X24549808Y35098465D01*
X24535529Y35091994D01*
X24487770Y35077216D01*
X24484801Y35076510D01*
X24435151Y35068259D01*
X24384944Y35065737D01*
X24343121Y35067873D01*
X24293597Y35078682D01*
X24275523Y35085520D01*
X24260868Y35092115D01*
X24244504Y35098710D01*
X24223255Y35110189D01*
X24202006Y35121668D01*
X24175139Y35144871D01*
X24146563Y35176134D01*
X24144908Y35178255D01*
X24118719Y35220831D01*
X24110556Y35236274D01*
X24098294Y35284653D01*
X24100889Y35336358D01*
X24105774Y35353699D01*
X24110659Y35369331D01*
X24111636Y35375192D01*
X24241085Y35375192D01*
X24244504Y35360538D01*
X24241329Y35347349D01*
X24242794Y35340754D01*
X24253297Y35328542D01*
X24265509Y35314620D01*
X24272103Y35308026D01*
X24284560Y35293371D01*
X24296772Y35277007D01*
X24285293Y35252582D01*
X24272103Y35229624D01*
X24282762Y35219880D01*
X24327791Y35200070D01*
X24371755Y35190301D01*
X24418733Y35186413D01*
X24468206Y35194313D01*
X24515369Y35214969D01*
X24520037Y35217544D01*
X24563018Y35246128D01*
X24599273Y35279864D01*
X24631385Y35322924D01*
X24653524Y35367668D01*
X24665579Y35417691D01*
X24665541Y35422304D01*
X24655809Y35470203D01*
X24615020Y35496093D01*
X24598329Y35501976D01*
X24547786Y35510391D01*
X24495830Y35507572D01*
X24449194Y35499186D01*
X24398063Y35485722D01*
X24345074Y35465326D01*
X24299261Y35439881D01*
X24260624Y35409386D01*
X24241085Y35375192D01*
X24111636Y35375192D01*
X24117254Y35408898D01*
X24139785Y35452930D01*
X24170987Y35491452D01*
X24206158Y35522959D01*
X24233025Y35542743D01*
X24249389Y35552513D01*
X24267633Y35563901D01*
X24314850Y35585767D01*
X24361985Y35602094D01*
X24396169Y35612159D01*
X24445516Y35624564D01*
X24477634Y35627495D01*
X24528558Y35628472D01*
X24577594Y35627545D01*
G37*
G36*
X24093562Y34726239D02*
G01*
X24088874Y34676203D01*
X24088677Y34673238D01*
X24085421Y34624211D01*
X24085258Y34619994D01*
X24095027Y34569435D01*
X24107990Y34520423D01*
X24113101Y34503734D01*
X24120429Y34485171D01*
X24127756Y34465388D01*
X24134351Y34449024D01*
X24142411Y34431194D01*
X24151448Y34414830D01*
X24161950Y34397488D01*
X24174406Y34382834D01*
X24189794Y34368179D01*
X24217637Y34348640D01*
X24246946Y34350105D01*
X24276256Y34379659D01*
X24282850Y34397488D01*
X24278820Y34446535D01*
X24264776Y34466121D01*
X24237675Y34508847D01*
X24235467Y34513748D01*
X24220630Y34562024D01*
X24212242Y34611926D01*
X24211775Y34615841D01*
X24208356Y34665510D01*
X24212752Y34713294D01*
X24229080Y34760652D01*
X24258869Y34802779D01*
X24282850Y34821250D01*
X24305809Y34826379D01*
X24327058Y34821250D01*
X24379795Y34821250D01*
X24428685Y34821250D01*
X24478928Y34821250D01*
X24501692Y34821250D01*
X24553536Y34821250D01*
X24605244Y34821250D01*
X24630652Y34821250D01*
X24681977Y34820803D01*
X24723709Y34818074D01*
X24772801Y34824425D01*
X24789778Y34870369D01*
X24790631Y34890126D01*
X24780861Y34923099D01*
X24733406Y34939414D01*
X24728593Y34940196D01*
X24679745Y34948256D01*
X24629650Y34956008D01*
X24615997Y34957537D01*
X24565711Y34964496D01*
X24559822Y34965353D01*
X24510187Y34969921D01*
X24504134Y34969994D01*
X24454935Y34969994D01*
X24421580Y34969994D01*
X24372168Y34969453D01*
X24320851Y34966761D01*
X24297505Y34963155D01*
X24250633Y34946291D01*
X24208079Y34921056D01*
X24197854Y34911619D01*
X24178314Y34898186D01*
X24166835Y34893057D01*
X24153890Y34872296D01*
X24127775Y34829432D01*
X24109214Y34782797D01*
X24094996Y34732341D01*
X24093562Y34726239D01*
G37*
G36*
X26366339Y44568737D02*
G01*
X26407616Y44560677D01*
X26415921Y44517935D01*
X26409326Y44469331D01*
X26384902Y44451989D01*
X26368660Y44448356D01*
X26319933Y44443685D01*
X26279301Y44439552D01*
X26229075Y44431961D01*
X26182669Y44428054D01*
X26180192Y44427795D01*
X26129668Y44420482D01*
X26058349Y44402408D01*
X26056639Y44395569D01*
X26055174Y44379205D01*
X26053464Y44360643D01*
X26050488Y44314858D01*
X26048966Y44261967D01*
X26048579Y44210922D01*
X26049190Y44165172D01*
X26052024Y44111189D01*
X26058349Y44060712D01*
X26097672Y44060712D01*
X26122169Y44060842D01*
X26175584Y44062083D01*
X26226643Y44064637D01*
X26280610Y44069017D01*
X26292799Y44070513D01*
X26342648Y44072436D01*
X26369515Y44038242D01*
X26387833Y43995255D01*
X26363164Y43952757D01*
X26356570Y43949338D01*
X26351685Y43946162D01*
X26334067Y43938549D01*
X26284762Y43931508D01*
X26254938Y43929600D01*
X26205994Y43927508D01*
X26148521Y43926793D01*
X26092421Y43928035D01*
X26037695Y43931235D01*
X25984344Y43936393D01*
X25925481Y43942987D01*
X25883583Y43948738D01*
X25834124Y43957260D01*
X25782599Y43967412D01*
X25766743Y43970742D01*
X25717824Y43981964D01*
X25669026Y43996965D01*
X25652906Y44004292D01*
X25631657Y44013329D01*
X25612850Y44024320D01*
X25569619Y44050943D01*
X25566742Y44052920D01*
X25530296Y44087091D01*
X25505872Y44118109D01*
X25499277Y44131298D01*
X25497183Y44134229D01*
X25482913Y44181368D01*
X25481425Y44194300D01*
X25482438Y44228396D01*
X25618049Y44228396D01*
X25623841Y44178437D01*
X25645844Y44157289D01*
X25690764Y44134229D01*
X25704930Y44126902D01*
X25716165Y44119575D01*
X25730087Y44116400D01*
X25744095Y44114684D01*
X25792124Y44101501D01*
X25809160Y44097532D01*
X25857337Y44088556D01*
X25872278Y44085892D01*
X25921085Y44078786D01*
X25921085Y44106386D01*
X25921085Y44128010D01*
X25921085Y44176972D01*
X25920932Y44210296D01*
X25920131Y44259766D01*
X25918642Y44308619D01*
X25918043Y44323731D01*
X25914490Y44373099D01*
X25886891Y44364795D01*
X25863199Y44359177D01*
X25841950Y44354292D01*
X25821434Y44345255D01*
X25819108Y44344245D01*
X25772585Y44325716D01*
X25760705Y44321713D01*
X25711684Y44301365D01*
X25665735Y44274270D01*
X25625551Y44239010D01*
X25618049Y44228396D01*
X25482438Y44228396D01*
X25482913Y44244383D01*
X25484202Y44252700D01*
X25503696Y44297999D01*
X25535181Y44335974D01*
X25555320Y44353911D01*
X25599029Y44384932D01*
X25645070Y44411150D01*
X25689486Y44432736D01*
X25739400Y44454084D01*
X25794811Y44475192D01*
X25837543Y44491386D01*
X25887868Y44504990D01*
X25915711Y44513050D01*
X25944196Y44520759D01*
X25992037Y44530697D01*
X26040621Y44539612D01*
X26089424Y44548000D01*
X26145788Y44557258D01*
X26161390Y44559593D01*
X26214089Y44566066D01*
X26263818Y44569898D01*
X26317018Y44571042D01*
X26366339Y44568737D01*
G37*
G36*
X25751336Y43573204D02*
G01*
X25750603Y43532659D01*
X25761106Y43493825D01*
X25770875Y43470377D01*
X25788949Y43452059D01*
X25828944Y43419819D01*
X25873870Y43397136D01*
X25877121Y43395883D01*
X25891775Y43387579D01*
X25938182Y43370238D01*
X25985052Y43356418D01*
X25988007Y43356072D01*
X26037261Y43345636D01*
X26063234Y43338975D01*
X26113465Y43328112D01*
X26165183Y43325066D01*
X26169235Y43325053D01*
X26208558Y43321145D01*
X26258051Y43316251D01*
X26306500Y43315283D01*
X26357250Y43316218D01*
X26399556Y43320168D01*
X26447834Y43331239D01*
X26469654Y43342883D01*
X26482843Y43349477D01*
X26489193Y43380496D01*
X26478691Y43405897D01*
X26464769Y43428123D01*
X26419809Y43449495D01*
X26409326Y43447663D01*
X26359670Y43441702D01*
X26308122Y43439561D01*
X26283541Y43439358D01*
X26230545Y43440369D01*
X26179775Y43443775D01*
X26146521Y43447907D01*
X26094542Y43458232D01*
X26046366Y43469614D01*
X26001196Y43481124D01*
X25953454Y43496084D01*
X25922062Y43509456D01*
X25878556Y43533636D01*
X25873702Y43539254D01*
X25882006Y43567342D01*
X25911284Y43607932D01*
X25924504Y43621808D01*
X25961410Y43654486D01*
X26002900Y43680269D01*
X26008035Y43682624D01*
X26054391Y43698897D01*
X26064699Y43700943D01*
X26116234Y43703867D01*
X26147254Y43704118D01*
X26196766Y43703836D01*
X26227365Y43702408D01*
X26276557Y43693573D01*
X26321643Y43689463D01*
X26370536Y43687219D01*
X26402487Y43690929D01*
X26412501Y43694348D01*
X26428866Y43700698D01*
X26450115Y43721703D01*
X26455000Y43766400D01*
X26425512Y43806020D01*
X26419096Y43809386D01*
X26370003Y43821247D01*
X26343869Y43825262D01*
X26292635Y43827838D01*
X26236158Y43828926D01*
X26174348Y43829570D01*
X26115249Y43829913D01*
X26065295Y43830071D01*
X26010515Y43830142D01*
X25991182Y43830147D01*
X25937785Y43829643D01*
X25886995Y43827306D01*
X25860757Y43822087D01*
X25850987Y43795220D01*
X25850987Y43762248D01*
X25860757Y43752234D01*
X25852452Y43725611D01*
X25816606Y43687189D01*
X25786656Y43647499D01*
X25782355Y43639638D01*
X25759396Y43596407D01*
X25751336Y43573204D01*
G37*
G36*
X26253743Y43211968D02*
G01*
X26259911Y43210595D01*
X26306500Y43192429D01*
X26344602Y43166295D01*
X26369346Y43133487D01*
X26392229Y43085328D01*
X26404136Y43036877D01*
X26408105Y42983113D01*
X26407528Y42963010D01*
X26403220Y42912771D01*
X26394916Y42863678D01*
X26393450Y42857084D01*
X26393450Y42847314D01*
X26389383Y42818162D01*
X26372201Y42770377D01*
X26370491Y42747663D01*
X26373667Y42711271D01*
X26370491Y42671703D01*
X26337844Y42653145D01*
X26288914Y42649477D01*
X26271024Y42649477D01*
X26220614Y42649477D01*
X26169724Y42649477D01*
X26164086Y42649479D01*
X26111552Y42649718D01*
X26060547Y42651187D01*
X26038134Y42651814D01*
X25988228Y42648626D01*
X25935739Y42642883D01*
X25924306Y42641492D01*
X25871790Y42635450D01*
X25822411Y42631403D01*
X25777185Y42631403D01*
X25725446Y42631403D01*
X25721249Y42631403D01*
X25672325Y42631403D01*
X25621887Y42631403D01*
X25577496Y42629449D01*
X25526388Y42623587D01*
X25507340Y42620931D01*
X25458733Y42615772D01*
X25424539Y42615772D01*
X25403290Y42653385D01*
X25401580Y42664620D01*
X25399870Y42674878D01*
X25399870Y42682450D01*
X25401580Y42690266D01*
X25408175Y42696128D01*
X25413792Y42701257D01*
X25417212Y42706386D01*
X25420387Y42708828D01*
X25427714Y42709805D01*
X25439438Y42713225D01*
X25453553Y42719164D01*
X25501785Y42728667D01*
X25554965Y42736428D01*
X25609278Y42742732D01*
X25663286Y42747235D01*
X25716989Y42749937D01*
X25770387Y42750838D01*
X25775940Y42750838D01*
X25826074Y42750838D01*
X25809954Y42793336D01*
X25806047Y42806754D01*
X25805371Y42855927D01*
X25806003Y42860023D01*
X25919259Y42860023D01*
X25922062Y42809700D01*
X25953162Y42785778D01*
X26000219Y42772087D01*
X26005647Y42772087D01*
X26055485Y42772087D01*
X26104771Y42772087D01*
X26158733Y42772087D01*
X26187028Y42772087D01*
X26237135Y42772087D01*
X26250080Y42772087D01*
X26259361Y42791626D01*
X26262555Y42800152D01*
X26275714Y42848451D01*
X26285983Y42899582D01*
X26291044Y42936043D01*
X26293799Y42986288D01*
X26292416Y43018798D01*
X26279633Y43066644D01*
X26267693Y43079266D01*
X26220771Y43095953D01*
X26212303Y43096977D01*
X26162083Y43095547D01*
X26111069Y43083879D01*
X26060792Y43064934D01*
X26048297Y43059047D01*
X26002784Y43032938D01*
X25966025Y42999477D01*
X25962431Y42994686D01*
X25938694Y42949898D01*
X25925237Y42901291D01*
X25919259Y42860023D01*
X25806003Y42860023D01*
X25813129Y42906176D01*
X25818337Y42932733D01*
X25829494Y42981403D01*
X25837554Y43004362D01*
X25845389Y43022537D01*
X25873213Y43064934D01*
X25907499Y43101586D01*
X25946852Y43133139D01*
X25991274Y43159594D01*
X26040764Y43180950D01*
X26082506Y43194585D01*
X26131622Y43207084D01*
X26152764Y43210045D01*
X26202247Y43214726D01*
X26253743Y43211968D01*
G37*
G36*
X25773562Y42282136D02*
G01*
X25768874Y42232100D01*
X25768677Y42229135D01*
X25765421Y42180108D01*
X25765258Y42175890D01*
X25775027Y42125332D01*
X25787990Y42076320D01*
X25793101Y42059631D01*
X25800429Y42041068D01*
X25807756Y42021285D01*
X25814351Y42004920D01*
X25822411Y41987091D01*
X25831448Y41970726D01*
X25841950Y41953385D01*
X25854406Y41938730D01*
X25869794Y41924076D01*
X25897637Y41904536D01*
X25926946Y41906002D01*
X25956256Y41935555D01*
X25962850Y41953385D01*
X25958820Y42002432D01*
X25944776Y42022017D01*
X25917675Y42064744D01*
X25915467Y42069645D01*
X25900630Y42117921D01*
X25892242Y42167823D01*
X25891775Y42171738D01*
X25888356Y42221406D01*
X25892752Y42269191D01*
X25909080Y42316549D01*
X25938869Y42358675D01*
X25962850Y42377146D01*
X25985809Y42382275D01*
X26007058Y42377146D01*
X26059795Y42377146D01*
X26108685Y42377146D01*
X26158928Y42377146D01*
X26181692Y42377146D01*
X26233536Y42377146D01*
X26285244Y42377146D01*
X26310652Y42377146D01*
X26361977Y42376700D01*
X26403709Y42373971D01*
X26452801Y42380322D01*
X26469778Y42426266D01*
X26470631Y42446023D01*
X26460861Y42478996D01*
X26413406Y42495310D01*
X26408593Y42496093D01*
X26359745Y42504153D01*
X26309650Y42511904D01*
X26295997Y42513434D01*
X26245711Y42520392D01*
X26239822Y42521250D01*
X26190187Y42525818D01*
X26184134Y42525890D01*
X26134935Y42525890D01*
X26101580Y42525890D01*
X26052168Y42525349D01*
X26000851Y42522658D01*
X25977505Y42519051D01*
X25930633Y42502187D01*
X25888079Y42476953D01*
X25877854Y42467516D01*
X25858314Y42454083D01*
X25846835Y42448954D01*
X25833890Y42428193D01*
X25807775Y42385328D01*
X25789214Y42338693D01*
X25774996Y42288238D01*
X25773562Y42282136D01*
G37*
G36*
X26233960Y41803908D02*
G01*
X26266444Y41797314D01*
X26294458Y41787843D01*
X26335809Y41761410D01*
X26365552Y41735617D01*
X26397151Y41693393D01*
X26420073Y41648814D01*
X26430248Y41616366D01*
X26437484Y41564709D01*
X26439368Y41511061D01*
X26437933Y41466777D01*
X26431274Y41414410D01*
X26416409Y41365248D01*
X26409815Y41350349D01*
X26402487Y41337405D01*
X26388565Y41325925D01*
X26378796Y41319331D01*
X26339717Y41319331D01*
X26310408Y41350349D01*
X26309324Y41366057D01*
X26313583Y41415562D01*
X26319872Y41458418D01*
X26321643Y41510084D01*
X26321429Y41538233D01*
X26318224Y41588242D01*
X26310003Y41613796D01*
X26280122Y41655164D01*
X26274454Y41660618D01*
X26232006Y41686183D01*
X26200254Y41695953D01*
X26163557Y41695526D01*
X26114036Y41687893D01*
X26134553Y41661515D01*
X26137728Y41646860D01*
X26146706Y41615901D01*
X26148994Y41566420D01*
X26146981Y41513777D01*
X26142613Y41458793D01*
X26137407Y41404190D01*
X26129999Y41350318D01*
X26117944Y41301745D01*
X26111350Y41282206D01*
X26088147Y41258514D01*
X26050045Y41228228D01*
X26008818Y41209470D01*
X25960408Y41202094D01*
X25949110Y41201531D01*
X25896225Y41206559D01*
X25849352Y41224658D01*
X25808489Y41255827D01*
X25800062Y41265078D01*
X25771852Y41305653D01*
X25768143Y41311790D01*
X25746451Y41356944D01*
X25745153Y41361397D01*
X25733795Y41412857D01*
X25734395Y41439121D01*
X25846956Y41439121D01*
X25854162Y41390161D01*
X25874923Y41357432D01*
X25898370Y41332764D01*
X25904038Y41330033D01*
X25953813Y41326414D01*
X25989717Y41341068D01*
X26003639Y41360608D01*
X26004589Y41365482D01*
X26009501Y41414585D01*
X26011454Y41442429D01*
X26017316Y41493231D01*
X26018713Y41504765D01*
X26023415Y41555976D01*
X26025132Y41606072D01*
X26025132Y41609186D01*
X26025132Y41660049D01*
X26000219Y41646860D01*
X25995537Y41644097D01*
X25953813Y41615841D01*
X25930293Y41595951D01*
X25896880Y41559298D01*
X25870526Y41515946D01*
X25858565Y41488603D01*
X25846956Y41439121D01*
X25734395Y41439121D01*
X25734972Y41464411D01*
X25735211Y41465375D01*
X25744986Y41513504D01*
X25749809Y41530845D01*
X25771120Y41577007D01*
X25791086Y41609369D01*
X25821678Y41647837D01*
X25834395Y41662180D01*
X25872236Y41695953D01*
X25893485Y41712317D01*
X25915253Y41730407D01*
X25960133Y41756741D01*
X26007302Y41776065D01*
X26024502Y41781927D01*
X26073675Y41796215D01*
X26126442Y41806633D01*
X26180679Y41810297D01*
X26233960Y41803908D01*
G37*
G36*
X25709815Y40560712D02*
G01*
X25691685Y40514942D01*
X25693450Y40510643D01*
X25696870Y40501117D01*
X25709815Y40475227D01*
X25753732Y40450851D01*
X25773562Y40447872D01*
X25804581Y40447139D01*
X25833890Y40447872D01*
X25887144Y40447872D01*
X25937273Y40447872D01*
X25950638Y40447872D01*
X26004270Y40447872D01*
X26055134Y40447872D01*
X26066898Y40447872D01*
X26116789Y40453395D01*
X26169320Y40465158D01*
X26220206Y40479275D01*
X26227121Y40481333D01*
X26274547Y40499112D01*
X26312850Y40517726D01*
X26356081Y40543066D01*
X26385635Y40567307D01*
X26405174Y40584160D01*
X26427889Y40614446D01*
X26447184Y40644732D01*
X26447184Y40672820D01*
X26440589Y40715562D01*
X26439368Y40720447D01*
X26414944Y40755130D01*
X26375932Y40786861D01*
X26351441Y40799338D01*
X26336786Y40804467D01*
X26289246Y40821649D01*
X26271817Y40827425D01*
X26297951Y40844034D01*
X26342495Y40869557D01*
X26381259Y40903866D01*
X26402966Y40948562D01*
X26403953Y40956386D01*
X26396353Y41005173D01*
X26365615Y41044769D01*
X26343625Y41059945D01*
X26319200Y41070203D01*
X26312606Y41073378D01*
X26265162Y41089219D01*
X26253011Y41091696D01*
X26204235Y41099319D01*
X26170701Y41101466D01*
X26121109Y41103758D01*
X26118677Y41103908D01*
X26065554Y41105007D01*
X26011143Y41105322D01*
X25970666Y41105374D01*
X25847079Y41105374D01*
X25830715Y41097314D01*
X25810443Y41081927D01*
X25806290Y41053350D01*
X25812885Y41017691D01*
X25837309Y41007677D01*
X25851964Y41005479D01*
X25901639Y40997855D01*
X25954545Y40996176D01*
X26006626Y40995718D01*
X26016339Y40995709D01*
X26062013Y40987649D01*
X26109152Y40987649D01*
X26135041Y40986183D01*
X26184604Y40980528D01*
X26193660Y40980322D01*
X26243666Y40974615D01*
X26270108Y40965423D01*
X26266933Y40959805D01*
X26252278Y40950035D01*
X26232739Y40939289D01*
X26185131Y40920015D01*
X26137212Y40901754D01*
X26104023Y40889952D01*
X26076423Y40873343D01*
X26045648Y40842080D01*
X26043939Y40801047D01*
X26063478Y40769784D01*
X26072515Y40761724D01*
X26084727Y40755130D01*
X26100847Y40750977D01*
X26120387Y40746825D01*
X26157023Y40743650D01*
X26187065Y40734369D01*
X26219794Y40723622D01*
X26268187Y40709157D01*
X26307721Y40692115D01*
X26328970Y40676239D01*
X26315781Y40658654D01*
X26273248Y40629026D01*
X26227748Y40608046D01*
X26177295Y40590510D01*
X26128899Y40579757D01*
X26077929Y40574696D01*
X26045404Y40573901D01*
X25994342Y40571707D01*
X25963339Y40568284D01*
X25913768Y40563544D01*
X25871259Y40562422D01*
X25820674Y40563470D01*
X25788217Y40568772D01*
X25749138Y40572192D01*
X25709815Y40560712D01*
G37*
G36*
X25721538Y40092987D02*
G01*
X25723807Y40043641D01*
X25724958Y40037300D01*
X25737903Y39996511D01*
X25764036Y39966958D01*
X25785286Y39958898D01*
X25818014Y39975262D01*
X25849033Y40003106D01*
X25849033Y40040719D01*
X25844247Y40092308D01*
X25864329Y40141561D01*
X25891531Y40173099D01*
X25930610Y40204118D01*
X25964804Y40207537D01*
X25964804Y40158689D01*
X25961385Y40112771D01*
X25936716Y40070517D01*
X25915696Y40025820D01*
X25908628Y40008479D01*
X25900080Y39964516D01*
X25901789Y39935939D01*
X25904965Y39922017D01*
X25910582Y39909805D01*
X25917909Y39894174D01*
X25941845Y39862666D01*
X25972131Y39837265D01*
X25983611Y39832380D01*
X26006325Y39827495D01*
X26040764Y39822366D01*
X26090714Y39812738D01*
X26140279Y39809428D01*
X26191507Y39815719D01*
X26195369Y39816749D01*
X26240558Y39835651D01*
X26280593Y39863659D01*
X26312362Y39894174D01*
X26346580Y39929796D01*
X26348265Y39931787D01*
X26376852Y39973049D01*
X26397602Y40015074D01*
X26411438Y40065040D01*
X26420561Y40103001D01*
X26423736Y40145499D01*
X26413748Y40193382D01*
X26407372Y40207537D01*
X26392718Y40231961D01*
X26381238Y40245883D01*
X26365851Y40258340D01*
X26347044Y40272994D01*
X26305277Y40301763D01*
X26257163Y40318668D01*
X26207990Y40321320D01*
X26191950Y40315492D01*
X26174120Y40298395D01*
X26168991Y40269575D01*
X26170701Y40232206D01*
X26200010Y40219017D01*
X26218084Y40210957D01*
X26237623Y40202652D01*
X26279535Y40175875D01*
X26289891Y40165039D01*
X26302836Y40135485D01*
X26293458Y40086732D01*
X26277414Y40039614D01*
X26263757Y40017760D01*
X26240066Y39992359D01*
X26213199Y39963783D01*
X26184623Y39942534D01*
X26147742Y39929345D01*
X26096852Y39934260D01*
X26084972Y39936183D01*
X26036895Y39945765D01*
X26028551Y39949128D01*
X26035780Y39999131D01*
X26040031Y40007991D01*
X26061463Y40052199D01*
X26073492Y40086637D01*
X26081697Y40136726D01*
X26085704Y40179693D01*
X26084345Y40228560D01*
X26082529Y40236846D01*
X26078377Y40254920D01*
X26075202Y40267132D01*
X26071782Y40275437D01*
X26065432Y40285939D01*
X26051510Y40299128D01*
X26010056Y40326814D01*
X26002418Y40330147D01*
X25952295Y40334698D01*
X25901624Y40326591D01*
X25855628Y40304746D01*
X25815091Y40272684D01*
X25781135Y40233927D01*
X25755976Y40192883D01*
X25735680Y40145512D01*
X25722446Y40098358D01*
X25721538Y40092987D01*
G37*
G36*
X26237140Y39708371D02*
G01*
X26290380Y39697314D01*
X26326581Y39685272D01*
X26374443Y39658806D01*
X26414577Y39622255D01*
X26443764Y39581298D01*
X26456093Y39559396D01*
X26474783Y39514132D01*
X26483087Y39492883D01*
X26486263Y39454536D01*
X26483087Y39412771D01*
X26473073Y39383218D01*
X26471138Y39375986D01*
X26451779Y39326431D01*
X26422251Y39278746D01*
X26388849Y39239362D01*
X26347977Y39201352D01*
X26308210Y39170726D01*
X26326284Y39149477D01*
X26330502Y39144691D01*
X26367072Y39110154D01*
X26370621Y39107491D01*
X26396381Y39065946D01*
X26376109Y39024425D01*
X26347533Y38987544D01*
X26306744Y38990719D01*
X26292822Y39000733D01*
X26269131Y39017830D01*
X26257651Y39028577D01*
X26249591Y39038347D01*
X26225900Y39064481D01*
X26203674Y39090615D01*
X26177540Y39105269D01*
X26162313Y39099640D01*
X26114036Y39090615D01*
X26093703Y39088783D01*
X26043695Y39090615D01*
X26027330Y39095499D01*
X26020980Y39118458D01*
X26022445Y39164132D01*
X26042229Y39182206D01*
X26083018Y39201745D01*
X26095963Y39206630D01*
X26071538Y39236183D01*
X26050916Y39260232D01*
X26017829Y39299206D01*
X25986542Y39337544D01*
X25970177Y39357084D01*
X25954057Y39341452D01*
X25927923Y39319714D01*
X25899845Y39300317D01*
X25855237Y39273899D01*
X25808733Y39256944D01*
X25797254Y39253769D01*
X25774531Y39248159D01*
X25723736Y39245953D01*
X25681356Y39252274D01*
X25634279Y39276545D01*
X25598196Y39310677D01*
X25570504Y39346930D01*
X25546523Y39390820D01*
X25532739Y39438172D01*
X25531594Y39448907D01*
X25528577Y39489707D01*
X25655104Y39489707D01*
X25658279Y39468458D01*
X25664663Y39444415D01*
X25692718Y39403001D01*
X25706395Y39390820D01*
X25754755Y39375158D01*
X25793834Y39383218D01*
X25830287Y39406176D01*
X25867351Y39438905D01*
X25880540Y39466749D01*
X25871770Y39478228D01*
X26038810Y39478228D01*
X26064944Y39445499D01*
X26076541Y39431520D01*
X26109152Y39394941D01*
X26122440Y39380073D01*
X26154825Y39342429D01*
X26160034Y39335305D01*
X26193904Y39298221D01*
X26221748Y39268912D01*
X26236402Y39278682D01*
X26251647Y39291526D01*
X26286960Y39326065D01*
X26299363Y39339082D01*
X26330501Y39380703D01*
X26348998Y39427425D01*
X26348998Y39473343D01*
X26337567Y39504841D01*
X26308210Y39546860D01*
X26282503Y39560721D01*
X26234692Y39572994D01*
X26219792Y39575463D01*
X26168089Y39579756D01*
X26116479Y39570552D01*
X26076843Y39538103D01*
X26048579Y39494592D01*
X26038810Y39478228D01*
X25871770Y39478228D01*
X25866121Y39485622D01*
X25826563Y39515109D01*
X25794128Y39533415D01*
X25748161Y39550035D01*
X25737654Y39551721D01*
X25687100Y39547837D01*
X25659989Y39520726D01*
X25657547Y39503629D01*
X25655104Y39489707D01*
X25528577Y39489707D01*
X25527854Y39499477D01*
X25532568Y39540291D01*
X25549103Y39589358D01*
X25555453Y39604013D01*
X25578412Y39626239D01*
X25617491Y39653106D01*
X25646152Y39664022D01*
X25695893Y39672890D01*
X25700601Y39673245D01*
X25753206Y39671710D01*
X25802331Y39661650D01*
X25852697Y39643336D01*
X25890026Y39623916D01*
X25931099Y39592778D01*
X25947463Y39582031D01*
X25960408Y39595953D01*
X25969689Y39610608D01*
X25976772Y39622087D01*
X26009501Y39658235D01*
X26042229Y39682659D01*
X26050289Y39685834D01*
X26080687Y39699059D01*
X26134806Y39711412D01*
X26187695Y39713331D01*
X26237140Y39708371D01*
G37*
G36*
X26366339Y38891557D02*
G01*
X26407616Y38883497D01*
X26415921Y38840754D01*
X26409326Y38792150D01*
X26384902Y38774809D01*
X26368660Y38771175D01*
X26319933Y38766504D01*
X26279301Y38762371D01*
X26229075Y38754781D01*
X26182669Y38750873D01*
X26180192Y38750614D01*
X26129668Y38743301D01*
X26058349Y38725227D01*
X26056639Y38718388D01*
X26055174Y38702024D01*
X26053464Y38683462D01*
X26050488Y38637678D01*
X26048966Y38584786D01*
X26048579Y38533741D01*
X26049190Y38487991D01*
X26052024Y38434008D01*
X26058349Y38383532D01*
X26097672Y38383532D01*
X26122169Y38383661D01*
X26175584Y38384902D01*
X26226643Y38387457D01*
X26280610Y38391836D01*
X26292799Y38393332D01*
X26342648Y38395255D01*
X26369515Y38361061D01*
X26387833Y38318074D01*
X26363164Y38275576D01*
X26356570Y38272157D01*
X26351685Y38268982D01*
X26334067Y38261368D01*
X26284762Y38254327D01*
X26254938Y38252419D01*
X26205994Y38250328D01*
X26148521Y38249612D01*
X26092421Y38250854D01*
X26037695Y38254054D01*
X25984344Y38259212D01*
X25925481Y38265807D01*
X25883583Y38271558D01*
X25834124Y38280079D01*
X25782599Y38290231D01*
X25766743Y38293562D01*
X25717824Y38304783D01*
X25669026Y38319784D01*
X25652906Y38327111D01*
X25631657Y38336148D01*
X25612850Y38347139D01*
X25569619Y38373762D01*
X25566742Y38375740D01*
X25530296Y38409910D01*
X25505872Y38440929D01*
X25499277Y38454118D01*
X25497183Y38457048D01*
X25482913Y38504188D01*
X25481425Y38517119D01*
X25482438Y38551216D01*
X25618049Y38551216D01*
X25623841Y38501257D01*
X25645844Y38480108D01*
X25690764Y38457049D01*
X25704930Y38449721D01*
X25716165Y38442394D01*
X25730087Y38439219D01*
X25744095Y38437503D01*
X25792124Y38424320D01*
X25809160Y38420351D01*
X25857337Y38411375D01*
X25872278Y38408711D01*
X25921085Y38401606D01*
X25921085Y38429205D01*
X25921085Y38450829D01*
X25921085Y38499791D01*
X25920932Y38533115D01*
X25920131Y38582586D01*
X25918642Y38631438D01*
X25918043Y38646551D01*
X25914490Y38695918D01*
X25886891Y38687614D01*
X25863199Y38681996D01*
X25841950Y38677111D01*
X25821434Y38668074D01*
X25819108Y38667065D01*
X25772585Y38648535D01*
X25760705Y38644533D01*
X25711684Y38624184D01*
X25665735Y38597089D01*
X25625551Y38561829D01*
X25618049Y38551216D01*
X25482438Y38551216D01*
X25482913Y38567202D01*
X25484202Y38575519D01*
X25503696Y38620818D01*
X25535181Y38658793D01*
X25555320Y38676730D01*
X25599029Y38707752D01*
X25645070Y38733969D01*
X25689486Y38755555D01*
X25739400Y38776903D01*
X25794811Y38798012D01*
X25837543Y38814205D01*
X25887868Y38827809D01*
X25915711Y38835869D01*
X25944196Y38843578D01*
X25992037Y38853516D01*
X26040621Y38862432D01*
X26089424Y38870819D01*
X26145788Y38880077D01*
X26161390Y38882412D01*
X26214089Y38888885D01*
X26263818Y38892717D01*
X26317018Y38893862D01*
X26366339Y38891557D01*
G37*
G36*
X25773562Y37909212D02*
G01*
X25768874Y37859176D01*
X25768677Y37856211D01*
X25765421Y37807184D01*
X25765258Y37802966D01*
X25775027Y37752408D01*
X25787990Y37703396D01*
X25793101Y37686707D01*
X25800429Y37668144D01*
X25807756Y37648361D01*
X25814351Y37631996D01*
X25822411Y37614167D01*
X25831448Y37597802D01*
X25841950Y37580461D01*
X25854406Y37565807D01*
X25869794Y37551152D01*
X25897637Y37531613D01*
X25926946Y37533078D01*
X25956256Y37562631D01*
X25962850Y37580461D01*
X25958820Y37629508D01*
X25944776Y37649093D01*
X25917675Y37691820D01*
X25915467Y37696721D01*
X25900630Y37744997D01*
X25892242Y37794899D01*
X25891775Y37798814D01*
X25888356Y37848482D01*
X25892752Y37896267D01*
X25909080Y37943625D01*
X25938869Y37985752D01*
X25962850Y38004222D01*
X25985809Y38009352D01*
X26007058Y38004222D01*
X26059795Y38004222D01*
X26108685Y38004222D01*
X26158928Y38004222D01*
X26181692Y38004222D01*
X26233536Y38004222D01*
X26285244Y38004222D01*
X26310652Y38004222D01*
X26361977Y38003776D01*
X26403709Y38001047D01*
X26452801Y38007398D01*
X26469778Y38053342D01*
X26470631Y38073099D01*
X26460861Y38106072D01*
X26413406Y38122386D01*
X26408593Y38123169D01*
X26359745Y38131229D01*
X26309650Y38138981D01*
X26295997Y38140510D01*
X26245711Y38147468D01*
X26239822Y38148326D01*
X26190187Y38152894D01*
X26184134Y38152966D01*
X26134935Y38152966D01*
X26101580Y38152966D01*
X26052168Y38152425D01*
X26000851Y38149734D01*
X25977505Y38146128D01*
X25930633Y38129263D01*
X25888079Y38104029D01*
X25877854Y38094592D01*
X25858314Y38081159D01*
X25846835Y38076030D01*
X25833890Y38055269D01*
X25807775Y38012405D01*
X25789214Y37965769D01*
X25774996Y37915314D01*
X25773562Y37909212D01*
G37*
G36*
X25751336Y37181857D02*
G01*
X25750603Y37141312D01*
X25761106Y37102478D01*
X25770875Y37079031D01*
X25788949Y37060712D01*
X25828944Y37028472D01*
X25873870Y37005789D01*
X25877121Y37004536D01*
X25891775Y36996232D01*
X25938182Y36978891D01*
X25985052Y36965071D01*
X25988007Y36964725D01*
X26037261Y36954290D01*
X26063234Y36947628D01*
X26113465Y36936765D01*
X26165183Y36933720D01*
X26169235Y36933706D01*
X26208558Y36929798D01*
X26258051Y36924904D01*
X26306500Y36923936D01*
X26357250Y36924871D01*
X26399556Y36928821D01*
X26447834Y36939892D01*
X26469654Y36951536D01*
X26482843Y36958130D01*
X26489193Y36989149D01*
X26478691Y37014550D01*
X26464769Y37036776D01*
X26419809Y37058148D01*
X26409326Y37056316D01*
X26359670Y37050355D01*
X26308122Y37048214D01*
X26283541Y37048012D01*
X26230545Y37049022D01*
X26179775Y37052428D01*
X26146521Y37056560D01*
X26094542Y37066885D01*
X26046366Y37078267D01*
X26001196Y37089777D01*
X25953454Y37104737D01*
X25922062Y37118109D01*
X25878556Y37142289D01*
X25873702Y37147907D01*
X25882006Y37175995D01*
X25911284Y37216585D01*
X25924504Y37230461D01*
X25961410Y37263139D01*
X26002900Y37288922D01*
X26008035Y37291278D01*
X26054391Y37307550D01*
X26064699Y37309596D01*
X26116234Y37312520D01*
X26147254Y37312771D01*
X26196766Y37312489D01*
X26227365Y37311061D01*
X26276557Y37302226D01*
X26321643Y37298116D01*
X26370536Y37295872D01*
X26402487Y37299582D01*
X26412501Y37303001D01*
X26428866Y37309352D01*
X26450115Y37330356D01*
X26455000Y37375053D01*
X26425512Y37414674D01*
X26419096Y37418040D01*
X26370003Y37429901D01*
X26343869Y37433915D01*
X26292635Y37436491D01*
X26236158Y37437579D01*
X26174348Y37438223D01*
X26115249Y37438566D01*
X26065295Y37438724D01*
X26010515Y37438795D01*
X25991182Y37438800D01*
X25937785Y37438296D01*
X25886995Y37435959D01*
X25860757Y37430740D01*
X25850987Y37403873D01*
X25850987Y37370901D01*
X25860757Y37360887D01*
X25852452Y37334264D01*
X25816606Y37295842D01*
X25786656Y37256152D01*
X25782355Y37248291D01*
X25759396Y37205060D01*
X25751336Y37181857D01*
G37*
G36*
X26257594Y36833128D02*
G01*
X26306500Y36827460D01*
X26343439Y36815174D01*
X26388829Y36792418D01*
X26424225Y36757363D01*
X26428133Y36751745D01*
X26433018Y36744418D01*
X26437170Y36737823D01*
X26448210Y36719557D01*
X26461594Y36670901D01*
X26464685Y36638855D01*
X26461594Y36589568D01*
X26459881Y36579754D01*
X26445262Y36531651D01*
X26422515Y36488207D01*
X26412745Y36470377D01*
X26393939Y36440091D01*
X26362187Y36401989D01*
X26335954Y36377953D01*
X26296730Y36348012D01*
X26271573Y36330182D01*
X26244462Y36312108D01*
X26229808Y36304048D01*
X26215529Y36297576D01*
X26167770Y36282799D01*
X26164801Y36282093D01*
X26115151Y36273842D01*
X26064944Y36271319D01*
X26023121Y36273456D01*
X25973597Y36284264D01*
X25955523Y36291103D01*
X25940868Y36297698D01*
X25924504Y36304292D01*
X25903255Y36315772D01*
X25882006Y36327251D01*
X25855139Y36350454D01*
X25826563Y36381717D01*
X25824908Y36383838D01*
X25798719Y36426414D01*
X25790556Y36441856D01*
X25778294Y36490236D01*
X25780889Y36541940D01*
X25785774Y36559282D01*
X25790659Y36574913D01*
X25791636Y36580775D01*
X25921085Y36580775D01*
X25924504Y36566121D01*
X25921329Y36552931D01*
X25922794Y36546337D01*
X25933297Y36534125D01*
X25945509Y36520203D01*
X25952103Y36513608D01*
X25964560Y36498954D01*
X25976772Y36482589D01*
X25965293Y36458165D01*
X25952103Y36435206D01*
X25962762Y36425462D01*
X26007791Y36405653D01*
X26051755Y36395883D01*
X26098733Y36391995D01*
X26148206Y36399895D01*
X26195369Y36420552D01*
X26200037Y36423127D01*
X26243018Y36451711D01*
X26279273Y36485447D01*
X26311385Y36528507D01*
X26333524Y36573251D01*
X26345579Y36623273D01*
X26345541Y36627886D01*
X26335809Y36675786D01*
X26295020Y36701675D01*
X26278329Y36707558D01*
X26227786Y36715973D01*
X26175830Y36713155D01*
X26129194Y36704768D01*
X26078063Y36691305D01*
X26025074Y36670908D01*
X25979261Y36645463D01*
X25940624Y36614969D01*
X25921085Y36580775D01*
X25791636Y36580775D01*
X25797254Y36614481D01*
X25819785Y36658513D01*
X25850987Y36697035D01*
X25886158Y36728542D01*
X25913025Y36748326D01*
X25929389Y36758095D01*
X25947633Y36769484D01*
X25994850Y36791349D01*
X26041985Y36807677D01*
X26076169Y36817742D01*
X26125516Y36830147D01*
X26157634Y36833078D01*
X26208558Y36834055D01*
X26257594Y36833128D01*
G37*
G36*
X25454337Y36113050D02*
G01*
X25447742Y36092045D01*
X25452379Y36041487D01*
X25462397Y36022680D01*
X25488531Y36019261D01*
X25510757Y36016086D01*
X25535914Y36017795D01*
X25585373Y36019169D01*
X25606256Y36019261D01*
X25657044Y36021784D01*
X25675132Y36024146D01*
X25725652Y36028644D01*
X25748649Y36029031D01*
X25798990Y36030409D01*
X25837798Y36033915D01*
X25887352Y36038113D01*
X25918642Y36038800D01*
X25968946Y36041009D01*
X25985809Y36043929D01*
X26032459Y36045639D01*
X26073981Y36041243D01*
X26123776Y36037419D01*
X26166549Y36037091D01*
X26216504Y36037091D01*
X26255453Y36037091D01*
X26306401Y36028919D01*
X26312117Y36028054D01*
X26360882Y36019764D01*
X26370003Y36017551D01*
X26376598Y36009491D01*
X26409326Y35991417D01*
X26424958Y35988975D01*
X26445474Y35988242D01*
X26468189Y36001431D01*
X26486263Y36024146D01*
X26486263Y36054920D01*
X26481378Y36085695D01*
X26460129Y36107432D01*
X26438879Y36121110D01*
X26429110Y36123552D01*
X26416165Y36127705D01*
X26367398Y36138470D01*
X26316595Y36146379D01*
X26266557Y36153064D01*
X26250568Y36155060D01*
X26201204Y36159773D01*
X26187065Y36159945D01*
X26137682Y36161853D01*
X26109884Y36164830D01*
X26058163Y36168062D01*
X26008848Y36167272D01*
X25959725Y36163975D01*
X25933297Y36161410D01*
X25877971Y36155781D01*
X25823278Y36151106D01*
X25769216Y36147385D01*
X25715787Y36144618D01*
X25662990Y36142806D01*
X25610825Y36141947D01*
X25590136Y36141871D01*
X25541101Y36138700D01*
X25500010Y36130636D01*
X25454337Y36113050D01*
G37*
G36*
X26253743Y35882729D02*
G01*
X26259911Y35881355D01*
X26306500Y35863190D01*
X26344602Y35837056D01*
X26369346Y35804247D01*
X26392229Y35756089D01*
X26404136Y35707637D01*
X26408105Y35653873D01*
X26407528Y35633771D01*
X26403220Y35583532D01*
X26394916Y35534439D01*
X26393450Y35527844D01*
X26393450Y35518074D01*
X26389383Y35488923D01*
X26372201Y35441138D01*
X26370491Y35418423D01*
X26373667Y35382031D01*
X26370491Y35342464D01*
X26337844Y35323906D01*
X26288914Y35320238D01*
X26271024Y35320238D01*
X26220614Y35320238D01*
X26169724Y35320238D01*
X26164086Y35320239D01*
X26111552Y35320478D01*
X26060547Y35321947D01*
X26038134Y35322574D01*
X25988228Y35319387D01*
X25935739Y35313643D01*
X25924306Y35312253D01*
X25871790Y35306211D01*
X25822411Y35302164D01*
X25777185Y35302164D01*
X25725446Y35302164D01*
X25721249Y35302164D01*
X25672325Y35302164D01*
X25621887Y35302164D01*
X25577496Y35300210D01*
X25526388Y35294348D01*
X25507340Y35291692D01*
X25458733Y35286532D01*
X25424539Y35286532D01*
X25403290Y35324146D01*
X25401580Y35335381D01*
X25399870Y35345639D01*
X25399870Y35353211D01*
X25401580Y35361026D01*
X25408175Y35366888D01*
X25413792Y35372017D01*
X25417212Y35377146D01*
X25420387Y35379589D01*
X25427714Y35380566D01*
X25439438Y35383985D01*
X25453553Y35389924D01*
X25501785Y35399428D01*
X25554965Y35407188D01*
X25609278Y35413493D01*
X25663286Y35417996D01*
X25716989Y35420698D01*
X25770387Y35421599D01*
X25775940Y35421599D01*
X25826074Y35421599D01*
X25809954Y35464097D01*
X25806047Y35477515D01*
X25805371Y35526688D01*
X25806003Y35530784D01*
X25919259Y35530784D01*
X25922062Y35480461D01*
X25953162Y35456539D01*
X26000219Y35442848D01*
X26005647Y35442848D01*
X26055485Y35442848D01*
X26104771Y35442848D01*
X26158733Y35442848D01*
X26187028Y35442848D01*
X26237135Y35442848D01*
X26250080Y35442848D01*
X26259361Y35462387D01*
X26262555Y35470913D01*
X26275714Y35519212D01*
X26285983Y35570342D01*
X26291044Y35606804D01*
X26293799Y35657049D01*
X26292416Y35689559D01*
X26279633Y35737405D01*
X26267693Y35750027D01*
X26220771Y35766714D01*
X26212303Y35767737D01*
X26162083Y35766307D01*
X26111069Y35754639D01*
X26060792Y35735695D01*
X26048297Y35729807D01*
X26002784Y35703699D01*
X25966025Y35670238D01*
X25962431Y35665446D01*
X25938694Y35620658D01*
X25925237Y35572052D01*
X25919259Y35530784D01*
X25806003Y35530784D01*
X25813129Y35576937D01*
X25818337Y35603494D01*
X25829494Y35652164D01*
X25837554Y35675123D01*
X25845389Y35693298D01*
X25873213Y35735695D01*
X25907499Y35772347D01*
X25946852Y35803900D01*
X25991274Y35830354D01*
X26040764Y35851710D01*
X26082506Y35865346D01*
X26131622Y35877844D01*
X26152764Y35880806D01*
X26202247Y35885486D01*
X26253743Y35882729D01*
G37*
G36*
X25550324Y34735276D02*
G01*
X25540592Y34685803D01*
X25540554Y34680810D01*
X25546905Y34636602D01*
X25594729Y34625803D01*
X25638984Y34624634D01*
X25689467Y34624634D01*
X25739721Y34624634D01*
X25771852Y34624634D01*
X25823076Y34625588D01*
X25874406Y34629681D01*
X25899836Y34634404D01*
X25953386Y34638129D01*
X26006345Y34641025D01*
X26055178Y34643567D01*
X26100847Y34645883D01*
X26157745Y34647644D01*
X26207173Y34646879D01*
X26261456Y34641933D01*
X26310634Y34629440D01*
X26317979Y34626100D01*
X26332634Y34608270D01*
X26327987Y34557119D01*
X26321154Y34524739D01*
X26308004Y34474570D01*
X26290136Y34426553D01*
X26273880Y34380345D01*
X26264002Y34331787D01*
X26256919Y34290266D01*
X26251057Y34252652D01*
X26251057Y34212352D01*
X26262407Y34164122D01*
X26267177Y34156909D01*
X26272062Y34151780D01*
X26302592Y34137125D01*
X26342892Y34148605D01*
X26375132Y34171564D01*
X26376842Y34214062D01*
X26380515Y34263698D01*
X26390102Y34316242D01*
X26403619Y34369208D01*
X26414455Y34405304D01*
X26427037Y34454913D01*
X26428866Y34461968D01*
X26441527Y34509811D01*
X26443032Y34514969D01*
X26452709Y34565235D01*
X26454988Y34618264D01*
X26455000Y34622924D01*
X26444497Y34658340D01*
X26427400Y34690335D01*
X26406151Y34709875D01*
X26366184Y34738662D01*
X26316525Y34756838D01*
X26298440Y34761166D01*
X26245760Y34769333D01*
X26194970Y34772232D01*
X26145259Y34772536D01*
X26088834Y34770920D01*
X26038859Y34768245D01*
X25984588Y34764341D01*
X25933766Y34762992D01*
X25903988Y34762876D01*
X25852926Y34761480D01*
X25803360Y34756525D01*
X25754747Y34750181D01*
X25701693Y34747570D01*
X25671224Y34747244D01*
X25620803Y34746496D01*
X25570417Y34742569D01*
X25550324Y34735276D01*
G37*
G36*
X25501231Y33835974D02*
G01*
X25492194Y33830845D01*
X25479982Y33823518D01*
X25470945Y33814236D01*
X25477540Y33779554D01*
X25493660Y33738765D01*
X25546397Y33740456D01*
X25595841Y33746486D01*
X25622864Y33750245D01*
X25673045Y33757812D01*
X25722343Y33767948D01*
X25735460Y33771494D01*
X25756709Y33776379D01*
X25769654Y33779554D01*
X25769654Y33720203D01*
X25770372Y33670942D01*
X25773701Y33620208D01*
X25781133Y33585625D01*
X25815327Y33568040D01*
X25828517Y33564132D01*
X25849033Y33560224D01*
X25857826Y33565109D01*
X25867595Y33568528D01*
X25884204Y33580740D01*
X25892264Y33597593D01*
X25892264Y33699686D01*
X25892741Y33750343D01*
X25897149Y33797139D01*
X25946899Y33804046D01*
X26002563Y33810924D01*
X26033925Y33814725D01*
X26083537Y33817981D01*
X26104267Y33818144D01*
X26160501Y33816169D01*
X26209402Y33810245D01*
X26257185Y33798340D01*
X26303954Y33775135D01*
X26319445Y33761968D01*
X26338984Y33728263D01*
X26336605Y33678619D01*
X26335076Y33672820D01*
X26312679Y33628793D01*
X26309675Y33625681D01*
X26295020Y33611271D01*
X26296486Y33587579D01*
X26312755Y33540990D01*
X26316270Y33537265D01*
X26352173Y33528961D01*
X26399328Y33543123D01*
X26409326Y33552164D01*
X26421538Y33571947D01*
X26437170Y33599303D01*
X26441810Y33611515D01*
X26448405Y33636183D01*
X26459014Y33685062D01*
X26459235Y33736329D01*
X26447053Y33783654D01*
X26432041Y33813015D01*
X26402732Y33851850D01*
X26363653Y33884090D01*
X26319440Y33904861D01*
X26271675Y33921027D01*
X26262292Y33923901D01*
X26209643Y33935071D01*
X26158307Y33941100D01*
X26108286Y33941991D01*
X26081064Y33940266D01*
X26030017Y33936602D01*
X25994602Y33935381D01*
X25944776Y33930389D01*
X25935006Y33928786D01*
X25907163Y33931961D01*
X25907896Y33967865D01*
X25898126Y34015492D01*
X25875655Y34035032D01*
X25826465Y34040105D01*
X25819968Y34038207D01*
X25797498Y34013783D01*
X25790170Y33966155D01*
X25784360Y33916968D01*
X25784309Y33915109D01*
X25780401Y33905095D01*
X25740345Y33898500D01*
X25691315Y33888291D01*
X25642026Y33877410D01*
X25626039Y33873832D01*
X25608942Y33868947D01*
X25588426Y33864062D01*
X25540578Y33851834D01*
X25526388Y33845744D01*
X25510268Y33840859D01*
X25501231Y33835974D01*
G37*
G36*
X26253743Y33424669D02*
G01*
X26259911Y33423295D01*
X26306500Y33405130D01*
X26344602Y33378996D01*
X26369346Y33346187D01*
X26392229Y33298029D01*
X26404136Y33249577D01*
X26408105Y33195813D01*
X26407528Y33175711D01*
X26403220Y33125472D01*
X26394916Y33076379D01*
X26393450Y33069784D01*
X26393450Y33060014D01*
X26389383Y33030863D01*
X26372201Y32983078D01*
X26370491Y32960363D01*
X26373667Y32923971D01*
X26370491Y32884404D01*
X26337844Y32865846D01*
X26288914Y32862178D01*
X26271024Y32862178D01*
X26220614Y32862178D01*
X26169724Y32862178D01*
X26164086Y32862179D01*
X26111552Y32862418D01*
X26060547Y32863887D01*
X26038134Y32864514D01*
X25988228Y32861327D01*
X25935739Y32855583D01*
X25924306Y32854193D01*
X25871790Y32848151D01*
X25822411Y32844104D01*
X25777185Y32844104D01*
X25725446Y32844104D01*
X25721249Y32844104D01*
X25672325Y32844104D01*
X25621887Y32844104D01*
X25577496Y32842150D01*
X25526388Y32836288D01*
X25507340Y32833632D01*
X25458733Y32828472D01*
X25424539Y32828472D01*
X25403290Y32866086D01*
X25401580Y32877321D01*
X25399870Y32887579D01*
X25399870Y32895151D01*
X25401580Y32902966D01*
X25408175Y32908828D01*
X25413792Y32913957D01*
X25417212Y32919086D01*
X25420387Y32921529D01*
X25427714Y32922506D01*
X25439438Y32925925D01*
X25453553Y32931864D01*
X25501785Y32941368D01*
X25554965Y32949128D01*
X25609278Y32955433D01*
X25663286Y32959936D01*
X25716989Y32962638D01*
X25770387Y32963539D01*
X25775940Y32963539D01*
X25826074Y32963539D01*
X25809954Y33006037D01*
X25806047Y33019455D01*
X25805371Y33068628D01*
X25806003Y33072724D01*
X25919259Y33072724D01*
X25922062Y33022401D01*
X25953162Y32998479D01*
X26000219Y32984788D01*
X26005647Y32984788D01*
X26055485Y32984788D01*
X26104771Y32984788D01*
X26158733Y32984788D01*
X26187028Y32984788D01*
X26237135Y32984788D01*
X26250080Y32984788D01*
X26259361Y33004327D01*
X26262555Y33012853D01*
X26275714Y33061152D01*
X26285983Y33112282D01*
X26291044Y33148744D01*
X26293799Y33198989D01*
X26292416Y33231499D01*
X26279633Y33279345D01*
X26267693Y33291967D01*
X26220771Y33308654D01*
X26212303Y33309677D01*
X26162083Y33308247D01*
X26111069Y33296579D01*
X26060792Y33277635D01*
X26048297Y33271747D01*
X26002784Y33245639D01*
X25966025Y33212178D01*
X25962431Y33207386D01*
X25938694Y33162598D01*
X25925237Y33113992D01*
X25919259Y33072724D01*
X25806003Y33072724D01*
X25813129Y33118877D01*
X25818337Y33145434D01*
X25829494Y33194104D01*
X25837554Y33217063D01*
X25845389Y33235238D01*
X25873213Y33277635D01*
X25907499Y33314287D01*
X25946852Y33345840D01*
X25991274Y33372294D01*
X26040764Y33393650D01*
X26082506Y33407286D01*
X26131622Y33419784D01*
X26152764Y33422746D01*
X26202247Y33427426D01*
X26253743Y33424669D01*
G37*
G36*
X48679274Y40816037D02*
G01*
X49790579Y40521968D01*
X49858805Y40492232D01*
X49908989Y40440006D01*
X49921884Y40388612D01*
X49921884Y40353392D01*
X49898919Y40284278D01*
X49844274Y40240872D01*
X49784766Y40217984D01*
X48669357Y39910238D01*
X48596631Y39898580D01*
X48527533Y39917778D01*
X48504884Y39967342D01*
X48540127Y40028365D01*
X48607554Y40059312D01*
X48620460Y40063085D01*
X49755359Y40369121D01*
X48604731Y40670712D01*
X48540035Y40696919D01*
X48504884Y40757223D01*
X48541406Y40815673D01*
X48609269Y40827194D01*
X48679274Y40816037D01*
G37*
G36*
X49836351Y39483557D02*
G01*
X49887137Y39432275D01*
X49900000Y39359714D01*
X49900000Y39202764D01*
X49896169Y39110028D01*
X49884828Y39024950D01*
X49866201Y38947850D01*
X49840512Y38879048D01*
X49807987Y38818862D01*
X49754375Y38752572D01*
X49689541Y38702926D01*
X49614020Y38670682D01*
X49528344Y38656597D01*
X49505401Y38656002D01*
X49427524Y38663747D01*
X49354251Y38686512D01*
X49288379Y38723595D01*
X49232709Y38774292D01*
X49190040Y38837900D01*
X49179190Y38861850D01*
X49144064Y38802198D01*
X49089837Y38750927D01*
X49026476Y38717627D01*
X48959372Y38700453D01*
X48912135Y38697035D01*
X48825456Y38705259D01*
X48748410Y38729749D01*
X48681590Y38770227D01*
X48625589Y38826416D01*
X48581001Y38898041D01*
X48555405Y38961723D01*
X48536813Y39033815D01*
X48525475Y39114201D01*
X48521639Y39202764D01*
X48674487Y39202764D01*
X48678131Y39122250D01*
X48688896Y39052524D01*
X48711981Y38980511D01*
X48753155Y38916267D01*
X48818688Y38871816D01*
X48888883Y38859798D01*
X48966405Y38871589D01*
X49026960Y38905365D01*
X49071033Y38958733D01*
X49099112Y39029299D01*
X49110644Y39099514D01*
X49112512Y39146002D01*
X49265359Y39146002D01*
X49268525Y39076275D01*
X49281943Y39000141D01*
X49313285Y38926140D01*
X49362938Y38872544D01*
X49432688Y38840908D01*
X49507452Y38832443D01*
X49583182Y38846196D01*
X49642176Y38883966D01*
X49686031Y38940515D01*
X49716343Y39010609D01*
X49734709Y39089011D01*
X49742725Y39170486D01*
X49743391Y39202764D01*
X49743391Y39339882D01*
X49265359Y39339882D01*
X49265359Y39146002D01*
X49112512Y39146002D01*
X49112512Y39339882D01*
X48674487Y39339882D01*
X48674487Y39202764D01*
X48521639Y39202764D01*
X48521639Y39359714D01*
X48534512Y39433184D01*
X48585399Y39483970D01*
X48659099Y39496832D01*
X49762882Y39496832D01*
X49836351Y39483557D01*
G37*
G36*
X49467103Y38260035D02*
G01*
X49543600Y38254899D01*
X49614175Y38240004D01*
X49678478Y38216124D01*
X49753854Y38171641D01*
X49816629Y38114389D01*
X49865973Y38046198D01*
X49901057Y37968900D01*
X49921051Y37884327D01*
X49925645Y37817223D01*
X49917597Y37728969D01*
X49893957Y37646280D01*
X49855483Y37571068D01*
X49802931Y37505246D01*
X49737060Y37450723D01*
X49658627Y37409412D01*
X49592014Y37388248D01*
X49519080Y37376397D01*
X49467103Y37374069D01*
X48600628Y37374069D01*
X48531684Y37394115D01*
X48502491Y37452373D01*
X48534304Y37513938D01*
X48600628Y37531019D01*
X49467103Y37531019D01*
X49538583Y37538535D01*
X49605691Y37560691D01*
X49665257Y37596900D01*
X49714112Y37646574D01*
X49749086Y37709128D01*
X49767009Y37783974D01*
X49768695Y37817223D01*
X49758944Y37896137D01*
X49731460Y37963454D01*
X49688896Y38018446D01*
X49633905Y38060385D01*
X49569141Y38088543D01*
X49497257Y38102192D01*
X49467103Y38103427D01*
X48600628Y38103427D01*
X48531684Y38122704D01*
X48502491Y38181731D01*
X48535118Y38243109D01*
X48600628Y38260035D01*
X49467103Y38260035D01*
G37*
G36*
X49925645Y36558884D02*
G01*
X49918275Y36478998D01*
X49896821Y36401351D01*
X49862263Y36328537D01*
X49815583Y36263149D01*
X49757764Y36207778D01*
X49689787Y36165017D01*
X49612633Y36137460D01*
X49527285Y36127698D01*
X49447011Y36134646D01*
X49378341Y36154362D01*
X49302353Y36197584D01*
X49241046Y36256478D01*
X49191024Y36327028D01*
X49148888Y36405220D01*
X49111240Y36487038D01*
X49074682Y36568467D01*
X49055750Y36607781D01*
X49018786Y36673568D01*
X48973989Y36728309D01*
X48914914Y36767647D01*
X48849218Y36780461D01*
X48777195Y36766823D01*
X48718996Y36728887D01*
X48677155Y36671120D01*
X48654207Y36597988D01*
X48650551Y36551019D01*
X48659087Y36469562D01*
X48688856Y36397972D01*
X48740584Y36343252D01*
X48803140Y36300654D01*
X48846987Y36246508D01*
X48849218Y36227544D01*
X48812005Y36167248D01*
X48769204Y36158814D01*
X48699162Y36175320D01*
X48641000Y36212443D01*
X48587634Y36268363D01*
X48543384Y36340788D01*
X48517451Y36409069D01*
X48502329Y36485272D01*
X48499413Y36546916D01*
X48507067Y36620032D01*
X48526469Y36690680D01*
X48556899Y36756616D01*
X48597636Y36815595D01*
X48647957Y36865374D01*
X48707142Y36903709D01*
X48774469Y36928355D01*
X48849218Y36937070D01*
X48937034Y36928460D01*
X49009732Y36903458D01*
X49070464Y36863301D01*
X49122385Y36809227D01*
X49168648Y36742474D01*
X49212406Y36664282D01*
X49245479Y36598874D01*
X49280246Y36528251D01*
X49305024Y36478528D01*
X49340329Y36414281D01*
X49380364Y36358618D01*
X49439562Y36308048D01*
X49505630Y36285605D01*
X49527285Y36284306D01*
X49606702Y36295671D01*
X49671288Y36328052D01*
X49720205Y36378879D01*
X49752613Y36445584D01*
X49767674Y36525597D01*
X49768695Y36554781D01*
X49760880Y36630334D01*
X49733059Y36704424D01*
X49686833Y36761190D01*
X49624028Y36798333D01*
X49570027Y36811578D01*
X49505858Y36839065D01*
X49486252Y36890224D01*
X49518641Y36951482D01*
X49583705Y36968528D01*
X49664678Y36954477D01*
X49740742Y36915323D01*
X49795632Y36868951D01*
X49843224Y36811697D01*
X49881669Y36745866D01*
X49909121Y36673762D01*
X49923732Y36597689D01*
X49925645Y36558884D01*
G37*
G36*
X52277645Y40294578D02*
G01*
X52271193Y40223904D01*
X52253212Y40157140D01*
X52217669Y40081773D01*
X52171367Y40018490D01*
X52118337Y39970610D01*
X52051497Y39938157D01*
X52018796Y39933832D01*
X51956349Y39964837D01*
X51946305Y40000510D01*
X51979929Y40065420D01*
X52033500Y40110743D01*
X52087071Y40170154D01*
X52116384Y40245167D01*
X52120695Y40294578D01*
X52109681Y40376183D01*
X52077786Y40444957D01*
X52026730Y40501501D01*
X51958230Y40546417D01*
X51874007Y40580305D01*
X51801555Y40598846D01*
X51721950Y40611776D01*
X51635918Y40619347D01*
X51544184Y40621815D01*
X51460155Y40618645D01*
X51380746Y40609256D01*
X51306751Y40593830D01*
X51238968Y40572551D01*
X51159629Y40535390D01*
X51094636Y40488578D01*
X51045876Y40432551D01*
X51015235Y40367740D01*
X51004602Y40294578D01*
X51016067Y40218523D01*
X51059889Y40153658D01*
X51124048Y40111751D01*
X51175015Y40064038D01*
X51179334Y40039833D01*
X51147711Y39978638D01*
X51102739Y39963238D01*
X51024979Y39980759D01*
X50960509Y40022208D01*
X50913426Y40073959D01*
X50876504Y40140205D01*
X50853611Y40219866D01*
X50847994Y40292527D01*
X50858355Y40384241D01*
X50885085Y40465517D01*
X50926555Y40536665D01*
X50981136Y40597995D01*
X51047202Y40649814D01*
X51123124Y40692433D01*
X51207274Y40726162D01*
X51298024Y40751309D01*
X51393747Y40768183D01*
X51492814Y40777095D01*
X51559913Y40778765D01*
X51629395Y40777310D01*
X51697763Y40772827D01*
X51797209Y40760045D01*
X51891535Y40739471D01*
X51979170Y40710516D01*
X52058547Y40672593D01*
X52128096Y40625113D01*
X52186250Y40567487D01*
X52231438Y40499129D01*
X52262092Y40419448D01*
X52276644Y40327857D01*
X52277645Y40294578D01*
G37*
G36*
X52169934Y39504697D02*
G01*
X52238878Y39485292D01*
X52268071Y39426393D01*
X52236257Y39364828D01*
X52169934Y39347746D01*
X51621120Y39347746D01*
X51621120Y38832443D01*
X52169934Y38832443D01*
X52238878Y38812995D01*
X52268071Y38753797D01*
X52236257Y38692538D01*
X52169934Y38675492D01*
X50948866Y38675492D01*
X50882543Y38692538D01*
X50850729Y38753797D01*
X50883357Y38815362D01*
X50948866Y38832443D01*
X51464170Y38832443D01*
X51464170Y39347746D01*
X50948866Y39347746D01*
X50882543Y39364828D01*
X50850729Y39426393D01*
X50883357Y39487651D01*
X50948866Y39504697D01*
X52169934Y39504697D01*
G37*
G36*
X52234890Y38211838D02*
G01*
X52266703Y38150273D01*
X52234075Y38088895D01*
X52168566Y38071968D01*
X51664889Y38071968D01*
X51664889Y37825088D01*
X52209941Y37521103D01*
X52259021Y37471762D01*
X52266703Y37440747D01*
X52234577Y37378857D01*
X52190108Y37366204D01*
X52125482Y37383985D01*
X51629669Y37668137D01*
X51606616Y37593328D01*
X51570746Y37524832D01*
X51522467Y37465254D01*
X51462185Y37417202D01*
X51390308Y37383281D01*
X51307242Y37366098D01*
X51270974Y37364495D01*
X51198810Y37371072D01*
X51127909Y37391016D01*
X51060847Y37424649D01*
X51000200Y37472291D01*
X50948545Y37534262D01*
X50908459Y37610884D01*
X50887535Y37678157D01*
X50875656Y37753986D01*
X50873632Y37801494D01*
X51030248Y37801494D01*
X51037590Y37721592D01*
X51058531Y37654793D01*
X51099320Y37592184D01*
X51154534Y37549013D01*
X51221360Y37525592D01*
X51270974Y37521103D01*
X51343124Y37532008D01*
X51405456Y37563623D01*
X51455292Y37614297D01*
X51489954Y37682381D01*
X51505316Y37751227D01*
X51507938Y37797391D01*
X51507938Y38071968D01*
X51030248Y38071968D01*
X51030248Y37801494D01*
X50873632Y37801494D01*
X50873297Y37809358D01*
X50873297Y38111291D01*
X50890951Y38181117D01*
X50946781Y38222817D01*
X50990925Y38228919D01*
X52168566Y38228919D01*
X52234890Y38211838D01*
G37*
G36*
X51561281Y37019477D02*
G01*
X51634851Y37016783D01*
X51706317Y37008856D01*
X51775314Y36995927D01*
X51841479Y36978231D01*
X51934617Y36943253D01*
X52019329Y36898854D01*
X52094385Y36845817D01*
X52158554Y36784928D01*
X52210605Y36716970D01*
X52249309Y36642727D01*
X52273433Y36562985D01*
X52281748Y36478528D01*
X52277947Y36406347D01*
X52266788Y36337953D01*
X52243056Y36260527D01*
X52209124Y36195342D01*
X52155957Y36138228D01*
X52090384Y36109875D01*
X52065984Y36107865D01*
X51647450Y36107865D01*
X51578375Y36125969D01*
X51536116Y36182033D01*
X51529822Y36225492D01*
X51529822Y36486393D01*
X51540191Y36555467D01*
X51593808Y36602845D01*
X51608468Y36604020D01*
X51670445Y36569284D01*
X51686494Y36499998D01*
X51686773Y36486393D01*
X51686773Y36264816D01*
X52070087Y36264816D01*
X52100327Y36327556D01*
X52116057Y36397291D01*
X52120695Y36474425D01*
X52107483Y36559749D01*
X52070333Y36635778D01*
X52012971Y36701868D01*
X51958928Y36744529D01*
X51897184Y36780969D01*
X51829311Y36810917D01*
X51756881Y36834103D01*
X51681467Y36850257D01*
X51604641Y36859107D01*
X51553416Y36860817D01*
X51461692Y36856201D01*
X51377535Y36842929D01*
X51301262Y36821868D01*
X51233192Y36793882D01*
X51173642Y36759838D01*
X51108044Y36706517D01*
X51058912Y36646015D01*
X51026998Y36580383D01*
X51013056Y36511675D01*
X51012467Y36494257D01*
X51022743Y36415151D01*
X51055261Y36346726D01*
X51105377Y36292139D01*
X51158800Y36240048D01*
X51169076Y36209763D01*
X51142992Y36146448D01*
X51082907Y36127698D01*
X51014276Y36157257D01*
X50956148Y36209398D01*
X50910144Y36272338D01*
X50879842Y36335282D01*
X50859102Y36409294D01*
X50851413Y36494257D01*
X50859548Y36576035D01*
X50883168Y36653323D01*
X50921096Y36725344D01*
X50972156Y36791322D01*
X51035171Y36850483D01*
X51108964Y36902049D01*
X51192360Y36945244D01*
X51284181Y36979294D01*
X51383251Y37003421D01*
X51452744Y37013611D01*
X51524587Y37018816D01*
X51561281Y37019477D01*
G37*
G36*
X13239790Y30294911D02*
G01*
X13220342Y30225497D01*
X13161144Y30197116D01*
X13099766Y30229557D01*
X13082840Y30294911D01*
X13082840Y31410319D01*
X12863314Y30692929D01*
X12821554Y30638236D01*
X12769281Y30622148D01*
X12703081Y30648662D01*
X12675247Y30692929D01*
X12455722Y31410319D01*
X12455722Y30294911D01*
X12436274Y30225497D01*
X12377075Y30197116D01*
X12315697Y30229557D01*
X12298771Y30294911D01*
X12298771Y31457165D01*
X12305704Y31528563D01*
X12338609Y31589340D01*
X12407938Y31613933D01*
X12416399Y31614116D01*
X12478974Y31614116D01*
X12544365Y31591602D01*
X12585938Y31530848D01*
X12598653Y31492727D01*
X12769281Y30883048D01*
X12939567Y31492727D01*
X12967847Y31555178D01*
X13021271Y31605367D01*
X13059246Y31614116D01*
X13112246Y31614116D01*
X13182786Y31598120D01*
X13228904Y31540741D01*
X13239790Y31467081D01*
X13239790Y30294911D01*
G37*
G36*
X11877501Y30297305D02*
G01*
X11844874Y30235927D01*
X11779364Y30219000D01*
X11218925Y30219000D01*
X11149981Y30238277D01*
X11120788Y30297305D01*
X11152601Y30358683D01*
X11218925Y30375609D01*
X11420669Y30375609D01*
X11420669Y31440752D01*
X11257906Y31440752D01*
X11189261Y31460029D01*
X11160111Y31519056D01*
X11191873Y31580621D01*
X11257906Y31597703D01*
X11740383Y31597703D01*
X11809797Y31578255D01*
X11838178Y31519056D01*
X11805602Y31457678D01*
X11740383Y31440752D01*
X11577620Y31440752D01*
X11577620Y30375609D01*
X11779364Y30375609D01*
X11845688Y30358683D01*
X11877501Y30297305D01*
G37*
G36*
X10158569Y30193355D02*
G01*
X10087894Y30199807D01*
X10021130Y30217788D01*
X9945764Y30253331D01*
X9882481Y30299633D01*
X9834601Y30352663D01*
X9802148Y30419503D01*
X9797822Y30452204D01*
X9828827Y30514651D01*
X9864500Y30524695D01*
X9929410Y30491071D01*
X9974733Y30437500D01*
X10034144Y30383929D01*
X10109158Y30354616D01*
X10158569Y30350305D01*
X10240174Y30361319D01*
X10308948Y30393214D01*
X10365492Y30444270D01*
X10410408Y30512770D01*
X10444296Y30596993D01*
X10462837Y30669445D01*
X10475766Y30749050D01*
X10483338Y30835082D01*
X10485805Y30926816D01*
X10482635Y31010845D01*
X10473246Y31090254D01*
X10457821Y31164249D01*
X10436542Y31232032D01*
X10399380Y31311371D01*
X10352569Y31376364D01*
X10296542Y31425124D01*
X10231731Y31455765D01*
X10158569Y31466398D01*
X10082514Y31454933D01*
X10017649Y31411111D01*
X9975741Y31346952D01*
X9928028Y31295985D01*
X9903824Y31291666D01*
X9842628Y31323289D01*
X9827229Y31368261D01*
X9844750Y31446021D01*
X9886198Y31510491D01*
X9937950Y31557574D01*
X10004196Y31594496D01*
X10083856Y31617389D01*
X10156517Y31623006D01*
X10248231Y31612645D01*
X10329508Y31585915D01*
X10400656Y31544445D01*
X10461985Y31489864D01*
X10513805Y31423798D01*
X10556424Y31347876D01*
X10590152Y31263726D01*
X10615299Y31172976D01*
X10632174Y31077253D01*
X10641086Y30978186D01*
X10642756Y30911087D01*
X10641300Y30841605D01*
X10636817Y30773237D01*
X10624035Y30673791D01*
X10603461Y30579465D01*
X10574507Y30491830D01*
X10536583Y30412453D01*
X10489103Y30342904D01*
X10431478Y30284750D01*
X10363119Y30239562D01*
X10283438Y30208908D01*
X10191847Y30194356D01*
X10158569Y30193355D01*
G37*
G36*
X18317166Y43985220D02*
G01*
X19960432Y42060587D01*
X19960432Y43878730D01*
X20072784Y44033092D01*
X20252547Y43974474D01*
X23465806Y39472589D01*
X23483391Y39306504D01*
X23336845Y39219554D01*
X23206908Y39286965D01*
X21648639Y41470496D01*
X20286741Y41470496D01*
X20286741Y39376846D01*
X20317376Y39174306D01*
X20409282Y38996919D01*
X20472365Y38923532D01*
X20636729Y38801449D01*
X20828181Y38741605D01*
X20925680Y38734976D01*
X21129485Y38766095D01*
X21307493Y38859452D01*
X21380949Y38923532D01*
X21503031Y39089309D01*
X21562875Y39280241D01*
X21569504Y39376846D01*
X21617376Y39492129D01*
X21730704Y39540000D01*
X21843056Y39492129D01*
X21890928Y39376846D01*
X21868671Y39161433D01*
X21801901Y38964721D01*
X21690618Y38786711D01*
X21609560Y38695897D01*
X21441940Y38559884D01*
X21255618Y38468385D01*
X21050594Y38421399D01*
X20928611Y38414529D01*
X20712965Y38436786D01*
X20515558Y38503556D01*
X20336389Y38614839D01*
X20244731Y38695897D01*
X20107301Y38863517D01*
X20014849Y39049839D01*
X19967373Y39254863D01*
X19960432Y39376846D01*
X19960432Y41194013D01*
X18317166Y39275241D01*
X18140334Y39231278D01*
X18035799Y39376846D01*
X18074877Y39483336D01*
X19909630Y41627788D01*
X19770355Y41790943D01*
X20286741Y41790943D01*
X21418073Y41790943D01*
X20286741Y43377544D01*
X20286741Y41790943D01*
X19770355Y41790943D01*
X18074877Y43777125D01*
X18050453Y43946141D01*
X18193091Y44041885D01*
X18317166Y43985220D01*
G37*
G36*
X15181485Y44040412D02*
G01*
X15415386Y44023839D01*
X15643562Y43988853D01*
X15866014Y43935454D01*
X16082741Y43863641D01*
X16293744Y43773414D01*
X16499023Y43664774D01*
X16578814Y43616578D01*
X16769075Y43486838D01*
X16946170Y43343884D01*
X17110099Y43187717D01*
X17260862Y43018335D01*
X17398458Y42835740D01*
X17522889Y42639931D01*
X17568554Y42558625D01*
X17669829Y42351319D01*
X17752691Y42138241D01*
X17817138Y41919390D01*
X17863172Y41694768D01*
X17890793Y41464374D01*
X17900000Y41228207D01*
X17898526Y41133044D01*
X17881954Y40899143D01*
X17846968Y40670967D01*
X17793569Y40448515D01*
X17721756Y40231788D01*
X17631529Y40020785D01*
X17522889Y39815506D01*
X17474696Y39735715D01*
X17345000Y39545454D01*
X17202137Y39368359D01*
X17046107Y39204430D01*
X16876912Y39053667D01*
X16694550Y38916071D01*
X16499023Y38791640D01*
X16417598Y38745975D01*
X16210030Y38644700D01*
X15996737Y38561838D01*
X15777720Y38497391D01*
X15552978Y38451357D01*
X15322512Y38423736D01*
X15086322Y38414529D01*
X14991163Y38416003D01*
X14757305Y38432575D01*
X14529219Y38467561D01*
X14306906Y38520960D01*
X14090364Y38592773D01*
X13879595Y38683000D01*
X13674598Y38791640D01*
X13594689Y38839833D01*
X13404165Y38969529D01*
X13226855Y39112392D01*
X13062759Y39268422D01*
X12911877Y39437617D01*
X12774209Y39619979D01*
X12649755Y39815506D01*
X12604089Y39896931D01*
X12502815Y40104499D01*
X12419953Y40317792D01*
X12355506Y40536809D01*
X12309472Y40761551D01*
X12291364Y40912645D01*
X12514933Y40912645D01*
X12532044Y40794607D01*
X12571475Y40602457D01*
X12636803Y40379433D01*
X12721776Y40164652D01*
X12826396Y39958114D01*
X12950662Y39759819D01*
X13019510Y39664639D01*
X13168025Y39485716D01*
X13330966Y39322042D01*
X13508332Y39173619D01*
X13700124Y39040446D01*
X13870969Y38941117D01*
X13941663Y38904561D01*
X14121467Y38823488D01*
X14305661Y38757156D01*
X14494243Y38705565D01*
X14687214Y38668714D01*
X14884573Y38646603D01*
X15086322Y38639233D01*
X15167548Y38640412D01*
X15367541Y38653679D01*
X15563145Y38681685D01*
X15754360Y38724433D01*
X15941187Y38781920D01*
X16123625Y38854148D01*
X16301674Y38941117D01*
X16405384Y38999443D01*
X16570219Y39105126D01*
X16754798Y39245924D01*
X16924952Y39401973D01*
X17080679Y39573271D01*
X17221981Y39759819D01*
X17286570Y39857936D01*
X17401013Y40060352D01*
X17495810Y40271012D01*
X17570960Y40489914D01*
X17626465Y40717060D01*
X17657711Y40912645D01*
X17585109Y40719510D01*
X17485519Y40544571D01*
X17358941Y40387828D01*
X17205373Y40249282D01*
X17031655Y40136014D01*
X16845603Y40055109D01*
X16647217Y40006565D01*
X16436496Y39990384D01*
X16317520Y39995391D01*
X16118567Y40028250D01*
X15931395Y40091776D01*
X15756003Y40185969D01*
X15592393Y40310831D01*
X15592393Y40215088D01*
X15170341Y40018716D01*
X15170341Y41256539D01*
X15592393Y41256539D01*
X15593362Y41213335D01*
X15627289Y41009106D01*
X15709683Y40824531D01*
X15840544Y40659610D01*
X15871841Y40629679D01*
X16040350Y40508988D01*
X16228894Y40436574D01*
X16437473Y40412436D01*
X16480674Y40413401D01*
X16684769Y40447195D01*
X16869020Y40529264D01*
X17033426Y40659610D01*
X17063357Y40691022D01*
X17184047Y40859874D01*
X17256462Y41048379D01*
X17280600Y41256539D01*
X17279634Y41299740D01*
X17245841Y41503835D01*
X17163771Y41688086D01*
X17033426Y41852492D01*
X17002132Y41882541D01*
X16833757Y42003709D01*
X16645538Y42076409D01*
X16437473Y42100643D01*
X16394155Y42099673D01*
X16189582Y42065746D01*
X16005045Y41983353D01*
X15840544Y41852492D01*
X15810494Y41821198D01*
X15689327Y41652823D01*
X15616627Y41464604D01*
X15592393Y41256539D01*
X15170341Y41256539D01*
X15170341Y42494362D01*
X15592393Y42494362D01*
X15592393Y42201271D01*
X15684442Y42276604D01*
X15854784Y42384269D01*
X16036907Y42461172D01*
X16230811Y42507314D01*
X16436496Y42522694D01*
X16639584Y42507368D01*
X16831681Y42461389D01*
X17012787Y42384758D01*
X17182903Y42277474D01*
X17317361Y42163980D01*
X17447558Y42018014D01*
X17564105Y41833074D01*
X17641102Y41650259D01*
X17594314Y41877466D01*
X17529666Y42095025D01*
X17447158Y42302937D01*
X17346789Y42501201D01*
X17228561Y42689817D01*
X17092472Y42868786D01*
X16938522Y43038108D01*
X16766713Y43197781D01*
X16582096Y43342953D01*
X16390212Y43468769D01*
X16191063Y43575228D01*
X15984647Y43662331D01*
X15770965Y43730078D01*
X15550017Y43778469D01*
X15321803Y43807503D01*
X15086322Y43817181D01*
X14850857Y43807503D01*
X14622688Y43778469D01*
X14401816Y43730078D01*
X14188241Y43662331D01*
X13981963Y43575228D01*
X13782981Y43468769D01*
X13591296Y43342953D01*
X13406908Y43197781D01*
X13234870Y43038108D01*
X13080722Y42868786D01*
X12944465Y42689817D01*
X12826099Y42501201D01*
X12725623Y42302937D01*
X12643039Y42095025D01*
X12578345Y41877466D01*
X12531542Y41650259D01*
X12586943Y41788996D01*
X12696449Y41978813D01*
X12837639Y42146682D01*
X12989741Y42277474D01*
X13159856Y42384758D01*
X13340963Y42461389D01*
X13533060Y42507368D01*
X13736147Y42522694D01*
X13855124Y42517672D01*
X14054077Y42484713D01*
X14241249Y42420994D01*
X14416640Y42326513D01*
X14580251Y42201271D01*
X14580251Y42494362D01*
X15002302Y42494362D01*
X15002302Y41256539D01*
X15002302Y40018716D01*
X14580251Y40215088D01*
X14580251Y40310831D01*
X14488202Y40235726D01*
X14317859Y40128389D01*
X14135736Y40051720D01*
X13941832Y40005718D01*
X13736147Y39990384D01*
X13525488Y40006565D01*
X13327285Y40055109D01*
X13141538Y40136014D01*
X12968248Y40249282D01*
X12814253Y40387828D01*
X12687369Y40544571D01*
X12587595Y40719510D01*
X12514933Y40912645D01*
X12291364Y40912645D01*
X12281851Y40992017D01*
X12272644Y41228207D01*
X12273083Y41256539D01*
X12892044Y41256539D01*
X12893010Y41213335D01*
X12926803Y41009106D01*
X13008872Y40824531D01*
X13139218Y40659610D01*
X13170515Y40629679D01*
X13339024Y40508988D01*
X13527568Y40436574D01*
X13736147Y40412436D01*
X13779352Y40413401D01*
X13983581Y40447195D01*
X14168156Y40529264D01*
X14333077Y40659610D01*
X14363008Y40691022D01*
X14483698Y40859874D01*
X14556113Y41048379D01*
X14580251Y41256539D01*
X14579285Y41299740D01*
X14545492Y41503835D01*
X14463422Y41688086D01*
X14333077Y41852492D01*
X14301665Y41882541D01*
X14132813Y42003709D01*
X13944307Y42076409D01*
X13736147Y42100643D01*
X13692829Y42099673D01*
X13488256Y42065746D01*
X13303719Y41983353D01*
X13139218Y41852492D01*
X13109287Y41821198D01*
X12988596Y41652823D01*
X12916182Y41464604D01*
X12892044Y41256539D01*
X12273083Y41256539D01*
X12274117Y41323366D01*
X12290690Y41557224D01*
X12325676Y41785310D01*
X12379075Y42007623D01*
X12450888Y42224165D01*
X12541115Y42434934D01*
X12649755Y42639931D01*
X12697951Y42719840D01*
X12827691Y42910364D01*
X12970645Y43087674D01*
X13126812Y43251770D01*
X13296194Y43402652D01*
X13478789Y43540320D01*
X13674598Y43664774D01*
X13755904Y43710439D01*
X13963210Y43811714D01*
X14176288Y43894576D01*
X14395138Y43959023D01*
X14619761Y44005057D01*
X14850155Y44032678D01*
X15086322Y44041885D01*
X15181485Y44040412D01*
G37*
G36*
X59634252Y28710519D02*
G01*
X59694223Y28675013D01*
X59759361Y28627144D01*
X59812340Y28574561D01*
X59851829Y28516362D01*
X59876498Y28451649D01*
X59885017Y28379522D01*
X59879376Y28326715D01*
X59851128Y28254925D01*
X59801755Y28195045D01*
X59734205Y28150457D01*
X59666156Y28127419D01*
X59589239Y28119305D01*
X59538055Y28122371D01*
X59463084Y28140153D01*
X59390677Y28179642D01*
X59338087Y28235278D01*
X59306017Y28303194D01*
X59295170Y28379522D01*
X59297029Y28408261D01*
X59316460Y28477640D01*
X59353378Y28542597D01*
X59403243Y28602013D01*
X59461518Y28654769D01*
X59523662Y28699745D01*
X59585136Y28735823D01*
X59634252Y28710519D01*
G37*
G36*
X59613093Y29343869D02*
G01*
X59689421Y29326708D01*
X59751404Y29291134D01*
X59799275Y29233164D01*
X59816629Y29162564D01*
X59816288Y29150568D01*
X59801057Y29083635D01*
X59759594Y29016305D01*
X59709422Y28967615D01*
X59650983Y28927066D01*
X59589239Y28894483D01*
X59578749Y28899363D01*
X59516570Y28933075D01*
X59459104Y28974657D01*
X59411071Y29024490D01*
X59373252Y29093559D01*
X59361849Y29162564D01*
X59363907Y29190133D01*
X59389301Y29256710D01*
X59443090Y29308373D01*
X59512893Y29336555D01*
X59589239Y29344818D01*
X59613093Y29343869D01*
G37*
G36*
X59623872Y33496125D02*
G01*
X59701448Y33476631D01*
X59765832Y33438447D01*
X59816617Y33384862D01*
X59853396Y33319161D01*
X59875762Y33244632D01*
X59883307Y33164562D01*
X59881943Y33128328D01*
X59867037Y33043964D01*
X59836785Y32970183D01*
X59792533Y32909105D01*
X59735627Y32862853D01*
X59667414Y32833546D01*
X59589239Y32823305D01*
X59541206Y32827092D01*
X59466675Y32849266D01*
X59401109Y32889310D01*
X59346889Y32944961D01*
X59306393Y33013957D01*
X59282000Y33094037D01*
X59275680Y33164562D01*
X59278741Y33218613D01*
X59297073Y33300322D01*
X59331182Y33370135D01*
X59380193Y33426409D01*
X59443229Y33467499D01*
X59519414Y33491762D01*
X59589239Y33497953D01*
X59623872Y33496125D01*
G37*
G36*
X61416539Y27806799D02*
G01*
X58963173Y27806799D01*
X58963173Y28379522D01*
X59138220Y28379522D01*
X59138785Y28356784D01*
X59151943Y28270448D01*
X59181381Y28192371D01*
X59225556Y28123722D01*
X59282926Y28065673D01*
X59351947Y28019392D01*
X59431077Y27986050D01*
X59518773Y27966817D01*
X59589239Y27962355D01*
X59678406Y27970084D01*
X59762223Y27992579D01*
X59838675Y28028803D01*
X59905747Y28077717D01*
X59961423Y28138284D01*
X60003686Y28209465D01*
X60030522Y28290224D01*
X60039916Y28379522D01*
X60034620Y28449770D01*
X60013881Y28530843D01*
X59978790Y28604729D01*
X59930779Y28671751D01*
X59871281Y28732228D01*
X59816373Y28776113D01*
X59755764Y28816179D01*
X59798291Y28844807D01*
X59857416Y28893928D01*
X59907841Y28951929D01*
X59946077Y29020461D01*
X59966111Y29086806D01*
X59973237Y29162564D01*
X59968705Y29218884D01*
X59949430Y29287251D01*
X59916593Y29347341D01*
X59895308Y29370464D01*
X60698492Y29370464D01*
X60698492Y28066989D01*
X60715418Y28001479D01*
X60776796Y27968852D01*
X60838362Y28000665D01*
X60855443Y28066989D01*
X60855443Y29307547D01*
X61111898Y29080157D01*
X61125573Y29069322D01*
X61190544Y29041176D01*
X61219477Y29047979D01*
X61260983Y29105802D01*
X61251465Y29152741D01*
X61207983Y29205649D01*
X60951186Y29433039D01*
X60937300Y29445860D01*
X60879943Y29484213D01*
X60812016Y29498007D01*
X60765225Y29490076D01*
X60712774Y29441023D01*
X60698492Y29370464D01*
X59895308Y29370464D01*
X59859072Y29409830D01*
X59801950Y29448936D01*
X59736802Y29477667D01*
X59665331Y29495379D01*
X59589239Y29501427D01*
X59532190Y29497961D01*
X59459660Y29482924D01*
X59392794Y29456639D01*
X59333364Y29419825D01*
X59283140Y29373199D01*
X59236004Y29302209D01*
X59212970Y29236128D01*
X59204898Y29162564D01*
X59208465Y29101328D01*
X59222801Y29033665D01*
X59254120Y28963893D01*
X59300379Y28904604D01*
X59361090Y28853703D01*
X59422372Y28816179D01*
X59361763Y28776029D01*
X59306855Y28731939D01*
X59247357Y28671147D01*
X59199346Y28603877D01*
X59164255Y28529948D01*
X59143515Y28449181D01*
X59138220Y28379522D01*
X58963173Y28379522D01*
X58963173Y31729987D01*
X59138220Y31729987D01*
X59140789Y31679459D01*
X59153565Y31606940D01*
X59175684Y31537741D01*
X59205611Y31471185D01*
X59241810Y31406590D01*
X59282748Y31343278D01*
X59326888Y31280569D01*
X59372696Y31217784D01*
X59418638Y31154242D01*
X59463177Y31089264D01*
X59504780Y31022171D01*
X59540267Y30952513D01*
X59569150Y30880490D01*
X59592006Y30806496D01*
X59609413Y30730923D01*
X59621948Y30654165D01*
X59630186Y30576612D01*
X59634706Y30498659D01*
X59636085Y30420698D01*
X59653166Y30355189D01*
X59714731Y30322562D01*
X59775989Y30354375D01*
X59793035Y30420698D01*
X59791200Y30511778D01*
X59785341Y30602637D01*
X59774931Y30692831D01*
X59759439Y30781915D01*
X59738338Y30869444D01*
X59711098Y30954974D01*
X59677190Y31038060D01*
X59636085Y31118256D01*
X59594196Y31186052D01*
X59548067Y31253119D01*
X59500063Y31320010D01*
X59452548Y31387277D01*
X59407886Y31455474D01*
X59368442Y31525154D01*
X59336579Y31596869D01*
X59314661Y31671173D01*
X59942121Y31671173D01*
X60007339Y31688099D01*
X60025579Y31722464D01*
X60698492Y31722464D01*
X60698492Y30418989D01*
X60715418Y30353479D01*
X60776796Y30320852D01*
X60838362Y30352665D01*
X60855443Y30418989D01*
X60855443Y31659547D01*
X61111898Y31432157D01*
X61125573Y31421322D01*
X61190544Y31393176D01*
X61219477Y31399979D01*
X61260983Y31457802D01*
X61251465Y31504741D01*
X61207983Y31557649D01*
X60951186Y31785039D01*
X60937300Y31797860D01*
X60879943Y31836213D01*
X60812016Y31850007D01*
X60765225Y31842076D01*
X60712774Y31793023D01*
X60698492Y31722464D01*
X60025579Y31722464D01*
X60039916Y31749477D01*
X60011535Y31809445D01*
X59942121Y31828123D01*
X59236357Y31828123D01*
X59226182Y31827603D01*
X59163415Y31795496D01*
X59138220Y31729987D01*
X58963173Y31729987D01*
X58963173Y33164562D01*
X59118729Y33164562D01*
X59121279Y33108928D01*
X59134217Y33030544D01*
X59157240Y32958618D01*
X59189388Y32893570D01*
X59229699Y32835824D01*
X59277214Y32785803D01*
X59350114Y32731854D01*
X59431837Y32693391D01*
X59520108Y32671415D01*
X59589239Y32666355D01*
X59612468Y32666911D01*
X59702695Y32680026D01*
X59787122Y32709924D01*
X59863747Y32755749D01*
X59930572Y32816643D01*
X59973056Y32871686D01*
X60008060Y32934361D01*
X60034739Y33004307D01*
X60052249Y33081161D01*
X60059748Y33164562D01*
X60057650Y33219341D01*
X60048863Y33289278D01*
X60029743Y33371737D01*
X60003510Y33448711D01*
X59972231Y33520232D01*
X59937971Y33586331D01*
X59902798Y33647039D01*
X59857192Y33719958D01*
X59810116Y33790440D01*
X59761541Y33858807D01*
X59711440Y33925378D01*
X59659783Y33990475D01*
X59606544Y34054418D01*
X59589121Y34074464D01*
X60698492Y34074464D01*
X60698492Y32770989D01*
X60715418Y32705479D01*
X60776796Y32672852D01*
X60838362Y32704665D01*
X60855443Y32770989D01*
X60855443Y34011547D01*
X61111898Y33784157D01*
X61125573Y33773322D01*
X61190544Y33745176D01*
X61219477Y33751979D01*
X61260983Y33809802D01*
X61251465Y33856741D01*
X61207983Y33909649D01*
X60951186Y34137039D01*
X60937300Y34149860D01*
X60879943Y34188213D01*
X60812016Y34202007D01*
X60765225Y34194076D01*
X60712774Y34145023D01*
X60698492Y34074464D01*
X59589121Y34074464D01*
X59551694Y34117527D01*
X59495205Y34180123D01*
X59489961Y34185352D01*
X59424424Y34209530D01*
X59380764Y34193300D01*
X59349881Y34130884D01*
X59349904Y34128511D01*
X59375526Y34064548D01*
X59412847Y34026873D01*
X59461857Y33974609D01*
X59509702Y33920538D01*
X59556044Y33865221D01*
X59600546Y33809218D01*
X59642873Y33753092D01*
X59682687Y33697402D01*
X59728408Y33629258D01*
X59660234Y33645030D01*
X59589239Y33654904D01*
X59540340Y33652819D01*
X59470047Y33641981D01*
X59404068Y33622093D01*
X59324060Y33581892D01*
X59254736Y33526548D01*
X59197818Y33456602D01*
X59164307Y33394885D01*
X59139471Y33325487D01*
X59124036Y33248637D01*
X59118729Y33164562D01*
X58963173Y33164562D01*
X58963173Y35566485D01*
X59191221Y35566485D01*
X59195332Y35498119D01*
X59216057Y35404544D01*
X59252599Y35321581D01*
X59303097Y35249049D01*
X59365693Y35186769D01*
X59438526Y35134563D01*
X59519737Y35092250D01*
X59607467Y35059652D01*
X59699855Y35036590D01*
X59795044Y35022884D01*
X59891172Y35018355D01*
X59956390Y35034682D01*
X59988967Y35096659D01*
X59959816Y35156627D01*
X59891172Y35175305D01*
X59863397Y35175783D01*
X59782482Y35182801D01*
X59705871Y35197808D01*
X59634456Y35220302D01*
X59569123Y35249784D01*
X59510764Y35285752D01*
X59445334Y35342936D01*
X59395989Y35409577D01*
X59364837Y35484489D01*
X59353984Y35566485D01*
X59356801Y35611076D01*
X59374912Y35681852D01*
X59411619Y35745628D01*
X59469026Y35799438D01*
X59531271Y35833317D01*
X59609190Y35857400D01*
X59678564Y35868121D01*
X59757815Y35871837D01*
X59790378Y35870716D01*
X59861765Y35866024D01*
X59866331Y35866127D01*
X59928570Y35894665D01*
X59949644Y35963819D01*
X59923054Y36426464D01*
X60698492Y36426464D01*
X60698492Y35122989D01*
X60715418Y35057479D01*
X60776796Y35024852D01*
X60838362Y35056665D01*
X60855443Y35122989D01*
X60855443Y36363547D01*
X61111898Y36136157D01*
X61125573Y36125322D01*
X61190544Y36097176D01*
X61219477Y36103979D01*
X61260983Y36161802D01*
X61251465Y36208741D01*
X61207983Y36261649D01*
X60951186Y36489039D01*
X60937300Y36501860D01*
X60879943Y36540213D01*
X60812016Y36554007D01*
X60765225Y36546076D01*
X60712774Y36497023D01*
X60698492Y36426464D01*
X59923054Y36426464D01*
X59922288Y36439800D01*
X59891728Y36505837D01*
X59824494Y36532123D01*
X59326629Y36532123D01*
X59260305Y36515042D01*
X59228492Y36453477D01*
X59257685Y36395219D01*
X59326629Y36375173D01*
X59771493Y36375173D01*
X59787222Y36028788D01*
X59722714Y36030651D01*
X59631041Y36025359D01*
X59546090Y36010505D01*
X59468550Y35986246D01*
X59399112Y35952744D01*
X59338463Y35910155D01*
X59287295Y35858639D01*
X59246297Y35798355D01*
X59216159Y35729462D01*
X59197570Y35652119D01*
X59191221Y35566485D01*
X58963173Y35566485D01*
X58963173Y37820690D01*
X59118729Y37820690D01*
X59147923Y37761663D01*
X59216866Y37742386D01*
X59340307Y37742386D01*
X59340307Y37479776D01*
X59355604Y37414267D01*
X59418611Y37381639D01*
X59477638Y37410832D01*
X59496915Y37479776D01*
X59496915Y37742386D01*
X59849797Y37742386D01*
X59880849Y37743182D01*
X59952879Y37753838D01*
X60015945Y37787530D01*
X60041967Y37855910D01*
X60039687Y37882742D01*
X60018253Y37951096D01*
X59986915Y38016622D01*
X59639293Y38778464D01*
X60698492Y38778464D01*
X60698492Y37474989D01*
X60715418Y37409479D01*
X60776796Y37376852D01*
X60838362Y37408665D01*
X60855443Y37474989D01*
X60855443Y38715547D01*
X61111898Y38488157D01*
X61125573Y38477322D01*
X61190544Y38449176D01*
X61219477Y38455979D01*
X61260983Y38513802D01*
X61251465Y38560741D01*
X61207983Y38613649D01*
X60951186Y38841039D01*
X60937300Y38853860D01*
X60879943Y38892213D01*
X60812016Y38906007D01*
X60765225Y38898076D01*
X60712774Y38849023D01*
X60698492Y38778464D01*
X59639293Y38778464D01*
X59604968Y38853691D01*
X59588931Y38880795D01*
X59526322Y38910453D01*
X59496099Y38903053D01*
X59453831Y38847878D01*
X59454635Y38831537D01*
X59473663Y38763419D01*
X59867578Y37899336D01*
X59496915Y37899336D01*
X59496915Y38146217D01*
X59479989Y38211571D01*
X59418611Y38244012D01*
X59358045Y38214990D01*
X59340307Y38146217D01*
X59340307Y37899336D01*
X59216866Y37899336D01*
X59150543Y37882255D01*
X59118729Y37820690D01*
X58963173Y37820690D01*
X58963173Y40197310D01*
X59156001Y40197310D01*
X59158927Y40142106D01*
X59173739Y40065160D01*
X59199999Y39995431D01*
X59236514Y39933127D01*
X59282093Y39878456D01*
X59335545Y39831625D01*
X59395676Y39792842D01*
X59461296Y39762316D01*
X59531213Y39740254D01*
X59604234Y39726864D01*
X59679169Y39722355D01*
X59744022Y39728279D01*
X59821781Y39745100D01*
X59902665Y39771394D01*
X59976891Y39805736D01*
X60034674Y39846703D01*
X60069323Y39912474D01*
X60064525Y39937895D01*
X60008457Y39979152D01*
X59952469Y39969938D01*
X59887761Y39938541D01*
X59825070Y39906589D01*
X59755390Y39885857D01*
X59679169Y39879305D01*
X59625798Y39882806D01*
X59557386Y39897863D01*
X59478888Y39931995D01*
X59411553Y39981341D01*
X59358990Y40043976D01*
X59324806Y40117975D01*
X59312609Y40201413D01*
X59319068Y40278291D01*
X59337801Y40344178D01*
X59377005Y40411428D01*
X59431992Y40462307D01*
X59500876Y40497260D01*
X59581770Y40516734D01*
X59653866Y40521469D01*
X59719375Y40538550D01*
X59752002Y40600115D01*
X59730118Y40660980D01*
X59389204Y41079173D01*
X59975289Y41079173D01*
X60040798Y41096099D01*
X60059066Y41130464D01*
X60698492Y41130464D01*
X60698492Y39826989D01*
X60715418Y39761479D01*
X60776796Y39728852D01*
X60838362Y39760665D01*
X60855443Y39826989D01*
X60855443Y41067547D01*
X61111898Y40840157D01*
X61125573Y40829322D01*
X61190544Y40801176D01*
X61219477Y40807979D01*
X61260983Y40865802D01*
X61251465Y40912741D01*
X61207983Y40965649D01*
X60951186Y41193039D01*
X60937300Y41205860D01*
X60879943Y41244213D01*
X60812016Y41258007D01*
X60765225Y41250076D01*
X60712774Y41201023D01*
X60698492Y41130464D01*
X60059066Y41130464D01*
X60073426Y41157477D01*
X60041613Y41217725D01*
X59975289Y41236123D01*
X59349881Y41236123D01*
X59286901Y41225846D01*
X59229584Y41187988D01*
X59204898Y41120206D01*
X59207563Y41089199D01*
X59233449Y41021741D01*
X59275680Y40965307D01*
X59530425Y40656877D01*
X59508141Y40652712D01*
X59425412Y40629661D01*
X59353155Y40596282D01*
X59291673Y40552443D01*
X59241265Y40498013D01*
X59202233Y40432859D01*
X59174876Y40356849D01*
X59159496Y40269850D01*
X59156001Y40197310D01*
X58963173Y40197310D01*
X58963173Y42178305D01*
X59153949Y42178305D01*
X59183142Y42119277D01*
X59252086Y42100000D01*
X59863475Y42100000D01*
X59883664Y42100526D01*
X59956021Y42115991D01*
X60006544Y42164406D01*
X60020425Y42237118D01*
X60019980Y42262781D01*
X60013447Y42336921D01*
X59999485Y42406873D01*
X59978568Y42472742D01*
X59940675Y42554398D01*
X59892380Y42629229D01*
X59834805Y42697484D01*
X59769071Y42759412D01*
X59715091Y42801856D01*
X59657627Y42840984D01*
X59644511Y42849538D01*
X59577926Y42894984D01*
X59512847Y42944733D01*
X59453617Y42998576D01*
X59404580Y43056301D01*
X59370080Y43117696D01*
X59353984Y43195918D01*
X59356544Y43234040D01*
X59376682Y43305990D01*
X59416089Y43368574D01*
X59473859Y43417425D01*
X59549087Y43448174D01*
X59624459Y43456818D01*
X59680536Y43453327D01*
X59752114Y43434753D01*
X59819318Y43392819D01*
X59873640Y43342826D01*
X59943831Y43315597D01*
X59986062Y43327733D01*
X60014612Y43390140D01*
X60010115Y43410114D01*
X59967512Y43469656D01*
X59952566Y43482464D01*
X60698492Y43482464D01*
X60698492Y42178989D01*
X60715418Y42113479D01*
X60776796Y42080852D01*
X60838362Y42112665D01*
X60855443Y42178989D01*
X60855443Y43419547D01*
X61111898Y43192157D01*
X61125573Y43181322D01*
X61190544Y43153176D01*
X61219477Y43159979D01*
X61260983Y43217802D01*
X61251465Y43264741D01*
X61207983Y43317649D01*
X60951186Y43545039D01*
X60937300Y43557860D01*
X60879943Y43596213D01*
X60812016Y43610007D01*
X60765225Y43602076D01*
X60712774Y43553023D01*
X60698492Y43482464D01*
X59952566Y43482464D01*
X59913239Y43516165D01*
X59842574Y43559277D01*
X59776301Y43587338D01*
X59703073Y43606399D01*
X59624459Y43613427D01*
X59534622Y43604982D01*
X59452655Y43580745D01*
X59379825Y43542363D01*
X59317397Y43491483D01*
X59266637Y43429751D01*
X59228813Y43358815D01*
X59205189Y43280322D01*
X59197034Y43195918D01*
X59206292Y43110901D01*
X59232120Y43034779D01*
X59271596Y42966671D01*
X59321799Y42905697D01*
X59379808Y42850973D01*
X59442702Y42801619D01*
X59507559Y42756752D01*
X59571458Y42715492D01*
X59585885Y42706187D01*
X59654743Y42656188D01*
X59716796Y42599415D01*
X59770211Y42534521D01*
X59805493Y42475854D01*
X59833138Y42410439D01*
X59852208Y42337587D01*
X59861765Y42256609D01*
X59252086Y42256609D01*
X59185763Y42239683D01*
X59153949Y42178305D01*
X58963173Y42178305D01*
X58963173Y43768983D01*
X61416539Y43768983D01*
X61416539Y27806799D01*
G37*
G36*
X58683925Y43446919D02*
G01*
X58723680Y43389162D01*
X58731577Y43328933D01*
X58731577Y42256609D01*
X58723391Y42184967D01*
X58687562Y42123669D01*
X58620665Y42100132D01*
X58613949Y42100000D01*
X58544255Y42102503D01*
X58475873Y42110038D01*
X58376723Y42130857D01*
X58282998Y42163215D01*
X58196180Y42207240D01*
X58117752Y42263063D01*
X58049196Y42330814D01*
X57991996Y42410624D01*
X57947633Y42502622D01*
X57925922Y42570790D01*
X57911015Y42644471D01*
X57903351Y42723705D01*
X57902372Y42765416D01*
X58059323Y42765416D01*
X58065835Y42667087D01*
X58084552Y42581921D01*
X58114244Y42509014D01*
X58153684Y42447464D01*
X58201641Y42396368D01*
X58256888Y42354823D01*
X58318194Y42321927D01*
X58384331Y42296776D01*
X58454070Y42278469D01*
X58526182Y42266102D01*
X58574968Y42260712D01*
X58574968Y43303629D01*
X58498324Y43297071D01*
X58424659Y43282686D01*
X58354969Y43260038D01*
X58290249Y43228694D01*
X58231496Y43188219D01*
X58179705Y43138179D01*
X58135871Y43078139D01*
X58100991Y43007664D01*
X58076060Y42926321D01*
X58062074Y42833674D01*
X58059323Y42765416D01*
X57902372Y42765416D01*
X57905348Y42843665D01*
X57914225Y42918141D01*
X57928922Y42988666D01*
X57949362Y43055066D01*
X57990618Y43146544D01*
X58044352Y43227751D01*
X58110300Y43298093D01*
X58188196Y43356975D01*
X58277774Y43403806D01*
X58343852Y43428037D01*
X58414926Y43446473D01*
X58490916Y43458937D01*
X58571745Y43465253D01*
X58613949Y43466051D01*
X58683925Y43446919D01*
G37*
G36*
X57165407Y43466822D02*
G01*
X57212220Y43410806D01*
X57240433Y43341191D01*
X57247899Y43315597D01*
X57559748Y42222073D01*
X57567519Y42148885D01*
X57530413Y42089614D01*
X57498883Y42082904D01*
X57437160Y42115177D01*
X57418527Y42155395D01*
X57316629Y42512038D01*
X56869713Y42512038D01*
X56767815Y42155395D01*
X56728703Y42095472D01*
X56685408Y42082904D01*
X56624201Y42121183D01*
X56619331Y42191454D01*
X56624542Y42214208D01*
X56756311Y42668989D01*
X56912798Y42668989D01*
X57273545Y42668989D01*
X57093000Y43299868D01*
X56912798Y42668989D01*
X56756311Y42668989D01*
X56944256Y43317649D01*
X56968964Y43389001D01*
X57009264Y43452611D01*
X57071077Y43486167D01*
X57095052Y43488277D01*
X57165407Y43466822D01*
G37*
G36*
X56307222Y43400056D02*
G01*
X56274595Y43338079D01*
X56209085Y43321752D01*
X55895526Y43321752D01*
X55895526Y42182750D01*
X55876250Y42113336D01*
X55817222Y42084955D01*
X55755657Y42117531D01*
X55738576Y42182750D01*
X55738576Y43321752D01*
X55425017Y43321752D01*
X55356244Y43341029D01*
X55327222Y43400056D01*
X55358984Y43461621D01*
X55425017Y43478703D01*
X56209085Y43478703D01*
X56278798Y43460024D01*
X56307222Y43400056D01*
G37*
G36*
X54970579Y43390140D02*
G01*
X54942028Y43327733D01*
X54899797Y43315597D01*
X54829607Y43342826D01*
X54775285Y43392819D01*
X54708081Y43434753D01*
X54636503Y43453327D01*
X54580425Y43456818D01*
X54505054Y43448174D01*
X54429826Y43417425D01*
X54372055Y43368574D01*
X54332648Y43305990D01*
X54312510Y43234040D01*
X54309951Y43195918D01*
X54326046Y43117696D01*
X54360547Y43056301D01*
X54409583Y42998576D01*
X54468813Y42944733D01*
X54533893Y42894984D01*
X54600478Y42849538D01*
X54613593Y42840984D01*
X54671058Y42801856D01*
X54725037Y42759412D01*
X54790771Y42697484D01*
X54848347Y42629229D01*
X54896642Y42554398D01*
X54934534Y42472742D01*
X54955452Y42406873D01*
X54969414Y42336921D01*
X54975947Y42262781D01*
X54976392Y42237118D01*
X54962511Y42164406D01*
X54911988Y42115991D01*
X54839630Y42100526D01*
X54819441Y42100000D01*
X54208053Y42100000D01*
X54139109Y42119277D01*
X54109916Y42178305D01*
X54141729Y42239683D01*
X54208053Y42256609D01*
X54817732Y42256609D01*
X54808175Y42337587D01*
X54789105Y42410439D01*
X54761460Y42475854D01*
X54726177Y42534521D01*
X54672762Y42599415D01*
X54610710Y42656188D01*
X54541852Y42706187D01*
X54527424Y42715492D01*
X54463525Y42756752D01*
X54398668Y42801619D01*
X54335774Y42850973D01*
X54277766Y42905697D01*
X54227562Y42966671D01*
X54188086Y43034779D01*
X54162259Y43110901D01*
X54153000Y43195918D01*
X54161156Y43280322D01*
X54184779Y43358815D01*
X54222604Y43429751D01*
X54273363Y43491483D01*
X54335791Y43542363D01*
X54408622Y43580745D01*
X54490588Y43604982D01*
X54580425Y43613427D01*
X54659039Y43606399D01*
X54732268Y43587338D01*
X54798540Y43559277D01*
X54869205Y43516165D01*
X54923478Y43469656D01*
X54966082Y43410114D01*
X54970579Y43390140D01*
G37*
G36*
X58683925Y41094919D02*
G01*
X58723680Y41037162D01*
X58731577Y40976933D01*
X58731577Y39904609D01*
X58723391Y39832967D01*
X58687562Y39771669D01*
X58620665Y39748132D01*
X58613949Y39748000D01*
X58544255Y39750503D01*
X58475873Y39758038D01*
X58376723Y39778857D01*
X58282998Y39811215D01*
X58196180Y39855240D01*
X58117752Y39911063D01*
X58049196Y39978814D01*
X57991996Y40058624D01*
X57947633Y40150622D01*
X57925922Y40218790D01*
X57911015Y40292471D01*
X57903351Y40371705D01*
X57902372Y40413416D01*
X58059323Y40413416D01*
X58065835Y40315087D01*
X58084552Y40229921D01*
X58114244Y40157014D01*
X58153684Y40095464D01*
X58201641Y40044368D01*
X58256888Y40002823D01*
X58318194Y39969927D01*
X58384331Y39944776D01*
X58454070Y39926469D01*
X58526182Y39914102D01*
X58574968Y39908712D01*
X58574968Y40951629D01*
X58498324Y40945071D01*
X58424659Y40930686D01*
X58354969Y40908038D01*
X58290249Y40876694D01*
X58231496Y40836219D01*
X58179705Y40786179D01*
X58135871Y40726139D01*
X58100991Y40655664D01*
X58076060Y40574321D01*
X58062074Y40481674D01*
X58059323Y40413416D01*
X57902372Y40413416D01*
X57905348Y40491665D01*
X57914225Y40566141D01*
X57928922Y40636666D01*
X57949362Y40703066D01*
X57990618Y40794544D01*
X58044352Y40875751D01*
X58110300Y40946093D01*
X58188196Y41004975D01*
X58277774Y41051806D01*
X58343852Y41076037D01*
X58414926Y41094473D01*
X58490916Y41106937D01*
X58571745Y41113253D01*
X58613949Y41114051D01*
X58683925Y41094919D01*
G37*
G36*
X57165407Y41114822D02*
G01*
X57212220Y41058806D01*
X57240433Y40989191D01*
X57247899Y40963597D01*
X57559748Y39870073D01*
X57567519Y39796885D01*
X57530413Y39737614D01*
X57498883Y39730904D01*
X57437160Y39763177D01*
X57418527Y39803395D01*
X57316629Y40160038D01*
X56869713Y40160038D01*
X56767815Y39803395D01*
X56728703Y39743472D01*
X56685408Y39730904D01*
X56624201Y39769183D01*
X56619331Y39839454D01*
X56624542Y39862208D01*
X56756311Y40316989D01*
X56912798Y40316989D01*
X57273545Y40316989D01*
X57093000Y40947868D01*
X56912798Y40316989D01*
X56756311Y40316989D01*
X56944256Y40965649D01*
X56968964Y41037001D01*
X57009264Y41100611D01*
X57071077Y41134167D01*
X57095052Y41136277D01*
X57165407Y41114822D01*
G37*
G36*
X56307222Y41048056D02*
G01*
X56274595Y40986079D01*
X56209085Y40969752D01*
X55895526Y40969752D01*
X55895526Y39830750D01*
X55876250Y39761336D01*
X55817222Y39732955D01*
X55755657Y39765531D01*
X55738576Y39830750D01*
X55738576Y40969752D01*
X55425017Y40969752D01*
X55356244Y40989029D01*
X55327222Y41048056D01*
X55358984Y41109621D01*
X55425017Y41126703D01*
X56209085Y41126703D01*
X56278798Y41108024D01*
X56307222Y41048056D01*
G37*
G36*
X55025289Y39912474D02*
G01*
X54990641Y39846703D01*
X54932857Y39805736D01*
X54858632Y39771394D01*
X54777748Y39745100D01*
X54699988Y39728279D01*
X54635136Y39722355D01*
X54560201Y39726864D01*
X54487179Y39740254D01*
X54417263Y39762316D01*
X54351643Y39792842D01*
X54291511Y39831625D01*
X54238060Y39878456D01*
X54192481Y39933127D01*
X54155965Y39995431D01*
X54129706Y40065160D01*
X54114894Y40142106D01*
X54111967Y40197310D01*
X54115463Y40269850D01*
X54130843Y40356849D01*
X54158200Y40432859D01*
X54197232Y40498013D01*
X54247640Y40552443D01*
X54309122Y40596282D01*
X54381378Y40629661D01*
X54464108Y40652712D01*
X54486392Y40656877D01*
X54231646Y40965307D01*
X54189415Y41021741D01*
X54163529Y41089199D01*
X54160865Y41120206D01*
X54185551Y41187988D01*
X54242868Y41225846D01*
X54305847Y41236123D01*
X54931256Y41236123D01*
X54997579Y41217725D01*
X55029392Y41157477D01*
X54996765Y41096099D01*
X54931256Y41079173D01*
X54345170Y41079173D01*
X54686085Y40660980D01*
X54707969Y40600115D01*
X54675341Y40538550D01*
X54609832Y40521469D01*
X54537737Y40516734D01*
X54456843Y40497260D01*
X54387959Y40462307D01*
X54332972Y40411428D01*
X54293767Y40344178D01*
X54275035Y40278291D01*
X54268576Y40201413D01*
X54280772Y40117975D01*
X54314956Y40043976D01*
X54367519Y39981341D01*
X54434854Y39931995D01*
X54513353Y39897863D01*
X54581765Y39882806D01*
X54635136Y39879305D01*
X54711357Y39885857D01*
X54781037Y39906589D01*
X54843727Y39938541D01*
X54908435Y39969938D01*
X54964424Y39979152D01*
X55020491Y39937895D01*
X55025289Y39912474D01*
G37*
G36*
X58831765Y37471911D02*
G01*
X58812317Y37402497D01*
X58753119Y37374116D01*
X58691741Y37406557D01*
X58674815Y37471911D01*
X58674815Y38587319D01*
X58455289Y37869929D01*
X58413529Y37815236D01*
X58361256Y37799148D01*
X58295056Y37825662D01*
X58267222Y37869929D01*
X58047697Y38587319D01*
X58047697Y37471911D01*
X58028249Y37402497D01*
X57969050Y37374116D01*
X57907672Y37406557D01*
X57890746Y37471911D01*
X57890746Y38634165D01*
X57897679Y38705563D01*
X57930584Y38766340D01*
X57999913Y38790933D01*
X58008374Y38791116D01*
X58070949Y38791116D01*
X58136340Y38768602D01*
X58177913Y38707848D01*
X58190628Y38669727D01*
X58361256Y38060048D01*
X58531542Y38669727D01*
X58559822Y38732178D01*
X58613246Y38782367D01*
X58651221Y38791116D01*
X58704221Y38791116D01*
X58774761Y38775120D01*
X58820879Y38717741D01*
X58831765Y38644081D01*
X58831765Y37471911D01*
G37*
G36*
X57171963Y38789128D02*
G01*
X57247974Y38767249D01*
X57316963Y38731692D01*
X57378616Y38683202D01*
X57432624Y38622522D01*
X57478676Y38550396D01*
X57516460Y38467568D01*
X57545665Y38374782D01*
X57560215Y38307760D01*
X57570722Y38236863D01*
X57577094Y38162311D01*
X57579239Y38084326D01*
X57576944Y38006307D01*
X57570161Y37931778D01*
X57559043Y37860954D01*
X57543741Y37794045D01*
X57513278Y37701492D01*
X57474258Y37618948D01*
X57427196Y37547132D01*
X57372606Y37486762D01*
X57311001Y37438557D01*
X57242895Y37403236D01*
X57168804Y37381516D01*
X57089239Y37374116D01*
X57013372Y37381514D01*
X56941833Y37403222D01*
X56875305Y37438512D01*
X56814473Y37486654D01*
X56760023Y37546921D01*
X56712638Y37618583D01*
X56673004Y37700912D01*
X56641805Y37793180D01*
X56626030Y37859853D01*
X56614511Y37930404D01*
X56607450Y38004616D01*
X56605242Y38076119D01*
X56761660Y38076119D01*
X56765027Y37983259D01*
X56774925Y37898177D01*
X56791052Y37821171D01*
X56813106Y37752535D01*
X56851206Y37674553D01*
X56898587Y37612680D01*
X56954531Y37567617D01*
X57018320Y37540065D01*
X57089239Y37530725D01*
X57160883Y37540084D01*
X57225523Y37567772D01*
X57282374Y37613203D01*
X57330648Y37675793D01*
X57369563Y37754956D01*
X57392133Y37824853D01*
X57408665Y37903496D01*
X57418827Y37990639D01*
X57422288Y38086035D01*
X57419203Y38179178D01*
X57410013Y38264862D01*
X57394816Y38342715D01*
X57373710Y38412366D01*
X57336547Y38491833D01*
X57289286Y38555174D01*
X57232159Y38601510D01*
X57165399Y38629958D01*
X57089239Y38639636D01*
X57016651Y38629377D01*
X56952078Y38599432D01*
X56896032Y38551045D01*
X56849026Y38485464D01*
X56811573Y38403935D01*
X56790061Y38333071D01*
X56774427Y38254464D01*
X56764888Y38168638D01*
X56761660Y38076119D01*
X56605242Y38076119D01*
X56605052Y38082274D01*
X56607063Y38158029D01*
X56613066Y38230973D01*
X56623012Y38300819D01*
X56645218Y38399154D01*
X56676026Y38488907D01*
X56715272Y38569113D01*
X56762796Y38638804D01*
X56818433Y38697014D01*
X56882023Y38742774D01*
X56953403Y38775118D01*
X57032410Y38793080D01*
X57089239Y38796587D01*
X57171963Y38789128D01*
G37*
G36*
X55830900Y37370355D02*
G01*
X55751013Y37377725D01*
X55673367Y37399179D01*
X55600553Y37433737D01*
X55535164Y37480417D01*
X55479793Y37538236D01*
X55437033Y37606213D01*
X55409475Y37683367D01*
X55399713Y37768715D01*
X55406662Y37848989D01*
X55426378Y37917659D01*
X55469600Y37993647D01*
X55528493Y38054954D01*
X55599044Y38104976D01*
X55677235Y38147112D01*
X55759053Y38184760D01*
X55840483Y38221318D01*
X55879797Y38240250D01*
X55945583Y38277214D01*
X56000325Y38322011D01*
X56039663Y38381086D01*
X56052477Y38446782D01*
X56038839Y38518805D01*
X56000903Y38577004D01*
X55943135Y38618845D01*
X55870004Y38641793D01*
X55823035Y38645449D01*
X55741578Y38636913D01*
X55669988Y38607144D01*
X55615268Y38555416D01*
X55572670Y38492860D01*
X55518524Y38449013D01*
X55499560Y38446782D01*
X55439264Y38483995D01*
X55430830Y38526796D01*
X55447336Y38596838D01*
X55484459Y38655000D01*
X55540379Y38708366D01*
X55612803Y38752616D01*
X55681085Y38778549D01*
X55757288Y38793671D01*
X55818932Y38796587D01*
X55892048Y38788933D01*
X55962696Y38769531D01*
X56028632Y38739101D01*
X56087611Y38698364D01*
X56137390Y38648043D01*
X56175725Y38588858D01*
X56200371Y38521531D01*
X56209085Y38446782D01*
X56200476Y38358966D01*
X56175474Y38286268D01*
X56135316Y38225536D01*
X56081243Y38173615D01*
X56014490Y38127352D01*
X55936297Y38083594D01*
X55870890Y38050521D01*
X55800266Y38015754D01*
X55750544Y37990976D01*
X55686296Y37955671D01*
X55630633Y37915636D01*
X55580064Y37856438D01*
X55557620Y37790370D01*
X55556322Y37768715D01*
X55567687Y37689298D01*
X55600068Y37624712D01*
X55650895Y37575795D01*
X55717600Y37543387D01*
X55797612Y37528326D01*
X55826796Y37527305D01*
X55902350Y37535120D01*
X55976440Y37562941D01*
X56033206Y37609167D01*
X56070349Y37671972D01*
X56083593Y37725973D01*
X56111081Y37790142D01*
X56162240Y37809748D01*
X56223498Y37777359D01*
X56240544Y37712295D01*
X56226493Y37631322D01*
X56187339Y37555258D01*
X56140967Y37500368D01*
X56083713Y37452776D01*
X56017882Y37414331D01*
X55945778Y37386879D01*
X55869705Y37372268D01*
X55830900Y37370355D01*
G37*
G36*
X54925443Y37474305D02*
G01*
X54892815Y37412927D01*
X54827306Y37396000D01*
X54266866Y37396000D01*
X54197923Y37415277D01*
X54168729Y37474305D01*
X54200543Y37535683D01*
X54266866Y37552609D01*
X54468611Y37552609D01*
X54468611Y38617752D01*
X54305847Y38617752D01*
X54237203Y38637029D01*
X54208053Y38696056D01*
X54239815Y38757621D01*
X54305847Y38774703D01*
X54788325Y38774703D01*
X54857739Y38755255D01*
X54886120Y38696056D01*
X54853543Y38634678D01*
X54788325Y38617752D01*
X54625561Y38617752D01*
X54625561Y37552609D01*
X54827306Y37552609D01*
X54893629Y37535683D01*
X54925443Y37474305D01*
G37*
G36*
X58374933Y35018355D02*
G01*
X58295047Y35025725D01*
X58217400Y35047179D01*
X58144587Y35081737D01*
X58079198Y35128417D01*
X58023827Y35186236D01*
X57981066Y35254213D01*
X57953509Y35331367D01*
X57943747Y35416715D01*
X57950695Y35496989D01*
X57970412Y35565659D01*
X58013633Y35641647D01*
X58072527Y35702954D01*
X58143077Y35752976D01*
X58221269Y35795112D01*
X58303087Y35832760D01*
X58384516Y35869318D01*
X58423831Y35888250D01*
X58489617Y35925214D01*
X58544358Y35970011D01*
X58583697Y36029086D01*
X58596510Y36094782D01*
X58582872Y36166805D01*
X58544936Y36225004D01*
X58487169Y36266845D01*
X58414037Y36289793D01*
X58367069Y36293449D01*
X58285611Y36284913D01*
X58214021Y36255144D01*
X58159301Y36203416D01*
X58116703Y36140860D01*
X58062557Y36097013D01*
X58043593Y36094782D01*
X57983297Y36131995D01*
X57974863Y36174796D01*
X57991369Y36244838D01*
X58028492Y36303000D01*
X58084412Y36356366D01*
X58156837Y36400616D01*
X58225119Y36426549D01*
X58301321Y36441671D01*
X58362965Y36444587D01*
X58436082Y36436933D01*
X58506730Y36417531D01*
X58572665Y36387101D01*
X58631645Y36346364D01*
X58681424Y36296043D01*
X58719758Y36236858D01*
X58744405Y36169531D01*
X58753119Y36094782D01*
X58744510Y36006966D01*
X58719507Y35934268D01*
X58679350Y35873536D01*
X58625276Y35821615D01*
X58558524Y35775352D01*
X58480331Y35731594D01*
X58414923Y35698521D01*
X58344300Y35663754D01*
X58294577Y35638976D01*
X58230330Y35603671D01*
X58174667Y35563636D01*
X58124098Y35504438D01*
X58101654Y35438370D01*
X58100355Y35416715D01*
X58111720Y35337298D01*
X58144101Y35272712D01*
X58194929Y35223795D01*
X58261634Y35191387D01*
X58341646Y35176326D01*
X58370830Y35175305D01*
X58446383Y35183120D01*
X58520474Y35210941D01*
X58577239Y35257167D01*
X58614383Y35319972D01*
X58627627Y35373973D01*
X58655114Y35438142D01*
X58706273Y35457748D01*
X58767531Y35425359D01*
X58784577Y35360295D01*
X58770526Y35279322D01*
X58731372Y35203258D01*
X58685000Y35148368D01*
X58627746Y35100776D01*
X58561915Y35062331D01*
X58489811Y35034879D01*
X58413738Y35020268D01*
X58374933Y35018355D01*
G37*
G36*
X57022561Y35018355D02*
G01*
X56951886Y35024807D01*
X56885122Y35042788D01*
X56809755Y35078331D01*
X56746473Y35124633D01*
X56698592Y35177663D01*
X56666139Y35244503D01*
X56661814Y35277204D01*
X56692819Y35339651D01*
X56728492Y35349695D01*
X56793402Y35316071D01*
X56838725Y35262500D01*
X56898136Y35208929D01*
X56973149Y35179616D01*
X57022561Y35175305D01*
X57104165Y35186319D01*
X57172939Y35218214D01*
X57229484Y35269270D01*
X57274399Y35337770D01*
X57308287Y35421993D01*
X57326828Y35494445D01*
X57339758Y35574050D01*
X57347330Y35660082D01*
X57349797Y35751816D01*
X57346627Y35835845D01*
X57337238Y35915254D01*
X57321813Y35989249D01*
X57300534Y36057032D01*
X57263372Y36136371D01*
X57216561Y36201364D01*
X57160533Y36250124D01*
X57095722Y36280765D01*
X57022561Y36291398D01*
X56946505Y36279933D01*
X56881641Y36236111D01*
X56839733Y36171952D01*
X56792020Y36120985D01*
X56767815Y36116666D01*
X56706620Y36148289D01*
X56691221Y36193261D01*
X56708742Y36271021D01*
X56750190Y36335491D01*
X56801942Y36382574D01*
X56868188Y36419496D01*
X56947848Y36442389D01*
X57020509Y36448006D01*
X57112223Y36437645D01*
X57193500Y36410915D01*
X57264648Y36369445D01*
X57325977Y36314864D01*
X57377796Y36248798D01*
X57420416Y36172876D01*
X57454144Y36088726D01*
X57479291Y35997976D01*
X57496166Y35902253D01*
X57505077Y35803186D01*
X57506748Y35736087D01*
X57505292Y35666605D01*
X57500809Y35598237D01*
X57488027Y35498791D01*
X57467453Y35404465D01*
X57438498Y35316830D01*
X57400575Y35237453D01*
X57353095Y35167904D01*
X57295470Y35109750D01*
X57227111Y35064562D01*
X57147430Y35033908D01*
X57055839Y35019356D01*
X57022561Y35018355D01*
G37*
G36*
X56260034Y35119911D02*
G01*
X56238706Y35051138D01*
X56177627Y35022116D01*
X56116598Y35058124D01*
X56103426Y35119911D01*
X56103426Y35659151D01*
X55546748Y35051181D01*
X55483166Y35022369D01*
X55475966Y35022116D01*
X55417197Y35057666D01*
X55407578Y35092556D01*
X55432750Y35157153D01*
X55440746Y35167099D01*
X55999476Y35756945D01*
X55491695Y36282165D01*
X55450907Y36337259D01*
X55444849Y36364573D01*
X55474986Y36427431D01*
X55519050Y36439116D01*
X55582172Y36408345D01*
X55593593Y36398083D01*
X56103426Y35857134D01*
X56103426Y36340979D01*
X56122703Y36409923D01*
X56181730Y36439116D01*
X56243108Y36406488D01*
X56260034Y36340979D01*
X56260034Y35119911D01*
G37*
G36*
X58683925Y34038919D02*
G01*
X58723680Y33981162D01*
X58731577Y33920933D01*
X58731577Y32848609D01*
X58723391Y32776967D01*
X58687562Y32715669D01*
X58620665Y32692132D01*
X58613949Y32692000D01*
X58544255Y32694503D01*
X58475873Y32702038D01*
X58376723Y32722857D01*
X58282998Y32755215D01*
X58196180Y32799240D01*
X58117752Y32855063D01*
X58049196Y32922814D01*
X57991996Y33002624D01*
X57947633Y33094622D01*
X57925922Y33162790D01*
X57911015Y33236471D01*
X57903351Y33315705D01*
X57902372Y33357416D01*
X58059323Y33357416D01*
X58065835Y33259087D01*
X58084552Y33173921D01*
X58114244Y33101014D01*
X58153684Y33039464D01*
X58201641Y32988368D01*
X58256888Y32946823D01*
X58318194Y32913927D01*
X58384331Y32888776D01*
X58454070Y32870469D01*
X58526182Y32858102D01*
X58574968Y32852712D01*
X58574968Y33895629D01*
X58498324Y33889071D01*
X58424659Y33874686D01*
X58354969Y33852038D01*
X58290249Y33820694D01*
X58231496Y33780219D01*
X58179705Y33730179D01*
X58135871Y33670139D01*
X58100991Y33599664D01*
X58076060Y33518321D01*
X58062074Y33425674D01*
X58059323Y33357416D01*
X57902372Y33357416D01*
X57905348Y33435665D01*
X57914225Y33510141D01*
X57928922Y33580666D01*
X57949362Y33647066D01*
X57990618Y33738544D01*
X58044352Y33819751D01*
X58110300Y33890093D01*
X58188196Y33948975D01*
X58277774Y33995806D01*
X58343852Y34020037D01*
X58414926Y34038473D01*
X58490916Y34050937D01*
X58571745Y34057253D01*
X58613949Y34058051D01*
X58683925Y34038919D01*
G37*
G36*
X57165407Y34058822D02*
G01*
X57212220Y34002806D01*
X57240433Y33933191D01*
X57247899Y33907597D01*
X57559748Y32814073D01*
X57567519Y32740885D01*
X57530413Y32681614D01*
X57498883Y32674904D01*
X57437160Y32707177D01*
X57418527Y32747395D01*
X57316629Y33104038D01*
X56869713Y33104038D01*
X56767815Y32747395D01*
X56728703Y32687472D01*
X56685408Y32674904D01*
X56624201Y32713183D01*
X56619331Y32783454D01*
X56624542Y32806208D01*
X56756311Y33260989D01*
X56912798Y33260989D01*
X57273545Y33260989D01*
X57093000Y33891868D01*
X56912798Y33260989D01*
X56756311Y33260989D01*
X56944256Y33909649D01*
X56968964Y33981001D01*
X57009264Y34044611D01*
X57071077Y34078167D01*
X57095052Y34080277D01*
X57165407Y34058822D01*
G37*
G36*
X56307222Y33992056D02*
G01*
X56274595Y33930079D01*
X56209085Y33913752D01*
X55895526Y33913752D01*
X55895526Y32774750D01*
X55876250Y32705336D01*
X55817222Y32676955D01*
X55755657Y32709531D01*
X55738576Y32774750D01*
X55738576Y33913752D01*
X55425017Y33913752D01*
X55356244Y33933029D01*
X55327222Y33992056D01*
X55358984Y34053621D01*
X55425017Y34070703D01*
X56209085Y34070703D01*
X56278798Y34052024D01*
X56307222Y33992056D01*
G37*
G36*
X54618348Y34199424D02*
G01*
X54686472Y34181138D01*
X54749101Y34150148D01*
X54805762Y34106035D01*
X54855978Y34048380D01*
X54899275Y33976763D01*
X54935178Y33890766D01*
X54954770Y33825239D01*
X54970725Y33753010D01*
X54982900Y33673954D01*
X54991156Y33587948D01*
X54995351Y33494868D01*
X54995882Y33445636D01*
X54993383Y33346823D01*
X54986082Y33255333D01*
X54974275Y33171034D01*
X54958258Y33093796D01*
X54938326Y33023489D01*
X54901734Y32930736D01*
X54857995Y32852841D01*
X54808107Y32789362D01*
X54753068Y32739859D01*
X54693875Y32703890D01*
X54610213Y32676222D01*
X54545205Y32670116D01*
X54456613Y32680060D01*
X54373033Y32711133D01*
X54314899Y32749425D01*
X54261647Y32801437D01*
X54214163Y32867954D01*
X54173329Y32949762D01*
X54140030Y33047649D01*
X54122454Y33122227D01*
X54108882Y33204533D01*
X54099575Y33294800D01*
X54094796Y33393260D01*
X54094187Y33445636D01*
X54251137Y33445636D01*
X54252242Y33369872D01*
X54255568Y33299250D01*
X54264761Y33202881D01*
X54279051Y33117886D01*
X54298497Y33044144D01*
X54332548Y32963124D01*
X54376010Y32901620D01*
X54443787Y32851759D01*
X54526762Y32831406D01*
X54545205Y32830828D01*
X54623380Y32844859D01*
X54691593Y32887677D01*
X54738087Y32943389D01*
X54776655Y33018778D01*
X54799965Y33088568D01*
X54818138Y33169974D01*
X54830883Y33263232D01*
X54836221Y33332104D01*
X54838931Y33406417D01*
X54839274Y33445636D01*
X54837951Y33522172D01*
X54834029Y33593094D01*
X54823425Y33689157D01*
X54807365Y33773115D01*
X54786083Y33845282D01*
X54749992Y33923707D01*
X54705593Y33982476D01*
X54639259Y34029429D01*
X54561904Y34048289D01*
X54545205Y34048818D01*
X54474549Y34040193D01*
X54400420Y34004430D01*
X54352212Y33955000D01*
X54313636Y33886320D01*
X54290898Y33821766D01*
X54273368Y33745709D01*
X54260958Y33657861D01*
X54253577Y33557934D01*
X54251407Y33484461D01*
X54251137Y33445636D01*
X54094187Y33445636D01*
X54096194Y33542920D01*
X54102150Y33632908D01*
X54111957Y33715740D01*
X54125517Y33791557D01*
X54142731Y33860499D01*
X54175190Y33951332D01*
X54215319Y34027490D01*
X54262787Y34089447D01*
X54317263Y34137680D01*
X54378415Y34172662D01*
X54445912Y34194869D01*
X54519423Y34204776D01*
X54545205Y34205427D01*
X54618348Y34199424D01*
G37*
G36*
X58683925Y31686919D02*
G01*
X58723680Y31629162D01*
X58731577Y31568933D01*
X58731577Y30496609D01*
X58723391Y30424967D01*
X58687562Y30363669D01*
X58620665Y30340132D01*
X58613949Y30340000D01*
X58544255Y30342503D01*
X58475873Y30350038D01*
X58376723Y30370857D01*
X58282998Y30403215D01*
X58196180Y30447240D01*
X58117752Y30503063D01*
X58049196Y30570814D01*
X57991996Y30650624D01*
X57947633Y30742622D01*
X57925922Y30810790D01*
X57911015Y30884471D01*
X57903351Y30963705D01*
X57902372Y31005416D01*
X58059323Y31005416D01*
X58065835Y30907087D01*
X58084552Y30821921D01*
X58114244Y30749014D01*
X58153684Y30687464D01*
X58201641Y30636368D01*
X58256888Y30594823D01*
X58318194Y30561927D01*
X58384331Y30536776D01*
X58454070Y30518469D01*
X58526182Y30506102D01*
X58574968Y30500712D01*
X58574968Y31543629D01*
X58498324Y31537071D01*
X58424659Y31522686D01*
X58354969Y31500038D01*
X58290249Y31468694D01*
X58231496Y31428219D01*
X58179705Y31378179D01*
X58135871Y31318139D01*
X58100991Y31247664D01*
X58076060Y31166321D01*
X58062074Y31073674D01*
X58059323Y31005416D01*
X57902372Y31005416D01*
X57905348Y31083665D01*
X57914225Y31158141D01*
X57928922Y31228666D01*
X57949362Y31295066D01*
X57990618Y31386544D01*
X58044352Y31467751D01*
X58110300Y31538093D01*
X58188196Y31596975D01*
X58277774Y31643806D01*
X58343852Y31668037D01*
X58414926Y31686473D01*
X58490916Y31698937D01*
X58571745Y31705253D01*
X58613949Y31706051D01*
X58683925Y31686919D01*
G37*
G36*
X57165407Y31706822D02*
G01*
X57212220Y31650806D01*
X57240433Y31581191D01*
X57247899Y31555597D01*
X57559748Y30462073D01*
X57567519Y30388885D01*
X57530413Y30329614D01*
X57498883Y30322904D01*
X57437160Y30355177D01*
X57418527Y30395395D01*
X57316629Y30752038D01*
X56869713Y30752038D01*
X56767815Y30395395D01*
X56728703Y30335472D01*
X56685408Y30322904D01*
X56624201Y30361183D01*
X56619331Y30431454D01*
X56624542Y30454208D01*
X56756311Y30908989D01*
X56912798Y30908989D01*
X57273545Y30908989D01*
X57093000Y31539868D01*
X56912798Y30908989D01*
X56756311Y30908989D01*
X56944256Y31557649D01*
X56968964Y31629001D01*
X57009264Y31692611D01*
X57071077Y31726167D01*
X57095052Y31728277D01*
X57165407Y31706822D01*
G37*
G36*
X56307222Y31640056D02*
G01*
X56274595Y31578079D01*
X56209085Y31561752D01*
X55895526Y31561752D01*
X55895526Y30422750D01*
X55876250Y30353336D01*
X55817222Y30324955D01*
X55755657Y30357531D01*
X55738576Y30422750D01*
X55738576Y31561752D01*
X55425017Y31561752D01*
X55356244Y31581029D01*
X55327222Y31640056D01*
X55358984Y31701621D01*
X55425017Y31718703D01*
X56209085Y31718703D01*
X56278798Y31700024D01*
X56307222Y31640056D01*
G37*
G36*
X54944933Y31457802D02*
G01*
X54903427Y31399979D01*
X54874494Y31393176D01*
X54809522Y31421322D01*
X54795847Y31432157D01*
X54539392Y31659547D01*
X54539392Y30418989D01*
X54522311Y30352665D01*
X54460746Y30320852D01*
X54399368Y30353479D01*
X54382442Y30418989D01*
X54382442Y31722464D01*
X54396723Y31793023D01*
X54449175Y31842076D01*
X54495966Y31850007D01*
X54563893Y31836213D01*
X54621250Y31797860D01*
X54635136Y31785039D01*
X54891933Y31557649D01*
X54935414Y31504741D01*
X54944933Y31457802D01*
G37*
G36*
X58294577Y27962355D02*
G01*
X58223903Y27968807D01*
X58157139Y27986788D01*
X58081772Y28022331D01*
X58018489Y28068633D01*
X57970609Y28121663D01*
X57938156Y28188503D01*
X57933831Y28221204D01*
X57964836Y28283651D01*
X58000509Y28293695D01*
X58065419Y28260071D01*
X58110742Y28206500D01*
X58170153Y28152929D01*
X58245166Y28123616D01*
X58294577Y28119305D01*
X58376182Y28130319D01*
X58444956Y28162214D01*
X58501500Y28213270D01*
X58546416Y28281770D01*
X58580304Y28365993D01*
X58598845Y28438445D01*
X58611775Y28518050D01*
X58619346Y28604082D01*
X58621814Y28695816D01*
X58618644Y28779845D01*
X58609255Y28859254D01*
X58593829Y28933249D01*
X58572550Y29001032D01*
X58535389Y29080371D01*
X58488577Y29145364D01*
X58432550Y29194124D01*
X58367739Y29224765D01*
X58294577Y29235398D01*
X58218522Y29223933D01*
X58153657Y29180111D01*
X58111750Y29115952D01*
X58064037Y29064985D01*
X58039832Y29060666D01*
X57978637Y29092289D01*
X57963237Y29137261D01*
X57980758Y29215021D01*
X58022207Y29279491D01*
X58073958Y29326574D01*
X58140204Y29363496D01*
X58219865Y29386389D01*
X58292526Y29392006D01*
X58384240Y29381645D01*
X58465516Y29354915D01*
X58536664Y29313445D01*
X58597994Y29258864D01*
X58649813Y29192798D01*
X58692432Y29116876D01*
X58726161Y29032726D01*
X58751308Y28941976D01*
X58768182Y28846253D01*
X58777094Y28747186D01*
X58778764Y28680087D01*
X58777309Y28610605D01*
X58772826Y28542237D01*
X58760044Y28442791D01*
X58739470Y28348465D01*
X58710515Y28260830D01*
X58672592Y28181453D01*
X58625112Y28111904D01*
X58567486Y28053750D01*
X58499128Y28008562D01*
X58419447Y27977908D01*
X58327856Y27963356D01*
X58294577Y27962355D01*
G37*
G36*
X57411909Y29334919D02*
G01*
X57451663Y29277162D01*
X57459560Y29216933D01*
X57459560Y28144609D01*
X57451375Y28072967D01*
X57415545Y28011669D01*
X57348648Y27988132D01*
X57341933Y27988000D01*
X57272238Y27990503D01*
X57203856Y27998038D01*
X57104706Y28018857D01*
X57010981Y28051215D01*
X56924163Y28095240D01*
X56845735Y28151063D01*
X56777179Y28218814D01*
X56719979Y28298624D01*
X56675616Y28390622D01*
X56653905Y28458790D01*
X56638998Y28532471D01*
X56631334Y28611705D01*
X56630355Y28653416D01*
X56787306Y28653416D01*
X56793818Y28555087D01*
X56812535Y28469921D01*
X56842228Y28397014D01*
X56881667Y28335464D01*
X56929625Y28284368D01*
X56984871Y28242823D01*
X57046177Y28209927D01*
X57112314Y28184776D01*
X57182053Y28166469D01*
X57254165Y28154102D01*
X57302951Y28148712D01*
X57302951Y29191629D01*
X57226307Y29185071D01*
X57152642Y29170686D01*
X57082952Y29148038D01*
X57018232Y29116694D01*
X56959479Y29076219D01*
X56907688Y29026179D01*
X56863854Y28966139D01*
X56828974Y28895664D01*
X56804044Y28814321D01*
X56790058Y28721674D01*
X56787306Y28653416D01*
X56630355Y28653416D01*
X56633332Y28731665D01*
X56642208Y28806141D01*
X56656905Y28876666D01*
X56677345Y28943066D01*
X56718601Y29034544D01*
X56772336Y29115751D01*
X56838283Y29186093D01*
X56916179Y29244975D01*
X57005757Y29291806D01*
X57071835Y29316037D01*
X57142909Y29334473D01*
X57218899Y29346937D01*
X57299728Y29353253D01*
X57341933Y29354051D01*
X57411909Y29334919D01*
G37*
G36*
X11495889Y35223125D02*
G01*
X11573465Y35203631D01*
X11637849Y35165447D01*
X11688634Y35111862D01*
X11725413Y35046161D01*
X11747778Y34971632D01*
X11755324Y34891562D01*
X11753960Y34855328D01*
X11739054Y34770964D01*
X11708801Y34697183D01*
X11664549Y34636105D01*
X11607644Y34589853D01*
X11539430Y34560546D01*
X11461256Y34550305D01*
X11413223Y34554092D01*
X11338691Y34576266D01*
X11273126Y34616310D01*
X11218906Y34671961D01*
X11178410Y34740957D01*
X11154017Y34821037D01*
X11147697Y34891562D01*
X11150758Y34945613D01*
X11169089Y35027322D01*
X11203199Y35097135D01*
X11252210Y35153409D01*
X11315246Y35194499D01*
X11391430Y35218762D01*
X11461256Y35224953D01*
X11495889Y35223125D01*
G37*
G36*
X12087321Y31894006D02*
G01*
X10835190Y31894006D01*
X10835190Y33456987D01*
X11010237Y33456987D01*
X11012806Y33406459D01*
X11025582Y33333940D01*
X11047701Y33264741D01*
X11077627Y33198185D01*
X11113827Y33133590D01*
X11154764Y33070278D01*
X11198905Y33007569D01*
X11244713Y32944784D01*
X11290655Y32881242D01*
X11335194Y32816264D01*
X11376796Y32749171D01*
X11412283Y32679513D01*
X11441167Y32607490D01*
X11464023Y32533496D01*
X11481430Y32457923D01*
X11493964Y32381165D01*
X11502203Y32303612D01*
X11506723Y32225659D01*
X11508101Y32147698D01*
X11525182Y32082189D01*
X11586748Y32049562D01*
X11648006Y32081375D01*
X11665052Y32147698D01*
X11663217Y32238778D01*
X11657358Y32329637D01*
X11646948Y32419831D01*
X11631456Y32508915D01*
X11610355Y32596444D01*
X11583114Y32681974D01*
X11549206Y32765060D01*
X11508101Y32845256D01*
X11466212Y32913052D01*
X11420084Y32980119D01*
X11372080Y33047010D01*
X11324565Y33114277D01*
X11279903Y33182474D01*
X11240459Y33252154D01*
X11208595Y33323869D01*
X11186678Y33398173D01*
X11814138Y33398173D01*
X11879356Y33415099D01*
X11911933Y33476477D01*
X11883551Y33536445D01*
X11814138Y33555123D01*
X11108374Y33555123D01*
X11098199Y33554603D01*
X11035432Y33522496D01*
X11010237Y33456987D01*
X10835190Y33456987D01*
X10835190Y34891562D01*
X10990746Y34891562D01*
X10993295Y34835928D01*
X11006234Y34757544D01*
X11029257Y34685618D01*
X11061404Y34620570D01*
X11101716Y34562824D01*
X11149231Y34512803D01*
X11222130Y34458854D01*
X11303854Y34420391D01*
X11392125Y34398415D01*
X11461256Y34393355D01*
X11484485Y34393911D01*
X11574712Y34407026D01*
X11659138Y34436924D01*
X11735764Y34482749D01*
X11802589Y34543643D01*
X11845073Y34598686D01*
X11880077Y34661361D01*
X11906755Y34731307D01*
X11924266Y34808161D01*
X11931765Y34891562D01*
X11929667Y34946341D01*
X11920880Y35016278D01*
X11901760Y35098737D01*
X11875527Y35175711D01*
X11844248Y35247232D01*
X11809988Y35313331D01*
X11774815Y35374039D01*
X11729209Y35446958D01*
X11682133Y35517440D01*
X11633558Y35585807D01*
X11583456Y35652378D01*
X11531800Y35717475D01*
X11478561Y35781418D01*
X11423711Y35844527D01*
X11367222Y35907123D01*
X11361978Y35912352D01*
X11296441Y35936530D01*
X11252780Y35920300D01*
X11221898Y35857884D01*
X11221921Y35855511D01*
X11247543Y35791548D01*
X11284864Y35753873D01*
X11333874Y35701609D01*
X11381719Y35647538D01*
X11428060Y35592221D01*
X11472563Y35536218D01*
X11514889Y35480092D01*
X11554703Y35424402D01*
X11600425Y35356258D01*
X11532251Y35372030D01*
X11461256Y35381904D01*
X11412357Y35379819D01*
X11342064Y35368981D01*
X11276084Y35349093D01*
X11196077Y35308892D01*
X11126753Y35253548D01*
X11069834Y35183602D01*
X11036324Y35121885D01*
X11011487Y35052487D01*
X10996053Y34975637D01*
X10990746Y34891562D01*
X10835190Y34891562D01*
X10835190Y37293485D01*
X11063237Y37293485D01*
X11067349Y37225119D01*
X11088074Y37131544D01*
X11124616Y37048581D01*
X11175114Y36976049D01*
X11237709Y36913769D01*
X11310542Y36861563D01*
X11391754Y36819250D01*
X11479483Y36786652D01*
X11571872Y36763590D01*
X11667060Y36749884D01*
X11763189Y36745355D01*
X11828407Y36761682D01*
X11860983Y36823659D01*
X11831833Y36883627D01*
X11763189Y36902305D01*
X11735414Y36902783D01*
X11654498Y36909801D01*
X11577888Y36924808D01*
X11506472Y36947302D01*
X11441140Y36976784D01*
X11382780Y37012752D01*
X11317351Y37069936D01*
X11268006Y37136577D01*
X11236853Y37211489D01*
X11226001Y37293485D01*
X11228818Y37338076D01*
X11246929Y37408852D01*
X11283635Y37472628D01*
X11341043Y37526438D01*
X11403288Y37560317D01*
X11481207Y37584400D01*
X11550581Y37595121D01*
X11629832Y37598837D01*
X11662394Y37597716D01*
X11733782Y37593024D01*
X11738348Y37593127D01*
X11800587Y37621665D01*
X11821660Y37690819D01*
X11794305Y38166800D01*
X11763744Y38232837D01*
X11696510Y38259123D01*
X11198646Y38259123D01*
X11132322Y38242042D01*
X11100509Y38180477D01*
X11129702Y38122219D01*
X11198646Y38102173D01*
X11643510Y38102173D01*
X11659239Y37755788D01*
X11594730Y37757651D01*
X11503058Y37752359D01*
X11418107Y37737505D01*
X11340567Y37713246D01*
X11271128Y37679744D01*
X11210480Y37637155D01*
X11159312Y37585639D01*
X11118314Y37525355D01*
X11088176Y37456462D01*
X11069587Y37379119D01*
X11063237Y37293485D01*
X10835190Y37293485D01*
X10835190Y38414679D01*
X12087321Y38414679D01*
X12087321Y31894006D01*
G37*
G36*
X9894577Y36745355D02*
G01*
X9823903Y36751807D01*
X9757139Y36769788D01*
X9681772Y36805331D01*
X9618489Y36851633D01*
X9570609Y36904663D01*
X9538156Y36971503D01*
X9533831Y37004204D01*
X9564836Y37066651D01*
X9600509Y37076695D01*
X9665419Y37043071D01*
X9710742Y36989500D01*
X9770153Y36935929D01*
X9845166Y36906616D01*
X9894577Y36902305D01*
X9976182Y36913319D01*
X10044956Y36945214D01*
X10101500Y36996270D01*
X10146416Y37064770D01*
X10180304Y37148993D01*
X10198845Y37221445D01*
X10211775Y37301050D01*
X10219346Y37387082D01*
X10221814Y37478816D01*
X10218644Y37562845D01*
X10209255Y37642254D01*
X10193829Y37716249D01*
X10172550Y37784032D01*
X10135389Y37863371D01*
X10088577Y37928364D01*
X10032550Y37977124D01*
X9967739Y38007765D01*
X9894577Y38018398D01*
X9818522Y38006933D01*
X9753657Y37963111D01*
X9711750Y37898952D01*
X9664037Y37847985D01*
X9639832Y37843666D01*
X9578637Y37875289D01*
X9563237Y37920261D01*
X9580758Y37998021D01*
X9622207Y38062491D01*
X9673958Y38109574D01*
X9740204Y38146496D01*
X9819865Y38169389D01*
X9892526Y38175006D01*
X9984240Y38164645D01*
X10065516Y38137915D01*
X10136664Y38096445D01*
X10197994Y38041864D01*
X10249813Y37975798D01*
X10292432Y37899876D01*
X10326161Y37815726D01*
X10351308Y37724976D01*
X10368182Y37629253D01*
X10377094Y37530186D01*
X10378764Y37463087D01*
X10377309Y37393605D01*
X10372826Y37325237D01*
X10360044Y37225791D01*
X10339470Y37131465D01*
X10310515Y37043830D01*
X10272592Y36964453D01*
X10225112Y36894904D01*
X10167486Y36836750D01*
X10099128Y36791562D01*
X10019447Y36760908D01*
X9927856Y36746356D01*
X9894577Y36745355D01*
G37*
G36*
X10306273Y34555776D02*
G01*
X10287649Y34487563D01*
X10253763Y34426390D01*
X10188128Y34397226D01*
X10182491Y34397116D01*
X10113657Y34420342D01*
X10073781Y34480008D01*
X10051186Y34553725D01*
X9962965Y34928149D01*
X9851493Y34553725D01*
X9827915Y34487853D01*
X9791422Y34429117D01*
X9724482Y34397287D01*
X9718136Y34397116D01*
X9653699Y34428599D01*
X9622110Y34494633D01*
X9604270Y34557828D01*
X9581611Y34658284D01*
X9568201Y34732309D01*
X9556087Y34810718D01*
X9545218Y34892430D01*
X9535540Y34976365D01*
X9527003Y35061442D01*
X9519554Y35146581D01*
X9513140Y35230701D01*
X9507710Y35312722D01*
X9503212Y35391564D01*
X9499594Y35466146D01*
X9496803Y35535388D01*
X9494053Y35626875D01*
X9492873Y35700268D01*
X9492798Y35720082D01*
X9515395Y35788624D01*
X9571102Y35814116D01*
X9632884Y35781488D01*
X9651458Y35715979D01*
X9654772Y35623073D01*
X9658313Y35524904D01*
X9662292Y35422830D01*
X9665291Y35353280D01*
X9668639Y35282998D01*
X9672400Y35212386D01*
X9676634Y35141845D01*
X9681404Y35071778D01*
X9686772Y35002586D01*
X9696081Y34901318D01*
X9707086Y34804277D01*
X9719995Y34712822D01*
X9729762Y34655623D01*
X9865170Y35133997D01*
X9886761Y35201422D01*
X9927874Y35260716D01*
X9965017Y35271115D01*
X10026780Y35234356D01*
X10055162Y35169284D01*
X10065205Y35129894D01*
X10170865Y34653571D01*
X10182677Y34738262D01*
X10194859Y34830350D01*
X10207147Y34928343D01*
X10219281Y35030746D01*
X10227154Y35100730D01*
X10234765Y35171568D01*
X10242035Y35242818D01*
X10248887Y35314040D01*
X10255242Y35384789D01*
X10261025Y35454625D01*
X10266156Y35523103D01*
X10272462Y35622311D01*
X10276866Y35715979D01*
X10296015Y35784153D01*
X10355170Y35814116D01*
X10418082Y35780339D01*
X10433475Y35720082D01*
X10431965Y35638725D01*
X10427596Y35542387D01*
X10423217Y35471417D01*
X10417747Y35396155D01*
X10411259Y35317548D01*
X10403826Y35236543D01*
X10395519Y35154086D01*
X10386411Y35071124D01*
X10376574Y34988604D01*
X10366079Y34907473D01*
X10355000Y34828677D01*
X10343407Y34753162D01*
X10331374Y34681876D01*
X10312655Y34584947D01*
X10306273Y34555776D01*
G37*
G36*
X10283925Y33413919D02*
G01*
X10323680Y33356162D01*
X10331577Y33295933D01*
X10331577Y32223609D01*
X10323391Y32151967D01*
X10287562Y32090669D01*
X10220665Y32067132D01*
X10213949Y32067000D01*
X10144255Y32069503D01*
X10075873Y32077038D01*
X9976723Y32097857D01*
X9882998Y32130215D01*
X9796180Y32174240D01*
X9717752Y32230063D01*
X9649196Y32297814D01*
X9591996Y32377624D01*
X9547633Y32469622D01*
X9525922Y32537790D01*
X9511015Y32611471D01*
X9503351Y32690705D01*
X9502372Y32732416D01*
X9659323Y32732416D01*
X9665835Y32634087D01*
X9684552Y32548921D01*
X9714244Y32476014D01*
X9753684Y32414464D01*
X9801641Y32363368D01*
X9856888Y32321823D01*
X9918194Y32288927D01*
X9984331Y32263776D01*
X10054070Y32245469D01*
X10126182Y32233102D01*
X10174968Y32227712D01*
X10174968Y33270629D01*
X10098324Y33264071D01*
X10024659Y33249686D01*
X9954969Y33227038D01*
X9890249Y33195694D01*
X9831496Y33155219D01*
X9779705Y33105179D01*
X9735871Y33045139D01*
X9700991Y32974664D01*
X9676060Y32893321D01*
X9662074Y32800674D01*
X9659323Y32732416D01*
X9502372Y32732416D01*
X9505348Y32810665D01*
X9514225Y32885141D01*
X9528922Y32955666D01*
X9549362Y33022066D01*
X9590618Y33113544D01*
X9644352Y33194751D01*
X9710300Y33265093D01*
X9788196Y33323975D01*
X9877774Y33370806D01*
X9943852Y33395037D01*
X10014926Y33413473D01*
X10090916Y33425937D01*
X10171745Y33432253D01*
X10213949Y33433051D01*
X10283925Y33413919D01*
G37*
G36*
X52426704Y41542936D02*
G01*
X48229991Y41542936D01*
X48229991Y41812016D01*
X48389993Y41812016D01*
X48397924Y41765225D01*
X48446977Y41712774D01*
X48517536Y41698492D01*
X49821011Y41698492D01*
X49886521Y41715419D01*
X49919148Y41776797D01*
X49900949Y41812016D01*
X50741993Y41812016D01*
X50749924Y41765225D01*
X50798977Y41712774D01*
X50869536Y41698492D01*
X52173011Y41698492D01*
X52238521Y41715419D01*
X52271148Y41776797D01*
X52239335Y41838362D01*
X52173011Y41855443D01*
X50932453Y41855443D01*
X51159843Y42111898D01*
X51170678Y42125573D01*
X51198824Y42190544D01*
X51192021Y42219477D01*
X51134198Y42260984D01*
X51087259Y42251465D01*
X51034351Y42207983D01*
X50806961Y41951186D01*
X50794140Y41937300D01*
X50755787Y41879943D01*
X50741993Y41812016D01*
X49900949Y41812016D01*
X49887335Y41838362D01*
X49821011Y41855443D01*
X48580453Y41855443D01*
X48807843Y42111898D01*
X48818678Y42125573D01*
X48846824Y42190544D01*
X48840021Y42219477D01*
X48782198Y42260984D01*
X48735259Y42251465D01*
X48682351Y42207983D01*
X48454961Y41951186D01*
X48442140Y41937300D01*
X48403787Y41879943D01*
X48389993Y41812016D01*
X48229991Y41812016D01*
X48229991Y43070356D01*
X48385547Y43070356D01*
X48392947Y43040133D01*
X48448122Y42997864D01*
X48464463Y42998669D01*
X48532581Y43017697D01*
X49396664Y43411612D01*
X49396664Y43040949D01*
X49149783Y43040949D01*
X49084429Y43024023D01*
X49051988Y42962645D01*
X49081010Y42902078D01*
X49149783Y42884340D01*
X49396664Y42884340D01*
X49396664Y42760900D01*
X49413745Y42694577D01*
X49475310Y42662763D01*
X49534337Y42691956D01*
X49553614Y42760900D01*
X49553614Y42884340D01*
X49816224Y42884340D01*
X49881733Y42899638D01*
X49914361Y42962645D01*
X49885168Y43021672D01*
X49816224Y43040949D01*
X49553614Y43040949D01*
X49553614Y43084033D01*
X50741993Y43084033D01*
X50749924Y43037242D01*
X50798977Y42984791D01*
X50869536Y42970509D01*
X52173011Y42970509D01*
X52238521Y42987435D01*
X52271148Y43048813D01*
X52239335Y43110379D01*
X52173011Y43127460D01*
X50932453Y43127460D01*
X51159843Y43383915D01*
X51170678Y43397590D01*
X51198824Y43462561D01*
X51192021Y43491494D01*
X51134198Y43533000D01*
X51087259Y43523482D01*
X51034351Y43480000D01*
X50806961Y43223203D01*
X50794140Y43209317D01*
X50755787Y43151960D01*
X50741993Y43084033D01*
X49553614Y43084033D01*
X49553614Y43393831D01*
X49552818Y43424883D01*
X49542162Y43496913D01*
X49508470Y43559979D01*
X49440090Y43586001D01*
X49413258Y43583720D01*
X49344904Y43562287D01*
X49279378Y43530949D01*
X48442309Y43149002D01*
X48415205Y43132965D01*
X48385547Y43070356D01*
X48229991Y43070356D01*
X48229991Y43741557D01*
X52426704Y43741557D01*
X52426704Y41542936D01*
G37*
%LPC*%
D11*
%TO.C,V1*%
X0Y45000000D02*
X70000000Y45000000D01*
%TO.C,PCB1*%
G36*
X0Y70000000D02*
G01*
X70000000Y70000000D01*
X70000000Y63000000D01*
X0Y63000000D01*
X0Y70000000D01*
G37*
G36*
X0Y7000000D02*
G01*
X70000000Y7000000D01*
X70000000Y0D01*
X0Y0D01*
X0Y7000000D01*
G37*
%TO.C,U2*%
G36*
X27350000Y26200000D02*
G01*
X28691264Y26200000D01*
X28691264Y25552882D01*
X27350000Y25552882D01*
X27350000Y26200000D01*
G37*
D12*
X28275000Y26200000D02*
G75*
G02*
X27725000Y26200000I-275000J0D01*
G01*
X27725000Y26200000D02*
G75*
G02*
X28275000Y26200000I275000J0D01*
G01*
D11*
%TO.C,V2*%
X70500000Y25000000D02*
X500000Y25000000D01*
%TO.C,U1*%
G36*
X28650000Y43800000D02*
G01*
X27308736Y43800000D01*
X27308736Y44447118D01*
X28650000Y44447118D01*
X28650000Y43800000D01*
G37*
D12*
X28275000Y43800000D02*
G75*
G02*
X27725000Y43800000I-275000J0D01*
G01*
X27725000Y43800000D02*
G75*
G02*
X28275000Y43800000I275000J0D01*
G01*
%TD*%
D13*
%TO.C,PCB1*%
X2000000Y2000000D03*
D14*
X5000000Y65000000D03*
X5000000Y5000000D03*
D15*
X10000000Y66150000D03*
X10000000Y3850000D03*
D16*
X32000000Y66500000D03*
D15*
X32000000Y3500000D03*
X35000000Y66500000D03*
X35000000Y3500000D03*
X38000000Y66500000D03*
D16*
X38000000Y3500000D03*
D15*
X60000000Y66150000D03*
X60000000Y3850000D03*
D14*
X65000000Y65000000D03*
X65000000Y5000000D03*
D13*
X68000000Y68000000D03*
%TD*%
D17*
%TO.C,J4*%
X36800000Y42000000D03*
X37900000Y42000000D03*
X39000000Y42000000D03*
X40100000Y42000000D03*
X41200000Y42000000D03*
X42300000Y42000000D03*
X43400000Y42000000D03*
X44500000Y42000000D03*
X45600000Y42000000D03*
D18*
X46800000Y31400000D03*
D19*
X46800000Y41000000D03*
D20*
X44000000Y31000000D03*
X36000000Y31000000D03*
D21*
X32200000Y41000000D03*
D18*
X31300000Y31400000D03*
%TD*%
D22*
%TO.C,C8*%
X29500000Y40500000D03*
X28500000Y40500000D03*
%TD*%
%TO.C,C13*%
X27000000Y29500000D03*
X26000000Y29500000D03*
%TD*%
D23*
%TO.C,U2*%
X28000000Y25300000D03*
D24*
X28900000Y28289000D03*
X28900000Y27467000D03*
D25*
X27338000Y26215000D03*
D24*
X27100000Y27467000D03*
X27100000Y28289000D03*
X28000000Y28289000D03*
%TD*%
D26*
%TO.C,J3*%
X53110000Y31700000D03*
X48030000Y30684000D03*
X48030000Y32716000D03*
D27*
X51840000Y31065000D03*
X51840000Y32335000D03*
X50570000Y31065000D03*
X50570000Y32335000D03*
X49300000Y31065000D03*
X49300000Y32335000D03*
%TD*%
D23*
%TO.C,U1*%
X28000000Y44700000D03*
D28*
X27100000Y41711000D03*
X27100000Y42533000D03*
D29*
X28662000Y43785000D03*
D28*
X28900000Y42533000D03*
X28900000Y41711000D03*
X28000000Y41711000D03*
%TD*%
%LPD*%
M02*
