%TF.GenerationSoftware,KiCad,Pcbnew,8.0.5*%
%TF.CreationDate,2024-12-20T09:27:37+00:00*%
%TF.ProjectId,Recorder,5265636f-7264-4657-922e-6b696361645f,1*%
%TF.SameCoordinates,Original*%
%TF.FileFunction,Legend,Top*%
%TF.FilePolarity,Positive*%
%FSLAX46Y46*%
G04 Gerber Fmt 4.6, Leading zero omitted, Abs format (unit mm)*
G04 Created by KiCad (PCBNEW 8.0.5) date 2024-12-20 09:27:37*
%MOMM*%
%LPD*%
G01*
G04 APERTURE LIST*
G04 Aperture macros list*
%AMRoundRect*
0 Rectangle with rounded corners*
0 $1 Rounding radius*
0 $2 $3 $4 $5 $6 $7 $8 $9 X,Y pos of 4 corners*
0 Add a 4 corners polygon primitive as box body*
4,1,4,$2,$3,$4,$5,$6,$7,$8,$9,$2,$3,0*
0 Add four circle primitives for the rounded corners*
1,1,$1+$1,$2,$3*
1,1,$1+$1,$4,$5*
1,1,$1+$1,$6,$7*
1,1,$1+$1,$8,$9*
0 Add four rect primitives between the rounded corners*
20,1,$1+$1,$2,$3,$4,$5,0*
20,1,$1+$1,$4,$5,$6,$7,0*
20,1,$1+$1,$6,$7,$8,$9,0*
20,1,$1+$1,$8,$9,$2,$3,0*%
%AMRotRect*
0 Rectangle, with rotation*
0 The origin of the aperture is its center*
0 $1 length*
0 $2 width*
0 $3 Rotation angle, in degrees counterclockwise*
0 Add horizontal line*
21,1,$1,$2,0,0,$3*%
%AMOutline5P*
0 Free polygon, 5 corners , with rotation*
0 The origin of the aperture is its center*
0 number of corners: always 5*
0 $1 to $10 corner X, Y*
0 $11 Rotation angle, in degrees counterclockwise*
0 create outline with 5 corners*
4,1,5,$1,$2,$3,$4,$5,$6,$7,$8,$9,$10,$1,$2,$11*%
%AMOutline6P*
0 Free polygon, 6 corners , with rotation*
0 The origin of the aperture is its center*
0 number of corners: always 6*
0 $1 to $12 corner X, Y*
0 $13 Rotation angle, in degrees counterclockwise*
0 create outline with 6 corners*
4,1,6,$1,$2,$3,$4,$5,$6,$7,$8,$9,$10,$11,$12,$1,$2,$13*%
%AMOutline7P*
0 Free polygon, 7 corners , with rotation*
0 The origin of the aperture is its center*
0 number of corners: always 7*
0 $1 to $14 corner X, Y*
0 $15 Rotation angle, in degrees counterclockwise*
0 create outline with 7 corners*
4,1,7,$1,$2,$3,$4,$5,$6,$7,$8,$9,$10,$11,$12,$13,$14,$1,$2,$15*%
%AMOutline8P*
0 Free polygon, 8 corners , with rotation*
0 The origin of the aperture is its center*
0 number of corners: always 8*
0 $1 to $16 corner X, Y*
0 $17 Rotation angle, in degrees counterclockwise*
0 create outline with 8 corners*
4,1,8,$1,$2,$3,$4,$5,$6,$7,$8,$9,$10,$11,$12,$13,$14,$15,$16,$1,$2,$17*%
G04 Aperture macros list end*
%ADD10C,0.150000*%
%ADD11C,0.100000*%
%ADD12C,0.125000*%
%ADD13C,0.000000*%
%ADD14C,0.200000*%
%ADD15C,0.500000*%
%ADD16C,0.120000*%
%ADD17RoundRect,0.135000X0.185000X-0.135000X0.185000X0.135000X-0.185000X0.135000X-0.185000X-0.135000X0*%
%ADD18Outline5P,-0.225000X0.198000X-0.198000X0.225000X0.225000X0.225000X0.225000X-0.225000X-0.225000X-0.225000X45.000000*%
%ADD19RotRect,0.480000X0.480000X45.000000*%
%ADD20Outline5P,-0.225000X0.198000X-0.198000X0.225000X0.225000X0.225000X0.225000X-0.225000X-0.225000X-0.225000X225.000000*%
%ADD21RoundRect,0.150000X-0.512500X-0.150000X0.512500X-0.150000X0.512500X0.150000X-0.512500X0.150000X0*%
%ADD22Outline5P,-0.225000X0.198000X-0.198000X0.225000X0.225000X0.225000X0.225000X-0.225000X-0.225000X-0.225000X90.000000*%
%ADD23R,0.480000X0.480000*%
%ADD24Outline5P,-0.225000X0.198000X-0.198000X0.225000X0.225000X0.225000X0.225000X-0.225000X-0.225000X-0.225000X270.000000*%
%ADD25C,2.000000*%
%ADD26RoundRect,0.175000X-0.175000X0.175000X-0.175000X-0.175000X0.175000X-0.175000X0.175000X0.175000X0*%
%ADD27RoundRect,0.135000X0.135000X0.185000X-0.135000X0.185000X-0.135000X-0.185000X0.135000X-0.185000X0*%
%ADD28RoundRect,0.250000X-0.925000X0.412500X-0.925000X-0.412500X0.925000X-0.412500X0.925000X0.412500X0*%
%ADD29RoundRect,0.151200X-0.168800X0.118800X-0.168800X-0.118800X0.168800X-0.118800X0.168800X0.118800X0*%
%ADD30RoundRect,0.150000X0.512500X0.150000X-0.512500X0.150000X-0.512500X-0.150000X0.512500X-0.150000X0*%
%ADD31Outline5P,-0.225000X0.198000X-0.198000X0.225000X0.225000X0.225000X0.225000X-0.225000X-0.225000X-0.225000X0.000000*%
%ADD32Outline5P,-0.225000X0.198000X-0.198000X0.225000X0.225000X0.225000X0.225000X-0.225000X-0.225000X-0.225000X180.000000*%
%ADD33C,0.700000*%
%ADD34R,1.140000X0.600000*%
%ADD35RoundRect,0.075000X0.495000X-0.075000X0.495000X0.075000X-0.495000X0.075000X-0.495000X-0.075000X0*%
%ADD36O,1.600000X0.800000*%
%ADD37O,1.300000X0.800000*%
%ADD38R,4.800000X7.500000*%
%ADD39RoundRect,0.225000X-0.225000X-0.375000X0.225000X-0.375000X0.225000X0.375000X-0.225000X0.375000X0*%
%ADD40RoundRect,0.137500X-0.137500X-0.187500X0.137500X-0.187500X0.137500X0.187500X-0.137500X0.187500X0*%
%ADD41C,1.300000*%
%ADD42C,2.200000*%
%ADD43C,1.000000*%
%ADD44RoundRect,0.135000X-0.135000X-0.185000X0.135000X-0.185000X0.135000X0.185000X-0.135000X0.185000X0*%
%ADD45RoundRect,0.200000X0.200000X0.275000X-0.200000X0.275000X-0.200000X-0.275000X0.200000X-0.275000X0*%
%ADD46RoundRect,0.151200X-0.118800X-0.168800X0.118800X-0.168800X0.118800X0.168800X-0.118800X0.168800X0*%
%ADD47RoundRect,0.151200X0.118800X0.168800X-0.118800X0.168800X-0.118800X-0.168800X0.118800X-0.168800X0*%
%ADD48R,2.100000X2.900000*%
%ADD49R,0.500000X1.600000*%
%ADD50RoundRect,0.150000X0.587500X0.150000X-0.587500X0.150000X-0.587500X-0.150000X0.587500X-0.150000X0*%
%ADD51RoundRect,0.250000X0.475000X-0.250000X0.475000X0.250000X-0.475000X0.250000X-0.475000X-0.250000X0*%
%ADD52RoundRect,0.135000X-0.185000X0.135000X-0.185000X-0.135000X0.185000X-0.135000X0.185000X0.135000X0*%
%ADD53R,0.800000X0.400000*%
%ADD54R,0.400000X0.800000*%
%ADD55Outline5P,-0.600000X0.000000X0.000000X0.600000X0.600000X0.600000X0.600000X-0.600000X-0.600000X-0.600000X0.000000*%
%ADD56R,1.200000X1.200000*%
%ADD57R,0.800000X0.800000*%
%ADD58RoundRect,0.151200X0.168800X-0.118800X0.168800X0.118800X-0.168800X0.118800X-0.168800X-0.118800X0*%
%ADD59C,1.200000*%
%ADD60O,0.950000X2.700000*%
%ADD61C,1.050000*%
G04 APERTURE END LIST*
G36*
X35000000Y21500000D02*
G01*
X43000000Y21500000D01*
X43000000Y13500000D01*
X35000000Y13500000D01*
X35000000Y21500000D01*
G37*
D10*
G36*
X28780345Y43148374D02*
G01*
X28899011Y43123826D01*
X29001693Y43075367D01*
X29087810Y43006721D01*
X29156780Y42921611D01*
X29208022Y42823759D01*
X29240956Y42716889D01*
X29949260Y43122820D01*
X30041584Y43148221D01*
X30105110Y43130146D01*
X30151004Y43041732D01*
X30140031Y42997424D01*
X30069916Y42926937D01*
X29291270Y42492674D01*
X29291270Y42139987D01*
X30010809Y42139987D01*
X30104394Y42115807D01*
X30151004Y42028124D01*
X30105557Y41940174D01*
X30010809Y41915772D01*
X28328464Y41915772D01*
X28265401Y41924489D01*
X28185644Y41984060D01*
X28160425Y42083811D01*
X28160425Y42515144D01*
X28160904Y42526379D01*
X28384640Y42526379D01*
X28384640Y42139987D01*
X29067055Y42139987D01*
X29067055Y42532241D01*
X29063309Y42598189D01*
X29041363Y42696540D01*
X28991846Y42793803D01*
X28920652Y42866195D01*
X28831606Y42911359D01*
X28728534Y42926937D01*
X28657658Y42920525D01*
X28562191Y42887066D01*
X28483314Y42825393D01*
X28425045Y42735952D01*
X28395129Y42640525D01*
X28384640Y42526379D01*
X28160904Y42526379D01*
X28163795Y42594248D01*
X28180765Y42702575D01*
X28210655Y42798679D01*
X28267922Y42908138D01*
X28341714Y42996669D01*
X28428353Y43064729D01*
X28524156Y43112776D01*
X28625444Y43141268D01*
X28728534Y43150664D01*
X28780345Y43148374D01*
G37*
G36*
X30584806Y29285959D02*
G01*
X30652722Y29253889D01*
X30708358Y29201298D01*
X30747847Y29128891D01*
X30765629Y29053921D01*
X30768695Y29002736D01*
X30760581Y28925819D01*
X30737543Y28857770D01*
X30692955Y28790221D01*
X30633075Y28740848D01*
X30561285Y28712599D01*
X30508478Y28706958D01*
X30436351Y28715477D01*
X30371638Y28740146D01*
X30313439Y28779636D01*
X30260856Y28832615D01*
X30212987Y28897753D01*
X30177481Y28957723D01*
X30152177Y29006840D01*
X30188255Y29068314D01*
X30233231Y29130457D01*
X30285987Y29188732D01*
X30345403Y29238598D01*
X30410360Y29275515D01*
X30479739Y29294946D01*
X30508478Y29296805D01*
X30584806Y29285959D01*
G37*
G36*
X29794441Y29218724D02*
G01*
X29863510Y29180904D01*
X29913343Y29132871D01*
X29954925Y29075405D01*
X29988637Y29013226D01*
X29991608Y29006840D01*
X29993517Y29002736D01*
X29960934Y28940993D01*
X29920385Y28882553D01*
X29871695Y28832381D01*
X29804365Y28790919D01*
X29737432Y28775687D01*
X29725436Y28775346D01*
X29654836Y28792700D01*
X29596866Y28840571D01*
X29561292Y28902554D01*
X29544131Y28978882D01*
X29543182Y29002736D01*
X29551445Y29079082D01*
X29579627Y29148885D01*
X29631290Y29202674D01*
X29697867Y29228068D01*
X29725436Y29230126D01*
X29794441Y29218724D01*
G37*
G36*
X31081201Y28396503D02*
G01*
X29231017Y28396503D01*
X29231017Y29002736D01*
X29386573Y29002736D01*
X29392621Y28926645D01*
X29410333Y28855173D01*
X29439064Y28790025D01*
X29478170Y28732903D01*
X29540659Y28675382D01*
X29600749Y28642546D01*
X29669116Y28623270D01*
X29725436Y28618738D01*
X29801194Y28625864D01*
X29867539Y28645898D01*
X29936071Y28684134D01*
X29994072Y28734559D01*
X30043193Y28793684D01*
X30071821Y28836212D01*
X30111887Y28775602D01*
X30155772Y28720695D01*
X30216249Y28661196D01*
X30283271Y28613185D01*
X30357157Y28578094D01*
X30438230Y28557355D01*
X30508478Y28552059D01*
X30597776Y28561453D01*
X30678535Y28588289D01*
X30749716Y28630553D01*
X30810283Y28686228D01*
X30859197Y28753300D01*
X30895421Y28829752D01*
X30917916Y28913570D01*
X30925645Y29002736D01*
X30921183Y29073202D01*
X30901950Y29160898D01*
X30868608Y29240029D01*
X30822327Y29309050D01*
X30764278Y29366419D01*
X30695629Y29410594D01*
X30617552Y29440032D01*
X30531216Y29453190D01*
X30508478Y29453755D01*
X30438819Y29448460D01*
X30358052Y29427721D01*
X30284123Y29392630D01*
X30216853Y29344619D01*
X30156061Y29285120D01*
X30111971Y29230213D01*
X30071821Y29169603D01*
X30034297Y29230885D01*
X29983396Y29291596D01*
X29924107Y29337855D01*
X29854335Y29369175D01*
X29786672Y29383511D01*
X29725436Y29387077D01*
X29651872Y29379005D01*
X29585791Y29355971D01*
X29514801Y29308835D01*
X29468175Y29258611D01*
X29431361Y29199181D01*
X29405076Y29132315D01*
X29390039Y29059785D01*
X29386573Y29002736D01*
X29231017Y29002736D01*
X29231017Y29609311D01*
X31081201Y29609311D01*
X31081201Y28396503D01*
G37*
G36*
X54693719Y30451215D02*
G01*
X53909699Y30451215D01*
X53814951Y30424549D01*
X53770214Y30334490D01*
X53769504Y30316881D01*
X53814951Y30228931D01*
X53909699Y30204529D01*
X54693719Y30204529D01*
X54792881Y30231213D01*
X54833425Y30316881D01*
X54801846Y30413309D01*
X54708168Y30450812D01*
X54693719Y30451215D01*
G37*
G36*
X29934117Y26910399D02*
G01*
X30037992Y26929364D01*
X30111133Y27002623D01*
X30130000Y27106281D01*
X30130000Y28064202D01*
X30102461Y28162449D01*
X30018136Y28203909D01*
X29929290Y28158534D01*
X29906273Y28064202D01*
X29906273Y27134614D01*
X28276685Y27134614D01*
X28181937Y27110212D01*
X28136489Y27022262D01*
X28183100Y26934750D01*
X28276685Y26910399D01*
X29934117Y26910399D01*
G37*
G36*
X12590181Y30059556D02*
G01*
X12649761Y30049655D01*
X12653324Y30048808D01*
X12710635Y30031074D01*
X12727769Y30023309D01*
X12745355Y30013637D01*
X12777888Y29991948D01*
X12808076Y29970552D01*
X12855145Y29934622D01*
X12886625Y29905779D01*
X12924727Y29860057D01*
X12947295Y29823713D01*
X12959018Y29802318D01*
X12986315Y29750185D01*
X13003857Y29692461D01*
X13005913Y29680685D01*
X13009622Y29621540D01*
X13005913Y29583085D01*
X12989852Y29524698D01*
X12976604Y29502778D01*
X12971621Y29494865D01*
X12965759Y29486072D01*
X12961070Y29479331D01*
X12918595Y29437264D01*
X12864127Y29409958D01*
X12819800Y29395214D01*
X12761113Y29388413D01*
X12702270Y29387300D01*
X12641161Y29388473D01*
X12602619Y29391990D01*
X12543403Y29406876D01*
X12502382Y29418954D01*
X12445820Y29438547D01*
X12389160Y29464785D01*
X12367267Y29478452D01*
X12347630Y29490175D01*
X12315390Y29513916D01*
X12273184Y29551724D01*
X12235742Y29597950D01*
X12208704Y29650789D01*
X12201963Y29691236D01*
X12357302Y29691236D01*
X12380749Y29650203D01*
X12427113Y29613610D01*
X12482089Y29583076D01*
X12545676Y29558601D01*
X12607032Y29542444D01*
X12662996Y29532380D01*
X12725343Y29528998D01*
X12785995Y29539096D01*
X12806025Y29546156D01*
X12854971Y29577223D01*
X12866649Y29634703D01*
X12866695Y29640238D01*
X12852229Y29700265D01*
X12825662Y29753958D01*
X12787128Y29805630D01*
X12743622Y29846113D01*
X12692045Y29880414D01*
X12686443Y29883504D01*
X12629847Y29908292D01*
X12570480Y29917772D01*
X12514106Y29913106D01*
X12461349Y29901383D01*
X12407315Y29877611D01*
X12394524Y29865918D01*
X12410351Y29838368D01*
X12424127Y29809059D01*
X12409472Y29789422D01*
X12394524Y29771836D01*
X12386611Y29763923D01*
X12371956Y29747216D01*
X12359353Y29732562D01*
X12357595Y29724648D01*
X12361405Y29708821D01*
X12357302Y29691236D01*
X12201963Y29691236D01*
X12200791Y29698270D01*
X12194929Y29717028D01*
X12189067Y29737838D01*
X12185953Y29799883D01*
X12200667Y29857938D01*
X12210463Y29876470D01*
X12241890Y29927560D01*
X12243875Y29930106D01*
X12278167Y29967621D01*
X12310407Y29995465D01*
X12335906Y30009240D01*
X12361405Y30023015D01*
X12381042Y30030929D01*
X12398628Y30038842D01*
X12420316Y30047049D01*
X12479745Y30060019D01*
X12529933Y30062583D01*
X12590181Y30059556D01*
G37*
G36*
X12651579Y30923594D02*
G01*
X12672082Y30921341D01*
X12707253Y30913427D01*
X12740665Y30905514D01*
X12773785Y30889980D01*
X12793715Y30877963D01*
X12805438Y30872101D01*
X12816283Y30864481D01*
X12838558Y30842792D01*
X12877155Y30796961D01*
X12885745Y30781829D01*
X12912032Y30728422D01*
X12913296Y30724969D01*
X12926449Y30663677D01*
X12932749Y30600590D01*
X12929200Y30537782D01*
X12923261Y30509254D01*
X12908419Y30450152D01*
X12887998Y30393860D01*
X12879591Y30375604D01*
X12866108Y30346295D01*
X12903331Y30346295D01*
X12944657Y30346295D01*
X13006298Y30346295D01*
X13072583Y30346295D01*
X13099995Y30346295D01*
X13160202Y30346295D01*
X13221980Y30346295D01*
X13261196Y30346295D01*
X13322208Y30337145D01*
X13341796Y30336916D01*
X13386932Y30324020D01*
X13410672Y30299987D01*
X13414482Y30284453D01*
X13410672Y30253678D01*
X13404810Y30232283D01*
X13397190Y30212939D01*
X13340405Y30188330D01*
X13294901Y30191250D01*
X13235864Y30196019D01*
X13173561Y30199163D01*
X13110605Y30201679D01*
X13048323Y30203786D01*
X12988158Y30205535D01*
X12974259Y30205905D01*
X12910683Y30207776D01*
X12851772Y30209645D01*
X12817162Y30210887D01*
X12756497Y30214712D01*
X12697590Y30217688D01*
X12652445Y30218801D01*
X12592760Y30222705D01*
X12574189Y30224662D01*
X12515288Y30226272D01*
X12487727Y30218801D01*
X12428430Y30214994D01*
X12425299Y30214990D01*
X12365288Y30220266D01*
X12352612Y30224369D01*
X12325355Y30233748D01*
X12273245Y30266244D01*
X12264392Y30273316D01*
X12245927Y30287091D01*
X12232152Y30297349D01*
X12225411Y30303211D01*
X12201963Y30336330D01*
X12178223Y30383518D01*
X12168551Y30406086D01*
X12160637Y30428654D01*
X12152724Y30446239D01*
X12143931Y30486393D01*
X12141893Y30525318D01*
X12283678Y30525318D01*
X12295166Y30466170D01*
X12317117Y30410872D01*
X12354078Y30364174D01*
X12371663Y30354209D01*
X12397162Y30360071D01*
X12427644Y30360071D01*
X12487141Y30360071D01*
X12495055Y30360071D01*
X12555219Y30360071D01*
X12569500Y30360071D01*
X12716632Y30360071D01*
X12716632Y30371794D01*
X12735976Y30418982D01*
X12763258Y30473449D01*
X12777302Y30525081D01*
X12785340Y30587167D01*
X12782270Y30646224D01*
X12779353Y30662541D01*
X12757330Y30718512D01*
X12713196Y30761933D01*
X12688202Y30773330D01*
X12626982Y30784169D01*
X12564380Y30781553D01*
X12499032Y30770144D01*
X12491244Y30768347D01*
X12433590Y30751093D01*
X12406834Y30739038D01*
X12355149Y30707415D01*
X12338251Y30691850D01*
X12303303Y30643138D01*
X12285494Y30585751D01*
X12283678Y30525318D01*
X12141893Y30525318D01*
X12141000Y30542373D01*
X12138949Y30567872D01*
X12143052Y30611250D01*
X12159676Y30672167D01*
X12183636Y30727488D01*
X12189946Y30736693D01*
X12203722Y30760433D01*
X12234203Y30793553D01*
X12280219Y30831069D01*
X12333305Y30861335D01*
X12391559Y30886030D01*
X12423247Y30895842D01*
X12442884Y30903462D01*
X12464280Y30911376D01*
X12526636Y30922550D01*
X12591340Y30926397D01*
X12651579Y30923594D01*
G37*
G36*
X12404489Y31774237D02*
G01*
X12462582Y31765386D01*
X12512054Y31742876D01*
X12557776Y31706533D01*
X12585620Y31678103D01*
X12593533Y31654655D01*
X12607999Y31596368D01*
X12616889Y31531722D01*
X12623136Y31466198D01*
X12628377Y31400218D01*
X12630793Y31337046D01*
X12628047Y31277669D01*
X12617274Y31240517D01*
X12613464Y31222932D01*
X12588844Y31191278D01*
X12648268Y31182119D01*
X12692305Y31181606D01*
X12730407Y31193330D01*
X12781345Y31224008D01*
X12788146Y31230552D01*
X12824004Y31280194D01*
X12833868Y31310859D01*
X12837715Y31370870D01*
X12837972Y31404648D01*
X12835846Y31466648D01*
X12828300Y31518075D01*
X12823189Y31577481D01*
X12824489Y31596330D01*
X12859660Y31633553D01*
X12906555Y31633553D01*
X12918279Y31625639D01*
X12934985Y31611864D01*
X12943778Y31596330D01*
X12951691Y31578452D01*
X12969529Y31519457D01*
X12977520Y31456617D01*
X12979242Y31403476D01*
X12976980Y31339099D01*
X12968298Y31277110D01*
X12956087Y31238172D01*
X12928581Y31184678D01*
X12890663Y31134009D01*
X12854971Y31103057D01*
X12805350Y31071337D01*
X12771733Y31059973D01*
X12732752Y31052059D01*
X12668815Y31044393D01*
X12603731Y31048790D01*
X12540411Y31061292D01*
X12481403Y31078438D01*
X12460763Y31085472D01*
X12404160Y31108660D01*
X12350304Y31140262D01*
X12324182Y31161969D01*
X12298683Y31181606D01*
X12253274Y31222134D01*
X12238013Y31239345D01*
X12201304Y31285507D01*
X12177344Y31324341D01*
X12151771Y31379736D01*
X12145983Y31400545D01*
X12134253Y31458299D01*
X12133966Y31459457D01*
X12133273Y31489804D01*
X12268347Y31489804D01*
X12282278Y31430426D01*
X12296632Y31397614D01*
X12328256Y31345593D01*
X12368352Y31301608D01*
X12396576Y31277740D01*
X12446644Y31243833D01*
X12452263Y31240517D01*
X12482159Y31224690D01*
X12482159Y31285727D01*
X12482159Y31289463D01*
X12480098Y31349579D01*
X12474456Y31411032D01*
X12472780Y31424872D01*
X12465745Y31485835D01*
X12463401Y31519247D01*
X12457507Y31578171D01*
X12456367Y31584020D01*
X12439660Y31607468D01*
X12396576Y31625053D01*
X12336846Y31620710D01*
X12330044Y31617433D01*
X12301907Y31587831D01*
X12276995Y31548556D01*
X12268347Y31489804D01*
X12133273Y31489804D01*
X12132554Y31521322D01*
X12146184Y31583074D01*
X12147741Y31588417D01*
X12173771Y31642602D01*
X12178223Y31649966D01*
X12212075Y31698656D01*
X12222187Y31709757D01*
X12271222Y31747160D01*
X12327470Y31768879D01*
X12390932Y31774912D01*
X12404489Y31774237D01*
G37*
G36*
X12153603Y32198633D02*
G01*
X12152724Y32247286D01*
X12165327Y32293888D01*
X12177050Y32322025D01*
X12198739Y32344006D01*
X12246733Y32382694D01*
X12300644Y32409914D01*
X12304545Y32411417D01*
X12322131Y32421383D01*
X12377818Y32442192D01*
X12434062Y32458776D01*
X12437609Y32459191D01*
X12496714Y32471714D01*
X12527881Y32479708D01*
X12588158Y32492743D01*
X12650220Y32496398D01*
X12655083Y32496414D01*
X12702270Y32501103D01*
X12761661Y32506977D01*
X12819800Y32508138D01*
X12880700Y32507016D01*
X12931468Y32502276D01*
X12989401Y32488990D01*
X13015585Y32475018D01*
X13031412Y32467105D01*
X13039032Y32429882D01*
X13026429Y32399401D01*
X13009723Y32372729D01*
X12955771Y32347084D01*
X12943191Y32349282D01*
X12883604Y32356435D01*
X12821746Y32359004D01*
X12792249Y32359247D01*
X12728654Y32358035D01*
X12667730Y32353948D01*
X12627825Y32348989D01*
X12565450Y32336599D01*
X12507639Y32322940D01*
X12453436Y32309129D01*
X12396145Y32291177D01*
X12358474Y32275130D01*
X12306267Y32246114D01*
X12300442Y32239373D01*
X12310407Y32205667D01*
X12345541Y32156959D01*
X12361405Y32140308D01*
X12405692Y32101094D01*
X12455480Y32070155D01*
X12461642Y32067328D01*
X12517269Y32047801D01*
X12529639Y32045346D01*
X12591481Y32041837D01*
X12628704Y32041536D01*
X12688119Y32041875D01*
X12724838Y32043588D01*
X12783869Y32054189D01*
X12837972Y32059122D01*
X12896644Y32061814D01*
X12934985Y32057363D01*
X12947002Y32053260D01*
X12966639Y32045639D01*
X12992138Y32020433D01*
X12998000Y31966798D01*
X12962615Y31919253D01*
X12954915Y31915214D01*
X12896004Y31900980D01*
X12864643Y31896163D01*
X12803162Y31893072D01*
X12735390Y31891766D01*
X12661218Y31890994D01*
X12590299Y31890581D01*
X12530354Y31890392D01*
X12464618Y31890307D01*
X12441419Y31890301D01*
X12377342Y31890905D01*
X12316394Y31893711D01*
X12284908Y31899973D01*
X12273184Y31932213D01*
X12273184Y31971780D01*
X12284908Y31983797D01*
X12274943Y32015744D01*
X12231927Y32061851D01*
X12195987Y32109478D01*
X12190826Y32118912D01*
X12163275Y32170789D01*
X12153603Y32198633D01*
G37*
G36*
X12109346Y32888277D02*
G01*
X12113157Y32941034D01*
X12136604Y32988514D01*
X12170016Y33030133D01*
X12219819Y33063571D01*
X12228635Y33067356D01*
X12284403Y33090507D01*
X12344011Y33102799D01*
X12354078Y33103113D01*
X12344406Y33114544D01*
X12334441Y33120406D01*
X12279345Y33161216D01*
X12232761Y33204294D01*
X12194687Y33249638D01*
X12161026Y33305405D01*
X12138949Y33364258D01*
X12135138Y33417014D01*
X12138949Y33469771D01*
X12167990Y33523403D01*
X12178223Y33534251D01*
X12228635Y33568542D01*
X12274357Y33589352D01*
X12278460Y33589352D01*
X12284615Y33593162D01*
X12290477Y33595214D01*
X12328872Y33606937D01*
X12389207Y33613494D01*
X12391593Y33613678D01*
X12439660Y33618661D01*
X12499909Y33622464D01*
X12563217Y33621402D01*
X12632075Y33617828D01*
X12701098Y33612799D01*
X12760083Y33607121D01*
X12795473Y33602834D01*
X12856115Y33596110D01*
X12916665Y33590298D01*
X12927071Y33589352D01*
X12984430Y33573157D01*
X12986276Y33571473D01*
X12998000Y33520475D01*
X12998000Y33481201D01*
X12982466Y33470650D01*
X12949933Y33453064D01*
X12905676Y33450720D01*
X12843895Y33454197D01*
X12778398Y33458896D01*
X12714417Y33463718D01*
X12677651Y33466547D01*
X12617462Y33471250D01*
X12565690Y33475339D01*
X12506778Y33473288D01*
X12447903Y33469511D01*
X12442005Y33469477D01*
X12379941Y33463172D01*
X12321618Y33451233D01*
X12277581Y33419359D01*
X12293191Y33361051D01*
X12301028Y33347551D01*
X12341292Y33301582D01*
X12350854Y33292450D01*
X12395436Y33252963D01*
X12422368Y33231780D01*
X12478806Y33197077D01*
X12532517Y33171282D01*
X12591154Y33149136D01*
X12654716Y33130637D01*
X12723203Y33115785D01*
X12735096Y33113664D01*
X12783750Y33088752D01*
X12791663Y33052115D01*
X12778604Y32993984D01*
X12770267Y32984118D01*
X12708866Y32968477D01*
X12642777Y32965076D01*
X12609946Y32964774D01*
X12543029Y32964352D01*
X12475559Y32962791D01*
X12412430Y32959599D01*
X12349974Y32952757D01*
X12293754Y32935029D01*
X12267909Y32912897D01*
X12256185Y32898828D01*
X12275822Y32881536D01*
X12325316Y32847936D01*
X12352026Y32835228D01*
X12407745Y32815073D01*
X12422368Y32810608D01*
X12479881Y32796303D01*
X12481279Y32796246D01*
X12524071Y32788626D01*
X12582689Y32782764D01*
X12643153Y32782764D01*
X12703127Y32782764D01*
X12761475Y32782764D01*
X12828237Y32782862D01*
X12890581Y32783277D01*
X12936157Y32784816D01*
X12968104Y32781006D01*
X12994189Y32764300D01*
X12998000Y32722094D01*
X12994189Y32671976D01*
X12951984Y32644132D01*
X12924434Y32639443D01*
X12863939Y32626093D01*
X12804739Y32617850D01*
X12764992Y32615995D01*
X12702599Y32616444D01*
X12638743Y32618340D01*
X12579004Y32623698D01*
X12570672Y32625374D01*
X12512640Y32639443D01*
X12471607Y32649994D01*
X12410731Y32653456D01*
X12397455Y32653511D01*
X12310993Y32653511D01*
X12293408Y32663183D01*
X12275822Y32693078D01*
X12273771Y32710664D01*
X12240651Y32728249D01*
X12190459Y32763420D01*
X12147832Y32806841D01*
X12117652Y32859872D01*
X12109346Y32888277D01*
G37*
G36*
X12041935Y33891822D02*
G01*
X12038913Y33950647D01*
X12043694Y33974181D01*
X12069819Y34028012D01*
X12080916Y34044816D01*
X12096743Y34062694D01*
X12133966Y34058591D01*
X12156534Y34051557D01*
X12182912Y34036902D01*
X12191705Y34030161D01*
X12198739Y34024300D01*
X12202549Y34015507D01*
X12196688Y33962457D01*
X12191772Y33903346D01*
X12192584Y33901494D01*
X12197567Y33880099D01*
X12202549Y33858410D01*
X12204601Y33852548D01*
X12207532Y33845807D01*
X12208411Y33840824D01*
X12215445Y33812394D01*
X12220135Y33779861D01*
X12190826Y33750552D01*
X12131681Y33738177D01*
X12104657Y33760224D01*
X12094692Y33776051D01*
X12086778Y33785723D01*
X12061572Y33835842D01*
X12041935Y33891822D01*
G37*
G36*
X12382214Y33826463D02*
G01*
X12368439Y33835549D01*
X12368439Y33874237D01*
X12376353Y33925235D01*
X12391886Y33937251D01*
X12405662Y33941941D01*
X12464919Y33951528D01*
X12474538Y33951613D01*
X12533614Y33949781D01*
X12562466Y33946923D01*
X12621569Y33943954D01*
X12633980Y33943699D01*
X12694108Y33946347D01*
X12703736Y33946923D01*
X12763449Y33949993D01*
X12772026Y33950147D01*
X12830616Y33961668D01*
X12840609Y33966560D01*
X12862298Y33976819D01*
X12895418Y33955130D01*
X12911244Y33932855D01*
X12922968Y33892995D01*
X12911244Y33844048D01*
X12864057Y33817084D01*
X12804493Y33803779D01*
X12777888Y33800964D01*
X12722200Y33800378D01*
X12675013Y33800085D01*
X12615323Y33800085D01*
X12603498Y33800085D01*
X12540799Y33801012D01*
X12480021Y33804438D01*
X12421455Y33812552D01*
X12382214Y33826463D01*
G37*
G36*
X12077106Y34538382D02*
G01*
X12069201Y34598602D01*
X12069193Y34601397D01*
X12078865Y34656205D01*
X12084727Y34667928D01*
X12112277Y34709254D01*
X12142466Y34731822D01*
X12169137Y34748528D01*
X12218396Y34782789D01*
X12239479Y34789561D01*
X12257064Y34795716D01*
X12308062Y34793664D01*
X12337371Y34768166D01*
X12341475Y34757321D01*
X12344406Y34749408D01*
X12345285Y34743546D01*
X12343526Y34738563D01*
X12339423Y34736805D01*
X12319786Y34701341D01*
X12280805Y34667928D01*
X12232771Y34630971D01*
X12227755Y34626895D01*
X12210170Y34597293D01*
X12238065Y34544646D01*
X12274943Y34507900D01*
X12320693Y34470629D01*
X12373841Y34435499D01*
X12415920Y34412939D01*
X12449332Y34397991D01*
X12478642Y34385388D01*
X12507951Y34373664D01*
X12564974Y34356515D01*
X12599981Y34352855D01*
X12659577Y34351228D01*
X12715752Y34356079D01*
X12774560Y34378112D01*
X12809841Y34430319D01*
X12809835Y34495297D01*
X12797236Y34558794D01*
X12785586Y34616661D01*
X12773606Y34674061D01*
X12770561Y34687565D01*
X12757344Y34746051D01*
X12754734Y34795716D01*
X12790198Y34822974D01*
X12847684Y34835709D01*
X12874315Y34811250D01*
X12886039Y34797475D01*
X12890142Y34785751D01*
X12897762Y34762304D01*
X12901866Y34750580D01*
X12921396Y34692004D01*
X12924434Y34680531D01*
X12937659Y34621951D01*
X12939088Y34601397D01*
X12941140Y34583518D01*
X12954027Y34523659D01*
X12955267Y34459012D01*
X12948760Y34399163D01*
X12936157Y34354027D01*
X12921503Y34330580D01*
X12919451Y34324425D01*
X12891021Y34287203D01*
X12846115Y34248570D01*
X12845006Y34247928D01*
X12789905Y34220158D01*
X12730407Y34203378D01*
X12666513Y34197590D01*
X12607000Y34201541D01*
X12598223Y34202792D01*
X12534835Y34214042D01*
X12476756Y34226934D01*
X12459004Y34234153D01*
X12424713Y34249980D01*
X12390421Y34265807D01*
X12382508Y34269617D01*
X12369905Y34277237D01*
X12355250Y34283392D01*
X12299379Y34310391D01*
X12244204Y34345227D01*
X12195743Y34382770D01*
X12159758Y34414990D01*
X12120438Y34460732D01*
X12111691Y34472729D01*
X12082675Y34520796D01*
X12077106Y34538382D01*
G37*
G36*
X12806611Y35004983D02*
G01*
X12774371Y35050999D01*
X12794887Y35097307D01*
X12810421Y35124565D01*
X12820386Y35142150D01*
X12835920Y35152115D01*
X12859367Y35162080D01*
X12917725Y35174342D01*
X12947588Y35163839D01*
X12998005Y35133906D01*
X13024085Y35103169D01*
X13035808Y35083532D01*
X13040183Y35024317D01*
X13037860Y35016707D01*
X13017050Y34975381D01*
X12971035Y34953985D01*
X12932054Y34948124D01*
X12926192Y34949003D01*
X12919158Y34950761D01*
X12913296Y34952813D01*
X12908607Y34953985D01*
X12867281Y34961606D01*
X12837972Y34973623D01*
X12806611Y35004983D01*
G37*
G36*
X12180274Y35580322D02*
G01*
X12174649Y35640365D01*
X12174413Y35643923D01*
X12170506Y35702756D01*
X12170309Y35707817D01*
X12182033Y35768487D01*
X12197589Y35827301D01*
X12203722Y35847328D01*
X12212515Y35869603D01*
X12221307Y35893343D01*
X12229221Y35912981D01*
X12238893Y35934376D01*
X12249737Y35954013D01*
X12262340Y35974823D01*
X12277288Y35992408D01*
X12295752Y36009994D01*
X12329165Y36033441D01*
X12364336Y36031683D01*
X12399507Y35996219D01*
X12407420Y35974823D01*
X12402584Y35915966D01*
X12385732Y35892464D01*
X12353210Y35841192D01*
X12350561Y35835311D01*
X12332757Y35777379D01*
X12322691Y35717497D01*
X12322131Y35712799D01*
X12318027Y35653197D01*
X12323303Y35595856D01*
X12342896Y35539026D01*
X12378642Y35488474D01*
X12407420Y35466309D01*
X12434971Y35460154D01*
X12460470Y35466309D01*
X12523754Y35466309D01*
X12582422Y35466309D01*
X12642713Y35466309D01*
X12670030Y35466309D01*
X12732243Y35466309D01*
X12794293Y35466309D01*
X12824782Y35466309D01*
X12886373Y35466845D01*
X12936450Y35470119D01*
X12995362Y35462499D01*
X13015734Y35407366D01*
X13016757Y35383657D01*
X13005034Y35344090D01*
X12948087Y35324513D01*
X12942312Y35323574D01*
X12883694Y35313902D01*
X12823580Y35304600D01*
X12807197Y35302764D01*
X12746853Y35294414D01*
X12739786Y35293385D01*
X12680224Y35287904D01*
X12672961Y35287817D01*
X12613922Y35287817D01*
X12573896Y35287817D01*
X12514602Y35288466D01*
X12453021Y35291695D01*
X12425006Y35296023D01*
X12368760Y35316260D01*
X12317695Y35346541D01*
X12305424Y35357865D01*
X12281977Y35373985D01*
X12268202Y35380140D01*
X12252668Y35405053D01*
X12221330Y35456491D01*
X12199056Y35512453D01*
X12181996Y35572999D01*
X12180274Y35580322D01*
G37*
G36*
X12404489Y36876372D02*
G01*
X12462582Y36867521D01*
X12512054Y36845011D01*
X12557776Y36808668D01*
X12585620Y36780238D01*
X12593533Y36756791D01*
X12607999Y36698503D01*
X12616889Y36633857D01*
X12623136Y36568333D01*
X12628377Y36502353D01*
X12630793Y36439181D01*
X12628047Y36379804D01*
X12617274Y36342653D01*
X12613464Y36325067D01*
X12588844Y36293413D01*
X12648268Y36284254D01*
X12692305Y36283741D01*
X12730407Y36295465D01*
X12781345Y36326143D01*
X12788146Y36332688D01*
X12824004Y36382330D01*
X12833868Y36412995D01*
X12837715Y36473005D01*
X12837972Y36506784D01*
X12835846Y36568784D01*
X12828300Y36620210D01*
X12823189Y36679616D01*
X12824489Y36698466D01*
X12859660Y36735688D01*
X12906555Y36735688D01*
X12918279Y36727775D01*
X12934985Y36713999D01*
X12943778Y36698466D01*
X12951691Y36680587D01*
X12969529Y36621592D01*
X12977520Y36558753D01*
X12979242Y36505611D01*
X12976980Y36441234D01*
X12968298Y36379246D01*
X12956087Y36340308D01*
X12928581Y36286813D01*
X12890663Y36236145D01*
X12854971Y36205193D01*
X12805350Y36173473D01*
X12771733Y36162108D01*
X12732752Y36154195D01*
X12668815Y36146529D01*
X12603731Y36150925D01*
X12540411Y36163427D01*
X12481403Y36180573D01*
X12460763Y36187607D01*
X12404160Y36210796D01*
X12350304Y36242397D01*
X12324182Y36264104D01*
X12298683Y36283741D01*
X12253274Y36324269D01*
X12238013Y36341480D01*
X12201304Y36387642D01*
X12177344Y36426477D01*
X12151771Y36481871D01*
X12145983Y36502681D01*
X12134253Y36560434D01*
X12133966Y36561592D01*
X12133273Y36591939D01*
X12268347Y36591939D01*
X12282278Y36532561D01*
X12296632Y36499750D01*
X12328256Y36447728D01*
X12368352Y36403744D01*
X12396576Y36379875D01*
X12446644Y36345968D01*
X12452263Y36342653D01*
X12482159Y36326826D01*
X12482159Y36387862D01*
X12482159Y36391599D01*
X12480098Y36451714D01*
X12474456Y36513167D01*
X12472780Y36527007D01*
X12465745Y36587970D01*
X12463401Y36621383D01*
X12457507Y36680307D01*
X12456367Y36686156D01*
X12439660Y36709603D01*
X12396576Y36727189D01*
X12336846Y36722845D01*
X12330044Y36719568D01*
X12301907Y36689966D01*
X12276995Y36650692D01*
X12268347Y36591939D01*
X12133273Y36591939D01*
X12132554Y36623457D01*
X12146184Y36685209D01*
X12147741Y36690552D01*
X12173771Y36744737D01*
X12178223Y36752101D01*
X12212075Y36800791D01*
X12222187Y36811892D01*
X12271222Y36849295D01*
X12327470Y36871014D01*
X12390932Y36877048D01*
X12404489Y36876372D01*
G37*
G36*
X12272305Y37124621D02*
G01*
X12293115Y37133413D01*
X12315390Y37142499D01*
X12352319Y37152464D01*
X12412162Y37173332D01*
X12472154Y37191101D01*
X12530698Y37206114D01*
X12544294Y37209324D01*
X12606997Y37225609D01*
X12669957Y37243103D01*
X12733173Y37261806D01*
X12796646Y37281718D01*
X12830058Y37291683D01*
X12759423Y37328905D01*
X12720442Y37346491D01*
X12678237Y37365249D01*
X12653617Y37376093D01*
X12614343Y37393678D01*
X12559942Y37415886D01*
X12496818Y37437694D01*
X12434183Y37458401D01*
X12385145Y37474279D01*
X12327510Y37492687D01*
X12316562Y37496554D01*
X12260148Y37517127D01*
X12257064Y37518242D01*
X12230393Y37527328D01*
X12193170Y37552827D01*
X12175585Y37572464D01*
X12175585Y37595912D01*
X12198153Y37636944D01*
X12220721Y37670357D01*
X12271426Y37668598D01*
X12329927Y37646430D01*
X12391372Y37625317D01*
X12444057Y37607635D01*
X12508281Y37586768D01*
X12569074Y37566458D01*
X12626158Y37546376D01*
X12653617Y37535828D01*
X12708597Y37511564D01*
X12762528Y37485868D01*
X12821366Y37456916D01*
X12837678Y37448780D01*
X12893721Y37420804D01*
X12946939Y37395782D01*
X12947295Y37395730D01*
X12984517Y37373162D01*
X13021740Y37344732D01*
X13035515Y37297544D01*
X13035515Y37245667D01*
X13005913Y37208738D01*
X12972794Y37185877D01*
X12921210Y37167705D01*
X12874901Y37149826D01*
X12816078Y37131269D01*
X12756315Y37112722D01*
X12694999Y37094308D01*
X12640135Y37079778D01*
X12591189Y37068933D01*
X12540484Y37056916D01*
X12491831Y37044313D01*
X12435230Y37028280D01*
X12432919Y37027607D01*
X12374279Y37012020D01*
X12364336Y37009729D01*
X12304365Y36999918D01*
X12297804Y36999177D01*
X12242996Y37002988D01*
X12219549Y37056037D01*
X12231272Y37104983D01*
X12240944Y37107328D01*
X12249151Y37111431D01*
X12261754Y37117879D01*
X12272305Y37124621D01*
G37*
G36*
X12641600Y37953190D02*
G01*
X12675013Y37949966D01*
X12735440Y37944035D01*
X12745062Y37943225D01*
X12799870Y37940001D01*
X12862005Y37939506D01*
X12921120Y37937211D01*
X12951691Y37932087D01*
X12975431Y37910399D01*
X12979242Y37865263D01*
X12970779Y37805637D01*
X12961656Y37794627D01*
X12901876Y37784512D01*
X12895711Y37784955D01*
X12855557Y37784955D01*
X12818334Y37784955D01*
X12778181Y37789645D01*
X12718828Y37796987D01*
X12658557Y37798429D01*
X12652738Y37798438D01*
X12591343Y37798438D01*
X12556604Y37798438D01*
X12492586Y37803967D01*
X12426384Y37808639D01*
X12362596Y37812863D01*
X12313338Y37816023D01*
X12251169Y37820259D01*
X12183877Y37825645D01*
X12124560Y37831360D01*
X12065438Y37838445D01*
X12011161Y37847091D01*
X11977748Y37851487D01*
X11930854Y37884900D01*
X11938181Y37922415D01*
X11955766Y37963155D01*
X11973352Y37981913D01*
X12033147Y37981913D01*
X12092933Y37981913D01*
X12155173Y37981233D01*
X12215496Y37979193D01*
X12283450Y37975093D01*
X12348796Y37969143D01*
X12402731Y37962569D01*
X12420316Y37959931D01*
X12396869Y37987189D01*
X12359735Y38032702D01*
X12349681Y38046393D01*
X12314922Y38093796D01*
X12293994Y38123769D01*
X12261200Y38172910D01*
X12257651Y38180043D01*
X12223431Y38232956D01*
X12209584Y38253609D01*
X12175267Y38304547D01*
X12153896Y38335088D01*
X12142173Y38352674D01*
X12142173Y38411585D01*
X12192544Y38445094D01*
X12210756Y38454962D01*
X12255599Y38449101D01*
X12291126Y38398033D01*
X12314510Y38362639D01*
X12348060Y38310363D01*
X12379503Y38259024D01*
X12383094Y38252729D01*
X12417651Y38204259D01*
X12428230Y38190008D01*
X12462632Y38142447D01*
X12500203Y38094362D01*
X12514106Y38080099D01*
X12527002Y38081857D01*
X12537553Y38097684D01*
X12541363Y38105597D01*
X12559828Y38132855D01*
X12584154Y38164509D01*
X12602033Y38185905D01*
X12643987Y38230439D01*
X12690180Y38271689D01*
X12737007Y38311305D01*
X12744475Y38317503D01*
X12789813Y38357689D01*
X12803094Y38370552D01*
X12846502Y38413480D01*
X12889147Y38455245D01*
X12933794Y38497955D01*
X12957260Y38517684D01*
X12971035Y38525597D01*
X13002103Y38535269D01*
X13023792Y38539373D01*
X13040791Y38533218D01*
X13053980Y38521201D01*
X13060721Y38511529D01*
X13073617Y38484565D01*
X13082410Y38455842D01*
X13082410Y38435912D01*
X13078307Y38420085D01*
X13074496Y38414223D01*
X13062773Y38402206D01*
X13019395Y38364397D01*
X12974910Y38320551D01*
X12927368Y38275696D01*
X12876768Y38229830D01*
X12830963Y38189714D01*
X12791077Y38155716D01*
X12746482Y38114069D01*
X12723373Y38089184D01*
X12684996Y38043389D01*
X12671203Y38022946D01*
X12644491Y37969447D01*
X12641600Y37953190D01*
G37*
G36*
X12806611Y38714348D02*
G01*
X12774371Y38760364D01*
X12794887Y38806672D01*
X12810421Y38833930D01*
X12820386Y38851515D01*
X12835920Y38861480D01*
X12859367Y38871445D01*
X12917725Y38883707D01*
X12947588Y38873204D01*
X12998005Y38843271D01*
X13024085Y38812534D01*
X13035808Y38792897D01*
X13040183Y38733682D01*
X13037860Y38726072D01*
X13017050Y38684746D01*
X12971035Y38663350D01*
X12932054Y38657489D01*
X12926192Y38658368D01*
X12919158Y38660126D01*
X12913296Y38662178D01*
X12908607Y38663350D01*
X12867281Y38670971D01*
X12837972Y38682988D01*
X12806611Y38714348D01*
G37*
G36*
X12181154Y39552004D02*
G01*
X12163275Y39586295D01*
X12163275Y39624690D01*
X12210621Y39661320D01*
X12220135Y39666016D01*
X12279200Y39687174D01*
X12338938Y39699355D01*
X12356129Y39701187D01*
X12417239Y39704265D01*
X12475958Y39705226D01*
X12497986Y39705290D01*
X12558558Y39704952D01*
X12600274Y39703239D01*
X12655083Y39693274D01*
X12717485Y39680875D01*
X12774557Y39661020D01*
X12819507Y39634655D01*
X12864102Y39596286D01*
X12884280Y39571641D01*
X12890142Y39559917D01*
X12918986Y39507753D01*
X12928537Y39484300D01*
X12948174Y39427220D01*
X12962535Y39371459D01*
X12973142Y39309416D01*
X12975097Y39247450D01*
X12972501Y39224327D01*
X12956001Y39162638D01*
X12924059Y39104981D01*
X12878158Y39061027D01*
X12818299Y39030774D01*
X12809835Y39027956D01*
X12751652Y39012291D01*
X12685334Y39000812D01*
X12620699Y38996655D01*
X12557748Y38999819D01*
X12513812Y39006560D01*
X12467504Y39011250D01*
X12410351Y39017991D01*
X12376060Y39030008D01*
X12344406Y39039680D01*
X12313045Y39047593D01*
X12287253Y39053455D01*
X12240065Y39069282D01*
X12194929Y39090971D01*
X12178809Y39106505D01*
X12174999Y39112366D01*
X12172947Y39118228D01*
X12184671Y39165416D01*
X12208704Y39209380D01*
X12241824Y39210552D01*
X12269667Y39206742D01*
X12305131Y39198535D01*
X12363919Y39180634D01*
X12423453Y39167408D01*
X12434971Y39166002D01*
X12494077Y39159227D01*
X12551328Y39147831D01*
X12613117Y39147831D01*
X12625773Y39147831D01*
X12685637Y39148856D01*
X12723959Y39151934D01*
X12780995Y39169102D01*
X12809542Y39187398D01*
X12826248Y39212311D01*
X12829179Y39272688D01*
X12825515Y39335485D01*
X12813022Y39395173D01*
X12791663Y39445025D01*
X12757848Y39495329D01*
X12733045Y39517126D01*
X12675529Y39539782D01*
X12640135Y39546142D01*
X12585034Y39556107D01*
X12522646Y39559824D01*
X12500330Y39559917D01*
X12441272Y39558745D01*
X12417678Y39555228D01*
X12364336Y39548193D01*
X12306136Y39540418D01*
X12249151Y39520643D01*
X12213101Y39516833D01*
X12181154Y39552004D01*
G37*
G36*
X12641600Y39987244D02*
G01*
X12675013Y39984020D01*
X12735440Y39978090D01*
X12745062Y39977279D01*
X12799870Y39974055D01*
X12862005Y39973561D01*
X12921120Y39971265D01*
X12951691Y39966142D01*
X12975431Y39944453D01*
X12979242Y39899317D01*
X12970779Y39839691D01*
X12961656Y39828682D01*
X12901876Y39818567D01*
X12895711Y39819010D01*
X12855557Y39819010D01*
X12818334Y39819010D01*
X12778181Y39823699D01*
X12718828Y39831041D01*
X12658557Y39832484D01*
X12652738Y39832492D01*
X12591343Y39832492D01*
X12556604Y39832492D01*
X12492586Y39838022D01*
X12426384Y39842693D01*
X12362596Y39846918D01*
X12313338Y39850078D01*
X12251169Y39854314D01*
X12183877Y39859699D01*
X12124560Y39865415D01*
X12065438Y39872499D01*
X12011161Y39881145D01*
X11977748Y39885542D01*
X11930854Y39918954D01*
X11938181Y39956470D01*
X11955766Y39997209D01*
X11973352Y40015967D01*
X12033147Y40015967D01*
X12092933Y40015967D01*
X12155173Y40015287D01*
X12215496Y40013247D01*
X12283450Y40009148D01*
X12348796Y40003197D01*
X12402731Y39996623D01*
X12420316Y39993985D01*
X12396869Y40021243D01*
X12359735Y40066757D01*
X12349681Y40080447D01*
X12314922Y40127850D01*
X12293994Y40157824D01*
X12261200Y40206964D01*
X12257651Y40214097D01*
X12223431Y40267011D01*
X12209584Y40287663D01*
X12175267Y40338601D01*
X12153896Y40369142D01*
X12142173Y40386728D01*
X12142173Y40445639D01*
X12192544Y40479148D01*
X12210756Y40489017D01*
X12255599Y40483155D01*
X12291126Y40432087D01*
X12314510Y40396693D01*
X12348060Y40344417D01*
X12379503Y40293079D01*
X12383094Y40286784D01*
X12417651Y40238314D01*
X12428230Y40224062D01*
X12462632Y40176502D01*
X12500203Y40128416D01*
X12514106Y40114153D01*
X12527002Y40115912D01*
X12537553Y40131738D01*
X12541363Y40139652D01*
X12559828Y40166909D01*
X12584154Y40198563D01*
X12602033Y40219959D01*
X12643987Y40264494D01*
X12690180Y40305743D01*
X12737007Y40345359D01*
X12744475Y40351557D01*
X12789813Y40391744D01*
X12803094Y40404607D01*
X12846502Y40447534D01*
X12889147Y40489300D01*
X12933794Y40532010D01*
X12957260Y40551738D01*
X12971035Y40559652D01*
X13002103Y40569324D01*
X13023792Y40573427D01*
X13040791Y40567272D01*
X13053980Y40555256D01*
X13060721Y40545584D01*
X13073617Y40518619D01*
X13082410Y40489896D01*
X13082410Y40469966D01*
X13078307Y40454139D01*
X13074496Y40448277D01*
X13062773Y40436260D01*
X13019395Y40398452D01*
X12974910Y40354606D01*
X12927368Y40309750D01*
X12876768Y40263885D01*
X12830963Y40223768D01*
X12791077Y40189771D01*
X12746482Y40148123D01*
X12723373Y40123239D01*
X12684996Y40077443D01*
X12671203Y40057000D01*
X12644491Y40003502D01*
X12641600Y39987244D01*
G37*
G36*
X26755704Y34447453D02*
G01*
X24915437Y34447453D01*
X24915437Y35051976D01*
X25070993Y35051976D01*
X25084787Y34984049D01*
X25123140Y34926692D01*
X25135961Y34912806D01*
X25363351Y34656009D01*
X25416259Y34612527D01*
X25463198Y34603009D01*
X25521021Y34644515D01*
X25527824Y34673448D01*
X25499678Y34738419D01*
X25488843Y34752094D01*
X25261453Y35008549D01*
X26502011Y35008549D01*
X26568335Y35025630D01*
X26600148Y35087196D01*
X26567521Y35148574D01*
X26502011Y35165500D01*
X25198536Y35165500D01*
X25127977Y35151218D01*
X25078924Y35098767D01*
X25070993Y35051976D01*
X24915437Y35051976D01*
X24915437Y35321056D01*
X26755704Y35321056D01*
X26755704Y34447453D01*
G37*
G36*
X61596091Y30754355D02*
G01*
X61549480Y30845220D01*
X61455896Y30866218D01*
X61007954Y30866218D01*
X61007954Y31395737D01*
X60980416Y31494899D01*
X60896091Y31535444D01*
X60808141Y31488906D01*
X60783740Y31395737D01*
X60783740Y30866218D01*
X60335798Y30866218D01*
X60237551Y30838680D01*
X60196091Y30754355D01*
X60242435Y30664272D01*
X60335798Y30642003D01*
X60783740Y30642003D01*
X60783740Y30115904D01*
X60810423Y30017413D01*
X60896091Y29975709D01*
X60984630Y30021156D01*
X61007954Y30115904D01*
X61007954Y30642003D01*
X61455896Y30642003D01*
X61554387Y30668687D01*
X61596091Y30754355D01*
G37*
G36*
X50715073Y28442866D02*
G01*
X50783192Y28413700D01*
X50840038Y28367673D01*
X50884256Y28306898D01*
X50914494Y28233488D01*
X50929397Y28149556D01*
X50930761Y28113511D01*
X50923238Y28033781D01*
X50900929Y27959611D01*
X50864226Y27894257D01*
X50813520Y27840974D01*
X50749202Y27803018D01*
X50671664Y27783645D01*
X50637034Y27781829D01*
X50567195Y27787988D01*
X50490959Y27812128D01*
X50427850Y27853009D01*
X50378759Y27908995D01*
X50344580Y27978450D01*
X50326203Y28059738D01*
X50323134Y28113511D01*
X50329455Y28183667D01*
X50353854Y28263338D01*
X50394371Y28331990D01*
X50448634Y28387368D01*
X50514273Y28427219D01*
X50588914Y28449288D01*
X50637034Y28453057D01*
X50715073Y28442866D01*
G37*
G36*
X51262758Y26914696D02*
G01*
X48726984Y26914696D01*
X48726984Y28509477D01*
X48882540Y28509477D01*
X48915168Y28448099D01*
X48980677Y28431173D01*
X49566762Y28431173D01*
X49225848Y28012980D01*
X49203964Y27952115D01*
X49236592Y27890550D01*
X49302101Y27873469D01*
X49374196Y27868734D01*
X49455090Y27849260D01*
X49523974Y27814307D01*
X49578961Y27763428D01*
X49618165Y27696178D01*
X49636898Y27630291D01*
X49643357Y27553413D01*
X49631160Y27469975D01*
X49596977Y27395976D01*
X49544413Y27333341D01*
X49477079Y27283995D01*
X49398580Y27249863D01*
X49330168Y27234806D01*
X49276797Y27231305D01*
X49200576Y27237857D01*
X49130896Y27258589D01*
X49068205Y27290541D01*
X49003498Y27321938D01*
X48947509Y27331152D01*
X48891441Y27289895D01*
X48886644Y27264474D01*
X48921292Y27198703D01*
X48979076Y27157736D01*
X49053301Y27123394D01*
X49134185Y27097100D01*
X49211945Y27080279D01*
X49276797Y27074355D01*
X49351732Y27078864D01*
X49424753Y27092254D01*
X49494670Y27114316D01*
X49560290Y27144842D01*
X49620422Y27183625D01*
X49673873Y27230456D01*
X49719452Y27285127D01*
X49755967Y27347431D01*
X49782227Y27417160D01*
X49797039Y27494106D01*
X49799965Y27549310D01*
X49796470Y27621850D01*
X49781090Y27708849D01*
X49753733Y27784859D01*
X49714701Y27850013D01*
X49664293Y27904443D01*
X49602811Y27948282D01*
X49530555Y27981661D01*
X49447825Y28004712D01*
X49425541Y28008877D01*
X49511963Y28113511D01*
X50166525Y28113511D01*
X50171831Y28029881D01*
X50187266Y27953409D01*
X50212103Y27884328D01*
X50245613Y27822871D01*
X50302532Y27753191D01*
X50371856Y27698034D01*
X50451863Y27657950D01*
X50517843Y27638114D01*
X50588136Y27627301D01*
X50637034Y27625220D01*
X50708030Y27634923D01*
X50776204Y27650524D01*
X50730482Y27582380D01*
X50690668Y27526690D01*
X50648342Y27470564D01*
X50603839Y27414561D01*
X50557497Y27359244D01*
X50509653Y27305173D01*
X50460643Y27252909D01*
X50423322Y27215234D01*
X50397700Y27151271D01*
X50397676Y27148898D01*
X50428412Y27086482D01*
X50472219Y27070252D01*
X50537502Y27094430D01*
X50542659Y27099659D01*
X50599261Y27162255D01*
X50654196Y27225364D01*
X50707495Y27289307D01*
X50759193Y27354404D01*
X50809319Y27420975D01*
X50857906Y27489342D01*
X50904987Y27559824D01*
X50950593Y27632743D01*
X50985745Y27693402D01*
X51019947Y27759360D01*
X51051151Y27830655D01*
X51077305Y27907327D01*
X51096359Y27989415D01*
X51105112Y28059011D01*
X51107202Y28113511D01*
X51099711Y28196474D01*
X51082224Y28272973D01*
X51055579Y28342636D01*
X51020618Y28405094D01*
X50978181Y28459976D01*
X50911419Y28520728D01*
X50834851Y28566476D01*
X50750469Y28596343D01*
X50660262Y28609452D01*
X50637034Y28610007D01*
X50567904Y28604949D01*
X50479633Y28582990D01*
X50397909Y28544578D01*
X50325010Y28490736D01*
X50277495Y28440843D01*
X50237183Y28383276D01*
X50205036Y28318466D01*
X50182013Y28246845D01*
X50169074Y28168844D01*
X50166525Y28113511D01*
X49511963Y28113511D01*
X49680286Y28317307D01*
X49722517Y28373741D01*
X49748404Y28441199D01*
X49751068Y28472206D01*
X49726382Y28539988D01*
X49669065Y28577846D01*
X49606085Y28588123D01*
X48980677Y28588123D01*
X48914354Y28569725D01*
X48882540Y28509477D01*
X48726984Y28509477D01*
X48726984Y28765563D01*
X51262758Y28765563D01*
X51262758Y26914696D01*
G37*
G36*
X14480345Y41648374D02*
G01*
X14599011Y41623826D01*
X14701693Y41575367D01*
X14787810Y41506721D01*
X14856780Y41421611D01*
X14908022Y41323759D01*
X14940956Y41216889D01*
X15649260Y41622820D01*
X15741584Y41648221D01*
X15805110Y41630146D01*
X15851004Y41541732D01*
X15840031Y41497424D01*
X15769916Y41426937D01*
X14991270Y40992674D01*
X14991270Y40639987D01*
X15710809Y40639987D01*
X15804394Y40615807D01*
X15851004Y40528124D01*
X15805557Y40440174D01*
X15710809Y40415772D01*
X14028464Y40415772D01*
X13965401Y40424489D01*
X13885644Y40484060D01*
X13860425Y40583811D01*
X13860425Y41015144D01*
X13860904Y41026379D01*
X14084640Y41026379D01*
X14084640Y40639987D01*
X14767055Y40639987D01*
X14767055Y41032241D01*
X14763309Y41098189D01*
X14741363Y41196540D01*
X14691846Y41293803D01*
X14620652Y41366195D01*
X14531606Y41411359D01*
X14428534Y41426937D01*
X14357658Y41420525D01*
X14262191Y41387066D01*
X14183314Y41325393D01*
X14125045Y41235952D01*
X14095129Y41140525D01*
X14084640Y41026379D01*
X13860904Y41026379D01*
X13863795Y41094248D01*
X13880765Y41202575D01*
X13910655Y41298679D01*
X13967922Y41408138D01*
X14041714Y41496669D01*
X14128353Y41564729D01*
X14224156Y41612776D01*
X14325444Y41641268D01*
X14428534Y41650664D01*
X14480345Y41648374D01*
G37*
G36*
X10392166Y29731390D02*
G01*
X10445658Y29755862D01*
X10456060Y29792059D01*
X10432720Y29852223D01*
X10389869Y29898784D01*
X10353926Y29956388D01*
X10338005Y30017740D01*
X10335013Y30065807D01*
X10342423Y30130411D01*
X10368779Y30194892D01*
X10410651Y30244410D01*
X10464295Y30278187D01*
X10525966Y30295448D01*
X10558642Y30297642D01*
X10625689Y30283846D01*
X10678314Y30254274D01*
X10727792Y30212243D01*
X10773943Y30161474D01*
X10816585Y30105692D01*
X10855538Y30048619D01*
X10862870Y30037377D01*
X10896409Y29988122D01*
X10932789Y29941854D01*
X10985871Y29885510D01*
X11044375Y29836160D01*
X11108516Y29794764D01*
X11178507Y29762285D01*
X11234966Y29744355D01*
X11294925Y29732388D01*
X11358474Y29726788D01*
X11380470Y29726407D01*
X11442795Y29738305D01*
X11484294Y29781610D01*
X11497549Y29843631D01*
X11498000Y29860936D01*
X11498000Y30384983D01*
X11481476Y30444078D01*
X11430882Y30469101D01*
X11378272Y30441832D01*
X11363764Y30384983D01*
X11363764Y29862401D01*
X11294354Y29870593D01*
X11231909Y29886939D01*
X11175839Y29910634D01*
X11125554Y29940877D01*
X11069930Y29986661D01*
X11021267Y30039849D01*
X10978411Y30098870D01*
X10970435Y30111236D01*
X10935069Y30166007D01*
X10896613Y30221599D01*
X10854309Y30275507D01*
X10807403Y30325229D01*
X10755139Y30368261D01*
X10696761Y30402097D01*
X10631514Y30424235D01*
X10558642Y30432171D01*
X10486295Y30425180D01*
X10419016Y30404932D01*
X10358213Y30372511D01*
X10305301Y30329003D01*
X10261689Y30275493D01*
X10228790Y30213067D01*
X10208015Y30142810D01*
X10200777Y30065807D01*
X10206801Y29998423D01*
X10223139Y29935656D01*
X10247191Y29878851D01*
X10284144Y29818281D01*
X10324009Y29771761D01*
X10375045Y29735244D01*
X10392166Y29731390D01*
G37*
G36*
X10896920Y31572360D02*
G01*
X10981314Y31568264D01*
X11058686Y31560287D01*
X11129234Y31548654D01*
X11193158Y31533588D01*
X11277061Y31505047D01*
X11347182Y31470046D01*
X11404197Y31429345D01*
X11448778Y31383701D01*
X11481600Y31333871D01*
X11508234Y31262232D01*
X11516757Y31186295D01*
X11511524Y31130575D01*
X11487809Y31058864D01*
X11456978Y31008127D01*
X11414547Y30960951D01*
X11360137Y30918190D01*
X11293369Y30880700D01*
X11213867Y30849335D01*
X11153603Y30832250D01*
X11087400Y30818521D01*
X11015143Y30808401D01*
X10936723Y30802143D01*
X10852026Y30800001D01*
X10809827Y30800456D01*
X10730044Y30804052D01*
X10656325Y30811128D01*
X10588563Y30821565D01*
X10526652Y30835240D01*
X10470486Y30852033D01*
X10396774Y30882807D01*
X10335389Y30919919D01*
X10285970Y30962961D01*
X10248159Y31011527D01*
X10221596Y31065210D01*
X10205922Y31123602D01*
X10200777Y31186295D01*
X10335013Y31186295D01*
X10335466Y31171983D01*
X10351632Y31105678D01*
X10391878Y31048820D01*
X10442251Y31010764D01*
X10509473Y30979828D01*
X10571330Y30961587D01*
X10643294Y30947821D01*
X10725634Y30938732D01*
X10786424Y30935371D01*
X10852026Y30934237D01*
X10885642Y30934531D01*
X10949340Y30936854D01*
X11008373Y30941429D01*
X11088308Y30952353D01*
X11158085Y30967930D01*
X11217905Y30987910D01*
X11282524Y31020968D01*
X11330277Y31060820D01*
X11366978Y31119288D01*
X11379004Y31186295D01*
X11378509Y31202104D01*
X11361064Y31273226D01*
X11318325Y31331320D01*
X11265608Y31368573D01*
X11196162Y31397760D01*
X11132955Y31414428D01*
X11060102Y31426676D01*
X10977500Y31434556D01*
X10916967Y31437407D01*
X10852026Y31438354D01*
X10818748Y31438122D01*
X10755771Y31436262D01*
X10670119Y31429936D01*
X10594821Y31419299D01*
X10529629Y31404273D01*
X10474297Y31384783D01*
X10415429Y31351718D01*
X10373060Y31310397D01*
X10342406Y31246858D01*
X10335013Y31186295D01*
X10200777Y31186295D01*
X10201335Y31208395D01*
X10209827Y31271404D01*
X10228861Y31329259D01*
X10258846Y31381675D01*
X10300188Y31428368D01*
X10353294Y31469055D01*
X10418572Y31503452D01*
X10496429Y31531273D01*
X10555523Y31546028D01*
X10620509Y31557651D01*
X10691508Y31566057D01*
X10768640Y31571162D01*
X10852026Y31572883D01*
X10896920Y31572360D01*
G37*
G36*
X10392166Y31911990D02*
G01*
X10445658Y31936462D01*
X10456060Y31972660D01*
X10432720Y32032823D01*
X10389869Y32079384D01*
X10353926Y32136988D01*
X10338005Y32198341D01*
X10335013Y32246407D01*
X10342423Y32311011D01*
X10368779Y32375492D01*
X10410651Y32425010D01*
X10464295Y32458787D01*
X10525966Y32476048D01*
X10558642Y32478242D01*
X10625689Y32464446D01*
X10678314Y32434874D01*
X10727792Y32392843D01*
X10773943Y32342074D01*
X10816585Y32286292D01*
X10855538Y32229219D01*
X10862870Y32217977D01*
X10896409Y32168722D01*
X10932789Y32122454D01*
X10985871Y32066111D01*
X11044375Y32016760D01*
X11108516Y31975364D01*
X11178507Y31942885D01*
X11234966Y31924955D01*
X11294925Y31912988D01*
X11358474Y31907388D01*
X11380470Y31907007D01*
X11442795Y31918905D01*
X11484294Y31962210D01*
X11497549Y32024231D01*
X11498000Y32041536D01*
X11498000Y32565584D01*
X11481476Y32624678D01*
X11430882Y32649701D01*
X11378272Y32622432D01*
X11363764Y32565584D01*
X11363764Y32043002D01*
X11294354Y32051193D01*
X11231909Y32067539D01*
X11175839Y32091235D01*
X11125554Y32121477D01*
X11069930Y32167261D01*
X11021267Y32220449D01*
X10978411Y32279470D01*
X10970435Y32291836D01*
X10935069Y32346607D01*
X10896613Y32402199D01*
X10854309Y32456108D01*
X10807403Y32505830D01*
X10755139Y32548861D01*
X10696761Y32582697D01*
X10631514Y32604835D01*
X10558642Y32612771D01*
X10486295Y32605781D01*
X10419016Y32585532D01*
X10358213Y32553111D01*
X10305301Y32509603D01*
X10261689Y32456093D01*
X10228790Y32393667D01*
X10208015Y32323410D01*
X10200777Y32246407D01*
X10206801Y32179023D01*
X10223139Y32116256D01*
X10247191Y32059451D01*
X10284144Y31998881D01*
X10324009Y31952361D01*
X10375045Y31915844D01*
X10392166Y31911990D01*
G37*
G36*
X11103792Y32978842D02*
G01*
X11162402Y33001147D01*
X11191282Y33055204D01*
X11200415Y33116944D01*
X11201098Y33143560D01*
X11201098Y33446030D01*
X11426192Y33446030D01*
X11485287Y33462553D01*
X11510309Y33513148D01*
X11482343Y33567154D01*
X11426192Y33580266D01*
X11201098Y33580266D01*
X11201098Y33686072D01*
X11184575Y33745167D01*
X11133980Y33770189D01*
X11081210Y33742921D01*
X11066569Y33686072D01*
X11066569Y33580266D01*
X10854957Y33580266D01*
X10796009Y33565062D01*
X10771133Y33513148D01*
X10798939Y33460538D01*
X10854957Y33446030D01*
X11066569Y33446030D01*
X11066569Y33128319D01*
X10325927Y33465960D01*
X10267540Y33482270D01*
X10253533Y33482960D01*
X10206240Y33446730D01*
X10199898Y33420824D01*
X10225318Y33367159D01*
X10248551Y33353413D01*
X10966039Y33026030D01*
X11022203Y32999169D01*
X11080792Y32980797D01*
X11103792Y32978842D01*
G37*
G36*
X10970728Y34218619D02*
G01*
X10970728Y34689031D01*
X10954729Y34745880D01*
X10900693Y34772722D01*
X10890128Y34773148D01*
X10837358Y34745880D01*
X10822717Y34689031D01*
X10822717Y34218619D01*
X10838727Y34159122D01*
X10890128Y34134795D01*
X10947985Y34153743D01*
X10970486Y34209950D01*
X10970728Y34218619D01*
G37*
G36*
X10539884Y35204872D02*
G01*
X10589446Y35240449D01*
X10595278Y35265249D01*
X10571153Y35320938D01*
X10561866Y35332660D01*
X10366960Y35552478D01*
X11430295Y35552478D01*
X11487144Y35567119D01*
X11514413Y35619889D01*
X11486446Y35672499D01*
X11430295Y35687007D01*
X10313031Y35687007D01*
X10252552Y35674766D01*
X10210506Y35629807D01*
X10203708Y35589701D01*
X10215532Y35531478D01*
X10248406Y35482315D01*
X10259395Y35470413D01*
X10454301Y35250301D01*
X10499651Y35213031D01*
X10539884Y35204872D01*
G37*
G36*
X10392166Y36273190D02*
G01*
X10445658Y36297662D01*
X10456060Y36333860D01*
X10432720Y36394023D01*
X10389869Y36440585D01*
X10353926Y36498188D01*
X10338005Y36559541D01*
X10335013Y36607607D01*
X10342423Y36672211D01*
X10368779Y36736692D01*
X10410651Y36786210D01*
X10464295Y36819988D01*
X10525966Y36837249D01*
X10558642Y36839443D01*
X10625689Y36825646D01*
X10678314Y36796075D01*
X10727792Y36754043D01*
X10773943Y36703275D01*
X10816585Y36647492D01*
X10855538Y36590419D01*
X10862870Y36579177D01*
X10896409Y36529922D01*
X10932789Y36483654D01*
X10985871Y36427311D01*
X11044375Y36377960D01*
X11108516Y36336565D01*
X11178507Y36304085D01*
X11234966Y36286156D01*
X11294925Y36274188D01*
X11358474Y36268589D01*
X11380470Y36268207D01*
X11442795Y36280105D01*
X11484294Y36323411D01*
X11497549Y36385431D01*
X11498000Y36402736D01*
X11498000Y36926784D01*
X11481476Y36985878D01*
X11430882Y37010901D01*
X11378272Y36983632D01*
X11363764Y36926784D01*
X11363764Y36404202D01*
X11294354Y36412394D01*
X11231909Y36428739D01*
X11175839Y36452435D01*
X11125554Y36482677D01*
X11069930Y36528461D01*
X11021267Y36581649D01*
X10978411Y36640670D01*
X10970435Y36653036D01*
X10935069Y36707807D01*
X10896613Y36763399D01*
X10854309Y36817308D01*
X10807403Y36867030D01*
X10755139Y36910061D01*
X10696761Y36943898D01*
X10631514Y36966036D01*
X10558642Y36973972D01*
X10486295Y36966981D01*
X10419016Y36946732D01*
X10358213Y36914311D01*
X10305301Y36870803D01*
X10261689Y36817294D01*
X10228790Y36754867D01*
X10208015Y36684610D01*
X10200777Y36607607D01*
X10206801Y36540224D01*
X10223139Y36477456D01*
X10247191Y36420652D01*
X10284144Y36360082D01*
X10324009Y36313562D01*
X10375045Y36277044D01*
X10392166Y36273190D01*
G37*
G36*
X10970728Y37489519D02*
G01*
X10970728Y37959931D01*
X10954729Y38016780D01*
X10900693Y38043622D01*
X10890128Y38044048D01*
X10837358Y38016780D01*
X10822717Y37959931D01*
X10822717Y37489519D01*
X10838727Y37430022D01*
X10890128Y37405695D01*
X10947985Y37424643D01*
X10970486Y37480850D01*
X10970728Y37489519D01*
G37*
G36*
X10392166Y38453790D02*
G01*
X10445658Y38478262D01*
X10456060Y38514460D01*
X10432720Y38574623D01*
X10389869Y38621185D01*
X10353926Y38678788D01*
X10338005Y38740141D01*
X10335013Y38788207D01*
X10342423Y38852812D01*
X10368779Y38917292D01*
X10410651Y38966810D01*
X10464295Y39000588D01*
X10525966Y39017849D01*
X10558642Y39020043D01*
X10625689Y39006246D01*
X10678314Y38976675D01*
X10727792Y38934643D01*
X10773943Y38883875D01*
X10816585Y38828092D01*
X10855538Y38771019D01*
X10862870Y38759778D01*
X10896409Y38710523D01*
X10932789Y38664254D01*
X10985871Y38607911D01*
X11044375Y38558561D01*
X11108516Y38517165D01*
X11178507Y38484685D01*
X11234966Y38466756D01*
X11294925Y38454788D01*
X11358474Y38449189D01*
X11380470Y38448808D01*
X11442795Y38460705D01*
X11484294Y38504011D01*
X11497549Y38566032D01*
X11498000Y38583337D01*
X11498000Y39107384D01*
X11481476Y39166479D01*
X11430882Y39191501D01*
X11378272Y39164233D01*
X11363764Y39107384D01*
X11363764Y38584802D01*
X11294354Y38592994D01*
X11231909Y38609339D01*
X11175839Y38633035D01*
X11125554Y38663277D01*
X11069930Y38709062D01*
X11021267Y38762249D01*
X10978411Y38821270D01*
X10970435Y38833637D01*
X10935069Y38888407D01*
X10896613Y38943999D01*
X10854309Y38997908D01*
X10807403Y39047630D01*
X10755139Y39090661D01*
X10696761Y39124498D01*
X10631514Y39146636D01*
X10558642Y39154572D01*
X10486295Y39147581D01*
X10419016Y39127332D01*
X10358213Y39094912D01*
X10305301Y39051404D01*
X10261689Y38997894D01*
X10228790Y38935468D01*
X10208015Y38865210D01*
X10200777Y38788207D01*
X10206801Y38720824D01*
X10223139Y38658057D01*
X10247191Y38601252D01*
X10284144Y38540682D01*
X10324009Y38494162D01*
X10375045Y38457644D01*
X10392166Y38453790D01*
G37*
G36*
X10896920Y40294761D02*
G01*
X10981314Y40290665D01*
X11058686Y40282688D01*
X11129234Y40271054D01*
X11193158Y40255989D01*
X11277061Y40227447D01*
X11347182Y40192447D01*
X11404197Y40151746D01*
X11448778Y40106101D01*
X11481600Y40056272D01*
X11508234Y39984632D01*
X11516757Y39908696D01*
X11511524Y39852975D01*
X11487809Y39781265D01*
X11456978Y39730528D01*
X11414547Y39683351D01*
X11360137Y39640591D01*
X11293369Y39603100D01*
X11213867Y39571735D01*
X11153603Y39554651D01*
X11087400Y39540922D01*
X11015143Y39530801D01*
X10936723Y39524544D01*
X10852026Y39522401D01*
X10809827Y39522857D01*
X10730044Y39526453D01*
X10656325Y39533529D01*
X10588563Y39543965D01*
X10526652Y39557640D01*
X10470486Y39574434D01*
X10396774Y39605208D01*
X10335389Y39642320D01*
X10285970Y39685362D01*
X10248159Y39733928D01*
X10221596Y39787610D01*
X10205922Y39846002D01*
X10200777Y39908696D01*
X10335013Y39908696D01*
X10335466Y39894383D01*
X10351632Y39828078D01*
X10391878Y39771221D01*
X10442251Y39733165D01*
X10509473Y39702229D01*
X10571330Y39683988D01*
X10643294Y39670222D01*
X10725634Y39661133D01*
X10786424Y39657771D01*
X10852026Y39656637D01*
X10885642Y39656931D01*
X10949340Y39659254D01*
X11008373Y39663830D01*
X11088308Y39674754D01*
X11158085Y39690331D01*
X11217905Y39710311D01*
X11282524Y39743369D01*
X11330277Y39783220D01*
X11366978Y39841689D01*
X11379004Y39908696D01*
X11378509Y39924504D01*
X11361064Y39995626D01*
X11318325Y40053721D01*
X11265608Y40090974D01*
X11196162Y40120160D01*
X11132955Y40136828D01*
X11060102Y40149077D01*
X10977500Y40156956D01*
X10916967Y40159807D01*
X10852026Y40160755D01*
X10818748Y40160523D01*
X10755771Y40158663D01*
X10670119Y40152337D01*
X10594821Y40141699D01*
X10529629Y40126674D01*
X10474297Y40107184D01*
X10415429Y40074119D01*
X10373060Y40032798D01*
X10342406Y39969259D01*
X10335013Y39908696D01*
X10200777Y39908696D01*
X10201335Y39930795D01*
X10209827Y39993805D01*
X10228861Y40051659D01*
X10258846Y40104075D01*
X10300188Y40150769D01*
X10353294Y40191456D01*
X10418572Y40225852D01*
X10496429Y40253674D01*
X10555523Y40268429D01*
X10620509Y40280052D01*
X10691508Y40288458D01*
X10768640Y40293563D01*
X10852026Y40295283D01*
X10896920Y40294761D01*
G37*
G36*
X15634117Y28410399D02*
G01*
X15737992Y28429364D01*
X15811133Y28502623D01*
X15830000Y28606281D01*
X15830000Y29564202D01*
X15802461Y29662449D01*
X15718136Y29703909D01*
X15629290Y29658534D01*
X15606273Y29564202D01*
X15606273Y28634614D01*
X13976685Y28634614D01*
X13881937Y28610212D01*
X13836489Y28522262D01*
X13883100Y28434750D01*
X13976685Y28410399D01*
X15634117Y28410399D01*
G37*
G36*
X39602093Y26709593D02*
G01*
X39624368Y26726299D01*
X39666573Y26727472D01*
X39709365Y26715748D01*
X39714933Y26707541D01*
X39729002Y26689077D01*
X39737501Y26666509D01*
X39725516Y26608234D01*
X39717864Y26578581D01*
X39703403Y26521194D01*
X39688016Y26459773D01*
X39686797Y26454897D01*
X39673901Y26411812D01*
X39661298Y26362866D01*
X39647449Y26301903D01*
X39632171Y26239690D01*
X39620558Y26193459D01*
X39605702Y26132203D01*
X39593061Y26074851D01*
X39582416Y26013620D01*
X39581577Y26006467D01*
X39574707Y25948054D01*
X39563991Y25892454D01*
X39550792Y25832371D01*
X39540251Y25794855D01*
X39538492Y25781079D01*
X39527355Y25742684D01*
X39505080Y25689049D01*
X39473426Y25644792D01*
X39444117Y25620465D01*
X39440307Y25618414D01*
X39427411Y25609621D01*
X39395171Y25608449D01*
X39357948Y25616362D01*
X39307710Y25648553D01*
X39306950Y25649774D01*
X39291123Y25669412D01*
X39259762Y25714255D01*
X39233208Y25767764D01*
X39228402Y25781079D01*
X39217557Y25804527D01*
X39208765Y25825922D01*
X39189784Y25882174D01*
X39172519Y25940187D01*
X39171542Y25943745D01*
X39165387Y25975106D01*
X39154637Y26033261D01*
X39144578Y26057171D01*
X39127293Y26115289D01*
X39126406Y26118721D01*
X39113011Y26176852D01*
X39112337Y26182615D01*
X39100028Y26228630D01*
X39085666Y26268783D01*
X39074236Y26303075D01*
X39064857Y26341470D01*
X39057236Y26361107D01*
X39043754Y26402140D01*
X39032324Y26441414D01*
X39024703Y26470723D01*
X39031444Y26500033D01*
X39061340Y26523480D01*
X39094459Y26541065D01*
X39123475Y26539307D01*
X39158353Y26486257D01*
X39189825Y26436713D01*
X39193231Y26429398D01*
X39202903Y26405071D01*
X39212575Y26378693D01*
X39227522Y26319671D01*
X39237781Y26284317D01*
X39255061Y26226022D01*
X39263280Y26196390D01*
X39279739Y26139213D01*
X39280572Y26136599D01*
X39296723Y26078732D01*
X39298157Y26070947D01*
X39312266Y26009477D01*
X39328909Y25951970D01*
X39347557Y25895403D01*
X39358241Y25865197D01*
X39381395Y25802475D01*
X39406894Y25890696D01*
X39408653Y25900368D01*
X39411584Y25920884D01*
X39414808Y25943745D01*
X39423944Y26002369D01*
X39432393Y26033724D01*
X39436497Y26049551D01*
X39446543Y26108146D01*
X39447927Y26112859D01*
X39461702Y26167081D01*
X39474655Y26227013D01*
X39487788Y26281679D01*
X39502076Y26339698D01*
X39514166Y26390416D01*
X39526183Y26435552D01*
X39541793Y26495037D01*
X39557483Y26554159D01*
X39572784Y26611700D01*
X39588721Y26669568D01*
X39602093Y26709593D01*
G37*
G36*
X40321859Y26399333D02*
G01*
X40340390Y26389537D01*
X40391481Y26358110D01*
X40394026Y26356125D01*
X40431542Y26321833D01*
X40459386Y26289593D01*
X40473161Y26264094D01*
X40486936Y26238595D01*
X40494850Y26218958D01*
X40502763Y26201372D01*
X40510970Y26179684D01*
X40523940Y26120255D01*
X40526504Y26070067D01*
X40523477Y26009819D01*
X40513576Y25950239D01*
X40512728Y25946676D01*
X40494995Y25889365D01*
X40487229Y25872231D01*
X40477557Y25854645D01*
X40455869Y25822112D01*
X40434473Y25791924D01*
X40398543Y25744855D01*
X40369700Y25713375D01*
X40323977Y25675273D01*
X40287634Y25652705D01*
X40266238Y25640982D01*
X40214106Y25613685D01*
X40156382Y25596143D01*
X40144605Y25594087D01*
X40085460Y25590378D01*
X40047006Y25594087D01*
X39988618Y25610148D01*
X39966699Y25623396D01*
X39958785Y25628379D01*
X39949993Y25634241D01*
X39943252Y25638930D01*
X39901185Y25681405D01*
X39873879Y25735873D01*
X39859134Y25780200D01*
X39852334Y25838887D01*
X39851657Y25874657D01*
X39992919Y25874657D01*
X40003017Y25814005D01*
X40010076Y25793975D01*
X40041144Y25745029D01*
X40098623Y25733351D01*
X40104159Y25733305D01*
X40164186Y25747771D01*
X40217878Y25774338D01*
X40269551Y25812872D01*
X40310034Y25856378D01*
X40344335Y25907955D01*
X40347425Y25913557D01*
X40372212Y25970153D01*
X40381692Y26029520D01*
X40377027Y26085894D01*
X40365303Y26138651D01*
X40341532Y26192685D01*
X40329839Y26205476D01*
X40302289Y26189649D01*
X40272979Y26175873D01*
X40253342Y26190528D01*
X40235757Y26205476D01*
X40227843Y26213389D01*
X40211137Y26228044D01*
X40196483Y26240647D01*
X40188569Y26242405D01*
X40172742Y26238595D01*
X40155157Y26242698D01*
X40114124Y26219251D01*
X40077531Y26172887D01*
X40046997Y26117911D01*
X40022521Y26054324D01*
X40006365Y25992968D01*
X39996301Y25937004D01*
X39992919Y25874657D01*
X39851657Y25874657D01*
X39851221Y25897730D01*
X39852393Y25958839D01*
X39855910Y25997381D01*
X39870796Y26056597D01*
X39882875Y26097618D01*
X39902468Y26154180D01*
X39928706Y26210840D01*
X39942372Y26232733D01*
X39954096Y26252370D01*
X39977836Y26284610D01*
X40015645Y26326816D01*
X40061871Y26364258D01*
X40114710Y26391296D01*
X40162191Y26399209D01*
X40180949Y26405071D01*
X40201758Y26410933D01*
X40263804Y26414047D01*
X40321859Y26399333D01*
G37*
G36*
X40789407Y26558065D02*
G01*
X40848231Y26561087D01*
X40871765Y26556306D01*
X40925596Y26530181D01*
X40942400Y26519084D01*
X40960279Y26503257D01*
X40956176Y26466034D01*
X40949141Y26443466D01*
X40934487Y26417088D01*
X40927746Y26408295D01*
X40921884Y26401261D01*
X40913091Y26397451D01*
X40860042Y26403312D01*
X40800930Y26408228D01*
X40799079Y26407416D01*
X40777683Y26402433D01*
X40755994Y26397451D01*
X40750132Y26395399D01*
X40743391Y26392468D01*
X40738409Y26391589D01*
X40709979Y26384555D01*
X40677446Y26379865D01*
X40648136Y26409174D01*
X40635761Y26468319D01*
X40657809Y26495343D01*
X40673635Y26505308D01*
X40683307Y26513222D01*
X40733426Y26538428D01*
X40789407Y26558065D01*
G37*
G36*
X40724047Y26217786D02*
G01*
X40733133Y26231561D01*
X40771821Y26231561D01*
X40822819Y26223647D01*
X40834836Y26208114D01*
X40839525Y26194338D01*
X40849112Y26135081D01*
X40849197Y26125462D01*
X40847365Y26066386D01*
X40844508Y26037534D01*
X40841539Y25978431D01*
X40841284Y25966020D01*
X40843932Y25905892D01*
X40844508Y25896264D01*
X40847577Y25836551D01*
X40847732Y25827974D01*
X40859252Y25769384D01*
X40864145Y25759391D01*
X40874403Y25737702D01*
X40852714Y25704582D01*
X40830439Y25688756D01*
X40790579Y25677032D01*
X40741633Y25688756D01*
X40714668Y25735943D01*
X40701364Y25795507D01*
X40698548Y25822112D01*
X40697962Y25877800D01*
X40697669Y25924987D01*
X40697669Y25984677D01*
X40697669Y25996502D01*
X40698596Y26059201D01*
X40702022Y26119979D01*
X40710137Y26178545D01*
X40724047Y26217786D01*
G37*
G36*
X41435966Y26522894D02*
G01*
X41496186Y26530799D01*
X41498981Y26530807D01*
X41553789Y26521135D01*
X41565513Y26515273D01*
X41606839Y26487723D01*
X41629407Y26457534D01*
X41646113Y26430863D01*
X41680374Y26381604D01*
X41687146Y26360521D01*
X41693300Y26342936D01*
X41691249Y26291938D01*
X41665750Y26262629D01*
X41654905Y26258525D01*
X41646992Y26255594D01*
X41641130Y26254715D01*
X41636148Y26256474D01*
X41634389Y26260577D01*
X41598925Y26280214D01*
X41565513Y26319195D01*
X41528556Y26367229D01*
X41524480Y26372245D01*
X41494878Y26389830D01*
X41442230Y26361935D01*
X41405485Y26325057D01*
X41368213Y26279307D01*
X41333084Y26226159D01*
X41310523Y26184080D01*
X41295575Y26150668D01*
X41282972Y26121358D01*
X41271249Y26092049D01*
X41254100Y26035026D01*
X41250439Y26000019D01*
X41248812Y25940423D01*
X41253663Y25884248D01*
X41275697Y25825440D01*
X41327904Y25790159D01*
X41392882Y25790165D01*
X41456378Y25802764D01*
X41514246Y25814414D01*
X41571646Y25826394D01*
X41585150Y25829439D01*
X41643635Y25842656D01*
X41693300Y25845266D01*
X41720558Y25809802D01*
X41733294Y25752316D01*
X41708834Y25725685D01*
X41695059Y25713961D01*
X41683335Y25709858D01*
X41659888Y25702238D01*
X41648164Y25698134D01*
X41589588Y25678604D01*
X41578116Y25675566D01*
X41519535Y25662341D01*
X41498981Y25660912D01*
X41481102Y25658860D01*
X41421243Y25645973D01*
X41356596Y25644733D01*
X41296748Y25651240D01*
X41251612Y25663843D01*
X41228164Y25678497D01*
X41222009Y25680549D01*
X41184787Y25708979D01*
X41146154Y25753885D01*
X41145513Y25754994D01*
X41117742Y25810095D01*
X41100963Y25869593D01*
X41095174Y25933487D01*
X41099125Y25993000D01*
X41100377Y26001777D01*
X41111626Y26065165D01*
X41124519Y26123244D01*
X41131737Y26140996D01*
X41147564Y26175287D01*
X41163391Y26209579D01*
X41167201Y26217492D01*
X41174822Y26230095D01*
X41180977Y26244750D01*
X41207976Y26300621D01*
X41242811Y26355796D01*
X41280354Y26404257D01*
X41312575Y26440242D01*
X41358317Y26479562D01*
X41370314Y26488309D01*
X41418381Y26517325D01*
X41435966Y26522894D01*
G37*
G36*
X42382291Y26453816D02*
G01*
X42387634Y26452259D01*
X42441819Y26426229D01*
X42449183Y26421777D01*
X42497873Y26387925D01*
X42508974Y26377813D01*
X42546377Y26328778D01*
X42568096Y26272530D01*
X42574129Y26209068D01*
X42573454Y26195511D01*
X42564603Y26137418D01*
X42542093Y26087946D01*
X42505750Y26042224D01*
X42477320Y26014380D01*
X42453873Y26006467D01*
X42395585Y25992001D01*
X42330939Y25983111D01*
X42265415Y25976864D01*
X42199435Y25971623D01*
X42136263Y25969207D01*
X42076886Y25971953D01*
X42039735Y25982726D01*
X42022149Y25986536D01*
X41990495Y26011156D01*
X41981336Y25951732D01*
X41980823Y25907695D01*
X41992547Y25869593D01*
X42023225Y25818655D01*
X42029769Y25811854D01*
X42079412Y25775996D01*
X42110076Y25766132D01*
X42170087Y25762285D01*
X42203866Y25762028D01*
X42265866Y25764154D01*
X42317292Y25771700D01*
X42376698Y25776811D01*
X42395548Y25775511D01*
X42432770Y25740340D01*
X42432770Y25693445D01*
X42424857Y25681721D01*
X42411081Y25665015D01*
X42395548Y25656222D01*
X42377669Y25648309D01*
X42318674Y25630471D01*
X42255834Y25622480D01*
X42202693Y25620758D01*
X42138316Y25623020D01*
X42076327Y25631702D01*
X42037390Y25643913D01*
X41983895Y25671419D01*
X41933227Y25709337D01*
X41902275Y25745029D01*
X41870555Y25794650D01*
X41859190Y25828267D01*
X41851277Y25867248D01*
X41843611Y25931185D01*
X41848007Y25996269D01*
X41860509Y26059589D01*
X41877435Y26117841D01*
X42023908Y26117841D01*
X42084944Y26117841D01*
X42088681Y26117841D01*
X42148796Y26119902D01*
X42210249Y26125544D01*
X42224089Y26127220D01*
X42285052Y26134255D01*
X42318464Y26136599D01*
X42377388Y26142493D01*
X42383238Y26143633D01*
X42406685Y26160340D01*
X42424270Y26203424D01*
X42419927Y26263154D01*
X42416650Y26269956D01*
X42387048Y26298093D01*
X42347774Y26323005D01*
X42289021Y26331653D01*
X42229643Y26317722D01*
X42196832Y26303368D01*
X42144810Y26271744D01*
X42100825Y26231648D01*
X42076957Y26203424D01*
X42043050Y26153356D01*
X42039735Y26147737D01*
X42023908Y26117841D01*
X41877435Y26117841D01*
X41877655Y26118597D01*
X41884689Y26139237D01*
X41907877Y26195840D01*
X41939479Y26249696D01*
X41961186Y26275818D01*
X41980823Y26301317D01*
X42021351Y26346726D01*
X42038562Y26361987D01*
X42084724Y26398696D01*
X42123559Y26422656D01*
X42178953Y26448229D01*
X42199762Y26454017D01*
X42257516Y26465747D01*
X42258674Y26466034D01*
X42320539Y26467446D01*
X42382291Y26453816D01*
G37*
G36*
X43752832Y26781709D02*
G01*
X43770732Y26777883D01*
X43808248Y26768211D01*
X43828765Y26760298D01*
X43851333Y26752384D01*
X43863936Y26746522D01*
X43874780Y26738902D01*
X43884745Y26729816D01*
X43896469Y26719265D01*
X43913175Y26696697D01*
X43927829Y26674422D01*
X43931933Y26662698D01*
X43939553Y26642182D01*
X43945415Y26619614D01*
X43935192Y26559522D01*
X43929881Y26537548D01*
X43916985Y26505015D01*
X43902330Y26471017D01*
X43869071Y26421670D01*
X43865108Y26416208D01*
X43848109Y26393640D01*
X43835506Y26375176D01*
X43810007Y26349677D01*
X43765437Y26310630D01*
X43717329Y26273879D01*
X43666129Y26241519D01*
X43657013Y26236543D01*
X43602428Y26207267D01*
X43547262Y26179926D01*
X43521605Y26167960D01*
X43574654Y26121065D01*
X43618334Y26081906D01*
X43639427Y26058344D01*
X43653203Y26046620D01*
X43697443Y26007136D01*
X43700097Y26004415D01*
X43741153Y25961253D01*
X43753147Y25946676D01*
X43761060Y25934952D01*
X43764871Y25929091D01*
X43801262Y25882808D01*
X43810886Y25868421D01*
X43841386Y25818082D01*
X43843419Y25811561D01*
X43847522Y25809509D01*
X43867746Y25775218D01*
X43893650Y25721730D01*
X43903210Y25699893D01*
X43919916Y25656809D01*
X43909072Y25625448D01*
X43868918Y25599949D01*
X43831695Y25588225D01*
X43786559Y25607862D01*
X43756773Y25661304D01*
X43755199Y25664429D01*
X43727208Y25716105D01*
X43696342Y25768592D01*
X43660823Y25819474D01*
X43631514Y25856697D01*
X43588319Y25902271D01*
X43540454Y25946987D01*
X43491846Y25990775D01*
X43484089Y25997674D01*
X43436994Y26040275D01*
X43393190Y26083566D01*
X43357767Y26123117D01*
X43357767Y26064499D01*
X43357767Y26025225D01*
X43357767Y25969537D01*
X43357767Y25921763D01*
X43352912Y25861565D01*
X43354836Y25828853D01*
X43359507Y25768623D01*
X43359818Y25749719D01*
X43353141Y25691357D01*
X43338716Y25650067D01*
X43322889Y25628379D01*
X43311458Y25620758D01*
X43309407Y25620758D01*
X43276580Y25620758D01*
X43224996Y25630137D01*
X43200963Y25670584D01*
X43191291Y25699014D01*
X43191291Y25791631D01*
X43191437Y25854407D01*
X43192117Y25916976D01*
X43193635Y25955469D01*
X43198753Y26014123D01*
X43204230Y26088449D01*
X43208169Y26158342D01*
X43210568Y26223802D01*
X43211429Y26284829D01*
X43210342Y26354879D01*
X43206850Y26418002D01*
X43203601Y26452552D01*
X43201549Y26499446D01*
X43197446Y26543117D01*
X43197401Y26570668D01*
X43335492Y26570668D01*
X43341647Y26553961D01*
X43347802Y26533445D01*
X43350439Y26500033D01*
X43356702Y26438936D01*
X43359346Y26380088D01*
X43360111Y26318316D01*
X43360111Y26283145D01*
X43387662Y26289007D01*
X43414919Y26294869D01*
X43442763Y26300730D01*
X43501483Y26321410D01*
X43557550Y26350842D01*
X43567034Y26356418D01*
X43616606Y26387949D01*
X43666886Y26424946D01*
X43693356Y26447569D01*
X43736313Y26491606D01*
X43772749Y26541500D01*
X43791446Y26597805D01*
X43791542Y26601735D01*
X43791542Y26619321D01*
X43770146Y26628993D01*
X43712835Y26648119D01*
X43688960Y26650682D01*
X43654082Y26652440D01*
X43594969Y26652440D01*
X43580223Y26652440D01*
X43520071Y26650837D01*
X43500795Y26648337D01*
X43436385Y26635103D01*
X43376818Y26614998D01*
X43335492Y26570668D01*
X43197401Y26570668D01*
X43197349Y26602550D01*
X43199497Y26612873D01*
X43221186Y26667388D01*
X43232617Y26683215D01*
X43281527Y26718107D01*
X43299148Y26728644D01*
X43353095Y26753648D01*
X43417631Y26771509D01*
X43482784Y26781276D01*
X43545082Y26785294D01*
X43578464Y26785797D01*
X43637285Y26785797D01*
X43643238Y26785797D01*
X43694236Y26785797D01*
X43752832Y26781709D01*
G37*
G36*
X44606269Y26453816D02*
G01*
X44611612Y26452259D01*
X44665797Y26426229D01*
X44673161Y26421777D01*
X44721851Y26387925D01*
X44732952Y26377813D01*
X44770355Y26328778D01*
X44792074Y26272530D01*
X44798107Y26209068D01*
X44797432Y26195511D01*
X44788581Y26137418D01*
X44766071Y26087946D01*
X44729728Y26042224D01*
X44701298Y26014380D01*
X44677850Y26006467D01*
X44619563Y25992001D01*
X44554917Y25983111D01*
X44489393Y25976864D01*
X44423413Y25971623D01*
X44360241Y25969207D01*
X44300864Y25971953D01*
X44263712Y25982726D01*
X44246127Y25986536D01*
X44214473Y26011156D01*
X44205314Y25951732D01*
X44204801Y25907695D01*
X44216524Y25869593D01*
X44247203Y25818655D01*
X44253747Y25811854D01*
X44303389Y25775996D01*
X44334054Y25766132D01*
X44394065Y25762285D01*
X44427843Y25762028D01*
X44489843Y25764154D01*
X44541270Y25771700D01*
X44600676Y25776811D01*
X44619525Y25775511D01*
X44656748Y25740340D01*
X44656748Y25693445D01*
X44648834Y25681721D01*
X44635059Y25665015D01*
X44619525Y25656222D01*
X44601647Y25648309D01*
X44542652Y25630471D01*
X44479812Y25622480D01*
X44426671Y25620758D01*
X44362294Y25623020D01*
X44300305Y25631702D01*
X44261367Y25643913D01*
X44207873Y25671419D01*
X44157204Y25709337D01*
X44126252Y25745029D01*
X44094532Y25794650D01*
X44083168Y25828267D01*
X44075254Y25867248D01*
X44067588Y25931185D01*
X44071985Y25996269D01*
X44084487Y26059589D01*
X44101413Y26117841D01*
X44247885Y26117841D01*
X44308922Y26117841D01*
X44312658Y26117841D01*
X44372774Y26119902D01*
X44434227Y26125544D01*
X44448067Y26127220D01*
X44509030Y26134255D01*
X44542442Y26136599D01*
X44601366Y26142493D01*
X44607215Y26143633D01*
X44630663Y26160340D01*
X44648248Y26203424D01*
X44643905Y26263154D01*
X44640628Y26269956D01*
X44611026Y26298093D01*
X44571751Y26323005D01*
X44512999Y26331653D01*
X44453621Y26317722D01*
X44420809Y26303368D01*
X44368787Y26271744D01*
X44324803Y26231648D01*
X44300935Y26203424D01*
X44267028Y26153356D01*
X44263712Y26147737D01*
X44247885Y26117841D01*
X44101413Y26117841D01*
X44101633Y26118597D01*
X44108667Y26139237D01*
X44131855Y26195840D01*
X44163457Y26249696D01*
X44185164Y26275818D01*
X44204801Y26301317D01*
X44245329Y26346726D01*
X44262540Y26361987D01*
X44308702Y26398696D01*
X44347536Y26422656D01*
X44402931Y26448229D01*
X44423740Y26454017D01*
X44481494Y26465747D01*
X44482651Y26466034D01*
X44544517Y26467446D01*
X44606269Y26453816D01*
G37*
G36*
X45262568Y26522894D02*
G01*
X45322788Y26530799D01*
X45325582Y26530807D01*
X45380390Y26521135D01*
X45392114Y26515273D01*
X45433440Y26487723D01*
X45456008Y26457534D01*
X45472714Y26430863D01*
X45506975Y26381604D01*
X45513747Y26360521D01*
X45519902Y26342936D01*
X45517850Y26291938D01*
X45492351Y26262629D01*
X45481507Y26258525D01*
X45473594Y26255594D01*
X45467732Y26254715D01*
X45462749Y26256474D01*
X45460991Y26260577D01*
X45425527Y26280214D01*
X45392114Y26319195D01*
X45355157Y26367229D01*
X45351081Y26372245D01*
X45321479Y26389830D01*
X45268832Y26361935D01*
X45232086Y26325057D01*
X45194815Y26279307D01*
X45159685Y26226159D01*
X45137125Y26184080D01*
X45122177Y26150668D01*
X45109574Y26121358D01*
X45097850Y26092049D01*
X45080701Y26035026D01*
X45077041Y26000019D01*
X45075414Y25940423D01*
X45080265Y25884248D01*
X45102298Y25825440D01*
X45154505Y25790159D01*
X45219483Y25790165D01*
X45282980Y25802764D01*
X45340847Y25814414D01*
X45398247Y25826394D01*
X45411751Y25829439D01*
X45470237Y25842656D01*
X45519902Y25845266D01*
X45547160Y25809802D01*
X45559895Y25752316D01*
X45535436Y25725685D01*
X45521661Y25713961D01*
X45509937Y25709858D01*
X45486490Y25702238D01*
X45474766Y25698134D01*
X45416190Y25678604D01*
X45404717Y25675566D01*
X45346137Y25662341D01*
X45325582Y25660912D01*
X45307704Y25658860D01*
X45247844Y25645973D01*
X45183198Y25644733D01*
X45123349Y25651240D01*
X45078213Y25663843D01*
X45054766Y25678497D01*
X45048611Y25680549D01*
X45011388Y25708979D01*
X44972756Y25753885D01*
X44972114Y25754994D01*
X44944344Y25810095D01*
X44927564Y25869593D01*
X44921776Y25933487D01*
X44925727Y25993000D01*
X44926978Y26001777D01*
X44938227Y26065165D01*
X44951120Y26123244D01*
X44958339Y26140996D01*
X44974166Y26175287D01*
X44989993Y26209579D01*
X44993803Y26217492D01*
X45001423Y26230095D01*
X45007578Y26244750D01*
X45034577Y26300621D01*
X45069412Y26355796D01*
X45106956Y26404257D01*
X45139176Y26440242D01*
X45184918Y26479562D01*
X45196915Y26488309D01*
X45244982Y26517325D01*
X45262568Y26522894D01*
G37*
G36*
X46139137Y26399333D02*
G01*
X46157669Y26389537D01*
X46208760Y26358110D01*
X46211305Y26356125D01*
X46248820Y26321833D01*
X46276664Y26289593D01*
X46290439Y26264094D01*
X46304215Y26238595D01*
X46312128Y26218958D01*
X46320042Y26201372D01*
X46328248Y26179684D01*
X46341218Y26120255D01*
X46343782Y26070067D01*
X46340755Y26009819D01*
X46330854Y25950239D01*
X46330007Y25946676D01*
X46312274Y25889365D01*
X46304508Y25872231D01*
X46294836Y25854645D01*
X46273147Y25822112D01*
X46251751Y25791924D01*
X46215821Y25744855D01*
X46186978Y25713375D01*
X46141256Y25675273D01*
X46104912Y25652705D01*
X46083517Y25640982D01*
X46031384Y25613685D01*
X45973660Y25596143D01*
X45961884Y25594087D01*
X45902739Y25590378D01*
X45864284Y25594087D01*
X45805897Y25610148D01*
X45783977Y25623396D01*
X45776064Y25628379D01*
X45767271Y25634241D01*
X45760530Y25638930D01*
X45718463Y25681405D01*
X45691157Y25735873D01*
X45676413Y25780200D01*
X45669612Y25838887D01*
X45668935Y25874657D01*
X45810197Y25874657D01*
X45820295Y25814005D01*
X45827355Y25793975D01*
X45858423Y25745029D01*
X45915902Y25733351D01*
X45921437Y25733305D01*
X45981464Y25747771D01*
X46035157Y25774338D01*
X46086829Y25812872D01*
X46127312Y25856378D01*
X46161613Y25907955D01*
X46164703Y25913557D01*
X46189491Y25970153D01*
X46198971Y26029520D01*
X46194305Y26085894D01*
X46182582Y26138651D01*
X46158810Y26192685D01*
X46147118Y26205476D01*
X46119567Y26189649D01*
X46090258Y26175873D01*
X46070621Y26190528D01*
X46053035Y26205476D01*
X46045122Y26213389D01*
X46028416Y26228044D01*
X46013761Y26240647D01*
X46005848Y26242405D01*
X45990021Y26238595D01*
X45972435Y26242698D01*
X45931402Y26219251D01*
X45894809Y26172887D01*
X45864275Y26117911D01*
X45839800Y26054324D01*
X45823643Y25992968D01*
X45813580Y25937004D01*
X45810197Y25874657D01*
X45668935Y25874657D01*
X45668499Y25897730D01*
X45669672Y25958839D01*
X45673189Y25997381D01*
X45688075Y26056597D01*
X45700153Y26097618D01*
X45719746Y26154180D01*
X45745985Y26210840D01*
X45759651Y26232733D01*
X45771374Y26252370D01*
X45795115Y26284610D01*
X45832924Y26326816D01*
X45879150Y26364258D01*
X45931989Y26391296D01*
X45979469Y26399209D01*
X45998227Y26405071D01*
X46019037Y26410933D01*
X46081082Y26414047D01*
X46139137Y26399333D01*
G37*
G36*
X46751179Y26419726D02*
G01*
X46811222Y26425351D01*
X46814780Y26425587D01*
X46873613Y26429494D01*
X46878674Y26429691D01*
X46939344Y26417967D01*
X46998158Y26402411D01*
X47018185Y26396278D01*
X47040460Y26387485D01*
X47064201Y26378693D01*
X47083838Y26370779D01*
X47105233Y26361107D01*
X47124871Y26350263D01*
X47145680Y26337660D01*
X47163266Y26322712D01*
X47180851Y26304248D01*
X47204298Y26270835D01*
X47202540Y26235664D01*
X47167076Y26200493D01*
X47145680Y26192580D01*
X47086824Y26197416D01*
X47063321Y26214268D01*
X47012050Y26246790D01*
X47006169Y26249439D01*
X46948237Y26267243D01*
X46888354Y26277309D01*
X46883656Y26277869D01*
X46824055Y26281973D01*
X46766713Y26276697D01*
X46709884Y26257104D01*
X46659332Y26221358D01*
X46637166Y26192580D01*
X46631012Y26165029D01*
X46637166Y26139530D01*
X46637166Y26076246D01*
X46637166Y26017578D01*
X46637166Y25957287D01*
X46637166Y25929970D01*
X46637166Y25867757D01*
X46637166Y25805707D01*
X46637166Y25775218D01*
X46637702Y25713627D01*
X46640977Y25663550D01*
X46633356Y25604638D01*
X46578223Y25584266D01*
X46554515Y25583243D01*
X46514947Y25594966D01*
X46495370Y25651913D01*
X46494431Y25657688D01*
X46484759Y25716306D01*
X46475457Y25776420D01*
X46473621Y25792803D01*
X46465271Y25853147D01*
X46464243Y25860214D01*
X46458761Y25919776D01*
X46458674Y25927039D01*
X46458674Y25986078D01*
X46458674Y26026104D01*
X46459323Y26085398D01*
X46462553Y26146979D01*
X46466880Y26174994D01*
X46487117Y26231240D01*
X46517398Y26282305D01*
X46528723Y26294576D01*
X46544843Y26318023D01*
X46550998Y26331798D01*
X46575910Y26347332D01*
X46627348Y26378670D01*
X46683310Y26400944D01*
X46743856Y26418004D01*
X46751179Y26419726D01*
G37*
G36*
X47988611Y26866104D02*
G01*
X48002093Y26864052D01*
X48047229Y26838553D01*
X48047229Y26797520D01*
X48041038Y26739192D01*
X48037850Y26716334D01*
X48030816Y26655005D01*
X48028471Y26601735D01*
X48028471Y26541210D01*
X48028471Y26482501D01*
X48028471Y26477465D01*
X48028471Y26415378D01*
X48028471Y26361107D01*
X48023615Y26301852D01*
X48016364Y26238833D01*
X48014696Y26225113D01*
X48007804Y26162127D01*
X48003979Y26102239D01*
X48004731Y26075343D01*
X48006494Y26014137D01*
X48006781Y25951096D01*
X48006783Y25944331D01*
X48006783Y25883263D01*
X48006783Y25822772D01*
X48006783Y25801303D01*
X48002381Y25742587D01*
X47980111Y25703410D01*
X47932631Y25699600D01*
X47888960Y25703410D01*
X47861702Y25701358D01*
X47804361Y25680740D01*
X47769379Y25675860D01*
X47757655Y25675860D01*
X47749742Y25674101D01*
X47690830Y25664136D01*
X47630543Y25658967D01*
X47606420Y25658274D01*
X47541903Y25663037D01*
X47483761Y25677325D01*
X47425971Y25704785D01*
X47386601Y25734478D01*
X47355240Y25780200D01*
X47333442Y25836107D01*
X47331793Y25843508D01*
X47329130Y25893236D01*
X47469783Y25893236D01*
X47471012Y25883075D01*
X47491036Y25826768D01*
X47506183Y25812440D01*
X47563598Y25797101D01*
X47602610Y25795441D01*
X47662903Y25798747D01*
X47706657Y25804820D01*
X47768014Y25817143D01*
X47825973Y25832934D01*
X47836203Y25836767D01*
X47859651Y25847904D01*
X47859651Y25863438D01*
X47859651Y25923566D01*
X47859651Y25957520D01*
X47859651Y26022275D01*
X47859651Y26081418D01*
X47859651Y26141223D01*
X47859651Y26147737D01*
X47843222Y26204205D01*
X47814515Y26241526D01*
X47754128Y26244889D01*
X47704605Y26237716D01*
X47646278Y26221567D01*
X47592532Y26193082D01*
X47586783Y26188770D01*
X47546629Y26144659D01*
X47515299Y26090044D01*
X47508234Y26075050D01*
X47485501Y26014718D01*
X47471499Y25953500D01*
X47469783Y25893236D01*
X47329130Y25893236D01*
X47328484Y25905303D01*
X47334101Y25964683D01*
X47337655Y25990054D01*
X47352653Y26048992D01*
X47369016Y26099084D01*
X47394643Y26158471D01*
X47426388Y26211777D01*
X47464252Y26259002D01*
X47508234Y26300144D01*
X47559111Y26333533D01*
X47580921Y26342936D01*
X47608471Y26352608D01*
X47666875Y26365996D01*
X47698744Y26372245D01*
X47759043Y26381555D01*
X47818050Y26380743D01*
X47834152Y26376055D01*
X47885150Y26356711D01*
X47885150Y26416872D01*
X47885150Y26423536D01*
X47886231Y26487613D01*
X47889473Y26552056D01*
X47894877Y26616866D01*
X47902442Y26682042D01*
X47911754Y26745858D01*
X47923159Y26803736D01*
X47930286Y26820675D01*
X47934389Y26834743D01*
X47935561Y26843536D01*
X47938492Y26847346D01*
X47944647Y26851449D01*
X47950802Y26858190D01*
X47957836Y26866104D01*
X47967215Y26868155D01*
X47976301Y26868155D01*
X47988611Y26866104D01*
G37*
G36*
X48695480Y26453816D02*
G01*
X48700823Y26452259D01*
X48755008Y26426229D01*
X48762372Y26421777D01*
X48811062Y26387925D01*
X48822163Y26377813D01*
X48859567Y26328778D01*
X48881285Y26272530D01*
X48887319Y26209068D01*
X48886643Y26195511D01*
X48877792Y26137418D01*
X48855282Y26087946D01*
X48818939Y26042224D01*
X48790509Y26014380D01*
X48767062Y26006467D01*
X48708774Y25992001D01*
X48644128Y25983111D01*
X48578604Y25976864D01*
X48512624Y25971623D01*
X48449452Y25969207D01*
X48390075Y25971953D01*
X48352924Y25982726D01*
X48335338Y25986536D01*
X48303684Y26011156D01*
X48294525Y25951732D01*
X48294012Y25907695D01*
X48305736Y25869593D01*
X48336414Y25818655D01*
X48342959Y25811854D01*
X48392601Y25775996D01*
X48423266Y25766132D01*
X48483276Y25762285D01*
X48517055Y25762028D01*
X48579055Y25764154D01*
X48630481Y25771700D01*
X48689887Y25776811D01*
X48708737Y25775511D01*
X48745959Y25740340D01*
X48745959Y25693445D01*
X48738046Y25681721D01*
X48724270Y25665015D01*
X48708737Y25656222D01*
X48690858Y25648309D01*
X48631863Y25630471D01*
X48569024Y25622480D01*
X48515882Y25620758D01*
X48451505Y25623020D01*
X48389517Y25631702D01*
X48350579Y25643913D01*
X48297084Y25671419D01*
X48246416Y25709337D01*
X48215464Y25745029D01*
X48183744Y25794650D01*
X48172379Y25828267D01*
X48164466Y25867248D01*
X48156800Y25931185D01*
X48161196Y25996269D01*
X48173698Y26059589D01*
X48190624Y26117841D01*
X48337097Y26117841D01*
X48398133Y26117841D01*
X48401870Y26117841D01*
X48461985Y26119902D01*
X48523438Y26125544D01*
X48537278Y26127220D01*
X48598241Y26134255D01*
X48631654Y26136599D01*
X48690578Y26142493D01*
X48696427Y26143633D01*
X48719874Y26160340D01*
X48737460Y26203424D01*
X48733116Y26263154D01*
X48729839Y26269956D01*
X48700237Y26298093D01*
X48660963Y26323005D01*
X48602210Y26331653D01*
X48542832Y26317722D01*
X48510021Y26303368D01*
X48457999Y26271744D01*
X48414015Y26231648D01*
X48390146Y26203424D01*
X48356239Y26153356D01*
X48352924Y26147737D01*
X48337097Y26117841D01*
X48190624Y26117841D01*
X48190844Y26118597D01*
X48197878Y26139237D01*
X48221067Y26195840D01*
X48252668Y26249696D01*
X48274375Y26275818D01*
X48294012Y26301317D01*
X48334540Y26346726D01*
X48351751Y26361987D01*
X48397913Y26398696D01*
X48436748Y26422656D01*
X48492142Y26448229D01*
X48512952Y26454017D01*
X48570705Y26465747D01*
X48571863Y26466034D01*
X48633728Y26467446D01*
X48695480Y26453816D01*
G37*
G36*
X49295213Y26419726D02*
G01*
X49355255Y26425351D01*
X49358813Y26425587D01*
X49417646Y26429494D01*
X49422707Y26429691D01*
X49483377Y26417967D01*
X49542192Y26402411D01*
X49562219Y26396278D01*
X49584494Y26387485D01*
X49608234Y26378693D01*
X49627871Y26370779D01*
X49649267Y26361107D01*
X49668904Y26350263D01*
X49689714Y26337660D01*
X49707299Y26322712D01*
X49724885Y26304248D01*
X49748332Y26270835D01*
X49746573Y26235664D01*
X49711109Y26200493D01*
X49689714Y26192580D01*
X49630857Y26197416D01*
X49607355Y26214268D01*
X49556083Y26246790D01*
X49550202Y26249439D01*
X49492270Y26267243D01*
X49432388Y26277309D01*
X49427690Y26277869D01*
X49368088Y26281973D01*
X49310746Y26276697D01*
X49253917Y26257104D01*
X49203365Y26221358D01*
X49181200Y26192580D01*
X49175045Y26165029D01*
X49181200Y26139530D01*
X49181200Y26076246D01*
X49181200Y26017578D01*
X49181200Y25957287D01*
X49181200Y25929970D01*
X49181200Y25867757D01*
X49181200Y25805707D01*
X49181200Y25775218D01*
X49181736Y25713627D01*
X49185010Y25663550D01*
X49177390Y25604638D01*
X49122256Y25584266D01*
X49098548Y25583243D01*
X49058981Y25594966D01*
X49039403Y25651913D01*
X49038464Y25657688D01*
X49028792Y25716306D01*
X49019490Y25776420D01*
X49017655Y25792803D01*
X49009305Y25853147D01*
X49008276Y25860214D01*
X49002794Y25919776D01*
X49002707Y25927039D01*
X49002707Y25986078D01*
X49002707Y26026104D01*
X49003356Y26085398D01*
X49006586Y26146979D01*
X49010914Y26174994D01*
X49031151Y26231240D01*
X49061432Y26282305D01*
X49072756Y26294576D01*
X49088876Y26318023D01*
X49095031Y26331798D01*
X49119944Y26347332D01*
X49171381Y26378670D01*
X49227344Y26400944D01*
X49287890Y26418004D01*
X49295213Y26419726D01*
G37*
G36*
X19755704Y39779986D02*
G01*
X17912017Y39779986D01*
X17912017Y40331509D01*
X18067573Y40331509D01*
X18074601Y40252894D01*
X18093662Y40179666D01*
X18121723Y40113394D01*
X18164835Y40042729D01*
X18211344Y39988455D01*
X18270886Y39945852D01*
X18290860Y39941355D01*
X18353267Y39969906D01*
X18365403Y40012137D01*
X18338174Y40082327D01*
X18288181Y40136649D01*
X18246247Y40203853D01*
X18227673Y40275431D01*
X18224182Y40331509D01*
X18232826Y40406880D01*
X18263575Y40482108D01*
X18312426Y40539878D01*
X18375010Y40579286D01*
X18446960Y40599423D01*
X18485082Y40601983D01*
X18563304Y40585887D01*
X18624699Y40551387D01*
X18682424Y40502350D01*
X18736267Y40443120D01*
X18786016Y40378041D01*
X18831462Y40311456D01*
X18840016Y40298340D01*
X18879144Y40240876D01*
X18921588Y40186897D01*
X18983516Y40121163D01*
X19051771Y40063587D01*
X19126602Y40015292D01*
X19208258Y39977400D01*
X19274127Y39956482D01*
X19344079Y39942520D01*
X19418219Y39935987D01*
X19443882Y39935542D01*
X19516594Y39949423D01*
X19565009Y39999946D01*
X19580474Y40072303D01*
X19581000Y40092493D01*
X19581000Y40703881D01*
X19561723Y40772825D01*
X19502695Y40802018D01*
X19441317Y40770205D01*
X19424391Y40703881D01*
X19424391Y40094202D01*
X19343413Y40103759D01*
X19270561Y40122829D01*
X19205146Y40150474D01*
X19146479Y40185757D01*
X19081585Y40239172D01*
X19024812Y40301224D01*
X18974813Y40370082D01*
X18965508Y40384509D01*
X18924248Y40448409D01*
X18879381Y40513266D01*
X18830027Y40576159D01*
X18775303Y40634168D01*
X18714329Y40684371D01*
X18646221Y40723847D01*
X18570099Y40749675D01*
X18485082Y40758934D01*
X18400678Y40750778D01*
X18322185Y40727155D01*
X18251249Y40689330D01*
X18189517Y40638571D01*
X18138637Y40576143D01*
X18100255Y40503312D01*
X18076018Y40421345D01*
X18067573Y40331509D01*
X17912017Y40331509D01*
X17912017Y41687984D01*
X18070993Y41687984D01*
X18084787Y41620058D01*
X18123140Y41562701D01*
X18135961Y41548815D01*
X18363351Y41292018D01*
X18416259Y41248536D01*
X18463198Y41239017D01*
X18521021Y41280524D01*
X18527824Y41309457D01*
X18499678Y41374428D01*
X18488843Y41388103D01*
X18261453Y41644558D01*
X19502011Y41644558D01*
X19568335Y41661639D01*
X19600148Y41723204D01*
X19567521Y41784582D01*
X19502011Y41801509D01*
X18198536Y41801509D01*
X18127977Y41787227D01*
X18078924Y41734776D01*
X18070993Y41687984D01*
X17912017Y41687984D01*
X17912017Y41957065D01*
X19755704Y41957065D01*
X19755704Y39779986D01*
G37*
G36*
X23798140Y44550331D02*
G01*
X24086222Y44515805D01*
X24367149Y44458263D01*
X24640921Y44377703D01*
X24907536Y44274126D01*
X25166997Y44147533D01*
X25268777Y44090451D01*
X25513187Y43934913D01*
X25741139Y43762917D01*
X25952633Y43574464D01*
X26147670Y43369553D01*
X26326249Y43148184D01*
X26488370Y42910357D01*
X26548610Y42810618D01*
X26684410Y42554020D01*
X26797194Y42290266D01*
X26886960Y42019357D01*
X26953709Y41741292D01*
X26997442Y41456072D01*
X27018157Y41163696D01*
X27019999Y41044742D01*
X27008490Y40749534D01*
X26973964Y40461541D01*
X26916422Y40180763D01*
X26835862Y39907200D01*
X26732286Y39640853D01*
X26605692Y39381720D01*
X26548610Y39280088D01*
X26393072Y39035326D01*
X26221076Y38807082D01*
X26032623Y38595355D01*
X25827712Y38400146D01*
X25606343Y38221454D01*
X25368516Y38059279D01*
X25268777Y37999034D01*
X25012179Y37863234D01*
X24748426Y37750450D01*
X24477516Y37660684D01*
X24199452Y37593934D01*
X23914231Y37550202D01*
X23621855Y37529487D01*
X23502902Y37527645D01*
X23207693Y37539154D01*
X22919700Y37573679D01*
X22638922Y37631222D01*
X22365360Y37711782D01*
X22099012Y37815358D01*
X21839880Y37941952D01*
X21738247Y37999034D01*
X21493485Y38154602D01*
X21265241Y38326687D01*
X21053514Y38515289D01*
X20858305Y38720409D01*
X20679613Y38942046D01*
X20517438Y39180201D01*
X20457193Y39280088D01*
X20321393Y39536334D01*
X20208609Y39799795D01*
X20118843Y40070472D01*
X20052094Y40348364D01*
X20008361Y40633471D01*
X19987646Y40925793D01*
X19986353Y41009327D01*
X20760054Y41009327D01*
X20790227Y40749247D01*
X20880745Y40513972D01*
X21031608Y40303503D01*
X21069022Y40264386D01*
X21274648Y40100810D01*
X21505319Y39997818D01*
X21761035Y39955410D01*
X21815183Y39954198D01*
X22075383Y39984490D01*
X22311015Y40075365D01*
X22522080Y40226825D01*
X22561345Y40264386D01*
X22724277Y40469894D01*
X22826864Y40700207D01*
X22869106Y40955327D01*
X22870313Y41009327D01*
X22840140Y41269527D01*
X22749622Y41505159D01*
X22598759Y41716224D01*
X22561345Y41755489D01*
X22355194Y41918421D01*
X22124475Y42021008D01*
X21869189Y42063249D01*
X21815183Y42064456D01*
X21554459Y42034284D01*
X21318779Y41943766D01*
X21108143Y41792903D01*
X21069022Y41755489D01*
X20906090Y41549338D01*
X20803503Y41318619D01*
X20761261Y41063332D01*
X20760054Y41009327D01*
X19986353Y41009327D01*
X19985805Y41044742D01*
X19997313Y41339980D01*
X20009204Y41439194D01*
X20288666Y41439194D01*
X20379493Y41680613D01*
X20504210Y41899287D01*
X20662815Y42095216D01*
X20855309Y42268399D01*
X21071922Y42409983D01*
X21304105Y42511115D01*
X21551859Y42571794D01*
X21815183Y42592021D01*
X22072290Y42572853D01*
X22314670Y42515351D01*
X22542323Y42419515D01*
X22755251Y42285343D01*
X22870313Y42191462D01*
X22870313Y42311141D01*
X23397877Y42556606D01*
X23397877Y41009327D01*
X23397877Y39462049D01*
X22870313Y39462049D01*
X22870313Y39828413D01*
X22665800Y39671860D01*
X22446561Y39553759D01*
X22212596Y39474109D01*
X21963904Y39432911D01*
X21815183Y39426633D01*
X21561324Y39445791D01*
X21321202Y39503265D01*
X21094820Y39599054D01*
X20882176Y39733158D01*
X20692048Y39896648D01*
X20515560Y40106485D01*
X20378678Y40343756D01*
X20309426Y40517178D01*
X20367930Y40233169D01*
X20448797Y39961220D01*
X20552028Y39701330D01*
X20677622Y39453500D01*
X20825580Y39217729D01*
X20995901Y38994018D01*
X21188586Y38782367D01*
X21403634Y38582774D01*
X21634119Y38401310D01*
X21873725Y38244040D01*
X22122452Y38110966D01*
X22380300Y38002087D01*
X22647269Y37917403D01*
X22923359Y37856915D01*
X23208570Y37820622D01*
X23502902Y37808525D01*
X23797252Y37820622D01*
X24082520Y37856915D01*
X24358706Y37917403D01*
X24625808Y38002087D01*
X24883828Y38110966D01*
X25132765Y38244040D01*
X25372619Y38401310D01*
X25603390Y38582774D01*
X25818152Y38782367D01*
X26010589Y38994018D01*
X26180700Y39217729D01*
X26328486Y39453500D01*
X26453947Y39701330D01*
X26557082Y39961220D01*
X26637892Y40233169D01*
X26696377Y40517178D01*
X26600130Y40288658D01*
X26454446Y40057484D01*
X26291700Y39875027D01*
X26123627Y39733158D01*
X25910983Y39599054D01*
X25684601Y39503265D01*
X25444479Y39445791D01*
X25190620Y39426633D01*
X24933513Y39445859D01*
X24691133Y39503537D01*
X24463480Y39599665D01*
X24250552Y39734246D01*
X24135490Y39828413D01*
X24135490Y39462049D01*
X23607926Y39462049D01*
X23607926Y41009327D01*
X24135490Y41009327D01*
X24165782Y40749247D01*
X24256658Y40513972D01*
X24408117Y40303503D01*
X24445679Y40264386D01*
X24651306Y40100810D01*
X24881977Y39997818D01*
X25137692Y39955410D01*
X25191841Y39954198D01*
X25451921Y39984490D01*
X25687196Y40075365D01*
X25897664Y40226825D01*
X25936781Y40264386D01*
X26099713Y40469894D01*
X26202300Y40700207D01*
X26244542Y40955327D01*
X26245749Y41009327D01*
X26215576Y41269527D01*
X26125058Y41505159D01*
X25974195Y41716224D01*
X25936781Y41755489D01*
X25731274Y41918421D01*
X25500961Y42021008D01*
X25245841Y42063249D01*
X25191841Y42064456D01*
X24931116Y42034284D01*
X24695436Y41943766D01*
X24484801Y41792903D01*
X24445679Y41755489D01*
X24282103Y41549338D01*
X24179111Y41318619D01*
X24136702Y41063332D01*
X24135490Y41009327D01*
X23607926Y41009327D01*
X23607926Y42556606D01*
X24135490Y42311141D01*
X24135490Y42191462D01*
X24340003Y42347539D01*
X24559242Y42465282D01*
X24793207Y42544689D01*
X25041899Y42585762D01*
X25190620Y42592021D01*
X25454020Y42571794D01*
X25702003Y42511115D01*
X25934568Y42409983D01*
X26151715Y42268399D01*
X26343675Y42095216D01*
X26501898Y41899287D01*
X26626386Y41680613D01*
X26717137Y41439194D01*
X26678080Y41683676D01*
X26608700Y41967608D01*
X26514762Y42241236D01*
X26396266Y42504561D01*
X26253212Y42757581D01*
X26172476Y42880227D01*
X25995848Y43113412D01*
X25801189Y43327535D01*
X25588497Y43522596D01*
X25357773Y43698593D01*
X25151729Y43830697D01*
X25022092Y43903605D01*
X24799530Y44012316D01*
X24571483Y44102601D01*
X24337950Y44174460D01*
X24098930Y44227894D01*
X23854425Y44262903D01*
X23604434Y44279486D01*
X23502902Y44280960D01*
X23250716Y44271747D01*
X23004016Y44244109D01*
X22762803Y44198045D01*
X22527075Y44133556D01*
X22296833Y44050641D01*
X22072077Y43949300D01*
X21983711Y43903605D01*
X21770154Y43779444D01*
X21530414Y43612977D01*
X21308706Y43427448D01*
X21105031Y43222857D01*
X20919387Y42999203D01*
X20833327Y42880227D01*
X20677994Y42632359D01*
X20547220Y42374187D01*
X20441003Y42105710D01*
X20359343Y41826930D01*
X20310054Y41586742D01*
X20288666Y41439194D01*
X20009204Y41439194D01*
X20031839Y41628063D01*
X20089381Y41908990D01*
X20169941Y42182761D01*
X20273517Y42449377D01*
X20400111Y42708838D01*
X20457193Y42810618D01*
X20612761Y43055028D01*
X20784846Y43282980D01*
X20973448Y43494474D01*
X21178568Y43689511D01*
X21400206Y43868089D01*
X21638360Y44030210D01*
X21738247Y44090451D01*
X21994493Y44226251D01*
X22257955Y44339034D01*
X22528631Y44428801D01*
X22806523Y44495550D01*
X23091630Y44539283D01*
X23383952Y44559998D01*
X23502902Y44561839D01*
X23798140Y44550331D01*
G37*
D11*
%TO.C,D6*%
X59527244Y43942462D02*
X59810086Y43659619D01*
X59527244Y43659619D02*
X59810086Y43942462D01*
D12*
X59296294Y42934835D02*
G75*
G02*
X59171294Y42934835I-62500J0D01*
G01*
X59171294Y42934835D02*
G75*
G02*
X59296294Y42934835I62500J0D01*
G01*
D13*
G36*
X60444849Y42888029D02*
G01*
X60213820Y42836215D01*
X60268072Y43064805D01*
X60444849Y42888029D01*
G37*
D14*
%TO.C,U3*%
X49100000Y40350000D02*
X49100000Y39850000D01*
X49600000Y40350000D02*
X49100000Y40350000D01*
D11*
%TO.C,D5*%
X29370000Y31120000D02*
X29770000Y31120000D01*
X29570000Y30920000D02*
X29570000Y31320000D01*
D12*
X29937500Y30200000D02*
G75*
G02*
X29812500Y30200000I-62500J0D01*
G01*
X29812500Y30200000D02*
G75*
G02*
X29937500Y30200000I62500J0D01*
G01*
D13*
G36*
X30637718Y30823248D02*
G01*
X30514442Y31023248D01*
X30764442Y31023248D01*
X30637718Y30823248D01*
G37*
D15*
%TO.C,C1*%
X51300000Y32000000D02*
X49500000Y32000000D01*
D14*
X51750000Y34200000D02*
X51750000Y33500000D01*
X52100000Y33850000D02*
X51400000Y33850000D01*
%TO.C,U4*%
X52400000Y41650000D02*
X52900000Y41650000D01*
X52900000Y41650000D02*
X52900000Y42150000D01*
D11*
%TO.C,D4*%
X30220000Y39730000D02*
X30620000Y39730000D01*
X30420000Y39930000D02*
X30420000Y39530000D01*
D12*
X29562500Y39425000D02*
G75*
G02*
X29437500Y39425000I-62500J0D01*
G01*
X29437500Y39425000D02*
G75*
G02*
X29562500Y39425000I62500J0D01*
G01*
D13*
G36*
X30323248Y38535558D02*
G01*
X30123248Y38662282D01*
X30323248Y38785558D01*
X30323248Y38535558D01*
G37*
D11*
%TO.C,D1*%
X52080000Y26670000D02*
X52080000Y27070000D01*
X52280000Y26870000D02*
X51880000Y26870000D01*
D12*
X53062500Y27175000D02*
G75*
G02*
X52937500Y27175000I-62500J0D01*
G01*
X52937500Y27175000D02*
G75*
G02*
X53062500Y27175000I62500J0D01*
G01*
D13*
G36*
X52376752Y27937718D02*
G01*
X52176752Y27814442D01*
X52176752Y28064442D01*
X52376752Y27937718D01*
G37*
D16*
%TO.C,D3*%
X55100000Y44500000D02*
X55100000Y42700000D01*
D14*
%TO.C,U6*%
X31000000Y43030000D02*
X31000000Y42530000D01*
D16*
X31150000Y47925000D02*
X31150000Y43500000D01*
X31150000Y47925000D02*
X46850000Y47925000D01*
X31150000Y42100000D02*
X31150000Y27125000D01*
X31150000Y27125000D02*
X46850000Y27125000D01*
D14*
X31500000Y43030000D02*
X31000000Y43030000D01*
D16*
X46850000Y47925000D02*
X46850000Y27125000D01*
%TD*%
%LPC*%
%TO.C,V1*%
X0Y45000000D02*
X70000000Y45000000D01*
%TO.C,PCB1*%
G36*
X0Y70000000D02*
G01*
X70000000Y70000000D01*
X70000000Y63000000D01*
X0Y63000000D01*
X0Y70000000D01*
G37*
G36*
X0Y7000000D02*
G01*
X70000000Y7000000D01*
X70000000Y0D01*
X0Y0D01*
X0Y7000000D01*
G37*
%TO.C,V2*%
X70500000Y25000000D02*
X500000Y25000000D01*
%TD*%
D17*
%TO.C,R10*%
X36450000Y25700000D03*
X36450000Y26700000D03*
%TD*%
D18*
%TO.C,D6*%
X59498959Y43200000D03*
D19*
X60100000Y43801041D03*
X60100000Y42598959D03*
D20*
X60701041Y43200000D03*
%TD*%
D17*
%TO.C,R11*%
X35600000Y25700000D03*
X35600000Y26700000D03*
%TD*%
D21*
%TO.C,U3*%
X50062500Y39750000D03*
X50062500Y38800000D03*
X50062500Y37850000D03*
X52337500Y37850000D03*
X52337500Y39750000D03*
%TD*%
D17*
%TO.C,R12*%
X34750000Y25700000D03*
X34750000Y26700000D03*
%TD*%
%TO.C,R13*%
X33900000Y25700000D03*
X33900000Y26700000D03*
%TD*%
D22*
%TO.C,D5*%
X29875000Y30575000D03*
D23*
X29875000Y31425000D03*
X30725000Y30575000D03*
D24*
X30725000Y31425000D03*
%TD*%
D25*
%TO.C,J2*%
X21810000Y41000000D03*
X25190000Y41000000D03*
%TD*%
D17*
%TO.C,R3*%
X38150000Y25700000D03*
X38150000Y26700000D03*
%TD*%
D26*
%TO.C,SW1*%
X29000000Y38650000D03*
X29000000Y31350000D03*
%TD*%
D27*
%TO.C,R2*%
X48236837Y40630000D03*
X47236837Y40630000D03*
%TD*%
D28*
%TO.C,C1*%
X50400000Y33037500D03*
X50400000Y29962500D03*
%TD*%
D29*
%TO.C,C11*%
X53200000Y34000000D03*
X53200000Y33000000D03*
%TD*%
D30*
%TO.C,U4*%
X51937500Y42250000D03*
X51937500Y43200000D03*
X51937500Y44150000D03*
X49662500Y44150000D03*
X49662500Y42250000D03*
%TD*%
D31*
%TO.C,D4*%
X29875000Y39425000D03*
D23*
X30725000Y39425000D03*
X29875000Y38575000D03*
D32*
X30725000Y38575000D03*
%TD*%
D33*
%TO.C,J5*%
X55960000Y33910000D03*
X55960000Y39690000D03*
D34*
X54890000Y33600000D03*
X54890000Y34400000D03*
D35*
X54890000Y35550000D03*
X54890000Y36550000D03*
X54890000Y37050000D03*
X54890000Y38050000D03*
D34*
X54890000Y40000000D03*
X54890000Y39200000D03*
D35*
X54890000Y38550000D03*
X54890000Y37550000D03*
X54890000Y36050000D03*
X54890000Y35050000D03*
D36*
X55470000Y32480000D03*
D37*
X59660000Y32480000D03*
D38*
X59100000Y36800000D03*
D36*
X55470000Y41120000D03*
D37*
X59660000Y41120000D03*
%TD*%
D17*
%TO.C,R14*%
X33050000Y25700000D03*
X33050000Y26700000D03*
%TD*%
D27*
%TO.C,R1*%
X52950000Y40900000D03*
X51950000Y40900000D03*
%TD*%
D32*
%TO.C,D1*%
X52625000Y27175000D03*
D23*
X51775000Y27175000D03*
X52625000Y28025000D03*
D31*
X51775000Y28025000D03*
%TD*%
D29*
%TO.C,C9*%
X47625000Y39560000D03*
X47625000Y38560000D03*
%TD*%
D39*
%TO.C,D3*%
X54550000Y43600000D03*
X57850000Y43600000D03*
%TD*%
D40*
%TO.C,D2*%
X49075000Y36700000D03*
X49925000Y36700000D03*
%TD*%
D41*
%TO.C,PCB1*%
X2000000Y2000000D03*
D42*
X5000000Y65000000D03*
X5000000Y5000000D03*
D25*
X10000000Y66150000D03*
X10000000Y3850000D03*
D43*
X32000000Y66500000D03*
D25*
X32000000Y3500000D03*
X35000000Y66500000D03*
X35000000Y3500000D03*
X38000000Y66500000D03*
D43*
X38000000Y3500000D03*
D25*
X60000000Y66150000D03*
X60000000Y3850000D03*
D42*
X65000000Y65000000D03*
X65000000Y5000000D03*
D41*
X68000000Y68000000D03*
%TD*%
D44*
%TO.C,R7*%
X52400000Y35700000D03*
X53400000Y35700000D03*
%TD*%
D45*
%TO.C,C3*%
X49675000Y34500000D03*
X48125000Y34500000D03*
%TD*%
D44*
%TO.C,R5*%
X55000000Y31300000D03*
X56000000Y31300000D03*
%TD*%
D29*
%TO.C,C2*%
X47500000Y36600000D03*
X47500000Y35600000D03*
%TD*%
D46*
%TO.C,C4*%
X51300000Y26200000D03*
X52300000Y26200000D03*
%TD*%
D44*
%TO.C,R6*%
X59200000Y31300000D03*
X60200000Y31300000D03*
%TD*%
D47*
%TO.C,C10*%
X58000000Y41900000D03*
X57000000Y41900000D03*
%TD*%
D48*
%TO.C,J1*%
X60666000Y28325000D03*
X54334000Y28325000D03*
D49*
X58134000Y31175000D03*
X56884000Y31175000D03*
%TD*%
D50*
%TO.C,Q2*%
X52237500Y34750000D03*
X52237500Y36650000D03*
X50362500Y35700000D03*
%TD*%
D51*
%TO.C,C16*%
X48050000Y41750000D03*
X48050000Y43650000D03*
%TD*%
D29*
%TO.C,C6*%
X28000000Y39500000D03*
X28000000Y38500000D03*
%TD*%
D17*
%TO.C,R9*%
X37300000Y25700000D03*
X37300000Y26700000D03*
%TD*%
D29*
%TO.C,C5*%
X28000000Y31500000D03*
X28000000Y30500000D03*
%TD*%
D52*
%TO.C,R8*%
X52600000Y30700000D03*
X52600000Y29700000D03*
%TD*%
D53*
%TO.C,U6*%
X32000000Y40950000D03*
X32000000Y40100000D03*
X32000000Y39250000D03*
X32000000Y38400000D03*
X32000000Y37550000D03*
X32000000Y36700000D03*
X32000000Y35850000D03*
X32000000Y35000000D03*
X32000000Y34150000D03*
X32000000Y33300000D03*
X32000000Y32450000D03*
X32000000Y31600000D03*
X32000000Y30750000D03*
X32000000Y29900000D03*
X32000000Y29050000D03*
D54*
X33050000Y28000000D03*
X33900000Y28000000D03*
X34750000Y28000000D03*
X35600000Y28000000D03*
X36450000Y28000000D03*
X37300000Y28000000D03*
X38150000Y28000000D03*
X39000000Y28000000D03*
X39850000Y28000000D03*
X40700000Y28000000D03*
X41550000Y28000000D03*
X42400000Y28000000D03*
X43250000Y28000000D03*
X44100000Y28000000D03*
X44950000Y28000000D03*
D53*
X46000000Y29050000D03*
X46000000Y29900000D03*
X46000000Y30750000D03*
X46000000Y31600000D03*
X46000000Y32450000D03*
X46000000Y33300000D03*
X46000000Y34150000D03*
X46000000Y35000000D03*
X46000000Y35850000D03*
X46000000Y36700000D03*
X46000000Y37550000D03*
X46000000Y38400000D03*
X46000000Y39250000D03*
X46000000Y40100000D03*
X46000000Y40950000D03*
D54*
X44950000Y42000000D03*
X44100000Y42000000D03*
X43250000Y42000000D03*
X42400000Y42000000D03*
X41550000Y42000000D03*
X40700000Y42000000D03*
X39850000Y42000000D03*
X39000000Y42000000D03*
X38150000Y42000000D03*
X37300000Y42000000D03*
X36450000Y42000000D03*
X35600000Y42000000D03*
X34750000Y42000000D03*
X33900000Y42000000D03*
X33050000Y42000000D03*
D55*
X37350000Y36650000D03*
D56*
X37350000Y35000000D03*
X37350000Y33350000D03*
X39000000Y36650000D03*
X39000000Y35000000D03*
X39000000Y33350000D03*
X40650000Y36650000D03*
X40650000Y35000000D03*
X40650000Y33350000D03*
D57*
X32000000Y42000000D03*
X32000000Y28000000D03*
X46000000Y28000000D03*
X46000000Y42000000D03*
%TD*%
D58*
%TO.C,C7*%
X48700000Y37800000D03*
X48700000Y38800000D03*
%TD*%
D59*
%TO.C,J4*%
X44000000Y31000000D03*
X36000000Y31000000D03*
%TD*%
D60*
%TO.C,U2*%
X28000000Y25300000D03*
%TD*%
D61*
%TO.C,J3*%
X53110000Y31700000D03*
X48030000Y30684000D03*
X48030000Y32716000D03*
%TD*%
D60*
%TO.C,U1*%
X28000000Y44700000D03*
%TD*%
%LPD*%
M02*
